<svg width="116" height="133" viewBox="0 0 116 133" fill="none" xmlns="http://www.w3.org/2000/svg">
    <path d="M115.564 97.678V80.669L113.137 80.002L113.005 80.857L62.367 55.087C59.835 53.625 55.73 53.625 53.198 55.087L3.02798 80.118L0 80.785V97.689C0 98.647 0.632987 99.605 1.89899 100.336L53.198 129.954C55.73 131.416 59.835 131.416 62.367 129.954L113.666 100.337C114.937 99.603 115.569 98.64 115.564 97.678Z"
          fill="#A8522A"/>
    <path d="M115.564 81.9811V78.5781H113.137L113.005 78.9651L62.367 49.7291C59.835 48.2671 55.73 48.2671 53.198 49.7291L3.02798 78.6951H0V81.9931C0 82.9511 0.632987 83.9091 1.89899 84.6411L53.198 114.258C55.73 115.72 59.835 115.72 62.367 114.258L113.666 84.6411C114.937 83.9071 115.57 82.9441 115.565 81.9821L115.564 81.9811Z"
          fill="#C16037"/>
    <path d="M115.564 79.0069V75.6039H113.137L113.005 75.9909L62.367 46.7549C59.835 45.2929 55.73 45.2929 53.198 46.7549L3.02798 75.721H0V79.019C0 79.977 0.632987 80.9349 1.89899 81.6659L53.198 111.284C55.73 112.745 59.835 112.745 62.367 111.284L113.666 81.6669C114.937 80.9329 115.57 79.9699 115.565 79.0079L115.564 79.0069Z"
          fill="#C16037"/>
    <path d="M57.798 53.992C56.134 53.99 54.468 54.355 53.198 55.088L3.02798 80.1189L0 80.786V97.6899C0 98.6479 0.632987 99.606 1.89899 100.337L53.198 129.955C54.468 130.688 56.134 131.053 57.798 131.051V53.993V53.992Z"
          fill="#C96A3E"/>
    <path d="M57.798 48.6331C56.134 48.6311 54.468 48.9961 53.198 49.7291L3.02798 78.6951H0V81.9931C0 82.9511 0.632987 83.9091 1.89899 84.6411L53.198 114.258C54.468 114.991 56.134 115.356 57.798 115.354V48.6341V48.6331Z"
          fill="#EA8F67"/>
    <path d="M57.798 45.6589C56.134 45.6569 54.468 46.022 53.198 46.755L3.02798 75.721H0V79.019C0 79.977 0.632987 80.9349 1.89899 81.6659L53.198 111.284C54.468 112.017 56.134 112.382 57.798 112.38V45.66V45.6589Z"
          fill="#EA8F67"/>
    <path d="M62.366 107.986C59.834 109.448 55.729 109.448 53.198 107.986L1.899 78.3691C-0.633 76.9071 -0.633 74.5371 1.899 73.0751L53.198 43.4581C55.73 41.9961 59.835 41.9961 62.366 43.4581L113.665 73.0751C116.197 74.5371 116.197 76.9071 113.665 78.3691L62.366 107.986Z"
          fill="#D2704A"/>
    <g style="mix-blend-mode:multiply" opacity="0.3">
        <path d="M59 94C72.2548 94 83 89.9706 83 85C83 80.0294 72.2548 76 59 76C45.7452 76 35 80.0294 35 85C35 89.9706 45.7452 94 59 94Z"
              fill="#B85B3E"/>
    </g>
    <path d="M90.2199 9.31005C87.1469 12.5681 85.723 14.336 82.984 18.289C80.251 22.26 76.3959 28.2701 75.5239 27.8361C74.9669 27.5591 77.095 23.226 79.453 19.098C80.828 16.701 82.276 14.371 83.338 12.967C86.941 8.16005 93.1889 1.68004 95.5119 2.08204C95.6989 2.10004 95.8449 2.17204 95.9719 2.28104C97.7949 3.86804 92.9189 6.44005 90.2199 9.31005Z"
          fill="#00A000"/>
    <g style="mix-blend-mode:multiply" opacity="0.2">
        <path d="M90.2229 9.31117C87.1499 12.5692 85.7259 14.3372 82.9869 18.2902C80.2539 22.2612 76.3989 28.2712 75.5269 27.8372C75.3569 27.7532 75.4479 27.2692 75.7179 26.5122C76.9869 25.8452 80.3709 20.5972 82.8389 17.0082C85.5779 13.0552 87.003 11.2872 90.075 8.02917C92.098 5.87917 95.3359 3.89717 96.0769 2.37817C97.5909 3.97817 92.8609 6.50117 90.2229 9.31117Z"
              fill="#00A000"/>
    </g>
    <path d="M90.9549 6.95704C88.5399 9.22804 87.4229 10.4691 85.2199 13.2541C83.0299 16.0451 79.9089 20.307 79.3039 19.945C79.1889 19.873 79.2609 19.576 79.4539 19.098C80.8289 16.701 82.2769 14.371 83.3389 12.967C86.9419 8.16005 93.19 1.68004 95.513 2.08204C96.773 3.31404 93.0679 4.98804 90.9549 6.95704Z"
          fill="url(#paint0_linear_918_41353)"/>
    <path d="M96.655 13.8301C94.118 15.5271 89.526 17.9231 87.406 19.6011C85.298 21.2851 80.648 25.0411 79.048 26.9791C77.448 28.9161 77.189 29.2861 76.802 29.0931C76.415 28.9001 79.183 24.1611 81.948 21.1581C82.177 20.9101 82.407 20.6611 82.636 20.4431C85.039 17.9841 86.688 17.0691 86.688 17.0691C86.688 17.0691 92.003 13.1611 95.539 12.0071C96.947 11.5451 97.818 11.4651 98.193 11.6521C98.75 11.9291 98.177 12.8071 96.654 13.8311L96.655 13.8301Z"
          fill="#00CF24"/>
    <g style="mix-blend-mode:multiply" opacity="0.2">
        <path d="M96.646 13.8251C94.121 15.5281 89.517 17.9181 87.397 19.5961C85.289 21.2801 80.651 25.0421 79.039 26.9741C77.439 28.9111 77.18 29.2811 76.793 29.0881C76.72 29.0521 76.756 28.8581 76.889 28.5311L76.895 28.5191C77.209 28.3431 77.668 27.7561 78.76 26.4421C80.372 24.5101 85.01 20.7481 87.118 19.0641C89.244 17.3741 93.848 14.9841 96.373 13.2811C97.37 12.6141 97.955 12.0151 98.082 11.6101C98.796 11.8451 98.253 12.7521 96.646 13.8251Z"
              fill="#00CF24"/>
    </g>
    <path d="M74.6409 27.7891C74.1569 27.5481 75.6359 22.2432 75.5659 19.4432C75.5129 16.6382 76.2079 12.3012 74.4679 5.57316C74.4679 5.57316 73.6529 2.59916 74.4509 2.06016C74.5659 1.98116 74.6869 1.98115 74.8319 2.05315L74.8439 2.05915C75.7029 2.48715 76.9589 5.18215 77.4269 6.60815C77.8949 8.00415 78.3909 12.2241 78.3049 15.3991C78.2879 16.0101 78.2459 16.5781 78.1809 17.0742C77.7869 20.2012 77.1759 23.9151 76.5849 25.3731C76.0009 26.8491 75.1429 27.9941 74.6409 27.7891Z"
          fill="#00CF24"/>
    <g style="mix-blend-mode:multiply" opacity="0.2">
        <path d="M75.3549 27.6312C75.1319 27.8372 74.9139 27.9102 74.7509 27.8442C74.2789 27.6092 75.7579 22.3032 75.6879 19.5042C75.6229 16.6922 76.3299 12.3622 74.5779 5.62819C74.5779 5.62819 73.7759 2.66018 74.5729 2.12118C74.7299 2.01818 74.9049 2.06019 75.1109 2.22319C74.5619 3.02219 75.2549 5.57319 75.2549 5.57319C77.0069 12.3062 76.2999 16.6372 76.3649 19.4492C76.4229 22.0312 75.1789 26.7122 75.3549 27.6312Z"
              fill="#00CF24"/>
    </g>
    <path d="M98.194 11.6502C96.775 13.0732 94.571 14.7701 91.967 16.3881C88.082 18.8191 84.414 20.3601 82.637 20.4421C85.04 17.9831 86.689 17.0682 86.689 17.0682C86.689 17.0682 92.004 13.1602 95.54 12.0062C96.948 11.5442 97.819 11.4632 98.194 11.6502Z"
          fill="url(#paint1_linear_918_41353)"/>
    <path d="M78.305 15.4001C77.475 14.0351 76.576 11.744 75.859 9.09105C75.105 6.23805 74.7499 3.64406 74.8449 2.06006C75.7039 2.48806 76.9599 5.18305 77.4279 6.60905C77.8959 8.00505 78.391 12.2251 78.305 15.4001Z"
          fill="url(#paint2_linear_918_41353)"/>
    <path d="M94.628 18.481C90.6 20.439 88.642 21.588 84.681 24.315C80.719 27.061 74.985 31.316 74.324 30.602C73.902 30.146 77.426 26.847 81.093 23.822C83.228 22.068 85.407 20.401 86.898 19.464C91.97 16.245 100.108 12.398 102.138 13.596C102.307 13.679 102.417 13.798 102.497 13.945C103.639 16.075 98.169 16.753 94.628 18.481Z"
          fill="#00A000"/>
    <g style="mix-blend-mode:multiply" opacity="0.2">
        <path d="M94.63 18.4832C90.602 20.4412 88.644 21.5902 84.683 24.3172C80.721 27.0632 74.987 31.3182 74.326 30.6042C74.197 30.4652 74.453 30.0442 74.974 29.4332C76.397 29.2592 81.42 25.5492 85 23.0672C88.962 20.3412 90.9199 19.1922 94.9469 17.2332C97.5999 15.9392 101.33 15.2322 102.562 14.0742C103.411 16.1072 98.094 16.7902 94.631 18.4842L94.63 18.4832Z"
              fill="#00A000"/>
    </g>
    <path d="M96.149 16.5401C93.086 17.8081 91.602 18.5741 88.555 20.3981C85.518 22.2321 81.0909 25.1131 80.6529 24.5601C80.5709 24.4521 80.7439 24.2001 81.0929 23.8211C83.2279 22.0671 85.407 20.4001 86.898 19.4631C91.97 16.2441 100.108 12.3971 102.138 13.5951C102.88 15.1931 98.823 15.4471 96.149 16.5401Z"
          fill="url(#paint3_linear_918_41353)"/>
    <path d="M99.045 24.9862C96.071 25.6752 90.929 26.2882 88.352 27.1072C85.785 27.9362 80.105 29.8012 77.923 31.0472C75.741 32.2922 75.368 32.5462 75.074 32.2282C74.78 31.9102 79.0469 28.4592 82.6969 26.6302C82.9989 26.4792 83.302 26.3282 83.594 26.2062C86.712 24.7582 88.579 24.4852 88.579 24.4852C88.579 24.4852 94.934 22.7132 98.649 22.8862C100.13 22.9532 100.972 23.1862 101.257 23.4942C101.679 23.9502 100.833 24.5682 99.0459 24.9872L99.045 24.9862Z"
          fill="#00CF24"/>
    <g style="mix-blend-mode:multiply" opacity="0.2">
        <path d="M99.039 24.979C96.075 25.677 90.923 26.281 88.346 27.1C85.779 27.929 80.108 29.804 77.917 31.04C75.735 32.285 75.361 32.539 75.068 32.221C75.013 32.161 75.115 31.993 75.355 31.734L75.365 31.725C75.721 31.672 76.358 31.285 77.845 30.443C80.036 29.207 85.706 27.332 88.274 26.504C90.861 25.676 96.013 25.072 98.977 24.374C100.145 24.103 100.905 23.75 101.167 23.416C101.751 23.888 100.921 24.545 99.039 24.979Z"
              fill="#00CF24"/>
    </g>
    <path d="M73.5149 30.244C73.1479 29.847 76.4099 25.41 77.3359 22.766C78.2799 20.124 80.4659 16.314 81.2219 9.40601C81.2219 9.40601 81.5129 6.33602 82.4499 6.11402C82.5849 6.08102 82.6979 6.12402 82.8089 6.24302L82.8179 6.25301C83.4699 6.95801 83.6899 9.92302 83.6219 11.422C83.5649 12.893 82.5339 17.015 81.3299 19.954C81.0979 20.519 80.8569 21.036 80.6199 21.476C79.1439 24.26 77.2569 27.517 76.1879 28.672C75.1189 29.846 73.9119 30.613 73.5149 30.244Z"
          fill="#00CF24"/>
    <g style="mix-blend-mode:multiply" opacity="0.2">
        <path d="M74.2379 30.3492C73.9559 30.4632 73.7269 30.4542 73.5979 30.3342C73.2399 29.9472 76.5019 25.5092 77.4279 22.8662C78.3629 20.2142 80.5579 16.4142 81.3049 9.4962C81.3049 9.4962 81.6059 6.4372 82.5419 6.2142C82.7249 6.1732 82.8749 6.27521 83.0089 6.50021C82.2129 7.05321 81.9569 9.6842 81.9569 9.6842C81.2099 16.6012 79.0149 20.4012 78.0799 23.0542C77.2199 25.4892 74.3979 29.4272 74.2379 30.3492Z"
              fill="#00CF24"/>
    </g>
    <path d="M101.256 23.4932C99.4249 24.3212 96.7629 25.1272 93.7539 25.7182C89.2599 26.6152 85.2839 26.7582 83.5929 26.2042C86.7109 24.7562 88.5779 24.4832 88.5779 24.4832C88.5779 24.4832 94.9329 22.7112 98.6479 22.8842C100.129 22.9512 100.971 23.1842 101.256 23.4922V23.4932Z"
          fill="url(#paint4_linear_918_41353)"/>
    <path d="M81.3289 19.9552C81.0359 18.3842 81.007 15.9242 81.276 13.1882C81.581 10.2532 82.1679 7.70217 82.8169 6.25317C83.4689 6.95817 83.6889 9.92318 83.6209 11.4222C83.5639 12.8932 82.5329 17.0162 81.3289 19.9552Z"
          fill="url(#paint5_linear_918_41353)"/>
    <path d="M82.1159 36.6121C79.8359 40.4321 76.3869 45.2121 72.3659 50.2921C72.1559 50.5521 71.9559 50.8121 71.7359 51.0721C70.6859 52.3821 69.6159 53.7121 68.5059 55.0421C68.2859 55.3121 68.0659 55.5721 67.8459 55.8421C63.3959 61.1821 58.5959 66.5821 54.0959 71.3521C53.8759 71.5921 53.6459 71.8321 53.4259 72.0621C52.9559 72.5521 52.5059 73.0321 52.0559 73.5021C51.7659 73.7921 51.4859 74.0921 51.2059 74.3821C44.3859 81.3921 38.6959 86.4421 36.6959 86.8021C36.6259 86.812 36.5559 86.823 36.4859 86.823C36.3559 86.823 36.2459 86.7931 36.1559 86.7331C35.9059 86.5531 35.7059 86.2831 35.5759 85.9031C34.5859 83.0831 37.3059 74.1031 51.0759 50.8731C54.7759 44.6231 59.2759 37.3431 64.7259 28.8731C66.6559 25.8831 70.1559 22.9731 74.3059 23.5331C74.9759 23.6231 75.6659 23.8031 76.3659 24.0831C77.1959 24.4231 78.0559 24.9131 78.9159 25.5631C79.9959 26.3831 80.8159 27.2131 81.4359 28.0331C84.3359 31.8131 82.8859 35.3121 82.1159 36.6121Z"
          fill="#FF8E00"/>
    <path d="M72.3029 27.096C72.2729 26.882 72.4159 26.68 72.6299 26.64C74.0459 26.373 75.5569 27.164 76.1439 28.48C76.2349 28.685 76.1439 28.925 75.9379 29.017C75.7329 29.109 75.4929 29.017 75.4009 28.811C74.9709 27.847 73.8199 27.244 72.7809 27.439C72.5599 27.481 72.3479 27.336 72.3059 27.115C72.3059 27.109 72.3039 27.102 72.3029 27.096Z"
          fill="#FF7200"/>
    <path d="M65.004 34.513C64.974 34.299 65.117 34.098 65.332 34.057C66.748 33.79 68.259 34.581 68.845 35.897C68.936 36.102 68.845 36.342 68.639 36.434C68.434 36.526 68.194 36.434 68.102 36.228C67.672 35.264 66.521 34.661 65.482 34.856C65.261 34.898 65.049 34.753 65.007 34.532L65.004 34.513Z"
          fill="#FF7200"/>
    <path d="M63.427 45.5221C63.397 45.3081 63.5389 45.1061 63.7539 45.0661C65.1699 44.7991 66.681 45.5901 67.268 46.9061C67.359 47.1111 67.268 47.3511 67.062 47.4431C66.857 47.5351 66.6169 47.4431 66.5249 47.2371C66.0949 46.2731 64.9439 45.6701 63.9049 45.8651C63.6839 45.9071 63.472 45.7621 63.43 45.5411C63.428 45.5351 63.428 45.5281 63.427 45.5221Z"
          fill="#FF7200"/>
    <path d="M54.628 49.7841C54.598 49.5701 54.74 49.3681 54.955 49.3281C56.371 49.0611 57.881 49.8511 58.469 51.1671C58.56 51.3721 58.469 51.6121 58.263 51.7041C58.058 51.7961 57.818 51.7041 57.726 51.4991C57.295 50.5341 56.145 49.9321 55.106 50.1271C54.885 50.1681 54.672 50.0231 54.631 49.8021C54.629 49.7961 54.628 49.7901 54.628 49.7841Z"
          fill="#FF7200"/>
    <path d="M52.421 60.08C52.391 59.866 52.533 59.664 52.748 59.624C54.164 59.356 55.674 60.147 56.262 61.463C56.353 61.668 56.262 61.908 56.056 62C55.851 62.092 55.611 62 55.519 61.795C55.088 60.83 53.938 60.228 52.899 60.423C52.678 60.464 52.465 60.3191 52.424 60.0981C52.422 60.0921 52.421 60.085 52.421 60.08Z"
          fill="#FF7200"/>
    <path d="M45.2369 65.8602C45.2069 65.6462 45.3499 65.4442 45.5649 65.4042C46.9809 65.1372 48.4919 65.9282 49.0779 67.2442C49.1689 67.4482 49.0779 67.6892 48.8719 67.7812C48.6669 67.8732 48.4268 67.7812 48.3348 67.5752C47.9048 66.6102 46.7538 66.0082 45.7148 66.2032C45.4938 66.2452 45.2819 66.0992 45.2399 65.8782C45.2399 65.8722 45.2379 65.8662 45.2369 65.8602Z"
          fill="#FF7200"/>
    <path d="M74.1888 36.998C74.2378 36.787 74.4449 36.6511 74.6589 36.6911C76.0759 36.9551 77.1978 38.238 77.2698 39.677C77.2798 39.901 77.1079 40.0921 76.8829 40.1031C76.6589 40.1151 76.4678 39.9421 76.4568 39.7171C76.4038 38.6621 75.5489 37.6841 74.5109 37.4901C74.2899 37.4491 74.1439 37.2361 74.1849 37.0161C74.1849 37.0101 74.1869 37.0041 74.1879 36.9971L74.1888 36.998Z"
          fill="#E86400"/>
    <path opacity="0.2"
          d="M74.3069 23.5331C73.9269 27.1131 72.8869 31.0831 71.1769 35.0831C66.2769 46.5231 57.6969 53.8331 52.0269 51.4031C51.6969 51.2631 51.3769 51.0831 51.0769 50.8731C54.7769 44.6231 59.2769 37.3431 64.7269 28.8731C66.6569 25.8831 70.1569 22.9731 74.3069 23.5331Z"
          fill="#F9E6CC"/>
    <g style="mix-blend-mode:multiply" opacity="0.5">
        <path d="M82.1159 36.6122C79.8359 40.4322 76.3869 45.2122 72.3659 50.2922H72.3559C72.1459 50.5522 71.9459 50.8122 71.7359 51.0722C70.6859 52.3822 69.6159 53.7122 68.5059 55.0422C68.2859 55.3122 68.0659 55.5722 67.8459 55.8422C63.3959 61.1822 58.5959 66.5822 54.0959 71.3522C53.8759 71.5922 53.6459 71.8322 53.4259 72.0622C52.9559 72.5522 52.5059 73.0322 52.0559 73.5022C51.7659 73.8022 51.4759 74.0922 51.2059 74.3822C44.3859 81.3922 38.6959 86.4422 36.6959 86.8022C36.6259 86.8122 36.5559 86.8232 36.4859 86.8232C36.3559 86.8232 36.2459 86.7932 36.1559 86.7332C35.9059 86.5532 35.7059 86.2832 35.5759 85.9032C52.4959 69.2732 63.2359 56.7432 70.0659 47.5432C70.2359 47.2932 70.4459 47.0032 70.6759 46.7132C71.1859 46.0132 71.6759 45.3332 72.1359 44.6832C79.1559 33.9632 74.3059 23.5332 74.3059 23.5332C74.9759 23.6232 75.6659 23.8032 76.3659 24.0832C77.1959 24.4232 78.0559 24.9132 78.9159 25.5632C79.9959 26.3832 80.8159 27.2132 81.4359 28.0332C84.3359 31.8132 82.8859 35.3122 82.1159 36.6122Z"
              fill="#FF8E00"/>
    </g>
    <g filter="url(#filter0_f_918_41353)">
        <path d="M40.8524 17.4132C41.3478 15.7855 43.6522 15.7855 44.1476 17.4132L45.8494 23.0045C46.0166 23.5536 46.4463 23.9834 46.9955 24.1506L52.5868 25.8524C54.2145 26.3478 54.2145 28.6522 52.5868 29.1476L46.9955 30.8494C46.4463 31.0166 46.0166 31.4463 45.8494 31.9955L44.1476 37.5868C43.6522 39.2145 41.3478 39.2145 40.8524 37.5868L39.1506 31.9955C38.9834 31.4463 38.5536 31.0166 38.0045 30.8494L32.4132 29.1476C30.7855 28.6522 30.7855 26.3478 32.4132 25.8524L38.0045 24.1506C38.5536 23.9834 38.9834 23.5536 39.1506 23.0045L40.8524 17.4132Z"
              fill="#FDCB1B"/>
    </g>
    <path d="M40.8524 17.4132C41.3478 15.7855 43.6522 15.7855 44.1476 17.4132L45.8494 23.0045C46.0166 23.5536 46.4463 23.9834 46.9955 24.1506L52.5868 25.8524C54.2145 26.3478 54.2145 28.6522 52.5868 29.1476L46.9955 30.8494C46.4463 31.0166 46.0166 31.4463 45.8494 31.9955L44.1476 37.5868C43.6522 39.2145 41.3478 39.2145 40.8524 37.5868L39.1506 31.9955C38.9834 31.4463 38.5536 31.0166 38.0045 30.8494L32.4132 29.1476C30.7855 28.6522 30.7855 26.3478 32.4132 25.8524L38.0045 24.1506C38.5536 23.9834 38.9834 23.5536 39.1506 23.0045L40.8524 17.4132Z"
          fill="#FDCB1B"/>
    <g filter="url(#filter1_f_918_41353)">
        <path d="M76.1713 67.3655C76.5708 66.0528 78.4292 66.0528 78.8287 67.3655L80.2011 71.8746C80.3359 72.3175 80.6825 72.6641 81.1254 72.7989L85.6345 74.1713C86.9472 74.5708 86.9472 76.4292 85.6345 76.8287L81.1254 78.2011C80.6825 78.3359 80.3359 78.6825 80.2011 79.1254L78.8287 83.6345C78.4292 84.9472 76.5708 84.9472 76.1713 83.6345L74.7989 79.1254C74.6641 78.6825 74.3175 78.3359 73.8746 78.2011L69.3655 76.8287C68.0528 76.4292 68.0528 74.5708 69.3655 74.1713L73.8746 72.7989C74.3175 72.6641 74.6641 72.3175 74.7989 71.8746L76.1713 67.3655Z"
              fill="#FDCB1B"/>
    </g>
    <path d="M76.1713 67.3655C76.5708 66.0528 78.4292 66.0528 78.8287 67.3655L80.2011 71.8746C80.3359 72.3175 80.6825 72.6641 81.1254 72.7989L85.6345 74.1713C86.9472 74.5708 86.9472 76.4292 85.6345 76.8287L81.1254 78.2011C80.6825 78.3359 80.3359 78.6825 80.2011 79.1254L78.8287 83.6345C78.4292 84.9472 76.5708 84.9472 76.1713 83.6345L74.7989 79.1254C74.6641 78.6825 74.3175 78.3359 73.8746 78.2011L69.3655 76.8287C68.0528 76.4292 68.0528 74.5708 69.3655 74.1713L73.8746 72.7989C74.3175 72.6641 74.6641 72.3175 74.7989 71.8746L76.1713 67.3655Z"
          fill="#FDCB1B"/>
    <defs>
        <filter id="filter0_f_918_41353" x="27.1924" y="12.1924" width="30.6151" height="30.6152"
                filterUnits="userSpaceOnUse" color-interpolation-filters="sRGB">
            <feFlood flood-opacity="0" result="BackgroundImageFix"/>
            <feBlend mode="normal" in="SourceGraphic" in2="BackgroundImageFix" result="shape"/>
            <feGaussianBlur stdDeviation="2" result="effect1_foregroundBlur_918_41353"/>
        </filter>
        <filter id="filter1_f_918_41353" x="64.381" y="62.381" width="26.238" height="26.238"
                filterUnits="userSpaceOnUse" color-interpolation-filters="sRGB">
            <feFlood flood-opacity="0" result="BackgroundImageFix"/>
            <feBlend mode="normal" in="SourceGraphic" in2="BackgroundImageFix" result="shape"/>
            <feGaussianBlur stdDeviation="2" result="effect1_foregroundBlur_918_41353"/>
        </filter>
        <linearGradient id="paint0_linear_918_41353" x1="81.7569" y1="-7.83025" x2="88.6433" y2="14.944"
                        gradientUnits="userSpaceOnUse">
            <stop stop-color="white"/>
            <stop offset="1" stop-color="white" stop-opacity="0"/>
        </linearGradient>
        <linearGradient id="paint1_linear_918_41353" x1="89.7744" y1="-10.332" x2="90.5798" y2="22.8787"
                        gradientUnits="userSpaceOnUse">
            <stop stop-color="white"/>
            <stop offset="1" stop-color="white" stop-opacity="0"/>
        </linearGradient>
        <linearGradient id="paint2_linear_918_41353" x1="87.9966" y1="-5.0965" x2="75.3396" y2="10.221"
                        gradientUnits="userSpaceOnUse">
            <stop stop-color="white"/>
            <stop offset="1" stop-color="white" stop-opacity="0"/>
        </linearGradient>
        <linearGradient id="paint3_linear_918_41353" x1="92.7714" y1="-0.571986" x2="91.1446" y2="23.1642"
                        gradientUnits="userSpaceOnUse">
            <stop stop-color="white"/>
            <stop offset="1" stop-color="white" stop-opacity="0"/>
        </linearGradient>
        <linearGradient id="paint4_linear_918_41353" x1="101.155" y1="-0.0733232" x2="90.1452" y2="31.2706"
                        gradientUnits="userSpaceOnUse">
            <stop stop-color="white"/>
            <stop offset="1" stop-color="white" stop-opacity="0"/>
        </linearGradient>
        <linearGradient id="paint5_linear_918_41353" x1="97.6389" y1="4.19394" x2="80.3766" y2="14.0349"
                        gradientUnits="userSpaceOnUse">
            <stop stop-color="white"/>
            <stop offset="1" stop-color="white" stop-opacity="0"/>
        </linearGradient>
    </defs>
</svg>
