<svg width="32" height="32" viewBox="0 0 32 32" fill="none" xmlns="http://www.w3.org/2000/svg">
    <path d="M22.1567 26.9135L22.1566 26.9135L11.9738 16.5L22.1566 6.08653L22.1567 6.08652C22.4037 5.83389 22.5416 5.49223 22.5416 5.13694C22.5416 4.78165 22.4037 4.43999 22.1567 4.18736C21.9095 3.93457 21.5733 3.79167 21.2217 3.79167C20.8701 3.79167 20.5338 3.93457 20.2867 4.18736L9.17689 15.5503C9.17687 15.5504 9.17684 15.5504 9.17681 15.5504C9.05441 15.6755 8.95756 15.8237 8.89155 15.9866C8.82553 16.1495 8.79161 16.3239 8.79161 16.5C8.79161 16.6761 8.82553 16.8505 8.89155 17.0134C8.95756 17.1762 9.05441 17.3245 9.17681 17.4496C9.17684 17.4496 9.17687 17.4496 9.17689 17.4497L20.2867 28.8126C20.409 28.9378 20.5545 29.0373 20.715 29.1053C20.8755 29.1733 21.0477 29.2083 21.2217 29.2083C21.3957 29.2083 21.5678 29.1733 21.7283 29.1053C21.8888 29.0373 22.0343 28.9378 22.1567 28.8126C22.279 28.6875 22.3758 28.5392 22.4418 28.3763C22.5077 28.2135 22.5416 28.0391 22.5416 27.8631C22.5416 27.687 22.5077 27.5126 22.4418 27.3498C22.3758 27.1869 22.279 27.0386 22.1567 26.9135Z"
          fill="white" stroke="white" stroke-width="0.416667"/>
</svg>
