<svg width="40" height="40" viewBox="0 0 40 40" fill="none" xmlns="http://www.w3.org/2000/svg">
    <g filter="url(#filter0_f_918_44830)">
        <path d="M20 36C28.8366 36 36 28.8366 36 20C36 11.1634 28.8366 4 20 4C11.1634 4 4 11.1634 4 20C4 28.8366 11.1634 36 20 36Z"
              fill="#FFAA29"/>
    </g>
    <path d="M20.0779 34.9255C28.2733 34.9255 34.917 28.2818 34.917 20.0863C34.917 11.8909 28.2733 5.24716 20.0779 5.24716C11.8824 5.24716 5.23871 11.8909 5.23871 20.0863C5.23871 28.2818 11.8824 34.9255 20.0779 34.9255Z"
          fill="#FFAA29"/>
    <path d="M14.1788 23.1709L14.2877 22.493H16.8531L16.7225 23.3113C16.4614 24.9015 16.636 25.1349 17.2006 25.1349H18.3531L19.1141 20.4825L17.8093 20.1543C16.0481 19.7098 14.8956 19.056 15.4394 15.7121C15.9833 12.3681 17.1133 11.3155 19.1573 11.3155H20.3755L20.7663 9.00009H22.8968L22.5059 11.3155H23.5711C25.5926 11.3155 26.3759 12.3681 25.8321 15.7121L25.7457 16.297H23.2012L23.3101 15.5958C23.5712 14.0996 23.3973 13.8653 22.8103 13.8653H21.8756L21.158 18.2377L22.6148 18.6124C24.3544 19.0569 25.5062 19.7107 24.9407 23.1718C24.3753 26.6329 23.2451 27.6847 21.2012 27.6847H19.8317L19.4616 30.0001H17.3312L17.7012 27.6847H16.4182C14.3967 27.6847 13.6134 26.632 14.1788 23.1718V23.1709ZM18.9618 17.6993L19.5481 17.8397L20.2226 13.8644H19.1573C18.5918 13.8644 18.3532 14.0978 18.0921 15.5949C17.8318 17.2083 18.0055 17.4659 18.9618 17.6993ZM21.2012 25.1349C21.7883 25.1349 22.027 24.9015 22.2881 23.3113C22.5708 21.5575 22.397 21.3473 21.4623 21.0898L20.7231 20.9029L20.0271 25.1349H21.2012Z"
          fill="#350024"/>
    <defs>
        <filter id="filter0_f_918_44830" x="0" y="0" width="40" height="40" filterUnits="userSpaceOnUse"
                color-interpolation-filters="sRGB">
            <feFlood flood-opacity="0" result="BackgroundImageFix"/>
            <feBlend mode="normal" in="SourceGraphic" in2="BackgroundImageFix" result="shape"/>
            <feGaussianBlur stdDeviation="2" result="effect1_foregroundBlur_918_44830"/>
        </filter>
    </defs>
</svg>
