<svg width="30" height="30" viewBox="0 0 30 30" fill="none" xmlns="http://www.w3.org/2000/svg">
    <path d="M0.189398 14.1561C0.0256012 14.9576 -0.0310071 15.7756 0.0158983 16.5914C0.0605701 17.3658 0.0918746 18.1538 0.553484 18.8081C0.735149 19.0657 0.960701 19.2918 1.21831 19.4721C1.38955 19.5915 1.59287 19.6516 1.76262 19.7643C1.80357 19.7914 1.84445 19.8131 1.84296 19.868C1.84073 19.9724 1.64197 20.0813 1.57421 20.1376C1.43797 20.2503 1.30098 20.3795 1.25184 20.556C1.16473 20.8685 1.31587 21.1945 1.44988 21.4687C1.75886 22.1012 2.10656 22.7149 2.48925 23.3045C4.03117 25.6775 5.81062 28.1113 8.5222 29.1832C10.0738 29.797 11.714 29.8533 13.3565 29.9336C15.0801 30.0215 16.8066 30.0238 18.5242 29.9307C20.0661 29.8473 21.7584 29.7203 23.0763 28.9121C24.0523 28.3089 24.8274 27.4089 25.4283 26.503C26.417 25.0105 27.2806 23.433 28.0125 21.797C28.081 21.6437 28.1778 21.495 28.1837 21.326C28.1867 21.2449 28.1949 21.169 28.1837 21.0878C28.1621 20.9293 28.0959 20.7769 27.9917 20.6559C28.2836 20.5154 28.5076 20.257 28.6595 19.9693C28.7422 19.8131 28.8054 19.6471 28.8576 19.4789C28.9015 19.3376 28.935 19.2009 29.0176 19.0762C29.197 18.8051 29.2619 18.4633 29.349 18.1523C29.5537 17.4207 29.722 16.6785 29.8463 15.9288C29.8642 15.8199 29.8813 15.711 29.8976 15.6021C29.9676 15.1228 30.0183 14.6383 29.9937 14.1561C29.993 14.1087 29.9878 14.0607 29.9855 14.0178C29.9155 15.8176 29.3028 17.3921 28.5739 19.0725C27.8078 20.8415 26.8942 22.5369 25.8384 24.1406C25.2421 25.0473 24.4708 25.9487 23.4984 26.5526C22.1881 27.3662 20.5046 27.4909 18.9739 27.5772C17.2645 27.6726 15.5491 27.6726 13.8374 27.5877C12.2062 27.5104 10.5734 27.4593 9.0337 26.8448C7.38531 26.1891 6.02873 24.9849 4.93651 23.6584C3.74898 22.2123 2.80644 20.5388 1.99565 18.9974C0.711333 16.5523 0.229561 14.0344 0.854222 11.4857C0.548965 12.363 0.365142 13.2997 0.187944 14.1568L0.189398 14.1561Z"
          fill="url(#paint0_linear_920_39277)"/>
    <path d="M29.9893 13.8834C29.9893 13.9307 29.9893 13.9735 29.9855 14.0164C29.9506 14.902 29.7838 15.7396 29.5351 16.5546C29.2827 17.3929 28.9446 18.2192 28.5761 19.0695C28.3431 19.6021 28.0989 20.1272 27.842 20.6485C27.8264 20.68 27.8108 20.7153 27.7914 20.7461C27.2092 21.9172 26.5569 23.0492 25.8385 24.1384C25.5861 24.526 25.2987 24.9144 24.9763 25.2742C24.549 25.7602 24.0561 26.2064 23.497 26.5512C22.1888 27.3662 20.5032 27.4871 18.9739 27.5773C17.2652 27.6712 15.5499 27.6711 13.8374 27.5848C12.2069 27.5066 10.5719 27.4556 9.03444 26.8441C7.38456 26.1861 6.02955 24.9835 4.93807 23.6554C4.93434 23.6479 4.92616 23.6434 4.92243 23.6359C4.11909 22.6526 3.42367 21.5679 2.8139 20.4862C2.63893 20.1843 2.47218 19.883 2.30912 19.5855C2.20042 19.3857 2.09545 19.1897 1.99493 18.9944C1.86687 18.7518 1.74991 18.5129 1.63748 18.2695C1.10142 17.0984 0.755994 15.9078 0.631658 14.7089C0.561672 14.0194 0.561665 13.3298 0.643563 12.6365C0.690469 12.2526 0.759697 11.8688 0.853508 11.4849C0.965932 11.038 1.11334 10.5843 1.29203 10.1298C1.34266 10.0081 1.38882 9.88267 1.44317 9.76173C1.6025 9.36211 1.76926 8.96627 1.94795 8.57491C2.04474 8.35933 2.14236 8.14822 2.24287 7.93263C2.44836 7.49394 2.6702 7.05526 2.90324 6.62409C3.05885 6.33789 3.21741 6.05622 3.38866 5.77828C3.59861 5.42148 3.81972 5.07293 4.05275 4.72814C4.06467 4.70485 4.08031 4.68533 4.0952 4.66129C4.21134 4.48927 4.32822 4.32028 4.44883 4.15202C4.55009 4.0108 4.64696 3.87406 4.75193 3.74035C4.76757 3.71706 4.78693 3.69303 4.80628 3.66974C5.70344 2.49491 6.76662 1.46054 8.26982 0.954999C11.4616 -0.118425 14.7807 -0.102618 18.2361 0.124236C19.6261 0.218132 21.1755 0.476504 22.2737 1.35012C24.5564 3.17546 26.548 5.30654 28.1324 7.70353C28.1518 7.73132 28.1711 7.75461 28.1867 7.78165C28.8077 8.72212 29.2774 9.75198 29.5805 10.8254C29.5805 10.8292 29.5842 10.8329 29.5842 10.8412C29.6423 11.041 29.6929 11.2408 29.7353 11.4443C29.7703 11.5968 29.8016 11.7501 29.8284 11.9064C29.8284 11.9139 29.8321 11.9184 29.8321 11.9259V11.9296C29.9096 12.3563 29.9565 12.7912 29.9795 13.2261C29.9915 13.4492 29.9915 13.6686 29.987 13.8804L29.9893 13.8834Z"
          fill="url(#paint1_linear_920_39277)"/>
    <path d="M29.9893 13.8834C29.9893 13.9307 29.9893 13.9735 29.9856 14.0163C29.9506 14.902 29.7838 15.7396 29.5351 16.5546C28.6618 16.5118 27.7765 16.4487 26.8719 16.3938C23.3079 16.1625 19.7437 15.9551 16.1752 15.7628C10.9531 15.4849 5.78155 15.3204 0.633122 14.7089C0.563136 14.0194 0.56313 13.3298 0.645028 12.6365C5.79718 12.2601 10.9493 12.3976 16.1752 12.511C16.2452 12.5148 16.3153 12.5148 16.3852 12.5185C16.0859 12.4712 15.7873 12.4209 15.488 12.3773C10.9412 11.6719 5.92903 11.198 1.44473 9.76098C1.60406 9.36136 1.77081 8.96548 1.9495 8.57412C2.04629 8.35853 2.14382 8.14747 2.24433 7.93188C2.44982 7.4932 2.67167 7.05451 2.9047 6.62334C3.06031 6.33714 3.21888 6.05547 3.39012 5.77754C7.72329 5.65209 12.1958 6.28306 16.3502 6.64287C19.7825 6.93658 23.2342 7.16795 26.6583 7.52851C27.1511 7.57959 27.6447 7.63817 28.1339 7.70503C28.1532 7.73282 28.1726 7.75611 28.1882 7.78315C28.8092 8.72362 29.279 9.75347 29.582 10.8269C29.582 10.8307 29.5858 10.8344 29.5858 10.8427C29.6438 11.0425 29.6945 11.2423 29.7369 11.4458C29.7719 11.5983 29.8032 11.7516 29.83 11.9078C29.83 11.9153 29.8337 11.9198 29.8337 11.9273V11.9311C29.9111 12.3578 29.958 12.7927 29.9811 13.2276C29.993 13.4507 29.993 13.6701 29.9886 13.8819L29.9893 13.8834ZM27.7378 20.7424C26.2279 20.5779 24.7366 20.4291 23.2185 20.3901C20.2054 20.3074 17.1968 20.1827 14.1874 20.0137C11.1742 19.8454 8.2043 19.6727 5.18001 19.6809C4.29477 19.6809 3.30081 19.6028 2.31059 19.587C2.47364 19.8845 2.6404 20.1865 2.81536 20.4877C3.42514 21.5686 4.11981 22.6541 4.9239 23.6374C7.8782 24.1895 10.802 24.4877 13.8151 24.7108C16.82 24.9301 19.8294 25.1067 22.8418 25.2434C23.564 25.2749 24.2705 25.2824 24.9771 25.2749C25.2994 24.9144 25.5869 24.5267 25.8393 24.1391C26.5578 23.0499 27.2099 21.9179 27.7921 20.7469C27.7728 20.7469 27.7571 20.7461 27.7378 20.7424Z"
          fill="url(#paint2_linear_920_39277)"/>
    <path d="M28.1881 7.78389C28.809 8.72435 29.2789 9.75421 29.5819 10.8276C29.5119 10.6827 29.4308 10.546 29.3608 10.416C29.1121 9.94953 28.8485 9.48756 28.5723 9.03686C28.0407 8.17902 27.4578 7.35272 26.8294 6.56475C26.5613 6.22822 26.2472 5.92624 26.0916 5.5146C25.9598 5.16981 25.6798 4.89942 25.4274 4.64102C24.5808 3.77116 23.5833 3.08231 22.663 2.30259C22.1314 1.85189 21.611 1.36662 20.9856 1.0609C20.3721 0.763431 19.6885 0.657528 19.0133 0.622223C18.7646 0.606448 18.5204 0.602688 18.2717 0.598932C18.1705 0.598932 18.0737 0.602694 17.9769 0.567389C17.8682 0.532084 17.7521 0.528329 17.6389 0.512555C17.3247 0.47725 17.0135 0.450215 16.6993 0.426178C14.086 0.230122 11.4421 0.453989 8.89956 1.09248C8.43349 1.20967 7.96372 1.34337 7.5371 1.57022C7.47531 1.60552 7.41649 1.64082 7.3547 1.67613C6.95488 1.92702 6.60572 2.24403 6.24463 2.546C6.06594 2.69849 5.88346 2.84795 5.68914 2.98091C5.61171 3.03575 5.538 3.07481 5.45238 3.11387C5.31613 3.18072 5.2387 3.32568 5.15755 3.45113C4.98258 3.72155 4.8739 4.00326 4.74211 4.28945C4.71903 4.33678 4.69968 4.37207 4.68776 4.42691C4.65277 4.57939 4.62969 4.73641 4.59842 4.89341C4.40857 4.8859 4.21798 4.83102 4.05493 4.72886C4.06684 4.70557 4.08248 4.68605 4.09737 4.66201C4.21352 4.49 4.33039 4.321 4.45101 4.15274C4.55227 4.01152 4.64904 3.87482 4.75402 3.74111C4.76965 3.71783 4.78901 3.69375 4.80837 3.67046C5.70553 2.49563 6.7687 1.4613 8.27191 0.955766C11.4637 -0.117658 14.7828 -0.101897 18.2382 0.124957C19.6282 0.218854 21.1777 0.477271 22.2758 1.35088C24.5824 3.19576 26.5934 5.35462 28.1889 7.78315L28.1881 7.78389Z"
          fill="#F98C3A"/>
    <path d="M29.8306 11.9086C29.8231 11.9597 29.8112 12.0063 29.7993 12.0573C29.768 11.8613 29.7181 11.666 29.7375 11.4662V11.4467C29.7725 11.5991 29.8038 11.7524 29.8306 11.9086Z"
          fill="#F98C3A"/>
    <path d="M27.8925 13.175C28.258 13.178 28.6385 13.1848 28.9654 13.35C29.5052 13.6242 29.7575 14.2529 29.9131 14.8418C29.9764 14.3213 29.9682 13.7925 29.8893 13.2742C29.8759 13.1848 29.8588 13.0931 29.8089 13.018C29.7515 12.9316 29.657 12.8783 29.5625 12.8355C28.7815 12.4824 27.8791 12.6725 27.0341 12.81C26.5121 12.8948 25.9865 12.9579 25.4594 12.9985C24.93 13.039 24.3992 13.0571 23.8691 13.0526C23.7686 13.0518 23.6419 13.0255 23.5503 13.0773C23.4238 13.1487 23.5809 13.1397 23.6442 13.1405C23.9145 13.1427 24.1847 13.145 24.4557 13.1472C24.9948 13.1517 25.5331 13.1562 26.0721 13.1607L27.6944 13.1743C27.7607 13.1743 27.8262 13.175 27.8925 13.1758V13.175Z"
          fill="#F98C3A"/>
    <path d="M25.8392 24.1383C25.245 25.0472 24.4722 25.9478 23.4976 26.551C22.1895 27.366 20.5038 27.487 18.9745 27.5771C17.2658 27.671 15.5505 27.671 13.8381 27.5846C12.2076 27.5065 10.5725 27.4554 9.03507 26.844C7.38519 26.186 6.03018 24.9833 4.9387 23.6553C4.12716 22.6682 3.42801 21.5753 2.81526 20.4861C2.52415 19.9851 2.25241 19.4833 1.99629 18.9935C1.86823 18.7509 1.75135 18.512 1.63893 18.2686C0.625624 16.0511 0.292091 13.7796 0.854956 11.484C0.96738 11.0371 1.11479 10.5834 1.29348 10.1289C1.4059 9.84347 1.52199 9.55953 1.64111 9.27784C1.78481 8.93756 1.95385 8.61304 2.08563 8.27125C2.21592 7.93323 2.36554 7.60272 2.53306 7.28121C2.86586 6.64197 3.27021 6.04104 3.73629 5.49269C3.80851 5.40781 3.8852 5.32218 3.98795 5.27936C4.08101 5.2403 4.18443 5.24105 4.28569 5.24406C4.62296 5.25382 4.95955 5.28084 5.29533 5.31164C6.3548 5.40779 7.41947 5.7586 8.49458 5.73756C9.02915 5.72705 9.55849 5.62715 10.0931 5.60236C10.3663 5.58959 10.6403 5.59633 10.9136 5.61286C11.0506 5.62112 11.1868 5.63089 11.323 5.64215C11.3915 5.64741 11.4593 5.65493 11.5278 5.65944C11.571 5.66244 11.6104 5.65042 11.6528 5.65192C11.6856 5.65342 11.7206 5.66245 11.7519 5.67072C11.5032 5.74734 11.2374 5.78867 10.9813 5.83224C10.7222 5.87656 10.4624 5.9126 10.201 5.94039C9.67688 5.99673 9.15047 6.02376 8.62409 6.03278C8.09473 6.04254 7.56541 6.03429 7.03605 6.02077C6.57593 6.00875 6.11581 5.99299 5.65569 5.98097C5.18515 5.96895 4.70343 5.96219 4.25597 6.11017C3.66258 6.30698 3.1808 6.76444 2.83534 7.28951C2.82269 7.30829 2.81008 7.3278 2.79817 7.34733C2.59342 7.66958 2.43113 8.01737 2.28594 8.37042C2.21447 8.54394 2.16162 8.73398 2.076 8.90074C2.04845 8.95408 2.00593 8.99241 1.97093 9.04049C1.90914 9.12762 1.87119 9.2335 1.82652 9.32965C1.72675 9.54373 1.63001 9.76011 1.54141 9.97945C1.39772 10.3363 1.26594 10.6961 1.15724 11.0649C1.06417 11.3781 0.916678 11.762 0.947204 12.0947C0.974752 12.3614 0.915939 12.6356 0.896581 12.9015C0.892859 12.9721 0.845953 13.7556 0.896581 13.7593C1.41329 13.7871 1.92557 13.8923 2.41473 14.0726C2.20105 14.0958 1.99185 14.1311 1.78189 14.1747C1.58385 14.2153 1.34188 14.3107 1.20786 14.4752C1.15053 14.5458 1.13412 14.6713 1.11998 14.7584C1.08498 14.9717 1.0969 15.1903 1.11998 15.4044C1.21751 16.3291 1.51159 17.2252 1.87641 18.0733C1.96799 18.2859 2.05958 18.4985 2.15116 18.711C2.22785 18.8898 2.31273 19.0784 2.4728 19.1873C2.59937 19.2737 2.75945 19.303 2.90687 19.3308C3.21287 19.3879 3.49283 19.5171 3.80181 19.5787C4.4101 19.7004 5.02577 19.7973 5.64596 19.813C6.76053 19.8416 7.90265 19.6109 8.97627 19.9144C8.8013 19.9279 8.62637 19.9415 8.45141 19.9542C7.35769 20.0354 6.26393 20.106 5.16873 20.1653C4.6282 20.1946 4.08768 20.2262 3.54715 20.2457C3.43547 20.2495 3.18228 20.2224 3.12272 20.3509C3.10783 20.3832 3.11384 20.4177 3.12054 20.4508C3.16223 20.6566 3.29921 20.8714 3.40047 21.0524C3.69604 21.579 4.06982 22.0545 4.42347 22.542C4.76893 23.0183 5.14122 23.4757 5.54699 23.9017C5.73536 24.0992 5.92811 24.3065 6.13956 24.4786C6.1753 24.5079 6.2126 24.5296 6.2528 24.5521C6.43298 24.6498 6.56618 24.8316 6.71732 24.9698C7.05682 25.2801 7.43059 25.5505 7.82593 25.7833C8.38657 26.1131 8.98891 26.3685 9.6091 26.5608C10.8607 26.9484 12.1748 27.0866 13.4814 27.1677C16.1997 27.3367 18.9515 27.2669 21.6095 26.666C22.3309 26.503 23.0531 26.2971 23.6949 25.9253C24.7909 25.2905 25.5666 24.2246 26.2687 23.1647C26.6946 22.5217 27.119 21.8314 27.1704 21.06C26.6619 20.8947 26.1437 20.7625 25.6188 20.6641C26.1474 20.6153 26.6752 20.5552 27.2024 20.5003C27.2634 20.4943 27.326 20.4846 27.3863 20.4958C27.4325 20.5049 27.4704 20.5146 27.5188 20.5131C27.5858 20.5108 27.6521 20.5033 27.7183 20.4928C27.7399 20.4891 27.8978 20.4718 27.903 20.4538C27.8271 20.7347 27.7183 21.0074 27.5791 21.2628C27.5165 21.3777 27.4495 21.4919 27.3691 21.5956C27.2426 21.7593 27.1585 21.9561 27.0572 22.1364C26.9269 22.3685 26.7944 22.5984 26.6589 22.8267C26.3961 23.2699 26.1228 23.7071 25.8392 24.1375V24.1383Z"
          fill="#F98C3A"/>
    <path d="M22.5603 13.1119C24.4618 13.0736 26.3634 13.0345 28.2642 13C28.632 12.9925 29.0169 12.9849 29.3586 13.1194C29.7003 13.2539 29.9997 13.5663 29.9855 13.9186C29.984 13.9066 29.987 13.8954 29.99 13.8841C29.9959 13.6708 29.9952 13.4522 29.9825 13.2298C29.9594 12.7949 29.9118 12.3585 29.8344 11.9296C29.8143 11.9949 29.7875 12.055 29.742 12.1068C29.5909 12.2901 29.229 12.3066 29.0101 12.3457C28.8181 12.375 28.623 12.3998 28.4324 12.4216C26.4728 12.6499 24.5177 12.8783 22.561 13.1112L22.5603 13.1119Z"
          fill="url(#paint3_linear_920_39277)"/>
    <path d="M2.60975 19.9394C2.67601 20.1196 2.746 20.3037 2.81524 20.4877C2.52413 19.9867 2.25239 19.4849 1.99628 18.9951C1.86822 18.7525 1.75134 18.5136 1.63892 18.2703C1.67019 18.3018 1.70518 18.3288 1.73198 18.3529C1.91067 18.5054 2.1005 18.6391 2.30301 18.7525C2.98277 19.1401 3.77051 19.2265 4.53143 19.3362C4.95432 19.3948 5.40919 19.4887 5.83581 19.4887C7.53259 19.6652 9.22941 19.8297 10.9299 19.9784C8.15803 19.9116 5.38164 19.9003 2.60975 19.9394Z"
          fill="url(#paint4_linear_920_39277)"/>
    <path d="M27.9941 19.6336C27.2443 20.1759 26.2676 20.4133 25.3235 20.6364C26.1559 20.6311 26.9882 20.6394 27.8198 20.6596C27.7186 20.8054 27.6873 20.9849 27.7349 21.1494C27.9002 20.7671 28.0648 20.384 28.2301 20.0016C28.3902 19.6298 28.5219 19.231 28.72 18.8741C28.714 18.9996 28.5078 19.1753 28.4155 19.27C28.2874 19.4015 28.1467 19.5231 27.9941 19.6336Z"
          fill="url(#paint5_linear_920_39277)"/>
    <path d="M12.7043 5.59045C10.3084 5.97806 7.78893 5.90745 5.38558 5.65281C4.98205 5.60999 4.43031 5.47628 4.05357 5.73093C3.84808 5.8684 3.64186 6.00885 3.43637 6.15007C3.23833 6.28754 3.05965 6.44377 2.90479 6.62405C3.26961 5.95025 3.66575 5.296 4.09683 4.66126C4.21298 4.48924 4.32985 4.32024 4.45047 4.15198C4.44675 4.18353 4.44302 4.21432 4.44674 4.24587C4.4661 4.52005 4.65669 4.75891 4.88899 4.90388C5.12203 5.0451 5.39375 5.1112 5.66178 5.16228C7.93707 5.62425 10.3829 5.39364 12.7051 5.58894L12.7043 5.59045Z"
          fill="url(#paint6_linear_920_39277)"/>
    <path d="M0.596009 12.8723C0.495497 13.1104 0.637715 13.3966 0.851396 13.5409C1.06508 13.6851 1.3301 13.7219 1.58547 13.7527C2.55709 13.8706 3.53984 13.9638 4.51443 13.8691C3.40731 13.9172 2.19082 14.0314 1.0837 14.0795C1.00999 14.0825 0.933291 14.0862 0.867028 14.12C0.727801 14.1914 0.680825 14.3694 0.683804 14.5264C0.686037 14.6834 0.722596 14.8427 0.688348 14.9959C0.529763 14.292 0.526005 13.5905 0.596736 12.8716L0.596009 12.8723Z"
          fill="url(#paint7_linear_920_39277)"/>
    <path d="M25.4828 12.7009C25.2951 11.6598 24.9467 10.5773 24.4761 9.54674C24.054 8.6198 23.5097 7.68987 22.8746 6.88537C22.3013 6.15898 21.3796 5.703 20.5897 5.2508C20.2442 5.05399 19.9471 4.80238 19.5868 4.64313C12.3901 1.40784 3.9263 7.68613 4.65371 15.3023C4.77507 16.5807 5.17934 17.8262 5.83304 18.9417C7.63331 22.0327 10.9249 24.0008 14.5285 24.3456C15.8619 24.4718 17.2214 24.4124 18.5213 24.1007C21.1592 23.4667 23.3228 21.7803 24.6086 19.4495C25.6994 17.4739 25.8796 14.8793 25.4828 12.7002V12.7009Z"
          fill="url(#paint8_linear_920_39277)"/>
    <path d="M23.1828 21.0075C24.045 20.1474 24.6346 19.0349 24.9801 17.8645C25.3255 16.6935 25.4357 15.463 25.4238 14.2416C25.4223 14.0666 25.4067 13.8841 25.3419 13.7196C25.2526 13.4905 25.0814 13.4041 24.8506 13.3463C24.5029 13.2599 24.1544 13.1735 23.8067 13.0864C24.6294 13.1194 25.5236 13.0751 26.3455 13.0375C26.2071 13.0856 26.0693 13.1329 25.9308 13.181C25.8966 13.193 25.8608 13.2058 25.834 13.2313C25.8065 13.2576 25.7931 13.2952 25.7827 13.3328C25.7283 13.5303 25.7574 13.7399 25.7745 13.945C25.8013 14.274 25.7954 14.6045 25.7745 14.9327C25.7641 15.0958 25.7507 15.258 25.7358 15.421C25.703 15.78 25.63 16.1294 25.5586 16.4839C25.4231 17.1547 25.3375 17.836 25.1566 18.4955C24.9757 19.1551 24.6883 19.8018 24.211 20.2893C24.2661 20.4268 24.3748 20.5425 24.508 20.6056C24.3412 20.6161 24.1678 20.6289 24.0249 20.716C23.9445 20.7648 23.879 20.8339 23.8149 20.9031C23.5871 21.1449 23.3629 21.3913 23.1321 21.6294C23.0577 21.706 22.9765 21.7594 22.8865 21.8142C22.6862 21.9367 22.5514 22.1515 22.3891 22.316C21.6468 23.0709 20.6678 23.5494 19.6627 23.8747C19.5875 23.8995 19.5115 23.9228 19.4348 23.9453C18.7431 24.1534 18.0321 24.2938 17.3144 24.3682C16.5967 24.4418 15.8715 24.4493 15.1523 24.3885C14.7927 24.3585 14.4346 24.3111 14.0794 24.2465C13.9015 24.2142 13.725 24.1781 13.5493 24.1376C12.9879 24.0076 12.4229 23.9145 11.8719 23.7349C10.2585 23.2084 8.84465 22.2206 7.54023 21.1502C7.38239 21.021 7.22596 20.8895 7.07035 20.7573C7.0026 20.6995 6.91777 20.6401 6.85523 20.5748C6.80237 20.5199 6.76438 20.4561 6.70482 20.4058C6.58867 20.3074 6.44649 20.242 6.30056 20.203C6.06603 20.1399 5.82105 20.1353 5.58057 20.1038C5.61407 20.0272 5.70563 20.0001 5.78678 19.9836C5.96994 19.9476 6.15685 19.9265 6.34373 19.9198C6.43531 19.9168 6.53282 19.9303 6.62365 19.9198C6.69885 19.9115 6.76289 19.9062 6.84032 19.9138C7.20738 19.9461 7.56702 20.0355 7.93258 20.079C8.15296 20.1053 8.37703 20.1143 8.59741 20.0827C8.06805 20.1301 7.53873 20.1789 7.00937 20.2202C7.20891 20.7108 7.70174 21.0052 8.17079 21.2471C8.2646 21.2952 8.36962 21.3357 8.45226 21.4011C8.48874 21.4296 8.52375 21.4589 8.56023 21.4875C8.6332 21.5446 8.70685 21.6024 8.77981 21.6595C8.92649 21.7736 9.07395 21.8871 9.2236 21.999C9.52142 22.2213 9.82586 22.4362 10.1415 22.6323C10.5808 22.9049 11.0418 23.1423 11.5227 23.3323C12.265 23.6261 13.0512 23.8056 13.8471 23.8634C15.2841 23.9678 16.6808 24.1571 18.1044 23.9325C18.2726 23.9062 18.4409 23.8784 18.6084 23.8424C19.7326 23.6027 20.7496 23.0108 21.7011 22.3633C22.2767 21.9712 22.6907 21.4995 23.1843 21.0075H23.1828Z"
          fill="#F98C3A"/>
    <path d="M5.79878 18.6795C5.59478 18.1815 5.39149 17.6827 5.18748 17.1847C5.07357 16.9068 4.95969 16.6273 4.88375 16.3366C4.81748 16.0857 4.78019 15.8281 4.74297 15.5712C4.70648 15.3173 4.66929 15.0626 4.63281 14.8087C4.66855 15.0559 4.6693 15.3105 4.69834 15.5592C4.72812 15.8123 4.76455 16.0647 4.80922 16.3156C4.89708 16.8136 5.01404 17.3064 5.15922 17.7909C5.22697 18.0177 5.3014 18.2424 5.38107 18.4654C5.41383 18.5563 5.45105 18.6472 5.47041 18.7426C5.48381 18.8072 5.48232 18.8718 5.48977 18.9364C5.51136 19.134 5.62377 19.33 5.70344 19.5095C5.8851 19.499 6.06672 19.4885 6.24839 19.478C6.21488 19.4803 6.11818 19.336 6.09733 19.3097C6.04671 19.2451 6.00129 19.176 5.96183 19.1047C5.88514 18.9664 5.85832 18.8238 5.7995 18.6803L5.79878 18.6795Z"
          fill="#F98C3A"/>
    <path d="M9.22489 6.08548C10.2002 6.17111 11.1823 6.09598 12.1584 6.02161C11.9209 5.96903 11.6804 5.933 11.4384 5.90897C11.1964 5.88493 10.9537 5.87291 10.7102 5.86766C10.4645 5.8624 10.2196 5.8639 9.97388 5.86766C9.72893 5.87066 9.48402 5.87516 9.23907 5.87591C8.99486 5.87666 8.74991 5.8744 8.50645 5.86238C8.47667 5.86088 8.44616 5.85712 8.41638 5.85862C8.40298 5.89618 8.39397 5.95777 8.41183 5.99608C8.43566 6.0464 8.49373 6.03665 8.53989 6.03665C8.68731 6.03665 8.83474 6.04865 8.98141 6.06292C9.06257 6.07043 9.14448 6.07421 9.22489 6.08548Z"
          fill="#F98C3A"/>
    <path d="M13.9029 9.2133C13.5381 8.86701 13.3557 8.42683 13.3557 7.89275C13.3557 7.35866 13.5381 6.91923 13.9029 6.57219C14.2685 6.2259 14.7294 6.05237 15.287 6.05237C15.8447 6.05237 16.3063 6.2259 16.6711 6.57219C17.0367 6.91848 17.2183 7.35866 17.2183 7.89275C17.2183 8.42683 17.0359 8.86701 16.6711 9.2133C16.3063 9.55959 15.8454 9.73312 15.287 9.73312C14.7286 9.73312 14.2685 9.55959 13.9029 9.2133ZM13.8709 10.9237H16.7032V21.4243H13.8709V10.9237Z"
          fill="#FFFFCE"/>
    <path d="M0.189398 14.1561C0.0256012 14.9576 -0.0310071 15.7756 0.0158983 16.5914C0.0605701 17.3658 0.0918746 18.1538 0.553484 18.8081C0.735149 19.0657 0.960701 19.2918 1.21831 19.4721C1.38955 19.5915 1.59287 19.6516 1.76262 19.7643C1.80357 19.7914 1.84445 19.8131 1.84296 19.868C1.84073 19.9724 1.64197 20.0813 1.57421 20.1376C1.43797 20.2503 1.30098 20.3795 1.25184 20.556C1.16473 20.8685 1.31587 21.1945 1.44988 21.4687C1.75886 22.1012 2.10656 22.7149 2.48925 23.3045C4.03117 25.6775 5.81062 28.1113 8.5222 29.1832C10.0738 29.797 11.714 29.8533 13.3565 29.9336C15.0801 30.0215 16.8066 30.0238 18.5242 29.9307C20.0661 29.8473 21.7584 29.7203 23.0763 28.9121C24.0523 28.3089 24.8274 27.4089 25.4283 26.503C26.417 25.0105 27.2806 23.433 28.0125 21.797C28.081 21.6437 28.1778 21.495 28.1837 21.326C28.1867 21.2449 28.1949 21.169 28.1837 21.0878C28.1621 20.9293 28.0959 20.7769 27.9917 20.6559C28.2836 20.5154 28.5076 20.257 28.6595 19.9693C28.7422 19.8131 28.8054 19.6471 28.8576 19.4789C28.9015 19.3376 28.935 19.2009 29.0176 19.0762C29.197 18.8051 29.2619 18.4633 29.349 18.1523C29.5537 17.4207 29.722 16.6785 29.8463 15.9288C29.8642 15.8199 29.8813 15.711 29.8976 15.6021C29.9676 15.1228 30.0183 14.6383 29.9937 14.1561C29.993 14.1087 29.9878 14.0607 29.9855 14.0178C29.9155 15.8176 29.3028 17.3921 28.5739 19.0725C27.8078 20.8415 26.8942 22.5369 25.8384 24.1406C25.2421 25.0473 24.4708 25.9487 23.4984 26.5526C22.1881 27.3662 20.5046 27.4909 18.9739 27.5772C17.2645 27.6726 15.5491 27.6726 13.8374 27.5877C12.2062 27.5104 10.5734 27.4593 9.0337 26.8448C7.38531 26.1891 6.02873 24.9849 4.93651 23.6584C3.74898 22.2123 2.80644 20.5388 1.99565 18.9974C0.711333 16.5523 0.229561 14.0344 0.854222 11.4857C0.548965 12.363 0.365142 13.2997 0.187944 14.1568L0.189398 14.1561Z"
          fill="url(#paint9_linear_920_39277)"/>
    <path d="M29.9893 13.8834C29.9893 13.9307 29.9893 13.9735 29.9855 14.0164C29.9506 14.902 29.7838 15.7396 29.5351 16.5546C29.2827 17.3929 28.9446 18.2192 28.5761 19.0695C28.3431 19.6021 28.0989 20.1272 27.842 20.6485C27.8264 20.68 27.8108 20.7153 27.7914 20.7461C27.2092 21.9172 26.5569 23.0492 25.8385 24.1384C25.5861 24.526 25.2987 24.9144 24.9763 25.2742C24.549 25.7602 24.0561 26.2064 23.497 26.5512C22.1888 27.3662 20.5032 27.4871 18.9739 27.5773C17.2652 27.6712 15.5499 27.6711 13.8374 27.5848C12.2069 27.5066 10.5719 27.4556 9.03444 26.8441C7.38456 26.1861 6.02955 24.9835 4.93807 23.6554C4.93434 23.6479 4.92616 23.6434 4.92243 23.6359C4.11909 22.6526 3.42367 21.5679 2.8139 20.4862C2.63893 20.1843 2.47218 19.883 2.30912 19.5855C2.20042 19.3857 2.09545 19.1897 1.99493 18.9944C1.86687 18.7518 1.74991 18.5129 1.63748 18.2695C1.10142 17.0984 0.755994 15.9078 0.631658 14.7089C0.561672 14.0194 0.561665 13.3298 0.643563 12.6365C0.690469 12.2526 0.759697 11.8688 0.853508 11.4849C0.965932 11.038 1.11334 10.5843 1.29203 10.1298C1.34266 10.0081 1.38882 9.88267 1.44317 9.76173C1.6025 9.36211 1.76926 8.96627 1.94795 8.57491C2.04474 8.35933 2.14236 8.14822 2.24287 7.93263C2.44836 7.49394 2.6702 7.05526 2.90324 6.62409C3.05885 6.33789 3.21741 6.05622 3.38866 5.77828C3.59861 5.42148 3.81972 5.07293 4.05275 4.72814C4.06467 4.70485 4.08031 4.68533 4.0952 4.66129C4.21134 4.48927 4.32822 4.32028 4.44883 4.15202C4.55009 4.0108 4.64696 3.87406 4.75193 3.74035C4.76757 3.71706 4.78693 3.69303 4.80628 3.66974C5.70344 2.49491 6.76662 1.46054 8.26982 0.954999C11.4616 -0.118425 14.7807 -0.102618 18.2361 0.124236C19.6261 0.218132 21.1755 0.476504 22.2737 1.35012C24.5564 3.17546 26.548 5.30654 28.1324 7.70353C28.1518 7.73132 28.1711 7.75461 28.1867 7.78165C28.8077 8.72212 29.2774 9.75198 29.5805 10.8254C29.5805 10.8292 29.5842 10.8329 29.5842 10.8412C29.6423 11.041 29.6929 11.2408 29.7353 11.4443C29.7703 11.5968 29.8016 11.7501 29.8284 11.9064C29.8284 11.9139 29.8321 11.9184 29.8321 11.9259V11.9296C29.9096 12.3563 29.9565 12.7912 29.9795 13.2261C29.9915 13.4492 29.9915 13.6686 29.987 13.8804L29.9893 13.8834Z"
          fill="url(#paint10_linear_920_39277)"/>
    <path d="M29.9893 13.8834C29.9893 13.9307 29.9893 13.9735 29.9856 14.0163C29.9506 14.902 29.7838 15.7396 29.5351 16.5546C28.6618 16.5118 27.7765 16.4487 26.8719 16.3938C23.3079 16.1625 19.7437 15.9551 16.1752 15.7628C10.9531 15.4849 5.78155 15.3204 0.633122 14.7089C0.563136 14.0194 0.56313 13.3298 0.645028 12.6365C5.79718 12.2601 10.9493 12.3976 16.1752 12.511C16.2452 12.5148 16.3153 12.5148 16.3852 12.5185C16.0859 12.4712 15.7873 12.4209 15.488 12.3773C10.9412 11.6719 5.92903 11.198 1.44473 9.76098C1.60406 9.36136 1.77081 8.96548 1.9495 8.57412C2.04629 8.35853 2.14382 8.14747 2.24433 7.93188C2.44982 7.4932 2.67167 7.05451 2.9047 6.62334C3.06031 6.33714 3.21888 6.05547 3.39012 5.77754C7.72329 5.65209 12.1958 6.28306 16.3502 6.64287C19.7825 6.93658 23.2342 7.16795 26.6583 7.52851C27.1511 7.57959 27.6447 7.63817 28.1339 7.70503C28.1532 7.73282 28.1726 7.75611 28.1882 7.78315C28.8092 8.72362 29.279 9.75347 29.582 10.8269C29.582 10.8307 29.5858 10.8344 29.5858 10.8427C29.6438 11.0425 29.6945 11.2423 29.7369 11.4458C29.7719 11.5983 29.8032 11.7516 29.83 11.9078C29.83 11.9153 29.8337 11.9198 29.8337 11.9273V11.9311C29.9111 12.3578 29.958 12.7927 29.9811 13.2276C29.993 13.4507 29.993 13.6701 29.9886 13.8819L29.9893 13.8834ZM27.7378 20.7424C26.2279 20.5779 24.7366 20.4291 23.2185 20.3901C20.2054 20.3074 17.1968 20.1827 14.1874 20.0137C11.1742 19.8454 8.2043 19.6727 5.18001 19.6809C4.29477 19.6809 3.30081 19.6028 2.31059 19.587C2.47364 19.8845 2.6404 20.1865 2.81536 20.4877C3.42514 21.5686 4.11981 22.6541 4.9239 23.6374C7.8782 24.1895 10.802 24.4877 13.8151 24.7108C16.82 24.9301 19.8294 25.1067 22.8418 25.2434C23.564 25.2749 24.2705 25.2824 24.9771 25.2749C25.2994 24.9144 25.5869 24.5267 25.8393 24.1391C26.5578 23.0499 27.2099 21.9179 27.7921 20.7469C27.7728 20.7469 27.7571 20.7461 27.7378 20.7424Z"
          fill="url(#paint11_linear_920_39277)"/>
    <path d="M28.1881 7.78389C28.809 8.72435 29.2789 9.75421 29.5819 10.8276C29.5119 10.6827 29.4308 10.546 29.3608 10.416C29.1121 9.94953 28.8485 9.48756 28.5723 9.03686C28.0407 8.17902 27.4578 7.35272 26.8294 6.56475C26.5613 6.22822 26.2472 5.92624 26.0916 5.5146C25.9598 5.16981 25.6798 4.89942 25.4274 4.64102C24.5808 3.77116 23.5833 3.08231 22.663 2.30259C22.1314 1.85189 21.611 1.36662 20.9856 1.0609C20.3721 0.763431 19.6885 0.657528 19.0133 0.622223C18.7646 0.606448 18.5204 0.602688 18.2717 0.598932C18.1705 0.598932 18.0737 0.602694 17.9769 0.567389C17.8682 0.532084 17.7521 0.528329 17.6389 0.512555C17.3247 0.47725 17.0135 0.450215 16.6993 0.426178C14.086 0.230122 11.4421 0.453989 8.89956 1.09248C8.43349 1.20967 7.96372 1.34337 7.5371 1.57022C7.47531 1.60552 7.41649 1.64082 7.3547 1.67613C6.95488 1.92702 6.60572 2.24403 6.24463 2.546C6.06594 2.69849 5.88346 2.84795 5.68914 2.98091C5.61171 3.03575 5.538 3.07481 5.45238 3.11387C5.31613 3.18072 5.2387 3.32568 5.15755 3.45113C4.98258 3.72155 4.8739 4.00326 4.74211 4.28945C4.71903 4.33678 4.69968 4.37207 4.68776 4.42691C4.65277 4.57939 4.62969 4.73641 4.59842 4.89341C4.40857 4.8859 4.21798 4.83102 4.05493 4.72886C4.06684 4.70557 4.08248 4.68605 4.09737 4.66201C4.21352 4.49 4.33039 4.321 4.45101 4.15274C4.55227 4.01152 4.64904 3.87482 4.75402 3.74111C4.76965 3.71783 4.78901 3.69375 4.80837 3.67046C5.70553 2.49563 6.7687 1.4613 8.27191 0.955766C11.4637 -0.117658 14.7828 -0.101897 18.2382 0.124957C19.6282 0.218854 21.1777 0.477271 22.2758 1.35088C24.5824 3.19576 26.5934 5.35462 28.1889 7.78315L28.1881 7.78389Z"
          fill="#F98C3A"/>
    <path d="M25.8392 24.1383C25.245 25.0472 24.4722 25.9478 23.4976 26.551C22.1895 27.366 20.5038 27.487 18.9745 27.5771C17.2658 27.671 15.5505 27.671 13.8381 27.5846C12.2076 27.5065 10.5725 27.4554 9.03507 26.844C7.38519 26.186 6.03018 24.9833 4.9387 23.6553C4.12716 22.6682 3.42801 21.5753 2.81526 20.4861C2.52415 19.9851 2.25241 19.4833 1.99629 18.9935C1.86823 18.7509 1.75135 18.512 1.63893 18.2686C0.625624 16.0511 0.292091 13.7796 0.854956 11.484C0.96738 11.0371 1.11479 10.5834 1.29348 10.1289C1.4059 9.84347 1.52199 9.55953 1.64111 9.27784C1.78481 8.93756 1.95385 8.61304 2.08563 8.27125C2.21592 7.93323 2.36554 7.60272 2.53306 7.28121C2.86586 6.64197 3.27021 6.04104 3.73629 5.49269C3.80851 5.40781 3.8852 5.32218 3.98795 5.27936C4.08101 5.2403 4.18443 5.24105 4.28569 5.24406C4.62296 5.25382 4.95955 5.28084 5.29533 5.31164C6.3548 5.40779 7.41947 5.7586 8.49458 5.73756C9.02915 5.72705 9.55849 5.62715 10.0931 5.60236C10.3663 5.58959 10.6403 5.59633 10.9136 5.61286C11.0506 5.62112 11.1868 5.63089 11.323 5.64215C11.3915 5.64741 11.4593 5.65493 11.5278 5.65944C11.571 5.66244 11.6104 5.65042 11.6528 5.65192C11.6856 5.65342 11.7206 5.66245 11.7519 5.67072C11.5032 5.74734 11.2374 5.78867 10.9813 5.83224C10.7222 5.87656 10.4624 5.9126 10.201 5.94039C9.67688 5.99673 9.15047 6.02376 8.62409 6.03278C8.09473 6.04254 7.56541 6.03429 7.03605 6.02077C6.57593 6.00875 6.11581 5.99299 5.65569 5.98097C5.18515 5.96895 4.70343 5.96219 4.25597 6.11017C3.66258 6.30698 3.1808 6.76444 2.83534 7.28951C2.82269 7.30829 2.81008 7.3278 2.79817 7.34733C2.59342 7.66958 2.43113 8.01737 2.28594 8.37042C2.21447 8.54394 2.16162 8.73398 2.076 8.90074C2.04845 8.95408 2.00593 8.99241 1.97093 9.04049C1.90914 9.12762 1.87119 9.2335 1.82652 9.32965C1.72675 9.54373 1.63001 9.76011 1.54141 9.97945C1.39772 10.3363 1.26594 10.6961 1.15724 11.0649C1.06417 11.3781 0.916678 11.762 0.947204 12.0947C0.974752 12.3614 0.915939 12.6356 0.896581 12.9015C0.892859 12.9721 0.845953 13.7556 0.896581 13.7593C1.41329 13.7871 1.92557 13.8923 2.41473 14.0726C2.20105 14.0958 1.99185 14.1311 1.78189 14.1747C1.58385 14.2153 1.34188 14.3107 1.20786 14.4752C1.15053 14.5458 1.13412 14.6713 1.11998 14.7584C1.08498 14.9717 1.0969 15.1903 1.11998 15.4044C1.21751 16.3291 1.51159 17.2252 1.87641 18.0733C1.96799 18.2859 2.05958 18.4985 2.15116 18.711C2.22785 18.8898 2.31273 19.0784 2.4728 19.1873C2.59937 19.2737 2.75945 19.303 2.90687 19.3308C3.21287 19.3879 3.49283 19.5171 3.80181 19.5787C4.4101 19.7004 5.02577 19.7973 5.64596 19.813C6.76053 19.8416 7.90265 19.6109 8.97627 19.9144C8.8013 19.9279 8.62637 19.9415 8.45141 19.9542C7.35769 20.0354 6.26393 20.106 5.16873 20.1653C4.6282 20.1946 4.08768 20.2262 3.54715 20.2457C3.43547 20.2495 3.18228 20.2224 3.12272 20.3509C3.10783 20.3832 3.11384 20.4177 3.12054 20.4508C3.16223 20.6566 3.29921 20.8714 3.40047 21.0524C3.69604 21.579 4.06982 22.0545 4.42347 22.542C4.76893 23.0183 5.14122 23.4757 5.54699 23.9017C5.73536 24.0992 5.92811 24.3065 6.13956 24.4786C6.1753 24.5079 6.2126 24.5296 6.2528 24.5521C6.43298 24.6498 6.56618 24.8316 6.71732 24.9698C7.05682 25.2801 7.43059 25.5505 7.82593 25.7833C8.38657 26.1131 8.98891 26.3685 9.6091 26.5608C10.8607 26.9484 12.1748 27.0866 13.4814 27.1677C16.1997 27.3367 18.9515 27.2669 21.6095 26.666C22.3309 26.503 23.0531 26.2971 23.6949 25.9253C24.7909 25.2905 25.5666 24.2246 26.2687 23.1647C26.6946 22.5217 27.119 21.8314 27.1704 21.06C26.6619 20.8947 26.1437 20.7625 25.6188 20.6641C26.1474 20.6153 26.6752 20.5552 27.2024 20.5003C27.2634 20.4943 27.326 20.4846 27.3863 20.4958C27.4325 20.5049 27.4704 20.5146 27.5188 20.5131C27.5858 20.5108 27.6521 20.5033 27.7183 20.4928C27.7399 20.4891 27.8978 20.4718 27.903 20.4538C27.8271 20.7347 27.7183 21.0074 27.5791 21.2628C27.5165 21.3777 27.4495 21.4919 27.3691 21.5956C27.2426 21.7593 27.1585 21.9561 27.0572 22.1364C26.9269 22.3685 26.7944 22.5984 26.6589 22.8267C26.3961 23.2699 26.1228 23.7071 25.8392 24.1375V24.1383Z"
          fill="#F98C3A"/>
    <path d="M2.60975 19.9394C2.67601 20.1196 2.746 20.3037 2.81524 20.4877C2.52413 19.9867 2.25239 19.4849 1.99628 18.9951C1.86822 18.7525 1.75134 18.5136 1.63892 18.2703C1.67019 18.3018 1.70518 18.3288 1.73198 18.3529C1.91067 18.5054 2.1005 18.6391 2.30301 18.7525C2.98277 19.1401 3.77051 19.2265 4.53143 19.3362C4.95432 19.3948 5.40919 19.4887 5.83581 19.4887C7.53259 19.6652 9.22941 19.8297 10.9299 19.9784C8.15803 19.9116 5.38164 19.9003 2.60975 19.9394Z"
          fill="url(#paint12_linear_920_39277)"/>
    <path d="M12.7043 5.59045C10.3084 5.97806 7.78893 5.90745 5.38558 5.65281C4.98205 5.60999 4.43031 5.47628 4.05357 5.73093C3.84808 5.8684 3.64186 6.00885 3.43637 6.15007C3.23833 6.28754 3.05965 6.44377 2.90479 6.62405C3.26961 5.95025 3.66575 5.296 4.09683 4.66126C4.21298 4.48924 4.32985 4.32024 4.45047 4.15198C4.44675 4.18353 4.44302 4.21432 4.44674 4.24587C4.4661 4.52005 4.65669 4.75891 4.88899 4.90388C5.12203 5.0451 5.39375 5.1112 5.66178 5.16228C7.93707 5.62425 10.3829 5.39364 12.7051 5.58894L12.7043 5.59045Z"
          fill="url(#paint13_linear_920_39277)"/>
    <path d="M0.596009 12.8723C0.495497 13.1104 0.637715 13.3966 0.851396 13.5409C1.06508 13.6851 1.3301 13.7219 1.58547 13.7527C2.55709 13.8706 3.53984 13.9638 4.51443 13.8691C3.40731 13.9172 2.19082 14.0314 1.0837 14.0795C1.00999 14.0825 0.933291 14.0862 0.867028 14.12C0.727801 14.1914 0.680825 14.3694 0.683804 14.5264C0.686037 14.6834 0.722596 14.8427 0.688348 14.9959C0.529763 14.292 0.526005 13.5905 0.596736 12.8716L0.596009 12.8723Z"
          fill="url(#paint14_linear_920_39277)"/>
    <path d="M25.4828 12.7009C25.2951 11.6598 24.9467 10.5773 24.4761 9.54674C24.054 8.6198 23.5097 7.68987 22.8746 6.88537C22.3013 6.15898 21.3796 5.703 20.5897 5.2508C20.2442 5.05399 19.9471 4.80238 19.5868 4.64313C12.3901 1.40784 3.9263 7.68613 4.65371 15.3023C4.77507 16.5807 5.17934 17.8262 5.83304 18.9417C7.63331 22.0327 10.9249 24.0008 14.5285 24.3456C15.8619 24.4718 17.2214 24.4124 18.5213 24.1007C21.1592 23.4667 23.3228 21.7803 24.6086 19.4495C25.6994 17.4739 25.8796 14.8793 25.4828 12.7002V12.7009Z"
          fill="url(#paint15_linear_920_39277)"/>
    <path d="M23.1828 21.0075C24.045 20.1474 24.6346 19.0349 24.9801 17.8645C25.3255 16.6935 25.4357 15.463 25.4238 14.2416C25.4223 14.0666 25.4067 13.8841 25.3419 13.7196C25.2526 13.4905 25.0814 13.4041 24.8506 13.3463C24.5029 13.2599 24.1544 13.1735 23.8067 13.0864C24.6294 13.1194 25.5236 13.0751 26.3455 13.0375C26.2071 13.0856 26.0693 13.1329 25.9308 13.181C25.8966 13.193 25.8608 13.2058 25.834 13.2313C25.8065 13.2576 25.7931 13.2952 25.7827 13.3328C25.7283 13.5303 25.7574 13.7399 25.7745 13.945C25.8013 14.274 25.7954 14.6045 25.7745 14.9327C25.7641 15.0958 25.7507 15.258 25.7358 15.421C25.703 15.78 25.63 16.1294 25.5586 16.4839C25.4231 17.1547 25.3375 17.836 25.1566 18.4955C24.9757 19.1551 24.6883 19.8018 24.211 20.2893C24.2661 20.4268 24.3748 20.5425 24.508 20.6056C24.3412 20.6161 24.1678 20.6289 24.0249 20.716C23.9445 20.7648 23.879 20.8339 23.8149 20.9031C23.5871 21.1449 23.3629 21.3913 23.1321 21.6294C23.0577 21.706 22.9765 21.7594 22.8865 21.8142C22.6862 21.9367 22.5514 22.1515 22.3891 22.316C21.6468 23.0709 20.6678 23.5494 19.6627 23.8747C19.5875 23.8995 19.5115 23.9228 19.4348 23.9453C18.7431 24.1534 18.0321 24.2938 17.3144 24.3682C16.5967 24.4418 15.8715 24.4493 15.1523 24.3885C14.7927 24.3585 14.4346 24.3111 14.0794 24.2465C13.9015 24.2142 13.725 24.1781 13.5493 24.1376C12.9879 24.0076 12.4229 23.9145 11.8719 23.7349C10.2585 23.2084 8.84465 22.2206 7.54023 21.1502C7.38239 21.021 7.22596 20.8895 7.07035 20.7573C7.0026 20.6995 6.91777 20.6401 6.85523 20.5748C6.80237 20.5199 6.76438 20.4561 6.70482 20.4058C6.58867 20.3074 6.44649 20.242 6.30056 20.203C6.06603 20.1399 5.82105 20.1353 5.58057 20.1038C5.61407 20.0272 5.70563 20.0001 5.78678 19.9836C5.96994 19.9476 6.15685 19.9265 6.34373 19.9198C6.43531 19.9168 6.53282 19.9303 6.62365 19.9198C6.69885 19.9115 6.76289 19.9062 6.84032 19.9138C7.20738 19.9461 7.56702 20.0355 7.93258 20.079C8.15296 20.1053 8.37703 20.1143 8.59741 20.0827C8.06805 20.1301 7.53873 20.1789 7.00937 20.2202C7.20891 20.7108 7.70174 21.0052 8.17079 21.2471C8.2646 21.2952 8.36962 21.3357 8.45226 21.4011C8.48874 21.4296 8.52375 21.4589 8.56023 21.4875C8.6332 21.5446 8.70685 21.6024 8.77981 21.6595C8.92649 21.7736 9.07395 21.8871 9.2236 21.999C9.52142 22.2213 9.82586 22.4362 10.1415 22.6323C10.5808 22.9049 11.0418 23.1423 11.5227 23.3323C12.265 23.6261 13.0512 23.8056 13.8471 23.8634C15.2841 23.9678 16.6808 24.1571 18.1044 23.9325C18.2726 23.9062 18.4409 23.8784 18.6084 23.8424C19.7326 23.6027 20.7496 23.0108 21.7011 22.3633C22.2767 21.9712 22.6907 21.4995 23.1843 21.0075H23.1828Z"
          fill="#F98C3A"/>
    <path d="M5.79878 18.6795C5.59478 18.1815 5.39149 17.6827 5.18748 17.1847C5.07357 16.9068 4.95969 16.6273 4.88375 16.3366C4.81748 16.0857 4.78019 15.8281 4.74297 15.5712C4.70648 15.3173 4.66929 15.0626 4.63281 14.8087C4.66855 15.0559 4.6693 15.3105 4.69834 15.5592C4.72812 15.8123 4.76455 16.0647 4.80922 16.3156C4.89708 16.8136 5.01404 17.3064 5.15922 17.7909C5.22697 18.0177 5.3014 18.2424 5.38107 18.4654C5.41383 18.5563 5.45105 18.6472 5.47041 18.7426C5.48381 18.8072 5.48232 18.8718 5.48977 18.9364C5.51136 19.134 5.62377 19.33 5.70344 19.5095C5.8851 19.499 6.06672 19.4885 6.24839 19.478C6.21488 19.4803 6.11818 19.336 6.09733 19.3097C6.04671 19.2451 6.00129 19.176 5.96183 19.1047C5.88514 18.9664 5.85832 18.8238 5.7995 18.6803L5.79878 18.6795Z"
          fill="#F98C3A"/>
    <path d="M13.9029 9.2133C13.5381 8.86701 13.3557 8.42683 13.3557 7.89275C13.3557 7.35866 13.5381 6.91923 13.9029 6.57219C14.2685 6.2259 14.7294 6.05237 15.287 6.05237C15.8447 6.05237 16.3063 6.2259 16.6711 6.57219C17.0367 6.91848 17.2183 7.35866 17.2183 7.89275C17.2183 8.42683 17.0359 8.86701 16.6711 9.2133C16.3063 9.55959 15.8454 9.73312 15.287 9.73312C14.7286 9.73312 14.2685 9.55959 13.9029 9.2133ZM13.8709 10.9237H16.7032V21.4243H13.8709V10.9237Z"
          fill="white"/>
    <defs>
        <linearGradient id="paint0_linear_920_39277" x1="14.8365" y1="-0.789971" x2="14.9881" y2="13.7624"
                        gradientUnits="userSpaceOnUse">
            <stop stop-color="#DF5212"/>
            <stop offset="1" stop-color="#610F3F"/>
        </linearGradient>
        <linearGradient id="paint1_linear_920_39277" x1="25.6456" y1="-5.5719" x2="-0.685675" y2="42.8395"
                        gradientUnits="userSpaceOnUse">
            <stop stop-color="#DF5212"/>
            <stop offset="1" stop-color="#610F3F"/>
        </linearGradient>
        <linearGradient id="paint2_linear_920_39277" x1="22.7241" y1="-0.104133" x2="-3.60637" y2="48.3066"
                        gradientUnits="userSpaceOnUse">
            <stop stop-color="#DF5212"/>
            <stop offset="1" stop-color="#610F3F"/>
        </linearGradient>
        <linearGradient id="paint3_linear_920_39277" x1="26.1311" y1="-0.906951" x2="26.2819" y2="13.6444"
                        gradientUnits="userSpaceOnUse">
            <stop stop-color="#DF5212"/>
            <stop offset="1" stop-color="#610F3F"/>
        </linearGradient>
        <linearGradient id="paint4_linear_920_39277" x1="6.08153" y1="-0.698087" x2="6.2331" y2="13.8534"
                        gradientUnits="userSpaceOnUse">
            <stop stop-color="#DF5212"/>
            <stop offset="1" stop-color="#610F3F"/>
        </linearGradient>
        <linearGradient id="paint5_linear_920_39277" x1="26.8103" y1="-0.913901" x2="26.9619" y2="13.6377"
                        gradientUnits="userSpaceOnUse">
            <stop stop-color="#DF5212"/>
            <stop offset="1" stop-color="#610F3F"/>
        </linearGradient>
        <linearGradient id="paint6_linear_920_39277" x1="13.8629" y1="-4.52168" x2="9.87085" y2="2.35542"
                        gradientUnits="userSpaceOnUse">
            <stop stop-color="#DF5212"/>
            <stop offset="1" stop-color="#610F3F"/>
        </linearGradient>
        <linearGradient id="paint7_linear_920_39277" x1="5.27459" y1="3.02146" x2="2.45254" y2="13.56"
                        gradientUnits="userSpaceOnUse">
            <stop stop-color="#DF5212"/>
            <stop offset="1" stop-color="#610F3F"/>
        </linearGradient>
        <linearGradient id="paint8_linear_920_39277" x1="16.0279" y1="42.7943" x2="15.1367" y2="14.9106"
                        gradientUnits="userSpaceOnUse">
            <stop stop-color="#DF5212"/>
            <stop offset="1" stop-color="#610F3F"/>
        </linearGradient>
        <linearGradient id="paint9_linear_920_39277" x1="14.8365" y1="-0.789971" x2="14.9881" y2="13.7624"
                        gradientUnits="userSpaceOnUse">
            <stop stop-color="#DF5212"/>
            <stop offset="1" stop-color="#610F3F"/>
        </linearGradient>
        <linearGradient id="paint10_linear_920_39277" x1="25.6456" y1="-5.5719" x2="-0.685675" y2="42.8395"
                        gradientUnits="userSpaceOnUse">
            <stop stop-color="#DF5212"/>
            <stop offset="1" stop-color="#610F3F"/>
        </linearGradient>
        <linearGradient id="paint11_linear_920_39277" x1="22.7241" y1="-0.104133" x2="-3.60637" y2="48.3066"
                        gradientUnits="userSpaceOnUse">
            <stop stop-color="#DF5212"/>
            <stop offset="1" stop-color="#610F3F"/>
        </linearGradient>
        <linearGradient id="paint12_linear_920_39277" x1="6.08153" y1="-0.698087" x2="6.2331" y2="13.8534"
                        gradientUnits="userSpaceOnUse">
            <stop stop-color="#DF5212"/>
            <stop offset="1" stop-color="#610F3F"/>
        </linearGradient>
        <linearGradient id="paint13_linear_920_39277" x1="13.8629" y1="-4.52168" x2="9.87085" y2="2.35542"
                        gradientUnits="userSpaceOnUse">
            <stop stop-color="#DF5212"/>
            <stop offset="1" stop-color="#610F3F"/>
        </linearGradient>
        <linearGradient id="paint14_linear_920_39277" x1="5.27459" y1="3.02146" x2="2.45254" y2="13.56"
                        gradientUnits="userSpaceOnUse">
            <stop stop-color="#DF5212"/>
            <stop offset="1" stop-color="#610F3F"/>
        </linearGradient>
        <linearGradient id="paint15_linear_920_39277" x1="25.5002" y1="0.750061" x2="16.8893" y2="25.8799"
                        gradientUnits="userSpaceOnUse">
            <stop stop-color="#05D6C9"/>
            <stop offset="1" stop-color="#002ABF"/>
        </linearGradient>
    </defs>
</svg>
