<svg width="20" height="20" viewBox="0 0 20 20" fill="none" xmlns="http://www.w3.org/2000/svg">
    <g filter="url(#filter0_f_964_1787)">
        <path d="M10 18C14.4183 18 18 14.4183 18 10C18 5.58172 14.4183 2 10 2C5.58172 2 2 5.58172 2 10C2 14.4183 5.58172 18 10 18Z"
              fill="#FFAA29"/>
    </g>
    <path d="M10.039 17.4628C14.1367 17.4628 17.4586 14.1409 17.4586 10.0432C17.4586 5.94546 14.1367 2.6236 10.039 2.6236C5.94125 2.6236 2.61938 5.94546 2.61938 10.0432C2.61938 14.1409 5.94125 17.4628 10.039 17.4628Z"
          fill="#FFAA29"/>
    <path d="M7.08941 11.5855L7.14387 11.2465H8.42654L8.36123 11.6557C8.23068 12.4508 8.318 12.5675 8.60032 12.5675H9.17656L9.55703 10.2413L8.90467 10.0772C8.02406 9.85493 7.44781 9.52803 7.71972 7.85606C7.99163 6.18409 8.55667 5.65777 9.57864 5.65777H10.1877L10.3832 4.50006H11.4484L11.253 5.65777H11.7856C12.7963 5.65777 13.188 6.18409 12.916 7.85606L12.8728 8.14851H11.6006L11.655 7.79792C11.7856 7.0498 11.6987 6.93264 11.4051 6.93264H10.9378L10.579 9.11887L11.3074 9.30623C12.1772 9.52847 12.7531 9.85537 12.4704 11.5859C12.1876 13.3165 11.6226 13.8423 10.6006 13.8423H9.91584L9.73081 15.0001H8.66558L8.85061 13.8423H8.2091C7.19834 13.8423 6.80669 13.316 7.08941 11.5859V11.5855ZM9.48092 8.84969L9.77407 8.91989L10.1113 6.93221H9.57864C9.29591 6.93221 9.17659 7.04893 9.04604 7.79749C8.9159 8.60418 9.00277 8.73297 9.48092 8.84969ZM10.6006 12.5675C10.8941 12.5675 11.0135 12.4508 11.144 11.6557C11.2854 10.7788 11.1985 10.6737 10.7312 10.5449L10.3616 10.4515L10.0136 12.5675H10.6006Z"
          fill="#350024"/>
    <defs>
        <filter id="filter0_f_964_1787" x="0" y="0" width="20" height="20" filterUnits="userSpaceOnUse"
                color-interpolation-filters="sRGB">
            <feFlood flood-opacity="0" result="BackgroundImageFix"/>
            <feBlend mode="normal" in="SourceGraphic" in2="BackgroundImageFix" result="shape"/>
            <feGaussianBlur stdDeviation="1" result="effect1_foregroundBlur_964_1787"/>
        </filter>
    </defs>
</svg>
