<svg width="32" height="32" viewBox="0 0 32 32" fill="none" xmlns="http://www.w3.org/2000/svg">
    <path d="M1.85958 16.0022C0.808511 16.0022 -0.00530419 15.0816 0.120824 14.038C0.549877 10.5075 2.13448 7.24219 4.68939 4.68728C7.71217 1.66451 11.731 3.05176e-05 16.0043 3.05176e-05C20.9168 3.05176e-05 25.4931 2.24556 28.4997 6.00247V3.25782C28.4997 2.30377 29.2479 1.49849 30.2008 1.47154C31.1894 1.44459 32 2.23801 32 3.22117V9.63433C32 10.928 30.9511 11.9769 29.6575 11.9769H23.3123C22.3582 11.9769 21.5529 11.2287 21.526 10.2758C21.499 9.28721 22.2925 8.47653 23.2757 8.47653H25.9901C23.6475 5.36751 19.966 3.49929 16.0043 3.49929C9.62886 3.49929 4.35314 8.2965 3.59637 14.4714C3.48857 15.3468 2.74141 16.0011 1.85958 16.0011V16.0022Z"
          fill="white"/>
    <path d="M30.1394 15.9989C29.2575 15.9989 28.5094 16.6533 28.4027 17.5286C27.6459 23.7025 22.3701 28.5007 15.9947 28.5007C12.0329 28.5007 8.35249 26.6314 6.00887 23.5235H8.68774C9.64179 23.5235 10.4472 22.7754 10.4741 21.8224C10.5011 20.8338 9.70761 20.0232 8.72446 20.0232H2.34251C1.04889 20.0232 0 21.0721 0 22.3657V28.7433C0 29.6973 0.748151 30.5026 1.70112 30.5296C2.65409 30.5554 3.50028 29.7631 3.50028 28.7799V25.9997C6.50797 29.7577 11.0832 32.0021 15.9957 32.0021C20.2701 32.0021 24.2878 30.3377 27.3106 27.3149C29.8644 24.7611 31.4492 21.4947 31.8793 17.9641C32.0065 16.9206 31.1926 16 30.1404 16L30.1394 15.9989Z"
          fill="white"/>
</svg>
