<svg width="32" height="32" viewBox="0 0 32 32" fill="none" xmlns="http://www.w3.org/2000/svg">
    <path d="M31.2404 7.97302L28.6966 3.68216L28.6948 3.67847C27.698 2.02636 25.8798 1.00003 23.9452 1.00003H23.9425L16.0124 1.07294L8.00856 1.00003C6.08972 1.0028 4.28702 2.03005 3.30406 3.68216L0.7614 7.97302C0.263 8.81938 0 9.78203 0 10.7576V11.8725C0.00369186 13.3927 0.842501 14.7974 2.16049 15.5293V24.7617C2.16234 26.2191 2.73098 27.5906 3.76194 28.6243C4.79381 29.6553 6.16537 30.2238 7.6255 30.2257H24.3754C25.8337 30.2238 27.2053 29.6553 28.2381 28.6243C29.2699 27.5915 29.8384 26.22 29.8393 24.7608V15.5303C31.1545 14.7993 31.9935 13.3973 32 11.8772V10.7567C32 9.77927 31.7379 8.81753 31.2404 7.97302ZM18.7065 19.6725C17.0368 18.708 14.9638 18.708 13.2951 19.6725C11.6245 20.637 10.5873 22.4331 10.5873 24.3603V27.7226L7.6255 27.7208C5.99462 27.7208 4.66649 26.3917 4.66372 24.759V16.0443C5.60145 15.9354 6.48366 15.5081 7.15004 14.8417C7.92533 15.6198 8.99232 16.072 10.0999 16.072C11.2074 16.072 12.2762 15.6207 13.0506 14.8426C13.825 15.6198 14.892 16.0711 15.9995 16.0711C17.1071 16.0711 18.1739 15.6198 18.9483 14.8426C19.7226 15.6198 20.7896 16.0711 21.8981 16.0711C23.0066 16.0711 24.0736 15.6198 24.8479 14.8417C25.5162 15.5081 26.3977 15.9354 27.3345 16.0443V24.759C27.3326 26.3917 26.0045 27.7198 24.3727 27.7208H21.4109V24.3603C21.4109 22.4331 20.3734 20.637 18.7038 19.6725H18.7065ZM13.0903 24.3603C13.0903 22.7561 14.3963 21.4501 16.0005 21.4501C17.6046 21.4501 18.9095 22.7561 18.9095 24.3603V27.7226L13.0894 27.7208L13.0903 24.3603ZM24.8497 10.6201C24.1603 10.6201 23.5991 11.1812 23.5991 11.8716C23.5991 12.8075 22.8376 13.569 21.9008 13.569C20.964 13.569 20.2018 12.8075 20.2018 11.8716C20.2018 11.1812 19.6406 10.6201 18.9512 10.6201C18.2617 10.6201 17.6997 11.1812 17.6997 11.8716C17.6997 12.8075 16.9381 13.569 16.0023 13.569C15.0664 13.569 14.3039 12.8075 14.3039 11.8716C14.3039 11.1812 13.7428 10.6201 13.0533 10.6201C12.3639 10.6201 11.8018 11.1812 11.8018 11.8716C11.8018 12.8075 11.0394 13.569 10.1026 13.569C9.16577 13.569 8.40537 12.8075 8.40537 11.8716C8.40537 11.1812 7.84425 10.6201 7.15387 10.6201C6.4635 10.6201 5.90328 11.1812 5.90328 11.8578C5.87466 12.7798 5.1279 13.5025 4.20494 13.5025C3.28198 13.5025 2.53524 12.7798 2.5057 11.8716V10.7558C2.5057 10.226 2.64702 9.70358 2.91468 9.24671L5.46117 4.95123C5.99372 4.05411 6.97199 3.49757 8.04079 3.49757L16.0189 3.57048L23.9989 3.49757C25.0409 3.49757 26.0182 4.05503 26.5508 4.95123L29.0898 9.24578C29.3593 9.70265 29.5015 10.226 29.5015 10.7558L29.4988 11.9178C29.4748 12.8324 28.7216 13.569 27.8005 13.569C26.8646 13.569 26.1033 12.8075 26.1033 11.8716C26.1033 11.1812 25.5419 10.6201 24.8515 10.6201H24.8497Z"
          fill="white"/>
</svg>
