<svg width="85" height="56" viewBox="0 0 85 56" fill="none" xmlns="http://www.w3.org/2000/svg">
    <path d="M84.363 44.6178C84.2789 43.4616 84.2018 42.3039 84.1325 41.1471C84.0589 39.9277 83.9839 38.7091 83.9152 37.4897C83.8682 36.6572 83.8003 35.7727 83.7793 34.9184C83.7617 34.2017 84.0511 33.0237 83.6678 32.3814C83.4379 31.9967 82.9425 31.8829 82.5017 31.8057C81.9229 31.7039 81.344 31.6022 80.7652 31.5011C81.5416 31.3221 82.3055 31.0918 83.0511 30.811C83.2179 30.7485 83.3917 30.6769 83.5017 30.5365C83.5999 30.4109 83.6328 30.2473 83.658 30.0894C83.9166 28.5022 83.7526 26.8174 83.7456 25.2148C83.7386 23.5785 83.7316 21.9421 83.7253 20.3051C83.7148 18.7481 83.7113 17.1904 83.6987 15.6334C83.6945 15.1181 83.9096 13.9984 83.658 13.5428C83.4506 13.1672 82.9726 13.1918 82.5907 13.1511C82.2081 13.1104 81.8212 13.1104 81.4372 13.1335C80.8626 13.1686 80.2928 13.2557 79.7252 13.3449C80.4694 13.1364 81.2389 13.0382 81.9902 12.8563C82.4765 12.7384 82.9579 12.5832 83.4008 12.3473C83.6678 12.2055 83.9678 12.0694 84.1213 11.7928C84.1857 11.677 84.2144 11.5295 84.2425 11.4003C84.3048 11.1132 84.3259 10.8191 84.3441 10.5264C84.3939 9.71979 84.4247 8.91185 84.4366 8.10387C84.4429 7.69601 84.4492 7.28676 84.4408 6.8789C84.4352 6.61355 84.3357 6.36293 84.3119 6.09688C84.213 4.99686 83.7715 3.94036 83.0609 3.09587C82.3538 2.25629 81.3945 1.64277 80.3335 1.36198C79.9404 1.25808 79.5353 1.19913 79.1289 1.18579C31.2789 -0.365598 53.8987 -0.420416 7.98844 1.1738C7.80974 1.18012 7.60931 1.16262 7.43761 1.20825C7.25051 1.25809 7.06551 1.33107 6.8826 1.39565C6.50558 1.52833 6.13134 1.67292 5.77044 1.84631C5.06895 2.18256 4.40742 2.63532 3.95471 3.28045C3.69472 3.65109 3.51465 4.06879 3.27288 4.44997C3.15164 4.64161 2.98835 4.79043 2.88814 4.9912C2.4018 5.96626 1.91193 6.95257 1.24128 7.81671C0.586052 8.66121 0.385652 9.99428 0.459234 11.0269C0.560147 12.4323 0.593781 13.8538 0.71852 15.2536C0.917541 17.4894 0.735351 19.7287 0.977121 21.9779C1.01146 22.3001 1.06471 22.6532 1.30788 22.8666C1.47466 23.0133 1.70172 23.066 1.91897 23.113C2.62535 23.2675 3.33173 23.4219 4.03812 23.5764C3.16424 24.1436 1.8601 24.187 1.39898 25.1221C1.25042 25.4232 1.2245 25.7687 1.20138 26.1035C1.11798 27.3004 1.00585 28.4951 0.925965 29.6927C0.889525 30.2304 0.860095 30.7689 0.841875 31.308C0.825056 31.8233 0.781587 32.314 0.733233 32.8257C0.621108 34.0135 0.318389 35.5649 0.681393 36.7267C1.03248 37.8498 2.43195 37.8969 3.40043 38.1693C2.89096 38.2275 2.50059 38.6424 2.20276 39.0608C2.05279 39.2714 1.947 39.4974 1.80404 39.7122C1.6786 39.9011 1.56365 40.0969 1.45993 40.2984C1.2518 40.7013 1.08641 41.126 0.965872 41.5634C0.885282 41.8575 0.839765 42.0864 0.82575 42.3911C0.813836 42.6627 0.8026 42.9344 0.792088 43.2068C0.771765 43.7501 0.755669 44.2941 0.743755 44.8382C0.719929 45.9255 0.712206 47.0136 0.720616 48.1017C0.729025 49.154 0.480236 50.1761 0.927334 51.215C1.36953 52.2427 2.1299 53.1315 3.08507 53.7141C3.85803 54.1858 4.73048 54.4378 5.63168 54.4877C51.8068 56.5213 29.1975 56.4912 76.8681 54.4751C78.1267 54.4217 79.3412 53.9176 80.2683 53.0626C80.7147 52.6505 81.1009 52.289 81.4317 51.7745C81.8346 51.1476 82.213 50.5046 82.5641 49.8475C83.4218 48.2435 84.4962 46.4724 84.3616 44.6184L84.363 44.6178Z"
          fill="url(#paint0_linear_921_43777)"/>
    <path d="M79.2253 50.4113C31.5525 52.4225 54.1646 52.4534 7.9916 50.419C5.93761 50.419 4.02237 48.9477 3.26133 47.0902C2.92285 46.2738 2.84577 45.3718 2.89973 44.4936C2.90744 44.3391 2.92285 44.1854 2.96911 44.0309C3.03848 43.7923 3.14572 43.5837 3.17655 43.3373C3.19197 43.2061 3.20737 43.0833 3.22279 42.952C3.29987 42.2507 3.32301 41.534 3.38468 40.8334C3.42322 40.4403 3.46947 40.024 3.57669 39.647C3.70002 39.2076 3.89974 38.8075 4.26134 38.5379C5.78414 37.3979 8.75333 37.4133 10.9685 37.3669C11.3995 37.3515 11.799 37.3438 12.1606 37.3207C13.122 37.2589 14.0835 37.2357 15.0527 37.2435C12.7681 37.2357 10.4836 37.0356 8.23758 36.6425C7.16819 36.4649 6.10719 36.234 5.06093 35.9644C4.80724 35.9026 4.53816 35.8177 4.29919 35.7025C3.96843 35.5558 3.68388 35.3404 3.53742 35.0168C3.41408 34.7395 3.4218 34.4312 3.42951 34.1385C3.43721 33.8535 3.39869 33.5608 3.41411 33.2757C3.43723 32.6671 3.51433 32.074 3.576 31.473C3.63767 30.988 3.69162 30.4945 3.72245 30.0017C3.79954 28.6918 3.88432 27.3896 3.98383 26.0874C4.01467 25.6943 4.06092 25.2633 4.33773 24.9853C4.50732 24.8161 4.72247 24.7312 4.93761 24.654C5.52206 24.4384 6.12193 24.2763 6.73721 24.1766C7.02173 24.1226 7.32937 24.1226 7.60617 24.0454C7.92923 23.945 8.18292 23.8755 8.53681 23.8376C11.9055 23.4445 15.2671 23.0514 18.6358 22.659C19.0359 22.6126 19.4437 22.5663 19.8432 22.52C14.7667 21.9036 9.69028 21.2718 4.61383 20.6555C4.39098 20.6246 4.16812 20.6014 3.94457 20.5705C3.74485 20.5473 3.52902 20.5165 3.39097 20.3705C3.37555 20.3628 3.36784 20.3473 3.36013 20.3395C3.25992 20.2083 3.24449 20.0391 3.22908 19.8693C2.99852 17.1189 3.25993 14.2835 3.10576 11.5093C3.09035 11.3548 3.0518 10.577 3.00555 9.69884C2.93617 8.42754 2.85139 6.9639 2.81354 6.9639C2.5984 3.91306 4.93618 1.27777 7.99018 1.17739C53.8934 -0.417526 31.2743 -0.363483 79.1236 1.1851C82.1923 1.28549 84.554 3.93548 84.3158 7.00246C84.231 8.05053 84.4391 9.05233 84.1847 10.1074C84.1307 10.3538 84.0459 10.6079 83.8616 10.7778C83.692 10.9245 83.4692 10.9779 83.2464 11.0319C82.6696 11.1709 82.0928 11.317 81.5077 11.456C80.7382 11.6406 79.9772 11.8104 79.2 11.8954C74.5854 12.3882 69.9777 12.8816 65.3708 13.3821C65.2475 13.3899 65.1248 13.4053 65.0015 13.4208C64.855 13.4362 64.7016 13.4517 64.5558 13.4671C64.9251 13.4594 65.2867 13.4516 65.6553 13.4516C71.4319 13.3512 77.2238 13.2593 82.9996 13.1589C83.1615 13.1589 83.3382 13.159 83.4692 13.2593C83.6157 13.3674 83.6535 13.5675 83.6766 13.7522C83.7075 13.9985 83.7151 14.2372 83.7074 14.4689C83.6997 15.2011 83.5687 15.9093 83.5687 16.6569C83.5687 17.3196 83.7305 17.9669 83.7228 18.6373C83.7074 19.6081 83.6766 20.5867 83.6381 21.5807C83.5456 23.8074 83.3921 26.065 83.1461 28.2917C83.1076 28.6153 83.0613 28.9621 82.8462 29.2008C82.6773 29.3854 82.4306 29.4858 82.1924 29.563C82.0459 29.617 81.8925 29.6634 81.7383 29.6943C78.3465 30.6651 74.6233 29.8943 71.139 30.4959C70.9084 30.5268 70.6771 30.5731 70.4543 30.6272C70.3772 30.6426 70.3001 30.6658 70.2237 30.6813C70.5083 30.7044 70.7928 30.7199 71.0773 30.7508C74.8924 31.028 78.6997 31.4134 82.4916 31.8985C82.938 31.9526 83.43 32.0375 83.6914 32.399C83.8911 32.6763 83.8988 33.0462 83.8988 33.3853V34.5099C83.8988 35.6422 83.8987 36.7829 83.9527 37.9152C84.0221 39.4174 84.1146 40.9127 84.2141 42.415C84.2604 43.1471 84.3066 43.8863 84.3606 44.6185C84.5834 47.6539 82.261 50.2815 79.2224 50.4127L79.2253 50.4113Z"
          fill="#FACF5E"/>
    <path opacity="0.37"
          d="M83.725 18.6363C83.7095 19.6072 83.6787 20.5858 83.6402 21.5798C81.6864 21.7567 79.7634 21.9111 77.8867 22.1189C77.4501 22.1674 77.0143 22.2151 76.5777 22.2607C74.961 22.4313 73.3429 22.5851 71.7241 22.7255C70.9147 22.7956 70.1038 22.8588 69.2944 22.9262C68.7794 22.969 68.3134 23.1747 67.8081 23.2309C67.101 23.3095 66.3344 23.1263 65.6259 23.0842C64.8354 23.0371 64.0429 23.0209 63.251 23.0308C61.6602 23.0497 60.0729 23.1712 58.4926 23.3523C55.3258 23.7152 52.1933 24.3161 49.0503 24.8426C44.0138 25.6857 66.0338 26.3231 60.9454 26.7542C63.7163 27.0293 39.3803 27.4821 42.0937 28.109C41.0761 28.1925 40.0579 28.2655 39.039 28.3287C35.8049 28.5294 59.6545 28.6334 56.4148 28.686C53.1723 28.7387 65.2944 28.7408 62.0519 28.7366C58.8087 28.7323 55.5648 28.7225 52.3216 28.7527C49.0811 28.7822 45.8407 28.8517 42.6038 29.0061C40.9857 29.0834 39.369 29.1816 37.7537 29.3066C37.3501 29.3382 36.9457 29.3712 36.5428 29.4056C36.0515 29.4477 35.5841 29.5874 35.0866 29.6457C31.2203 30.097 54.4562 30.6663 50.6362 31.4196C44.6985 32.5905 38.7369 33.7312 32.699 34.1468C31.6072 34.2163 30.5147 34.2858 29.4221 34.3546C24.2223 35.4027 18.6077 35.6182 13.5081 36.2422C11.7772 36.4577 10.0084 36.5735 8.23965 36.643C7.17026 36.4654 6.10926 36.2345 5.06299 35.9649C4.80931 35.9032 4.54023 35.8182 4.30126 35.7031C3.97049 35.5563 3.686 35.3409 3.53953 35.0173C3.41619 34.74 3.42387 34.4318 3.43158 34.1391C3.43928 33.8541 3.40076 33.5614 3.41618 33.2763C3.4393 32.6677 3.5164 32.0745 3.57807 31.4736C8.24667 31.0883 13.0309 29.7326 17.5229 29.0854C23.2917 28.2613 29.1601 27.7679 34.9751 27.4442C41.559 27.082 48.1204 27.8604 54.6811 27.8604C60.7576 27.8604 39.7363 27.3291 45.7819 26.8433C57.5655 25.8879 26.8776 24.9016 38.6535 23.8767C36.0922 23.8339 60.6209 23.7651 58.061 23.6759C54.7967 23.5622 66.8999 23.4148 63.6385 23.2471C62.8782 23.2077 62.0981 23.1074 61.3462 23.1958C60.569 23.2871 59.7779 23.3088 58.9958 23.2983C57.4422 23.2765 55.8914 23.0786 54.3826 22.7065C53.4947 22.4875 52.6201 22.2087 51.7189 22.0508C50.1996 21.7847 48.6446 21.8683 47.1021 21.848C41.3403 21.7736 62.7499 20.2453 56.9874 20.3057C55.4744 20.3218 53.9649 20.4475 52.4582 20.5808C50.8562 20.7233 49.2543 20.8757 47.6453 20.9164C46.9368 20.9347 46.1918 20.988 45.5037 20.8251C44.9683 20.6981 44.3621 20.7627 43.8148 20.7479C42.84 20.7213 41.8645 20.6981 40.889 20.6778C38.9388 20.6377 36.9878 20.6117 35.0368 20.6019C27.645 20.5633 20.2692 20.9796 12.8774 20.9178C9.72389 20.8946 6.51644 20.8252 3.39376 20.371C3.37835 20.3633 3.37063 20.3478 3.36293 20.34C3.26271 20.2088 3.24729 20.0397 3.23187 19.8698C3.00131 17.1194 3.26269 14.284 3.10852 11.5098C3.0931 11.3553 3.05455 10.5775 3.0083 9.69935C6.7771 9.37573 10.5768 9.29084 14.3456 9.01356C21.7297 8.46671 29.1131 8.23501 36.5281 8.2659C51.2192 8.33539 38.7818 9.27539 53.4267 10.3923C68.0793 11.5098 40.245 12.8808 54.8976 13.9211C62.3049 14.4448 69.7191 14.7685 77.1418 14.7685C79.3184 14.7685 81.5105 14.6371 83.7102 14.4679C83.7025 15.2001 83.5715 15.9085 83.5715 16.6561C83.5715 17.3187 83.7327 17.9659 83.725 18.6363ZM83.9555 37.9136C83.9015 36.7813 83.9015 35.6406 83.9015 34.5083C79.2252 34.0001 74.5412 33.4757 69.8334 33.1521C61.7653 32.5989 53.667 32.686 45.5913 33.0166C43.9101 33.0854 42.2569 33.1247 40.5926 33.3388C39.7881 33.442 38.9822 33.5416 38.1763 33.6371C34.9527 34.0176 58.8122 34.3321 55.576 34.5785C54.3139 34.6747 53.0511 34.761 51.7876 34.8368C55.0595 34.8129 31.2421 34.7891 34.514 34.7652C37.786 34.7414 41.0586 34.7175 44.3305 34.6936C45.9669 34.6817 47.6025 34.6698 49.2388 34.6579C50.0566 34.6516 50.8752 34.6459 51.693 34.6396C52.0378 34.6375 52.3923 34.6593 52.7315 34.5849C52.939 34.5392 53.1338 34.4549 53.3447 34.4233C54.0756 34.3145 54.899 34.4605 55.6349 34.4999C56.4457 34.5434 57.2565 34.5898 58.0673 34.6396C59.691 34.7393 61.3133 34.8516 62.9356 34.973C65.4906 35.1647 68.0436 35.3802 70.5951 35.609C73.3793 35.8632 76.1481 36.1867 78.9176 36.5258C72.626 37.1267 66.3344 37.7508 60.0274 38.0975C45.5135 38.8985 73.4473 39.908 58.9103 39.623C44.573 39.338 57.3567 38.5132 43.0117 38.5672C35.451 38.5904 27.8979 38.7139 20.3519 38.9371C14.7835 39.0993 9.13735 39.0684 3.57666 39.6462C3.46874 40.0238 3.4225 40.4401 3.38465 40.8325C3.32299 41.5338 3.29985 42.2505 3.22276 42.9511C9.41486 43.2052 15.6833 42.7819 21.8593 42.7665C29.4123 42.751 36.9654 42.8283 44.5191 43.0052C58.8332 43.3443 46.0419 44.1375 60.356 44.3923C74.9161 44.6541 46.997 43.6068 61.527 42.8746C69.0183 42.4969 76.5644 42.4892 84.0634 42.4119H84.2176C84.1174 40.9097 84.0256 39.4152 83.9562 37.9123L83.9555 37.9136Z"
          fill="#FFF999"/>
    <path d="M4.12981 34.0233C4.1144 34.5856 4.1144 35.171 4.29941 35.7031C3.96864 35.5564 3.68414 35.3409 3.53767 35.0173C3.41434 34.74 3.42205 34.4318 3.42976 34.1391C3.43747 33.8541 3.3989 33.5614 3.41432 33.2764C3.46057 32.1743 3.66031 31.096 3.72198 30.0016C3.79907 28.6917 3.88385 27.3894 3.98336 26.0873C4.0142 25.6941 4.06045 25.2632 4.33726 24.9852C4.50685 24.816 4.722 24.731 4.93714 24.6538C5.52159 24.4383 6.12145 24.2762 6.73674 24.1765C7.02126 24.1224 7.32889 24.1224 7.6057 24.0452C7.92876 23.9448 8.18245 23.8753 8.53634 23.8374C11.905 23.4443 15.2666 23.0512 18.6353 22.6588C15.02 23.391 11.4053 24.1147 7.79001 24.8469C7.08572 24.9873 6.14525 24.981 5.5573 25.4457C5.33445 25.6212 5.13333 25.8823 4.95673 26.1013C4.89927 26.1722 4.39683 27.1803 4.59094 27.1873C7.2476 27.2757 9.90357 27.3649 12.5602 27.4534C10.5924 27.7742 8.62954 28.1308 6.67506 28.5232C5.68906 28.7212 4.5713 29.0279 4.13542 29.9363C3.86071 30.5084 3.87965 31.2806 3.97216 31.8955C4.00369 32.104 4.07517 32.3006 4.11651 32.5063C4.21602 33.0019 4.14103 33.5249 4.12981 34.0233Z"
          fill="#F98C3A"/>
    <path d="M65.0031 13.4199C64.7957 13.4045 64.5952 13.3968 64.3955 13.3813H65.3724C65.2491 13.3891 65.1265 13.4045 65.0031 13.4199Z"
          fill="#F98C3A"/>
    <path d="M68.3262 30.248C69.2645 30.3405 70.2028 30.4247 71.1412 30.4941C70.9106 30.5249 70.6794 30.5712 70.4566 30.6251C69.7411 30.4941 69.0263 30.3637 68.3262 30.248Z"
          fill="#F98C3A"/>
    <path d="M82.1704 28.8531C82.3169 28.2676 82.2783 27.6513 82.2321 27.0504C82.1473 25.9335 82.0625 24.8159 81.9784 23.699C81.963 23.4835 81.9322 23.2442 81.7633 23.1136C81.6245 23.0055 81.4325 23.0055 81.2636 23.0133C79.8635 23.0596 78.4717 23.1059 77.0792 23.1522C78.5866 23.021 80.0793 22.6208 81.4402 21.9658C81.8326 21.7735 82.2405 21.5342 82.3862 21.134C82.4633 20.9262 82.4633 20.7022 82.4633 20.479C82.4402 18.7226 82.1326 16.7578 81.9251 15.0161C81.2636 14.3921 80.279 14.3072 79.3792 14.2531C75.7337 14.0299 72.0799 13.8059 68.4337 13.5827C67.5648 13.5209 66.5879 13.49 65.6572 13.4514C71.4338 13.351 77.2257 13.2591 83.0015 13.1587C83.1634 13.1587 83.34 13.1587 83.471 13.2591C83.6175 13.3672 83.6553 13.5673 83.6785 13.7519C83.8018 14.746 83.5706 15.6704 83.5706 16.6567C83.5706 17.3194 83.7324 17.9667 83.7247 18.6371C83.6708 21.7883 83.5019 25.0784 83.148 28.2914C83.1095 28.6151 83.0632 28.9619 82.8481 29.2005C82.6792 29.3852 82.4325 29.4855 82.1943 29.5628C82.0478 29.6168 81.8943 29.6632 81.7401 29.694C81.9475 29.4554 82.094 29.1549 82.1711 28.8544L82.1704 28.8531Z"
          fill="#F98C3A"/>
    <path d="M3.10772 11.5092C3.08459 11.1315 2.87716 6.96317 2.8155 6.96317C2.60036 3.91233 4.93813 1.27704 7.99214 1.17666C53.8954 -0.418259 31.2763 -0.364215 79.1256 1.18437C82.1943 1.28475 84.5559 3.93475 84.3176 7.00173C84.2328 8.0498 84.4411 9.0516 84.1867 10.1067C84.1327 10.3531 84.0479 10.6072 83.8636 10.7771C83.694 10.9238 83.4711 10.9771 83.2482 11.0311C82.6736 11.1694 82.1011 11.326 81.523 11.4503C82.024 11.0003 82.5951 10.4598 82.8278 9.80694C82.9862 9.36328 82.8573 8.98069 82.7087 8.55669C82.4796 7.90244 82.4389 7.27832 82.4115 6.58827C82.3786 5.74027 82.5293 4.5202 81.8552 3.84279C81.3492 3.33455 80.6807 2.8888 80.0408 2.57361C78.4641 1.79651 76.6455 1.63646 74.9146 1.56767C74.8277 1.56416 74.7408 1.56132 74.6539 1.55781C71.4577 1.45252 68.2516 1.44481 65.0665 1.76913C64.6797 1.80844 64.3412 1.91723 63.9677 1.98953C63.4996 2.08009 62.9481 1.96714 62.4736 1.94257C61.3902 1.88641 60.3068 1.83651 59.2227 1.79509C57.0545 1.71086 54.8856 1.65611 52.716 1.63014C51.0901 1.61048 49.4643 1.60767 47.8378 1.60486C47.3249 1.60416 46.8119 1.60273 46.2989 1.60203C45.3108 1.59993 44.3227 1.59857 43.3346 1.59646C41.9653 1.59365 40.5953 1.59156 39.2259 1.58875C39.1608 1.58875 39.0956 1.58875 39.0304 1.58875C36.8608 1.58454 61.7806 1.58028 59.6102 1.57607C58.5254 1.57396 57.4399 1.57192 56.3551 1.56981C55.8611 1.56911 55.3068 1.63855 54.8204 1.54659C54.3271 1.45322 53.9234 1.15488 53.3999 1.10785C52.929 1.06573 52.4406 1.14646 51.9739 1.18437C50.7902 1.27984 64.974 1.39221 63.7932 1.52208C63.2585 1.58105 62.6748 1.66803 62.316 2.06957C62.1926 2.20786 62.1015 2.37844 61.9516 2.48654C61.6187 2.72522 61.1618 2.5673 60.7757 2.43041C60.0076 2.15804 59.1975 2.00569 58.3839 1.97411C57.6509 1.94532 56.9228 2.07307 56.1898 2.02955C55.7272 2.00217 55.2822 1.8899 54.8295 1.80075C53.0439 1.44835 51.1757 1.42661 49.3669 1.29534C48.0249 1.19847 46.6815 1.12756 45.3374 1.07983C40.9989 0.925388 63.7455 1.00748 59.4098 1.1914C57.2395 1.28336 55.0699 1.40129 52.901 1.52765C51.9094 1.58592 50.805 1.79578 49.8183 1.66801C49.5331 1.63081 49.2674 1.51646 48.9857 1.46381C48.69 1.40835 48.3915 1.41742 48.0922 1.41882C46.8876 1.42654 45.6829 1.43993 44.4783 1.44624C43.0704 1.45397 41.6556 1.44624 40.24 1.44624C39.7641 1.44765 39.303 1.54169 38.8377 1.54239C38.4131 1.54239 37.9898 1.44837 37.5609 1.45258C36.6688 1.46031 35.7781 1.63576 34.9519 1.97342C34.6316 2.10399 34.3051 2.2612 33.9603 2.24155C33.3289 2.20505 32.8902 1.60764 32.3191 1.33527C30.9589 0.685232 29.5531 1.92427 28.1634 1.42165C27.4725 1.17174 26.7654 1.20966 26.0394 1.20194C25.1115 1.19211 24.1837 1.18787 23.2558 1.19208C20.11 1.20753 16.9642 1.31561 13.8338 1.63151C12.2725 1.79297 10.7189 2.00154 9.17299 2.27883C8.42666 2.4101 7.66558 2.63331 6.91154 2.71825C6.67327 2.74914 6.50369 2.74138 6.29626 2.88809C5.37543 3.53743 2.82881 7.1576 4.64593 8.4303C5.23599 8.84377 6.00826 8.84939 6.72796 8.83956C11.3601 8.77568 15.9923 8.71252 20.6251 8.64864C15.6244 9.04667 10.6229 9.44464 5.62213 9.84267C5.29837 9.86864 4.96409 9.89749 4.67887 10.0519C3.7153 10.5735 4.04748 11.7893 3.91012 12.6696C3.73002 13.8222 3.95565 15.069 4.06637 16.2252C4.21283 17.7043 4.38942 19.1841 4.61227 20.6554C4.38942 20.6245 4.16661 20.6013 3.94306 20.5704C3.72792 20.5473 3.49733 20.5087 3.35858 20.3395C3.25836 20.2082 3.24298 20.0391 3.22756 19.8692C2.99701 17.1188 3.25838 14.2835 3.10421 11.5092H3.10772Z"
          fill="#F98C3A"/>
    <path d="M79.225 50.4112C31.5523 52.4224 54.1644 52.4533 7.99133 50.4189C5.93734 50.4189 4.02211 48.9476 3.26106 47.0901C2.92258 46.2737 2.8455 45.3717 2.89946 44.4935C2.90717 44.3391 2.92259 44.1853 2.96884 44.0308C3.03822 43.7922 3.14545 43.5836 3.17628 43.3372C3.29191 42.5131 3.31501 41.6652 3.38369 40.8333C3.46077 39.9938 3.58344 39.0461 4.26039 38.5371C5.78319 37.3971 8.75238 37.4125 10.9675 37.3662C12.7749 37.3893 14.5752 37.4048 16.4133 37.5051C15.8772 37.5051 15.4021 37.7544 14.8863 37.8049C14.1764 37.8744 13.4567 37.8885 12.7447 37.9306C11.339 38.0127 9.9332 38.0955 8.52744 38.1777C7.55195 38.2345 6.56456 38.2942 5.63462 38.5946C5.28283 38.7084 4.93103 38.8628 4.67874 39.1338C4.40334 39.4286 4.2751 39.8295 4.17489 40.2198C3.98007 40.9765 3.73829 41.887 3.85602 42.6725C3.89106 42.907 3.97727 43.1295 4.00671 43.3654C4.03894 43.6223 4.01372 43.8792 4.00461 44.1368C3.97308 45.0073 4.03193 45.8995 4.39213 46.7047C5.25339 48.6309 7.5071 49.4705 9.57651 49.8559C12.107 50.3178 14.2374 50.7573 16.791 50.4105C20.522 50.4505 24.2529 50.4892 27.9839 50.5264C30.1654 50.5481 32.3477 50.5804 34.5292 50.5895C34.8936 50.5909 35.2265 50.4744 35.5839 50.473C36.1095 50.4702 36.6504 50.565 37.1746 50.6036C38.2468 50.6829 39.3211 50.7411 40.3961 50.7769C43.0304 50.8654 45.6688 50.8247 48.2988 50.6527C48.926 50.612 49.5336 50.4975 50.1419 50.6786C51.0193 50.9398 51.9436 50.9306 52.8539 50.9714C55.0179 51.0682 57.1854 51.0802 59.3502 51.0079C59.8694 50.9903 60.3887 50.9679 60.908 50.9412C61.7384 50.8977 35.4941 50.838 36.2678 50.5319C36.6666 50.374 37.0422 50.1522 37.4556 50.0384C38.6322 49.7155 39.8362 50.3115 40.9799 50.7362C42.4628 51.2866 44.092 51.0241 45.6457 51.1294C47.7634 51.2733 49.7985 51.4221 51.9156 51.1483C51.9345 51.1462 51.9541 51.1434 51.973 51.1406C52.9695 51.0093 53.9612 50.7804 54.8715 50.3452C55.3466 50.1178 55.8238 49.8293 56.3501 49.8398C56.9843 49.8524 57.5155 50.2919 58.06 50.6183C59.7706 51.6425 61.8968 51.6193 63.8772 51.3989C65.5682 51.2107 51.9065 50.8977 53.6129 51.0697C54.3185 51.1406 54.9969 51.0409 55.7096 51.0444C56.5919 51.0486 57.4749 51.0528 58.3572 51.0571C65.6334 51.0957 45.8272 51.1188 53.0957 50.8724C56.1644 50.772 59.2415 50.6183 62.3102 50.4098C63.9333 50.3017 65.5563 50.1789 67.1793 50.0476C67.9866 49.9781 68.7946 49.9009 69.6096 49.8321C72.0553 49.6011 74.5242 49.6165 76.9783 49.4389C78.4471 49.3308 79.986 49.1694 81.2243 48.36C81.9321 47.8974 82.4934 47.1736 82.7394 46.3565C82.8627 45.9634 82.9089 45.5394 82.8396 45.1315C82.801 44.9315 82.724 44.7462 82.7163 44.5538C82.7009 43.8525 82.7008 43.1436 82.6931 42.443C82.6854 41.3486 82.8011 40.2163 82.6469 39.1373C82.6315 39.0138 82.6084 38.8832 82.5236 38.7982C82.4542 38.7287 82.354 38.6978 82.2544 38.667C81.8389 38.5511 81.4317 38.436 81.0239 38.3202C81.5698 38.0506 82.1774 37.727 82.3701 37.1493C82.4626 36.8874 82.4549 36.6102 82.4472 36.3399C82.4318 35.685 82.4086 35.0068 82.155 34.4059C81.8936 33.805 81.8473 33.3115 81.2166 33.1346C77.986 32.241 74.4786 31.4014 71.0791 30.7465C74.8941 31.0237 78.7015 31.4091 82.4935 31.8942C82.9398 31.9483 83.4317 32.0332 83.6931 32.3947C83.8929 32.672 83.9006 33.0419 83.9006 33.381C83.9006 34.8909 83.8852 36.4009 83.9546 37.9116C84.0625 40.146 84.2005 42.3805 84.3624 44.6149C84.5853 47.6503 82.2629 50.2779 79.2243 50.4091L79.225 50.4112Z"
          fill="#F98C3A"/>
    <defs>
        <linearGradient id="paint0_linear_921_43777" x1="73.5072" y1="-56.1069" x2="53.1926" y2="-1.52989"
                        gradientUnits="userSpaceOnUse">
            <stop stop-color="#DF5212"/>
            <stop offset="1" stop-color="#610F3F"/>
        </linearGradient>
    </defs>
</svg>
