<svg width="48" height="48" viewBox="0 0 48 48" fill="none" xmlns="http://www.w3.org/2000/svg">
    <path d="M0.302935 22.6494C0.0410666 23.9312 -0.0499695 25.2408 0.0257267 26.5463C0.0973313 27.7858 0.147395 29.0459 0.885945 30.0924C1.17645 30.5042 1.53759 30.8664 1.94982 31.1544C2.22397 31.3453 2.54818 31.4413 2.82028 31.6219C2.88575 31.6652 2.95119 31.7003 2.94915 31.788C2.94608 31.9552 2.62803 32.1296 2.5196 32.2194C2.30172 32.4 2.08278 32.6054 2.00402 32.8892C1.8649 33.3887 2.10627 33.9109 2.32006 34.3495C2.81413 35.362 3.3707 36.3434 3.98343 37.2867C6.45072 41.0835 9.2974 44.9774 13.6366 46.6936C16.1193 47.6751 18.7441 47.7659 21.372 47.8938C24.1298 48.0342 26.8927 48.0383 29.6403 47.8887C32.1076 47.7545 34.8162 47.5522 36.9235 46.2591C38.4844 45.2942 39.7262 43.8545 40.6857 42.4045C42.2682 40.0164 43.6503 37.4921 44.8215 34.8738C44.931 34.6282 45.0864 34.3908 45.0956 34.1194C45.0997 33.9904 45.113 33.8675 45.0956 33.7385C45.0608 33.4846 44.9544 33.2411 44.7877 33.0471C45.2541 32.8221 45.6132 32.4093 45.8557 31.949C45.9876 31.6993 46.0888 31.434 46.1727 31.1636C46.2433 30.9376 46.2965 30.7189 46.4284 30.5197C46.7159 30.0852 46.8193 29.5392 46.9584 29.0418C47.2867 27.8715 47.5547 26.6836 47.7542 25.4834C47.7828 25.309 47.8105 25.1345 47.8361 24.9601C47.9476 24.1923 48.0284 23.4183 47.9906 22.6474C47.9885 22.572 47.9813 22.4946 47.9782 22.4255C47.8657 25.3048 46.8857 27.824 45.7196 30.5124C44.4931 33.3433 43.0324 36.0565 41.3436 38.6221C40.3892 40.0732 39.1545 41.5149 37.5996 42.4808C35.5026 43.7833 32.8093 43.9824 30.3604 44.1207C27.6251 44.2735 24.8807 44.2735 22.1413 44.1373C19.5318 44.0135 16.9182 43.9319 14.456 42.9484C11.8179 41.8988 9.64835 39.972 7.90018 37.8501C6.00061 35.5363 4.49183 32.8583 3.19476 30.3927C1.13971 26.4803 0.369417 22.4512 1.36881 18.3737C0.879855 19.7772 0.586284 21.2768 0.302935 22.6474V22.6494Z"
          fill="url(#paint0_linear_927_53304)"/>
    <path d="M47.8819 22.2088C47.7479 25.3648 46.8273 28.466 45.5415 31.3557C44.0736 34.6541 42.1209 37.7316 39.7702 40.4613C37.2446 43.3933 34.0919 43.9052 30.3603 44.125C27.627 44.2757 24.8806 44.2757 22.1412 44.1374C16.645 43.8608 12.2689 42.7483 8.48308 38.4633C6.35745 36.0566 4.68904 33.2288 3.19353 30.3918C2.98895 30.0027 2.80179 29.6209 2.62176 29.2318C1.76455 27.3577 1.21115 25.4525 1.0127 23.5339C0.526815 18.8413 2.42633 14.1528 4.76575 10.2001C6.78295 6.79136 9.31274 2.8459 13.2326 1.528C18.339 -0.189301 23.651 -0.164494 29.1799 0.19878C31.4037 0.349456 33.8823 0.7633 35.6407 2.16067C41.3425 6.72017 47.7756 13.3416 47.8963 21.1355C47.9014 21.4936 47.8963 21.8508 47.8819 22.2068V22.2088Z"
          fill="url(#paint1_linear_927_53304)"/>
    <path d="M45.1014 12.4541C46.0957 13.9588 46.8476 15.607 47.3314 17.3243C47.2199 17.092 47.0889 16.8733 46.9774 16.6658C46.5795 15.9197 46.1571 15.1807 45.7163 14.4593C44.8652 13.0867 43.9333 11.7647 42.9267 10.5046C42.4981 9.96586 41.9949 9.48288 41.7463 8.82444C41.5356 8.27334 41.0875 7.83988 40.6844 7.42707C39.3301 6.0359 37.7333 4.93268 36.2614 3.68496C35.4103 2.96461 34.5776 2.18647 33.5772 1.69832C32.5952 1.22152 31.5027 1.05331 30.4215 0.996548C30.0236 0.971779 29.6328 0.965576 29.2349 0.959384C29.0733 0.959384 28.9179 0.965565 28.7624 0.908803C28.5885 0.852041 28.4022 0.845827 28.2222 0.821058C27.7189 0.764296 27.2218 0.72098 26.7185 0.682795C22.5379 0.369058 18.307 0.727154 14.2378 1.74783C13.4921 1.93566 12.7403 2.14932 12.057 2.51259C11.9578 2.56935 11.8646 2.62508 11.7654 2.68185C11.1251 3.08331 10.5666 3.59102 9.98867 4.07298C9.70327 4.31757 9.41067 4.55598 9.10073 4.76858C8.97695 4.8563 8.8583 4.91925 8.72225 4.98117C8.50437 5.08747 8.38056 5.31971 8.24962 5.51992C7.97037 5.95234 7.79657 6.40333 7.58482 6.86155C7.548 6.93689 7.5162 6.99366 7.49779 7.08138C7.44153 7.32597 7.40469 7.57672 7.35457 7.8275C7.04974 7.81512 6.74595 7.72739 6.48511 7.56433C6.50352 7.52718 6.52911 7.49522 6.55366 7.45806C6.73983 7.18251 6.92598 6.91318 7.11931 6.64278C7.28094 6.41677 7.43642 6.19798 7.60418 5.98435C7.62873 5.9472 7.66052 5.909 7.69121 5.87185C9.12637 3.99149 10.8285 2.33711 13.2324 1.52799C18.3388 -0.189301 23.6508 -0.164494 29.1797 0.19878C31.4035 0.349456 33.8821 0.7633 35.6405 2.16067C39.3302 5.11227 42.5482 8.56645 45.1014 12.452V12.4541Z"
          fill="#F98C3A"/>
    <path d="M47.7295 19.0539C47.7172 19.1354 47.6988 19.2107 47.6793 19.2923C47.6292 18.9785 47.5485 18.6658 47.5802 18.3459V18.315C47.6364 18.5596 47.6855 18.8031 47.7295 19.0539Z"
          fill="#F98C3A"/>
    <path d="M44.6303 21.0798C45.2154 21.085 45.824 21.0953 46.3467 21.3606C47.2101 21.7992 47.6142 22.8054 47.8627 23.7476C47.964 22.9148 47.9506 22.0685 47.8248 21.2398C47.8033 21.0974 47.7767 20.9498 47.6969 20.83C47.6049 20.6918 47.4536 20.6061 47.3032 20.538C46.0532 19.9735 44.6098 20.2769 43.2575 20.4967C42.4228 20.6329 41.5819 20.733 40.738 20.7981C39.891 20.8631 39.0421 20.892 38.1931 20.8837C38.0314 20.8827 37.8299 20.8404 37.6826 20.923C37.4801 21.0375 37.7317 21.0231 37.8329 21.0231C38.2656 21.0261 38.6984 21.0303 39.1311 21.0334C39.9934 21.0406 40.8546 21.0479 41.717 21.054L44.3131 21.0757C44.4185 21.0757 44.5249 21.0788 44.6303 21.0798Z"
          fill="#F98C3A"/>
    <path d="M41.3435 38.6211C40.3932 40.0753 39.1565 41.517 37.5976 42.482C35.5037 43.7854 32.8082 43.9795 30.3603 44.1239C27.6271 44.2746 24.8806 44.2746 22.1413 44.1363C19.5318 44.0114 16.9171 43.9299 14.457 42.9515C11.8168 41.8988 9.64824 39.9741 7.90314 37.8492C6.60505 36.2702 5.48698 34.5209 4.50497 32.7788C4.03954 31.9769 3.6039 31.174 3.19473 30.3907C2.99014 30.0017 2.80286 29.6198 2.62283 29.2307C1.0015 25.6836 0.467605 22.0478 1.36778 18.3748C1.54781 17.6607 1.78402 16.9331 2.06941 16.2065C2.24945 15.7504 2.43466 15.2963 2.62595 14.8442C2.85611 14.3003 3.12608 13.7813 3.33783 13.2333C3.5465 12.6925 3.78596 12.163 4.05295 11.6491C4.58589 10.6263 5.23233 9.66446 5.97804 8.78723C6.09363 8.65204 6.21633 8.51375 6.37999 8.44564C6.52832 8.38371 6.69514 8.38479 6.85574 8.38995C7.39585 8.40647 7.93388 8.44979 8.47092 8.4983C10.1659 8.65207 11.8701 9.21346 13.5896 9.17941C14.4448 9.16289 15.2918 9.00194 16.147 8.96272C16.5848 8.94208 17.0225 8.95342 17.4593 8.97923C17.6782 8.99161 17.8971 9.00814 18.115 9.02672C18.2245 9.03601 18.3328 9.04734 18.4423 9.05456C18.5108 9.05869 18.5753 9.04013 18.6428 9.04322C18.695 9.04529 18.7513 9.05973 18.8014 9.07314C18.4045 9.19595 17.9779 9.26097 17.5687 9.33115C17.1544 9.40236 16.7381 9.45909 16.3198 9.5045C15.482 9.59532 14.6391 9.63767 13.7962 9.65316C12.9492 9.66864 12.1022 9.65518 11.2552 9.6335C10.5187 9.61493 9.78331 9.58918 9.04681 9.56957C8.29394 9.54996 7.52269 9.53963 6.80767 9.77699C5.8584 10.0918 5.08809 10.8245 4.53469 11.6646C4.51423 11.6955 4.49481 11.7254 4.47538 11.7564C4.14702 12.2724 3.88819 12.8287 3.65599 13.3943C3.54245 13.6729 3.45652 13.9753 3.32047 14.2436C3.27648 14.3293 3.20801 14.3901 3.15277 14.4675C3.05355 14.6069 2.99312 14.7761 2.92151 14.9299C2.76194 15.2725 2.60756 15.6183 2.46537 15.9692C2.23521 16.5399 2.02441 17.1158 1.85052 17.705C1.70117 18.2066 1.46487 18.8207 1.515 19.3532C1.55898 19.7794 1.46489 20.218 1.43421 20.6442C1.42807 20.7567 1.3534 22.0106 1.43421 22.0168C2.26073 22.0612 3.08009 22.2305 3.86365 22.5184C3.52199 22.5556 3.18648 22.6123 2.85096 22.6814C2.53386 22.7465 2.14622 22.8992 1.93243 23.1624C1.84037 23.2759 1.81473 23.4751 1.79121 23.6155C1.73494 23.9571 1.75438 24.3069 1.79121 24.6496C1.94771 26.1295 2.41822 27.563 3.0023 28.9201C3.14858 29.2607 3.29494 29.6002 3.44122 29.9407C3.56397 30.2266 3.69994 30.528 3.95567 30.7024C4.15821 30.8407 4.41505 30.8882 4.65032 30.9315C5.13927 31.0223 5.58734 31.2298 6.08243 31.3288C7.05626 31.5239 8.04121 31.6787 9.03345 31.7034C10.8174 31.7489 12.6444 31.3794 14.363 31.8655C14.0827 31.8871 13.8034 31.9088 13.5231 31.9295C11.7739 32.0595 10.0226 32.172 8.27138 32.268C7.40701 32.3154 6.5416 32.365 5.67724 32.397C5.49925 32.4032 5.09321 32.3598 4.99808 32.5652C4.97353 32.6168 4.98373 32.6715 4.99396 32.7251C5.06147 33.0544 5.28036 33.398 5.44198 33.687C5.91457 34.5291 6.51308 35.2908 7.07876 36.07C7.63114 36.8326 8.22746 37.5643 8.87599 38.2455C9.17775 38.5623 9.48563 38.8926 9.82524 39.1691C9.88252 39.2156 9.94185 39.2517 10.0063 39.2868C10.2948 39.4426 10.5076 39.7337 10.75 39.9545C11.2932 40.4509 11.8916 40.8833 12.5238 41.2559C13.4209 41.7843 14.3844 42.1919 15.3766 42.4995C17.3795 43.1197 19.4816 43.3406 21.5735 43.4707C25.9229 43.7411 30.3266 43.6296 34.5789 42.6677C35.7338 42.4066 36.8887 42.0774 37.9158 41.483C39.669 40.4664 40.9109 38.7615 42.034 37.0658C42.7153 36.0369 43.3944 34.9326 43.4773 33.6983C42.6641 33.4341 41.8345 33.2226 40.9946 33.0647C41.8406 32.9863 42.6846 32.8903 43.5285 32.8026C43.6256 32.7922 43.7259 32.7778 43.823 32.7953C43.8977 32.8087 43.9571 32.8252 44.0348 32.8221C44.1412 32.819 44.2486 32.8067 44.354 32.7902C44.3888 32.785 44.6414 32.7571 44.6495 32.7272C44.5278 33.1772 44.354 33.6127 44.131 34.0214C44.0307 34.2061 43.9233 34.3878 43.7954 34.5539C43.5929 34.8161 43.4578 35.1308 43.2962 35.4188C43.0886 35.7893 42.8759 36.1577 42.659 36.5241C42.2386 37.2331 41.8008 37.9328 41.3476 38.6211H41.3435Z"
          fill="#F98C3A"/>
    <path d="M36.0969 20.9787C39.1391 20.9168 42.1823 20.8549 45.2234 20.7991C45.8126 20.7867 46.4274 20.7754 46.9747 20.9911C47.522 21.2067 48.0007 21.7063 47.9772 22.2697C47.9751 22.2501 47.9792 22.2326 47.9833 22.2151C47.9925 21.8735 47.9915 21.5236 47.971 21.1686C47.9342 20.473 47.8585 19.7743 47.7337 19.088C47.702 19.1933 47.6591 19.2893 47.5864 19.3718C47.345 19.6649 46.766 19.6918 46.4152 19.7537C46.1073 19.8001 45.7953 19.8393 45.4915 19.8744C42.3563 20.2398 39.2271 20.6061 36.0969 20.9776V20.9787Z"
          fill="url(#paint2_linear_927_53304)"/>
    <path d="M4.17456 31.9026C4.27993 32.1906 4.39247 32.4858 4.50397 32.7799C4.03854 31.978 3.60277 31.1751 3.1936 30.3917C2.98901 30.0027 2.80186 29.6209 2.62183 29.2318C2.67195 29.2824 2.72718 29.3257 2.77117 29.3639C3.05656 29.6085 3.36134 29.821 3.68458 30.0027C4.77195 30.6229 6.0333 30.7612 7.25057 30.9367C7.92775 31.0306 8.65506 31.1813 9.33837 31.1813C12.0532 31.463 14.7681 31.7261 17.489 31.9645C13.0536 31.8582 8.61108 31.8397 4.17569 31.9016L4.17456 31.9026Z"
          fill="url(#paint3_linear_927_53304)"/>
    <path d="M44.7906 31.4134C43.5907 32.2813 42.0287 32.6611 40.5178 33.0182C41.8497 33.0099 43.1815 33.0223 44.5124 33.0553C44.3507 33.2875 44.3006 33.5765 44.3763 33.8397C44.6402 33.2277 44.9041 32.6157 45.169 32.0027C45.4258 31.4083 45.6355 30.7694 45.9526 30.1987C45.9434 30.3989 45.613 30.6806 45.4657 30.8324C45.2611 31.0429 45.034 31.2369 44.7906 31.4134Z"
          fill="url(#paint4_linear_927_53304)"/>
    <path d="M20.3263 8.94407C16.4935 9.56432 12.4611 9.45182 8.61594 9.04416C7.96945 8.97502 7.08768 8.76245 6.48518 9.16907C6.1558 9.3889 5.82648 9.61384 5.4971 9.83985C5.17999 10.0597 4.89457 10.3104 4.646 10.5984C5.23008 9.51991 5.86329 8.47347 6.55274 7.45795C6.73891 7.1824 6.92506 6.91306 7.11839 6.64267C7.11225 6.69324 7.10613 6.74277 7.11227 6.79334C7.14296 7.23195 7.44781 7.61479 7.82015 7.84597C8.19249 8.07198 8.62722 8.17828 9.05685 8.25981C12.6974 8.99978 16.6111 8.62927 20.3263 8.943V8.94407Z"
          fill="url(#paint5_linear_927_53304)"/>
    <path d="M0.952467 20.5948C0.791868 20.9766 1.0199 21.4338 1.36054 21.665C1.70117 21.8961 2.12678 21.9539 2.53492 22.0035C4.08977 22.1923 5.66193 22.342 7.22086 22.1892C5.44916 22.2656 3.5036 22.4493 1.7319 22.5257C1.61324 22.5308 1.49152 22.537 1.38514 22.5907C1.16316 22.7042 1.08748 22.9901 1.09157 23.2409C1.09566 23.4927 1.15393 23.7476 1.09869 23.9922C0.846026 22.8652 0.838922 21.7434 0.952467 20.5937V20.5948Z"
          fill="url(#paint6_linear_927_53304)"/>
    <path d="M40.7727 20.3212C40.473 18.6545 39.9145 16.9227 39.1626 15.2746C38.4865 13.7916 37.617 12.3034 36.6002 11.0165C35.6837 9.8544 34.2075 9.12476 32.9442 8.40131C32.3918 8.08654 31.9152 7.68404 31.3393 7.42912C19.8242 2.25247 6.28175 12.2982 7.44482 24.4844C7.63917 26.5299 8.28575 28.5228 9.3322 30.3082C12.2128 35.2537 17.4787 38.4034 23.2449 38.9545C25.3787 39.1557 27.5534 39.0608 29.6341 38.5634C33.8546 37.5489 37.3162 34.8512 39.3743 31.1214C41.1204 27.9603 41.4079 23.8095 40.7737 20.3222L40.7727 20.3212Z"
          fill="url(#paint7_linear_927_53304)"/>
    <path d="M37.0933 33.6117C38.4722 32.235 39.4153 30.4558 39.9687 28.5827C40.5211 26.7095 40.697 24.7404 40.6786 22.7868C40.6755 22.5061 40.6511 22.214 40.5478 21.9508C40.4045 21.5845 40.1314 21.4452 39.7611 21.3533C39.2046 21.215 38.6471 21.0767 38.0906 20.9374C39.4071 20.991 40.8372 20.9199 42.1537 20.86C41.9327 20.9364 41.7118 21.0127 41.4909 21.0901C41.4356 21.1097 41.3784 21.1294 41.3364 21.1706C41.2924 21.2129 41.2698 21.2738 41.2545 21.3326C41.1676 21.6495 41.2147 21.9849 41.2413 22.3121C41.2842 22.8384 41.275 23.3668 41.2413 23.8931C41.2249 24.1542 41.2034 24.4143 41.1798 24.6744C41.1277 25.2492 41.0101 25.8086 40.8955 26.3752C40.6786 27.4485 40.5426 28.5383 40.2521 29.594C39.9616 30.6498 39.5033 31.6849 38.7382 32.4641C38.8261 32.6839 39 32.8687 39.2138 32.9698C38.9468 32.9863 38.6686 33.007 38.4405 33.1463C38.3116 33.2247 38.2073 33.3352 38.104 33.4446C37.7398 33.8316 37.3818 34.2247 37.0115 34.6066C36.8918 34.7294 36.7619 34.8141 36.6176 34.9028C36.2964 35.0989 36.0817 35.4425 35.8219 35.7057C34.6342 36.9132 33.0671 37.6789 31.4601 38.2001C31.3394 38.2393 31.2176 38.2776 31.0958 38.3137C29.989 38.646 28.8517 38.872 27.7029 38.9907C26.5542 39.1094 25.3941 39.1197 24.2433 39.0227C23.6684 38.9742 23.0946 38.8988 22.5269 38.7956C22.2425 38.744 21.9602 38.6862 21.6789 38.6212C20.7797 38.4138 19.8754 38.2652 18.9957 37.9773C16.4149 37.1351 14.1513 35.554 12.0655 33.8419C11.8129 33.6345 11.5621 33.4249 11.3136 33.2134C11.2051 33.1215 11.0692 33.0256 10.9689 32.9224C10.884 32.8346 10.8227 32.7324 10.7286 32.652C10.5434 32.4941 10.3152 32.3899 10.081 32.3279C9.70557 32.2278 9.31382 32.2205 8.9292 32.1689C8.98239 32.0472 9.12969 32.0028 9.2596 31.977C9.55318 31.9192 9.85184 31.8852 10.1505 31.8748C10.2968 31.8697 10.4533 31.8914 10.5976 31.8748C10.7172 31.8614 10.8206 31.8542 10.9443 31.8645C11.5325 31.9161 12.1074 32.0595 12.6925 32.1287C13.0454 32.171 13.4035 32.1855 13.7564 32.1349C12.9094 32.2103 12.0624 32.2887 11.2154 32.3547C11.5346 33.139 12.3233 33.6107 13.0731 33.9977C13.2235 34.0751 13.3922 34.1401 13.5231 34.2433C13.5814 34.2887 13.6377 34.3362 13.6961 34.3817C13.8137 34.4735 13.9303 34.5653 14.0479 34.6572C14.2832 34.8398 14.5195 35.0215 14.7578 35.2C15.2345 35.5561 15.7214 35.8997 16.2268 36.2135C16.9295 36.65 17.668 37.0298 18.4362 37.3332C19.6238 37.8028 20.882 38.0908 22.1545 38.1826C24.453 38.3498 26.6892 38.6522 28.9662 38.293C29.2363 38.2507 29.5052 38.2064 29.7722 38.1496C31.5705 37.7667 33.199 36.8193 34.7211 35.7821C35.6428 35.1546 36.3046 34.4002 37.0943 33.6128L37.0933 33.6117Z"
          fill="#F98C3A"/>
    <path d="M9.27694 29.887C8.95063 29.0903 8.62541 28.2926 8.29909 27.4958C8.11701 27.051 7.93486 26.6042 7.81211 26.1387C7.70675 25.7373 7.64642 25.3254 7.58709 24.9147C7.52777 24.5081 7.46949 24.1014 7.41016 23.6948C7.46744 24.0901 7.46849 24.4978 7.51555 24.8951C7.5626 25.2997 7.6219 25.7032 7.69248 26.1046C7.83365 26.9014 8.01982 27.6898 8.25202 28.4649C8.36045 28.8281 8.47903 29.1873 8.60689 29.5444C8.65906 29.6899 8.71841 29.8354 8.75012 29.9871C8.7716 30.0904 8.76958 30.1935 8.78084 30.2978C8.81459 30.6136 8.99563 30.9273 9.12248 31.2142C9.41299 31.1977 9.70352 31.1801 9.99506 31.1636C9.94187 31.1667 9.78642 30.9366 9.75369 30.8943C9.67288 30.79 9.60021 30.6806 9.53679 30.5661C9.41404 30.3452 9.37002 30.1171 9.27694 29.887Z"
          fill="#F98C3A"/>
    <path d="M14.7597 9.73558C16.3207 9.87284 17.8909 9.75312 19.4539 9.63341C19.0744 9.54981 18.6888 9.49207 18.3021 9.45389C17.9155 9.4157 17.5257 9.3971 17.137 9.38781C16.7442 9.37955 16.3514 9.38164 15.9586 9.3868C15.5668 9.39196 15.1751 9.39919 14.7833 9.40022C14.3926 9.40125 14.0008 9.39713 13.6111 9.37855C13.563 9.37649 13.5139 9.37025 13.4669 9.37232C13.4454 9.43321 13.431 9.53126 13.4596 9.59215C13.4985 9.67368 13.5906 9.65612 13.6653 9.65716C13.9016 9.65716 14.1368 9.67681 14.371 9.69848C14.4999 9.71086 14.6319 9.71803 14.7597 9.73558Z"
          fill="#F98C3A"/>
    <defs>
        <linearGradient id="paint0_linear_927_53304" x1="23.7391" y1="-1.26478" x2="23.9807" y2="22.0188"
                        gradientUnits="userSpaceOnUse">
            <stop stop-color="#DF5212"/>
            <stop offset="1" stop-color="#610F3F"/>
        </linearGradient>
        <linearGradient id="paint1_linear_927_53304" x1="41.0263" y1="-8.8676" x2="-0.942682" y2="68.2981"
                        gradientUnits="userSpaceOnUse">
            <stop stop-color="#DF5212"/>
            <stop offset="1" stop-color="#610F3F"/>
        </linearGradient>
        <linearGradient id="paint2_linear_927_53304" x1="41.8099" y1="-1.45252" x2="42.0526" y2="21.8311"
                        gradientUnits="userSpaceOnUse">
            <stop stop-color="#DF5212"/>
            <stop offset="1" stop-color="#610F3F"/>
        </linearGradient>
        <linearGradient id="paint3_linear_927_53304" x1="9.73116" y1="-1.11904" x2="9.97272" y2="22.1644"
                        gradientUnits="userSpaceOnUse">
            <stop stop-color="#DF5212"/>
            <stop offset="1" stop-color="#610F3F"/>
        </linearGradient>
        <linearGradient id="paint4_linear_927_53304" x1="42.8971" y1="-1.4641" x2="43.1387" y2="21.8196"
                        gradientUnits="userSpaceOnUse">
            <stop stop-color="#DF5212"/>
            <stop offset="1" stop-color="#610F3F"/>
        </linearGradient>
        <linearGradient id="paint5_linear_927_53304" x1="22.1799" y1="-7.23586" x2="15.7924" y2="3.76814"
                        gradientUnits="userSpaceOnUse">
            <stop stop-color="#DF5212"/>
            <stop offset="1" stop-color="#610F3F"/>
        </linearGradient>
        <linearGradient id="paint6_linear_927_53304" x1="8.43915" y1="4.83242" x2="3.9234" y2="21.6956"
                        gradientUnits="userSpaceOnUse">
            <stop stop-color="#DF5212"/>
            <stop offset="1" stop-color="#610F3F"/>
        </linearGradient>
        <linearGradient id="paint7_linear_927_53304" x1="15.6488" y1="3.69412" x2="28.0946" y2="43.9708"
                        gradientUnits="userSpaceOnUse">
            <stop stop-color="#681646"/>
            <stop offset="1" stop-color="#32001D"/>
        </linearGradient>
    </defs>
</svg>
