<svg width="332" height="74" viewBox="0 0 332 74" fill="none" xmlns="http://www.w3.org/2000/svg">
    <path d="M331.207 10.5545C330.757 5.03203 325.807 0.69663 319.749 0.474302C302.698 -0.150002 31.7413 -0.160935 14.8418 0.4594C13.6179 0.504064 12.4031 0.720447 11.2512 1.10257C10.6793 1.29215 10.1234 1.52144 9.58948 1.78942C6.96487 3.10553 5.18119 5.39034 3.79639 7.75257C2.34361 10.2309 0.858804 12.9822 0.672832 15.8298C0.521854 18.1414 0.400882 20.455 0.307895 22.7696C0.297897 23.0198 0.287843 23.257 0.325837 23.5041C0.346834 23.6421 0.360903 23.7751 0.348905 23.915C0.283915 24.6545 0.33182 25.3194 0.758756 25.9765C1.00972 26.3636 1.36067 26.7001 1.78461 26.9313C1.73861 26.9065 1.38665 27.2162 1.34265 27.2539C1.19968 27.376 1.06672 27.509 0.94574 27.6499C0.702776 27.9328 0.507774 28.2484 0.363795 28.5829C0.220817 28.9174 0.129839 29.2708 0.0978436 29.6291C-0.0301375 31.0672 0.00288305 32.5114 0.0238799 33.9515C0.0418773 35.1982 -0.0910757 36.5261 0.126892 37.7599C0.181884 38.0695 0.132861 38.3852 0.195852 38.6978C0.334831 39.3966 0.694758 40.0417 1.05071 40.665C0.456793 41.2357 0.196921 42.0427 0.166925 42.8298C0.13193 43.7498 0.31891 44.6371 0.249921 45.5681C0.0679476 48.0386 0.223874 50.5854 0.397848 53.0549C0.417845 53.3427 0.465824 53.6245 0.533814 53.9064C0.701789 54.6032 0.716772 55.3238 1.14371 55.9461C1.33068 56.219 1.57261 56.4613 1.85857 56.6498C1.57161 56.624 1.35871 56.8811 1.22573 57.1153C0.395851 58.5714 0.396851 59.7048 0.725802 61.2631C1.06875 62.8859 0.970781 64.4412 1.61569 66.0233C2.15161 67.3394 2.96244 68.5602 3.99229 69.6034C6.11197 71.7522 9.11759 73.0782 12.2801 73.245C30.2295 74.1909 47.5149 74.2772 64.0125 73.3383C64.0854 73.3343 64.1574 73.3294 64.2304 73.3244C66.2321 73.1775 322.163 72.576 323.85 71.5785C325.494 70.6068 326.872 69.2719 327.839 67.7156C328.957 65.9171 329.484 63.798 330.043 61.81C330.389 60.5802 330.934 59.0359 330.782 57.7198C330.697 56.9774 330.928 56.2498 330.889 55.5044C330.846 54.6627 330.609 53.828 330.184 53.0796C330.132 52.9883 330.076 52.8941 330.072 52.7909C330.061 52.5467 330.324 52.3809 330.533 52.229C331.011 51.8826 331.334 51.3676 331.434 50.8187C331.458 50.6847 331.478 50.5467 331.45 50.4127C331.4 50.1795 331.413 49.9819 331.427 49.7328C331.521 48.0197 331.604 46.3066 331.675 44.5935C331.753 42.7146 331.817 40.8357 331.866 38.9559C331.914 37.1018 331.947 35.2468 331.964 33.3917C331.98 31.5635 331.981 29.7342 331.964 27.906C331.955 27.0018 331.943 26.0976 331.925 25.1934C331.916 24.7437 331.907 24.2942 331.896 23.8446C331.886 23.4168 331.812 22.9483 331.868 22.5225C331.888 22.3716 331.935 22.2575 331.913 22.1016C331.887 21.92 331.838 21.7383 331.782 21.5617C331.669 21.2073 331.507 20.8659 331.301 20.5483C331.096 20.2297 330.848 19.9349 330.564 19.6719C330.486 19.5994 329.71 18.9384 329.632 19.0029C329.869 18.8014 330.08 18.5761 330.265 18.333C330.743 17.7037 331.036 16.9712 331.222 16.2288C331.317 15.8487 331.362 15.4656 331.433 15.0825C331.447 15.008 331.48 14.9405 331.496 14.867C331.558 14.5961 331.478 14.2785 331.46 14.0065C331.385 12.8552 331.301 11.7038 331.207 10.5525V10.5545Z"
          fill="url(#paint0_linear_920_39315)"/>
    <path d="M331.993 23.2719C331.983 25.2083 331.963 27.1348 331.953 29.0713C331.943 29.9933 331.943 30.9253 331.933 31.8573C331.933 32.3596 331.923 32.8528 331.923 33.355C331.893 35.9853 331.853 38.6155 331.773 41.2467C331.743 42.5529 331.703 43.859 331.643 45.1652C331.613 45.9503 331.623 46.6719 331.343 47.4123C331.023 48.2342 331.053 49.2297 330.943 50.0882C330.903 50.3621 330.853 50.6549 330.633 50.8465C330.433 51.0291 330.123 51.0658 329.843 51.0837C329.373 51.1294 328.893 51.175 328.423 51.2207C325.694 51.4767 322.954 51.714 320.214 51.7775C318.185 51.8142 316.145 51.7596 314.115 51.5492C315.655 51.7596 317.195 51.9691 318.735 52.1795C319.175 52.243 319.605 52.2986 320.045 52.3621C323.184 52.7909 326.324 53.2117 329.463 53.6405C329.743 53.6861 330.053 53.7318 330.263 53.9055C330.583 54.1616 330.593 54.5993 330.583 54.9834C330.553 55.568 330.483 56.1338 330.383 56.7094C330.213 57.8508 329.973 58.9833 329.923 60.1436C329.913 60.3808 329.953 60.619 329.913 60.8562C329.783 61.5778 329.193 62.2815 328.743 62.8562C326.654 65.5321 323.304 67.2402 319.715 67.4407C303.477 68.3727 32.4781 68.2814 14.8007 67.3494C12.2511 67.2124 9.79138 66.3172 7.83167 64.8105C6.66184 63.9063 5.58209 62.7559 4.92219 61.4855C4.62223 60.9009 4.5422 60.2528 4.25224 59.6592C4.19225 59.5312 4.13223 59.4131 4.09223 59.2761C3.99225 58.893 4.0323 58.4543 4.40225 58.1982C4.79219 57.9154 5.34205 57.8876 5.84197 57.8697C11.4611 57.696 17.0804 57.3764 22.6996 57.2305H22.8695C24.5792 57.1848 26.309 57.157 28.0187 57.157C27.3888 57.0657 26.7589 56.9922 26.119 56.9287C23.2194 56.6091 20.2899 56.5089 17.3703 56.4077C17.3303 56.4077 17.3003 56.3987 17.2703 56.3987H17.2403C13.7208 56.2796 10.2113 56.1427 6.73186 55.6404C6.07195 55.5402 5.38211 55.4122 4.78219 55.1561C4.34226 54.9735 3.95233 54.7084 3.67237 54.3432C3.65238 54.3154 3.63232 54.2797 3.61232 54.2519C3.21238 53.6762 3.05248 52.8177 3.18246 52.1695C3.34243 51.4202 3.24247 50.6897 3.20247 49.9046C3.12248 48.5438 3.04239 47.1741 2.9724 45.8124C2.92241 45.063 2.88241 44.3236 2.84242 43.5742C2.82242 43.1633 2.80242 42.7067 3.09238 42.3871C3.32235 42.1409 3.70237 42.0497 4.05232 41.9673C5.15216 41.7112 6.25194 41.4651 7.37178 41.3102C7.8717 41.2278 8.37163 41.1732 8.87155 41.1455C7.58175 40.8804 6.30195 40.6155 5.01214 40.3505C4.6222 40.2681 4.23225 40.1857 3.8823 40.013C3.80232 39.9762 3.72234 39.9306 3.64235 39.8849C3.00244 39.4651 2.85245 38.8894 2.75247 38.2681C2.72247 38.0577 2.6925 37.8483 2.6525 37.6378C2.56252 37.1535 2.49257 36.6701 2.44258 36.1768C2.35259 35.4285 2.31255 34.6791 2.27256 33.9387C2.19257 32.304 2.10254 30.2028 3.23238 28.8331C3.64231 28.3398 4.37226 28.2306 5.03216 28.1571C7.65177 27.8743 10.2714 27.6182 12.891 27.4177C13.4309 27.372 13.9808 27.3264 14.5207 27.2896C17.1704 27.0981 19.8199 26.9423 22.4795 26.8331C19.28 26.9611 16.0705 26.9244 12.871 26.7239C10.8613 26.6048 8.86155 26.4222 6.86184 26.185C6.02197 26.0758 5.16213 25.9567 4.40225 25.6093C4.38225 25.6003 4.36219 25.5915 4.3422 25.5815C4.14223 25.4992 3.95231 25.39 3.77233 25.2619C3.37239 24.979 3.06243 24.5771 2.89246 24.1473C2.71249 23.6818 2.80245 23.3066 2.87244 22.8411C2.89244 22.6674 2.87244 22.5037 2.87244 22.33C2.83245 21.2978 2.92251 20.2476 2.95251 19.2154C2.97251 18.6854 2.99245 18.1554 3.02245 17.6263C3.10243 15.3157 3.22239 13.014 3.37237 10.7123C3.74231 5.12239 8.71155 0.683756 14.8406 0.464405C31.7381 -0.156922 302.697 -0.147956 319.745 0.473371C325.224 0.673863 329.993 4.40083 331.023 9.3238C331.343 10.8404 331.453 12.4751 331.133 13.9996C331.053 14.3828 330.953 14.7579 330.793 15.1231C330.703 15.3236 330.553 15.7534 330.343 15.9182C330.333 15.9361 330.313 15.946 330.303 15.9549C330.163 16.0373 329.953 16.0552 329.793 16.083C328.793 16.3023 327.793 16.4938 326.784 16.6586C324.784 16.9871 322.754 17.2155 320.724 17.3802H320.704C316.615 17.7087 312.506 17.7633 308.406 17.8278H308.286C309.406 17.8914 310.536 17.9469 311.656 18.0104C314.705 18.1653 317.755 18.339 320.794 18.5037C322.824 18.6129 324.854 18.7142 326.883 18.8233C328.113 18.8968 329.393 18.9692 330.443 19.5449C330.453 19.5449 330.453 19.5539 330.463 19.5539C331.933 20.3668 332.013 21.8655 331.993 23.2719Z"
          fill="url(#paint1_linear_920_39315)"/>
    <path d="M3.67764 54.3403C3.23764 53.7646 3.04765 52.8515 3.18765 52.1666C3.34765 51.4173 3.24755 50.6868 3.20755 49.9017C3.07755 47.7915 2.96756 45.6824 2.84756 43.5723C2.82756 43.1614 2.80756 42.7048 3.09756 42.3852C3.32756 42.1391 3.70765 42.0477 4.05765 41.9653C5.15765 41.7093 6.25759 41.4631 7.37759 41.3073C6.74759 41.7549 6.13761 42.1112 5.39761 42.4487C5.13761 42.5678 4.86764 42.6859 4.67764 42.8874C4.47764 43.0978 4.39766 43.3896 4.32766 43.6636C3.69766 46.3126 4.0376 49.0709 4.3876 51.7647C4.5376 52.8882 4.67763 54.0206 4.78763 55.1531C4.34763 54.9705 3.95764 54.7055 3.67764 54.3403Z"
          fill="#F98C3A"/>
    <path d="M2.65763 37.6349C2.42767 36.42 2.33767 35.1595 2.27768 33.9357C2.1977 32.301 2.10767 30.1998 3.2375 28.8301C3.64744 28.3368 4.37738 28.2276 5.03728 28.1542C8.19682 27.8068 11.3563 27.515 14.5259 27.2867C11.5263 28.1998 8.07684 28.2088 5.16727 29.3323C4.63735 29.5328 4.09743 29.7978 3.79748 30.2454C3.59751 30.5472 3.51743 30.9025 3.45744 31.2499C3.27747 32.3367 3.13749 33.3779 3.20748 34.4647C3.25747 35.1684 3.31751 35.8712 3.3875 36.5749C3.50749 37.7252 3.67746 38.8676 3.88743 40.009C3.80744 39.9723 3.72746 39.9266 3.64748 39.881C2.7976 39.3242 2.81761 38.4756 2.65763 37.6349Z"
          fill="#F98C3A"/>
    <path d="M318.22 51.9651C318.35 52.0197 318.48 52.0742 318.61 52.1209C318.47 52.0931 318.34 52.0475 318.22 51.9651Z"
          fill="#F98C3A"/>
    <path d="M330.588 54.9795C330.508 56.7243 329.998 58.4047 329.928 60.1397C329.918 60.3769 329.958 60.6151 329.918 60.8523C329.788 61.5739 329.198 62.2776 328.748 62.8523C326.659 65.5281 323.309 67.2363 319.72 67.4368C303.482 68.3688 32.4832 68.2775 14.8058 67.3455C12.2562 67.2085 9.79649 66.3132 7.83678 64.8065C6.66696 63.9023 5.58721 62.752 4.9273 61.4825C4.62735 60.8979 4.54732 60.2499 4.25736 59.6563C4.19737 59.5283 4.13734 59.4101 4.09735 59.2722C3.99736 58.8891 4.03742 58.4504 4.40736 58.1943C4.7973 57.9114 5.34716 57.8836 5.84709 57.8658C11.4663 57.6921 17.0854 57.3725 22.7046 57.2266C17.7653 57.4827 12.8461 58.1129 7.97678 58.9069C7.30688 59.0072 6.58707 59.0618 5.93716 59.2355C5.83718 59.2633 5.72716 59.2722 5.64717 59.3546C5.52719 59.4737 5.55723 59.6375 5.57723 59.7933C5.64722 60.3233 5.96716 60.761 6.31711 61.1818C7.45694 62.5426 8.64676 63.9579 10.3065 64.7619C14.3159 66.6983 18.4053 66.4155 22.9447 66.3143C23.8815 66.2934 24.7903 66.3073 25.7032 66.1584C26.1751 66.081 26.715 66.1604 27.1929 66.1733C28.2548 66.2011 29.3176 66.2279 30.3795 66.2547C32.5042 66.3093 34.6279 66.3639 36.7525 66.4184C40.725 66.5207 44.6973 66.6219 48.6687 66.7241C52.4522 66.8214 310.228 66.9038 314.005 66.6229C317.739 66.345 321.472 65.6988 324.926 64.3361C325.211 64.2239 325.53 64.1247 325.781 63.954C325.964 63.8299 326.107 63.6771 326.301 63.5619C326.876 63.2205 327.427 62.892 327.929 62.4602C328.268 62.1684 328.738 61.8022 328.918 61.3913C329.018 61.1719 329.068 60.9158 329.158 60.6876C329.408 60.0573 329.528 59.4002 329.578 58.7333C329.628 58.0028 329.588 57.2623 329.498 56.5318C329.458 56.2122 329.508 55.5998 329.298 55.3258C329.178 55.171 328.898 55.043 328.708 54.9606C328.218 54.7323 327.669 54.641 327.129 54.5497C324.249 54.0564 321.419 53.2624 318.74 52.1746C322.319 52.6679 325.889 53.1522 329.468 53.6356C329.748 53.6812 330.058 53.7269 330.268 53.9006C330.588 54.1567 330.598 54.5953 330.588 54.9795Z"
          fill="#F98C3A"/>
    <path d="M2.96025 24.1303C2.80627 23.5944 2.82122 23.0277 2.83722 22.4718C2.91521 19.7712 2.99229 17.0694 3.15626 14.3707C3.30724 11.8934 3.25526 9.28298 4.36409 6.9813C6.18682 3.19775 10.3241 0.624113 14.8455 0.46233C31.7429 -0.158997 302.702 -0.150031 319.749 0.471296C325.228 0.672781 329.998 4.39875 331.028 9.32172C331.348 10.8383 331.458 12.473 331.138 13.9985C331.058 14.3816 330.958 14.7568 330.798 15.1221C330.708 15.3226 330.558 15.7524 330.348 15.9171C329.998 13.4418 330.658 10.7202 329.688 8.39074C329.108 6.97538 328.278 5.5868 326.958 4.66473C322.611 1.58787 316.2 1.79634 310.976 1.709C296.559 1.46781 28.2405 1.04797 13.8666 2.23604C13.2067 2.29063 12.5568 2.07125 11.9169 2.17249C10.4971 2.39184 9.11738 3.27716 8.07753 4.14563C6.64774 5.34163 5.54782 6.87612 4.86793 8.53861C4.67795 9.02297 4.50798 9.51623 4.368 10.0185C2.97321 14.9077 3.57218 20.5721 4.23008 25.5249C3.61317 25.3413 3.18227 24.8072 2.9943 24.2395C2.9823 24.2038 2.97122 24.169 2.96123 24.1333L2.96025 24.1303Z"
          fill="#F98C3A"/>
    <path d="M331.998 23.2679C331.988 25.2043 331.968 27.1308 331.958 29.0673C331.948 29.9893 331.948 30.9213 331.938 31.8533C331.908 36.2919 331.838 40.7305 331.648 45.1602C331.618 45.9453 331.628 46.6669 331.348 47.4074C331.028 48.2292 331.058 49.2247 330.948 50.0832C330.908 50.3572 330.858 50.6499 330.638 50.8415C330.438 51.0241 330.128 51.0609 329.848 51.0787C329.378 51.1244 328.898 51.17 328.428 51.2157C328.698 51.042 328.918 50.8137 329.078 50.5219C329.308 50.0932 329.358 49.6088 329.398 49.1334C330.088 41.3063 330.138 33.4692 329.898 25.6331C329.868 24.6009 329.828 23.5597 329.778 22.5275C329.768 22.2902 329.818 22.062 329.788 21.8337C329.748 21.523 329.578 21.2401 329.358 20.993C328.868 20.454 328.138 20.1166 327.418 19.8972C322.179 18.2893 316.32 19.4585 311.021 18.0065H311.661C316.74 18.2715 321.809 18.5543 326.889 18.8193C328.118 18.8928 329.398 18.9653 330.448 19.5409C331.938 20.3449 332.018 21.8515 331.998 23.2679Z"
          fill="#F98C3A"/>
    <path d="M322.819 19.0228C322.819 19.0228 320.537 18.9573 320.329 18.9483C319.482 18.9146 318.635 18.8719 317.788 18.8203C317.364 18.7945 316.941 18.7667 316.517 18.737C316.305 18.7221 316.093 18.7061 315.882 18.6903C315.761 18.6813 315.635 18.6595 315.514 18.6645C315.467 18.6665 315.423 18.6793 315.376 18.6744C315.295 18.6654 315.212 18.6387 315.133 18.6208C314.8 18.5424 314.467 18.464 314.134 18.3866C314.127 18.3419 314.12 18.2972 314.112 18.2526C314.109 18.2347 314.575 18.2377 314.617 18.2407C314.755 18.2516 314.894 18.2863 315.033 18.2704C315.141 18.2585 315.242 18.2337 315.352 18.2308C315.527 18.2278 315.702 18.2308 315.877 18.2308C316.579 18.2337 317.281 18.2496 317.983 18.2774C318.686 18.3052 319.388 18.3459 320.088 18.3985C320.789 18.4511 321.49 18.5166 322.19 18.594C322.439 18.6218 322.687 18.6506 322.936 18.6813C322.936 18.8382 322.819 18.866 322.819 19.0228Z"
          fill="#F98C3A"/>
    <path d="M19.3448 26.9512C17.1071 27.1497 14.8815 27.4345 12.6778 27.8027C12.5338 27.6727 12.4659 27.5199 12.5089 27.3501C14.8355 27.0851 16.9981 27.0445 19.3448 26.9512Z"
          fill="#F98C3A"/>
    <path d="M310.768 8.87714H23.4595C17.1031 8.87714 11.9502 13.9923 11.9502 20.3022V48.9229C11.9502 55.2328 17.1031 60.348 23.4595 60.348H310.768C317.124 60.348 322.277 55.2328 322.277 48.9229V20.3022C322.277 13.9923 317.124 8.87714 310.768 8.87714Z"
          fill="url(#paint2_linear_920_39315)"/>
    <defs>
        <linearGradient id="paint0_linear_920_39315" x1="239.011" y1="-123.98" x2="194.78" y2="-24.9248"
                        gradientUnits="userSpaceOnUse">
            <stop stop-color="#DF5212"/>
            <stop offset="1" stop-color="#610F3F"/>
        </linearGradient>
        <linearGradient id="paint1_linear_920_39315" x1="220.475" y1="-88.2593" x2="59.917" y2="285.153"
                        gradientUnits="userSpaceOnUse">
            <stop stop-color="#DF5212"/>
            <stop offset="1" stop-color="#610F3F"/>
        </linearGradient>
        <linearGradient id="paint2_linear_920_39315" x1="198.284" y1="196.296" x2="170.408" y2="49.5639"
                        gradientUnits="userSpaceOnUse">
            <stop stop-color="#DF5212"/>
            <stop offset="1" stop-color="#610F3F"/>
        </linearGradient>
    </defs>
</svg>
