<svg width="117" height="133" viewBox="0 0 117 133" fill="none" xmlns="http://www.w3.org/2000/svg">
    <path d="M115.7 99.374V82.365L113.273 81.698L113.141 82.553L62.5035 56.783C59.9715 55.321 55.8665 55.321 53.3345 56.783L3.16446 81.814L0.136475 82.481V99.385C0.136475 100.343 0.769461 101.301 2.03546 102.032L53.3345 131.65C55.8665 133.112 59.9715 133.112 62.5035 131.65L113.802 102.033C115.073 101.299 115.706 100.336 115.701 99.374H115.7Z"
          fill="#A8522A"/>
    <path d="M115.7 83.677V80.274H113.273L113.141 80.661L62.5035 51.425C59.9715 49.963 55.8665 49.963 53.3345 51.425L3.16446 80.391H0.136475V83.689C0.136475 84.647 0.769461 85.605 2.03546 86.337L53.3345 115.954C55.8665 117.416 59.9715 117.416 62.5035 115.954L113.802 86.337C115.073 85.603 115.706 84.64 115.701 83.678L115.7 83.677Z"
          fill="#C16037"/>
    <path d="M115.7 80.702V77.299H113.273L113.141 77.686L62.5035 48.45C59.9715 46.988 55.8665 46.988 53.3345 48.45L3.16446 77.416H0.136475V80.714C0.136475 81.672 0.769461 82.63 2.03546 83.361L53.3345 112.979C55.8665 114.44 59.9715 114.44 62.5035 112.979L113.802 83.362C115.073 82.628 115.706 81.665 115.701 80.703L115.7 80.702Z"
          fill="#C16037"/>
    <path d="M57.9345 55.6881C56.2705 55.6861 54.6045 56.0511 53.3345 56.7841L3.16446 81.8151L0.136475 82.4821V99.3861C0.136475 100.344 0.769461 101.302 2.03546 102.033L53.3345 131.651C54.6045 132.384 56.2705 132.749 57.9345 132.747V55.6881Z"
          fill="#C96A3E"/>
    <path d="M57.9345 50.329C56.2705 50.327 54.6045 50.692 53.3345 51.425L3.16446 80.391H0.136475V83.689C0.136475 84.647 0.769461 85.605 2.03546 86.337L53.3345 115.954C54.6045 116.687 56.2705 117.052 57.9345 117.05V50.33V50.329Z"
          fill="#EA8F67"/>
    <path d="M57.9345 47.3551C56.2705 47.3531 54.6045 47.7181 53.3345 48.4511L3.16446 77.4171H0.136475V80.7151C0.136475 81.6731 0.769461 82.6311 2.03546 83.3621L53.3345 112.98C54.6045 113.713 56.2705 114.078 57.9345 114.076V47.3561V47.3551Z"
          fill="#EA8F67"/>
    <path d="M62.5025 109.681C59.9705 111.143 55.8655 111.143 53.3345 109.681L2.03547 80.064C-0.496525 78.602 -0.496525 76.232 2.03547 74.77L53.3345 45.153C55.8665 43.691 59.9715 43.691 62.5025 45.153L113.801 74.77C116.333 76.232 116.333 78.602 113.801 80.064L62.5025 109.681Z"
          fill="#D2704A"/>
    <path d="M71.4914 50.161L71.4604 50.251L59.6674 43.443C59.0774 43.103 58.1214 43.103 57.5324 43.443L45.8494 50.188H45.1444V52.501C45.1444 52.724 45.2914 52.095 45.5864 52.265L57.5324 60.015C58.1224 60.355 59.0784 60.355 59.6674 60.015L71.6134 53.118C71.9094 52.947 72.0564 52.723 72.0554 52.499V50.161H71.4904H71.4914Z"
          fill="#97AB00"/>
    <path d="M57.5335 43.442L45.8505 50.187H45.1455V52.5C45.1455 52.723 45.2925 52.946 45.5875 53.117L57.5335 60.014C57.8295 60.185 58.2175 60.27 58.6045 60.269V43.186C58.2165 43.186 57.8295 43.27 57.5335 43.441V43.442Z"
          fill="#A5BA00"/>
    <path d="M59.6684 57.702C59.0784 58.042 58.1224 58.042 57.5334 57.702L45.5874 50.805C44.9974 50.465 44.9974 49.913 45.5874 49.572L57.5334 42.675C58.1234 42.335 59.0794 42.335 59.6684 42.675L71.6144 49.572C72.2044 49.912 72.2044 50.464 71.6144 50.805L59.6684 57.702Z"
          fill="#BFD600"/>
    <path d="M56.4665 58.853L56.4355 58.943L44.6425 52.135C44.0525 51.795 43.0965 51.795 42.5075 52.135L30.8245 58.88H30.1195V61.193C30.1195 61.416 30.2665 60.787 30.5615 60.957L42.5075 68.707C43.0975 69.047 44.0535 69.047 44.6425 68.707L56.5885 61.81C56.8845 61.639 57.0315 61.415 57.0305 61.191V58.853H56.4665Z"
          fill="#97AB00"/>
    <path d="M42.5075 52.135L30.8245 58.88H30.1195V61.193C30.1195 61.416 30.2665 61.639 30.5615 61.81L42.5075 68.707C42.8035 68.878 43.1915 68.963 43.5785 68.962V51.879C43.1905 51.879 42.8035 51.963 42.5075 52.134V52.135Z"
          fill="#A5BA00"/>
    <path d="M44.6425 66.3941C44.0525 66.7341 43.0965 66.7341 42.5075 66.3941L30.5615 59.4971C29.9715 59.1571 29.9715 58.6051 30.5615 58.2641L42.5075 51.3671C43.0975 51.0271 44.0535 51.0271 44.6425 51.3671L56.5885 58.2641C57.1785 58.6041 57.1785 59.1561 56.5885 59.4971L44.6425 66.3941Z"
          fill="#BFD600"/>
    <path d="M41.3725 67.4951L41.3415 67.5851L29.5485 60.7771C28.9585 60.4371 28.0025 60.4371 27.4135 60.7771L15.7305 67.5221H15.0255V69.8351C15.0255 70.0581 15.1725 69.4291 15.4675 69.5991L27.4135 77.3491C28.0035 77.6891 28.9595 77.6891 29.5485 77.3491L41.4945 70.4521C41.7905 70.2811 41.9375 70.0571 41.9365 69.8331V67.4951H41.3715H41.3725Z"
          fill="#97AB00"/>
    <path d="M27.4145 60.777L15.7315 67.522H15.0265V69.835C15.0265 70.058 15.1735 70.281 15.4685 70.452L27.4145 77.349C27.7105 77.52 28.0985 77.605 28.4855 77.604V60.521C28.0975 60.521 27.7105 60.605 27.4145 60.776V60.777Z"
          fill="#A5BA00"/>
    <path d="M29.5495 75.036C28.9595 75.376 28.0035 75.376 27.4145 75.036L15.4685 68.139C14.8785 67.799 14.8785 67.247 15.4685 66.906L27.4145 60.009C28.0045 59.669 28.9605 59.669 29.5495 60.009L41.4955 66.906C42.0855 67.246 42.0855 67.798 41.4955 68.139L29.5495 75.036Z"
          fill="#BFD600"/>
    <path d="M26.3475 76.188L26.3165 76.2779L14.5235 69.47C13.9335 69.13 12.9775 69.13 12.3885 69.47L0.705505 76.215H0.000488281V78.5279C0.000488281 78.7509 0.147505 78.122 0.442505 78.292L12.3885 86.042C12.9785 86.382 13.9345 86.382 14.5235 86.042L26.4695 79.145C26.7655 78.974 26.9125 78.75 26.9115 78.526V76.188H26.3465H26.3475Z"
          fill="#97AB00"/>
    <path d="M12.3885 69.4691L0.705505 76.2141H0.000488281V78.527C0.000488281 78.75 0.147505 78.973 0.442505 79.144L12.3885 86.041C12.6845 86.212 13.0725 86.297 13.4595 86.296V69.213C13.0715 69.213 12.6845 69.297 12.3885 69.468V69.4691Z"
          fill="#A5BA00"/>
    <path d="M14.5235 83.7291C13.9335 84.0691 12.9775 84.0691 12.3885 83.7291L0.4425 76.832C-0.1475 76.492 -0.1475 75.9401 0.4425 75.5991L12.3885 68.702C12.9785 68.362 13.9345 68.362 14.5235 68.702L26.4695 75.5991C27.0595 75.9391 27.0595 76.491 26.4695 76.832L14.5235 83.7291Z"
          fill="#BFD600"/>
    <path d="M86.0155 58.5691L85.9845 58.6591L74.1915 51.8511C73.6015 51.5111 72.6455 51.5111 72.0565 51.8511L60.3735 58.5961H59.6685V60.9091C59.6685 61.1321 59.8155 60.5031 60.1105 60.6731L72.0565 68.4231C72.6465 68.7631 73.6025 68.7631 74.1915 68.4231L86.1375 61.5261C86.4335 61.3551 86.5805 61.1311 86.5795 60.9071V58.5691H86.0145H86.0155Z"
          fill="#97AB00"/>
    <path d="M72.0565 51.8511L60.3735 58.5961H59.6685V60.9091C59.6685 61.1321 59.8155 61.3551 60.1105 61.5261L72.0565 68.4231C72.3525 68.5941 72.7405 68.6791 73.1275 68.6781V51.5951C72.7395 51.5951 72.3525 51.6791 72.0565 51.8501V51.8511Z"
          fill="#A5BA00"/>
    <path d="M74.1915 66.11C73.6015 66.45 72.6455 66.45 72.0565 66.11L60.1105 59.213C59.5205 58.873 59.5205 58.321 60.1105 57.98L72.0565 51.083C72.6465 50.743 73.6025 50.743 74.1915 51.083L86.1375 57.98C86.7275 58.32 86.7275 58.872 86.1375 59.213L74.1915 66.11Z"
          fill="#BFD600"/>
    <path d="M70.9894 67.262L70.9584 67.3521L59.1654 60.5441C58.5754 60.2041 57.6194 60.2041 57.0304 60.5441L45.3474 67.2891H44.6425V69.6021C44.6425 69.8251 44.7894 69.1961 45.0844 69.3661L57.0304 77.1161C57.6204 77.4561 58.5764 77.4561 59.1654 77.1161L71.1115 70.2191C71.4074 70.0481 71.5544 69.8241 71.5534 69.6001V67.262H70.9884H70.9894Z"
          fill="#97AB00"/>
    <path d="M57.0314 60.544L45.3484 67.289H44.6434V69.602C44.6434 69.825 44.7904 70.048 45.0854 70.219L57.0314 77.116C57.3274 77.287 57.7154 77.372 58.1024 77.371V60.288C57.7144 60.288 57.3274 60.372 57.0314 60.543V60.544Z"
          fill="#A5BA00"/>
    <path d="M59.1664 74.803C58.5764 75.143 57.6204 75.143 57.0314 74.803L45.0854 67.906C44.4954 67.566 44.4954 67.014 45.0854 66.673L57.0314 59.776C57.6214 59.436 58.5774 59.436 59.1664 59.776L71.1124 66.673C71.7024 67.013 71.7024 67.565 71.1124 67.906L59.1664 74.803Z"
          fill="#BFD600"/>
    <path d="M55.8955 75.904L55.8645 75.994L44.0715 69.186C43.4815 68.846 42.5255 68.846 41.9365 69.186L30.2535 75.931H29.5485V78.244C29.5485 78.467 29.6955 77.8381 29.9905 78.0081L41.9365 85.7581C42.5265 86.0981 43.4825 86.0981 44.0715 85.7581L56.0175 78.861C56.3135 78.69 56.4605 78.4661 56.4595 78.2421V75.904H55.8945H55.8955Z"
          fill="#97AB00"/>
    <path d="M41.9374 69.1851L30.2545 75.9301H29.5494V78.2431C29.5494 78.4661 29.6965 78.6891 29.9915 78.8601L41.9374 85.7571C42.2334 85.9281 42.6215 86.0131 43.0085 86.0121V68.9291C42.6205 68.9291 42.2334 69.0131 41.9374 69.1841V69.1851Z"
          fill="#A5BA00"/>
    <path d="M44.0724 83.4449C43.4824 83.7849 42.5264 83.7849 41.9374 83.4449L29.9915 76.548C29.4015 76.208 29.4015 75.656 29.9915 75.315L41.9374 68.418C42.5274 68.078 43.4834 68.078 44.0724 68.418L56.0184 75.315C56.6084 75.655 56.6084 76.207 56.0184 76.548L44.0724 83.4449Z"
          fill="#BFD600"/>
    <path d="M40.8706 84.596L40.8396 84.686L29.0466 77.878C28.4566 77.538 27.5006 77.538 26.9116 77.878L15.2286 84.623H14.5236V86.936C14.5236 87.159 14.6706 86.53 14.9656 86.7L26.9116 94.45C27.5016 94.79 28.4576 94.79 29.0466 94.45L40.9926 87.553C41.2886 87.382 41.4356 87.158 41.4346 86.934V84.596H40.8696H40.8706Z"
          fill="#97AB00"/>
    <path d="M26.9116 77.878L15.2286 84.623H14.5236V86.936C14.5236 87.159 14.6706 87.382 14.9656 87.553L26.9116 94.45C27.2076 94.621 27.5956 94.706 27.9826 94.705V77.6219C27.5946 77.6219 27.2076 77.706 26.9116 77.877V77.878Z"
          fill="#A5BA00"/>
    <path d="M29.0466 92.1371C28.4566 92.4771 27.5006 92.4771 26.9116 92.1371L14.9656 85.2401C14.3756 84.9001 14.3756 84.3481 14.9656 84.0071L26.9116 77.1101C27.5016 76.7701 28.4576 76.7701 29.0466 77.1101L40.9925 84.0071C41.5825 84.3471 41.5825 84.8991 40.9925 85.2401L29.0466 92.1371Z"
          fill="#BFD600"/>
    <path d="M101.04 67.1621L101.009 67.2521L89.2165 60.4441C88.6265 60.1041 87.6705 60.1041 87.0815 60.4441L75.3985 67.1891H74.6935V69.5021C74.6935 69.7251 74.8405 69.0961 75.1355 69.2661L87.0815 77.0161C87.6715 77.3561 88.6275 77.3561 89.2165 77.0161L101.162 70.1191C101.458 69.9481 101.605 69.7241 101.604 69.5001V67.1621H101.039H101.04Z"
          fill="#97AB00"/>
    <path d="M87.0825 60.4441L75.3995 67.1891H74.6945V69.5021C74.6945 69.7251 74.8415 69.9481 75.1365 70.1191L87.0825 77.0161C87.3785 77.1871 87.7665 77.2721 88.1535 77.2711V60.1881C87.7655 60.1881 87.3785 60.2721 87.0825 60.4431V60.4441Z"
          fill="#A5BA00"/>
    <path d="M89.2175 74.7031C88.6275 75.0431 87.6715 75.0431 87.0825 74.7031L75.1365 67.806C74.5465 67.466 74.5465 66.914 75.1365 66.573L87.0825 59.676C87.6725 59.336 88.6285 59.336 89.2175 59.676L101.163 66.573C101.753 66.913 101.753 67.465 101.163 67.806L89.2175 74.7031Z"
          fill="#BFD600"/>
    <path d="M86.0155 75.855L85.9845 75.9449L74.1915 69.137C73.6015 68.797 72.6455 68.797 72.0565 69.137L60.3735 75.882H59.6685V78.1949C59.6685 78.4179 59.8155 77.789 60.1105 77.959L72.0565 85.709C72.6465 86.049 73.6025 86.049 74.1915 85.709L86.1375 78.8119C86.4335 78.6409 86.5805 78.417 86.5795 78.193V75.855H86.0145H86.0155Z"
          fill="#97AB00"/>
    <path d="M72.0565 69.137L60.3735 75.882H59.6685V78.1949C59.6685 78.4179 59.8155 78.641 60.1105 78.812L72.0565 85.709C72.3525 85.88 72.7405 85.965 73.1275 85.964V68.881C72.7395 68.881 72.3525 68.966 72.0565 69.137Z"
          fill="#A5BA00"/>
    <path d="M74.1915 83.3961C73.6015 83.7361 72.6455 83.7361 72.0565 83.3961L60.1105 76.499C59.5205 76.159 59.5205 75.607 60.1105 75.266L72.0565 68.369C72.6465 68.029 73.6025 68.029 74.1915 68.369L86.1375 75.266C86.7275 75.606 86.7275 76.158 86.1375 76.499L74.1915 83.3961Z"
          fill="#BFD600"/>
    <path d="M70.9215 84.497L70.8905 84.587L59.0975 77.779C58.5075 77.439 57.5515 77.439 56.9625 77.779L45.2795 84.524H44.5745V86.837C44.5745 87.06 44.7215 86.431 45.0165 86.601L56.9625 94.351C57.5525 94.691 58.5085 94.691 59.0975 94.351L71.0435 87.454C71.3395 87.283 71.4865 87.059 71.4855 86.835V84.497H70.9205H70.9215Z"
          fill="#97AB00"/>
    <path d="M56.9636 77.7781L45.2805 84.5231H44.5756V86.8361C44.5756 87.0591 44.7226 87.2821 45.0176 87.4531L56.9636 94.3501C57.2596 94.5211 57.6476 94.6061 58.0346 94.6051V77.5221C57.6466 77.5221 57.2596 77.6071 56.9636 77.7781Z"
          fill="#A5BA00"/>
    <path d="M59.0986 92.037C58.5086 92.377 57.5526 92.377 56.9636 92.037L45.0176 85.14C44.4276 84.8 44.4276 84.248 45.0176 83.907L56.9636 77.01C57.5536 76.67 58.5096 76.67 59.0986 77.01L71.0445 83.907C71.6346 84.247 71.6346 84.799 71.0445 85.14L59.0986 92.037Z"
          fill="#BFD600"/>
    <path d="M55.8955 93.189L55.8645 93.279L44.0715 86.4709C43.4815 86.1309 42.5255 86.1309 41.9365 86.4709L30.2535 93.216H29.5485V95.529C29.5485 95.752 29.6955 95.123 29.9905 95.293L41.9365 103.043C42.5265 103.383 43.4825 103.383 44.0715 103.043L56.0175 96.146C56.3135 95.975 56.4605 95.751 56.4595 95.527V93.189H55.8945H55.8955Z"
          fill="#97AB00"/>
    <path d="M41.9374 86.4709L30.2545 93.216H29.5494V95.529C29.5494 95.752 29.6965 95.975 29.9915 96.146L41.9374 103.043C42.2334 103.214 42.6215 103.299 43.0085 103.298V86.215C42.6205 86.215 42.2334 86.2999 41.9374 86.4709Z"
          fill="#A5BA00"/>
    <path d="M44.0724 100.73C43.4824 101.07 42.5264 101.07 41.9374 100.73L29.9915 93.8331C29.4015 93.4931 29.4015 92.9411 29.9915 92.6001L41.9374 85.7031C42.5274 85.3631 43.4834 85.3631 44.0724 85.7031L56.0184 92.6001C56.6084 92.9401 56.6084 93.4921 56.0184 93.8331L44.0724 100.73Z"
          fill="#BFD600"/>
    <path d="M115.958 75.8191L115.927 75.9091L104.134 69.1011C103.544 68.7611 102.588 68.7611 101.999 69.1011L90.3164 75.8461H89.6115V78.1591C89.6115 78.3821 89.7584 77.7531 90.0534 77.9231L101.999 85.6731C102.589 86.0131 103.545 86.0131 104.134 85.6731L116.08 78.7761C116.376 78.6051 116.523 78.3811 116.522 78.1571V75.8191H115.957H115.958Z"
          fill="#97AB00"/>
    <path d="M101.999 69.1011L90.3164 75.8461H89.6115V78.1591C89.6115 78.3821 89.7584 78.6051 90.0534 78.7761L101.999 85.6731C102.295 85.8441 102.683 85.9291 103.07 85.9281V68.8451C102.682 68.8451 102.295 68.9301 101.999 69.1011Z"
          fill="#A5BA00"/>
    <path d="M104.134 83.36C103.544 83.7 102.588 83.7 101.999 83.36L90.0535 76.463C89.4635 76.123 89.4635 75.571 90.0535 75.23L101.999 68.333C102.589 67.993 103.545 67.993 104.134 68.333L116.08 75.23C116.67 75.57 116.67 76.122 116.08 76.463L104.134 83.36Z"
          fill="#BFD600"/>
    <path d="M100.933 84.512L100.902 84.602L89.1086 77.7939C88.5186 77.4539 87.5626 77.4539 86.9736 77.7939L75.2906 84.539H74.5856V86.852C74.5856 87.075 74.7326 86.446 75.0276 86.616L86.9736 94.366C87.5636 94.706 88.5196 94.706 89.1086 94.366L101.055 87.469C101.351 87.298 101.498 87.074 101.497 86.85V84.512H100.932H100.933Z"
          fill="#97AB00"/>
    <path d="M86.9745 77.793L75.2915 84.538H74.5865V86.851C74.5865 87.074 74.7335 87.297 75.0285 87.468L86.9745 94.365C87.2705 94.536 87.6585 94.621 88.0455 94.62V77.537C87.6575 77.537 87.2705 77.622 86.9745 77.793Z"
          fill="#A5BA00"/>
    <path d="M89.1096 92.0531C88.5196 92.3931 87.5635 92.3931 86.9745 92.0531L75.0286 85.1561C74.4386 84.8161 74.4386 84.2641 75.0286 83.9231L86.9745 77.0261C87.5645 76.6861 88.5206 76.6861 89.1096 77.0261L101.056 83.9231C101.646 84.2631 101.646 84.8151 101.056 85.1561L89.1096 92.0531Z"
          fill="#BFD600"/>
    <path d="M85.8396 93.153L85.8086 93.243L74.0156 86.4351C73.4256 86.0951 72.4696 86.0951 71.8806 86.4351L60.1976 93.18H59.4926V95.493C59.4926 95.716 59.6396 95.087 59.9346 95.257L71.8806 103.007C72.4706 103.347 73.4266 103.347 74.0156 103.007L85.9616 96.11C86.2576 95.939 86.4046 95.715 86.4036 95.491V93.153H85.8386H85.8396Z"
          fill="#97AB00"/>
    <path d="M71.8806 86.4351L60.1976 93.1801H59.4926V95.4931C59.4926 95.7161 59.6396 95.9391 59.9346 96.1101L71.8806 103.007C72.1766 103.178 72.5646 103.263 72.9516 103.262V86.1791C72.5636 86.1791 72.1766 86.2631 71.8806 86.4341V86.4351Z"
          fill="#A5BA00"/>
    <path d="M74.0156 100.694C73.4256 101.034 72.4695 101.034 71.8805 100.694L59.9346 93.797C59.3446 93.457 59.3446 92.905 59.9346 92.564L71.8805 85.667C72.4705 85.327 73.4266 85.327 74.0156 85.667L85.9616 92.564C86.5516 92.904 86.5516 93.456 85.9616 93.797L74.0156 100.694Z"
          fill="#BFD600"/>
    <path d="M70.8134 101.846L70.7824 101.936L58.9894 95.128C58.3994 94.788 57.4434 94.788 56.8544 95.128L45.1714 101.873H44.4664V104.186C44.4664 104.409 44.6134 103.78 44.9084 103.95L56.8544 111.7C57.4444 112.04 58.4004 112.04 58.9894 111.7L70.9355 104.803C71.2315 104.632 71.3784 104.408 71.3774 104.184V101.846H70.8124H70.8134Z"
          fill="#97AB00"/>
    <path d="M56.8554 95.128L45.1724 101.873H44.4674V104.186C44.4674 104.409 44.6144 104.632 44.9094 104.803L56.8554 111.7C57.1514 111.871 57.5394 111.956 57.9264 111.955V94.8719C57.5384 94.8719 57.1514 94.956 56.8554 95.127V95.128Z"
          fill="#A5BA00"/>
    <path d="M58.9904 109.387C58.4004 109.727 57.4444 109.727 56.8554 109.387L44.9094 102.49C44.3194 102.15 44.3194 101.598 44.9094 101.257L56.8554 94.3601C57.4454 94.0201 58.4014 94.0201 58.9904 94.3601L70.9364 101.257C71.5264 101.597 71.5264 102.149 70.9364 102.49L58.9904 109.387Z"
          fill="#BFD600"/>
    <g style="mix-blend-mode:multiply">
        <path d="M27.8724 70.2831C31.7384 70.2831 34.8724 69.0473 34.8724 67.523C34.8724 65.9987 31.7384 64.7631 27.8724 64.7631C24.0064 64.7631 20.8724 65.9987 20.8724 67.523C20.8724 69.0473 24.0064 70.2831 27.8724 70.2831Z"
              fill="#BFD600"/>
    </g>
    <path d="M26.2725 57.253C26.2725 57.253 24.1285 54.837 24.2645 51.093C24.4005 47.349 27.0215 46.839 27.0215 46.839C27.0215 46.839 29.0295 48.302 28.4165 51.229C27.8035 54.156 26.2725 57.253 26.2725 57.253Z"
          fill="#00CF24"/>
    <path d="M29.4034 59.2611C29.4034 59.2611 26.2834 50.6881 30.5944 50.6161C34.9054 50.5441 32.7724 57.2871 29.4034 59.2611Z"
          fill="#00A000"/>
    <path d="M27.3605 68.1851C27.2945 65.2061 27.3675 62.175 26.5685 59.28C25.8255 56.343 25.7155 53.2681 26.1065 50.2731C26.1095 50.2371 26.1694 50.241 26.1654 50.279C25.8914 53.269 26.1125 56.2961 26.9595 59.1781C27.8795 62.0701 27.9305 65.1641 28.1105 68.1721C28.1285 68.6681 27.3615 68.6921 27.3605 68.1851Z"
          fill="#BBED91"/>
    <path d="M27.2945 62.99C28.9935 60.305 30.0745 57.131 30.3135 53.937C30.3175 53.832 30.4855 53.833 30.4835 53.943C30.4255 57.246 29.5305 60.486 27.9255 63.395C27.6665 63.843 26.9945 63.417 27.2945 62.99Z"
          fill="#BBED91"/>
    <g style="mix-blend-mode:multiply">
        <path d="M58.6444 53.4441C62.5104 53.4441 65.6444 52.2084 65.6444 50.6841C65.6444 49.1597 62.5104 47.9241 58.6444 47.9241C54.7784 47.9241 51.6444 49.1597 51.6444 50.6841C51.6444 52.2084 54.7784 53.4441 58.6444 53.4441Z"
              fill="#BFD600"/>
    </g>
    <path d="M57.0435 40.414C57.0435 40.414 54.8995 37.998 55.0355 34.254C55.1715 30.51 57.7925 30 57.7925 30C57.7925 30 59.8005 31.463 59.1875 34.39C58.5745 37.317 57.0435 40.414 57.0435 40.414Z"
          fill="#00CF24"/>
    <path d="M60.1744 42.4221C60.1744 42.4221 57.0544 33.8491 61.3654 33.7771C65.6764 33.7051 63.5434 40.4481 60.1744 42.4221Z"
          fill="#00A000"/>
    <path d="M58.1314 51.3461C58.0654 48.3671 58.1385 45.3361 57.3395 42.4411C56.5965 39.5041 56.4865 36.4291 56.8775 33.4341C56.8805 33.3981 56.9404 33.4021 56.9364 33.4401C56.6624 36.4301 56.8834 39.4571 57.7304 42.3391C58.6504 45.2311 58.7014 48.3251 58.8814 51.3331C58.8994 51.8291 58.1324 51.8531 58.1314 51.3461Z"
          fill="#BBED91"/>
    <path d="M58.0665 46.151C59.7655 43.466 60.8465 40.292 61.0855 37.098C61.0895 36.993 61.2575 36.994 61.2555 37.104C61.1975 40.407 60.3025 43.647 58.6975 46.556C58.4385 47.004 57.7665 46.577 58.0665 46.151Z"
          fill="#BBED91"/>
    <g style="mix-blend-mode:multiply">
        <path d="M43.0494 62.3851C46.9154 62.3851 50.0494 61.1494 50.0494 59.6251C50.0494 58.1008 46.9154 56.8651 43.0494 56.8651C39.1834 56.8651 36.0494 58.1008 36.0494 59.6251C36.0494 61.1494 39.1834 62.3851 43.0494 62.3851Z"
              fill="#BFD600"/>
    </g>
    <path d="M41.7476 49.0101C41.7476 49.0101 43.8916 46.5941 43.7556 42.8501C43.6196 39.1061 40.9986 38.5961 40.9986 38.5961C40.9986 38.5961 38.9906 40.0591 39.6036 42.9861C40.2166 45.9131 41.7476 49.0101 41.7476 49.0101Z"
          fill="#00CF24"/>
    <path d="M45.6254 50.6271C45.6254 50.6271 44.3814 41.5891 48.6104 42.4271C52.8504 43.2671 49.3344 49.4071 45.6254 50.6271Z"
          fill="#00A000"/>
    <path d="M42.7865 59.942C42.7205 56.963 42.7935 53.932 41.9945 51.037C41.2515 48.1 41.1415 45.025 41.5325 42.03C41.5365 41.994 41.5955 41.998 41.5915 42.036C41.3175 45.026 41.5385 48.053 42.3855 50.935C43.3055 53.827 43.3565 56.921 43.5365 59.929C43.5545 60.425 42.7875 60.449 42.7865 59.942Z"
          fill="#BBED91"/>
    <path d="M42.6705 53.942C44.9325 51.638 46.7145 48.738 47.6365 45.616C47.6625 45.514 47.8265 45.551 47.8015 45.658C47.4235 47.275 46.8345 48.851 46.0455 50.323C45.2615 51.803 44.3375 53.191 43.2025 54.472C43.0655 54.627 42.8275 54.641 42.6725 54.504C42.5045 54.357 42.5055 54.091 42.6705 53.942Z"
          fill="#BBED91"/>
    <path d="M40.4736 54.9501C40.4736 54.9501 41.7176 45.9121 37.4886 46.7501C33.2486 47.5901 36.7646 53.7301 40.4736 54.9501Z"
          fill="#00A000"/>
    <path d="M42.8005 58.6931C40.6935 56.1861 38.8175 53.0551 38.3605 49.8771C38.4045 49.8671 38.4495 49.8941 38.4615 49.9371C39.3695 53.0141 41.1005 55.8921 43.3315 58.1631C43.7165 58.5031 43.1405 59.0831 42.8005 58.6931Z"
          fill="#BBED91"/>
    <g style="mix-blend-mode:multiply">
        <path d="M13.0245 78.913C16.8905 78.913 20.0245 77.6773 20.0245 76.153C20.0245 74.6287 16.8905 73.3931 13.0245 73.3931C9.15854 73.3931 6.02454 74.6287 6.02454 76.153C6.02454 77.6773 9.15854 78.913 13.0245 78.913Z"
              fill="#BFD600"/>
    </g>
    <path d="M11.7234 65.538C11.7234 65.538 13.8674 63.122 13.7314 59.378C13.5954 55.634 10.9744 55.124 10.9744 55.124C10.9744 55.124 8.9664 56.587 9.5794 59.514C10.1924 62.441 11.7234 65.538 11.7234 65.538Z"
          fill="#00CF24"/>
    <path d="M15.6005 67.156C15.6005 67.156 14.3565 58.118 18.5855 58.956C22.8255 59.796 19.3095 65.936 15.6005 67.156Z"
          fill="#00A000"/>
    <path d="M12.7616 76.4701C12.6956 73.4911 12.7686 70.4601 11.9696 67.5651C11.2266 64.6281 11.1166 61.5531 11.5076 58.5581C11.5116 58.5221 11.5706 58.5261 11.5666 58.5641C11.2926 61.5541 11.5136 64.5811 12.3606 67.4631C13.2806 70.3551 13.3316 73.4491 13.5116 76.4571C13.5296 76.9531 12.7626 76.9771 12.7616 76.4701Z"
          fill="#BBED91"/>
    <path d="M12.6465 70.47C14.9085 68.166 16.6904 65.266 17.6124 62.144C17.6384 62.042 17.8024 62.079 17.7774 62.186C17.3994 63.803 16.8105 65.379 16.0215 66.851C15.2375 68.331 14.3134 69.719 13.1784 71C13.0414 71.155 12.8035 71.169 12.6485 71.032C12.4805 70.885 12.4815 70.619 12.6465 70.47Z"
          fill="#BBED91"/>
    <path d="M10.4484 71.478C10.4484 71.478 11.6924 62.44 7.4634 63.278C3.2234 64.118 6.73942 70.258 10.4484 71.478Z"
          fill="#00A000"/>
    <path d="M12.7756 75.221C10.6686 72.714 8.79257 69.583 8.33557 66.405C8.37957 66.395 8.42455 66.422 8.43655 66.465C9.34455 69.542 11.0755 72.42 13.3065 74.691C13.6915 75.031 13.1156 75.612 12.7756 75.221Z"
          fill="#BBED91"/>
    <g style="mix-blend-mode:multiply">
        <path d="M27.4564 86.8861C31.3224 86.8861 34.4564 85.6504 34.4564 84.1261C34.4564 82.6018 31.3224 81.3661 27.4564 81.3661C23.5904 81.3661 20.4564 82.6018 20.4564 84.1261C20.4564 85.6504 23.5904 86.8861 27.4564 86.8861Z"
              fill="#BFD600"/>
    </g>
    <path d="M25.8555 73.856C25.8555 73.856 23.7115 71.44 23.8475 67.696C23.9835 63.952 26.6045 63.442 26.6045 63.442C26.6045 63.442 28.6125 64.905 27.9995 67.832C27.3865 70.759 25.8555 73.856 25.8555 73.856Z"
          fill="#00CF24"/>
    <path d="M28.9864 75.8639C28.9864 75.8639 25.8664 67.291 30.1774 67.219C34.4884 67.147 32.3554 73.8899 28.9864 75.8639Z"
          fill="#00A000"/>
    <path d="M26.9444 84.7881C26.8784 81.8091 26.9514 78.7781 26.1524 75.8831C25.4094 72.9461 25.2994 69.8711 25.6904 66.8761C25.6934 66.8401 25.7535 66.8441 25.7495 66.8821C25.4755 69.8721 25.6964 72.899 26.5434 75.781C27.4634 78.673 27.5144 81.7671 27.6944 84.7751C27.7124 85.2711 26.9454 85.2951 26.9444 84.7881Z"
          fill="#BBED91"/>
    <path d="M26.8785 79.593C28.5785 76.908 29.6585 73.7341 29.8975 70.5401C29.9015 70.4351 30.0695 70.436 30.0675 70.546C30.0095 73.849 29.1145 77.0891 27.5095 79.9981C27.2505 80.4461 26.5785 80.02 26.8785 79.593Z"
          fill="#BBED91"/>
    <g style="mix-blend-mode:multiply">
        <path d="M57.6935 70.3131C61.5595 70.3131 64.6935 69.0774 64.6935 67.5531C64.6935 66.0288 61.5595 64.7931 57.6935 64.7931C53.8275 64.7931 50.6935 66.0288 50.6935 67.5531C50.6935 69.0774 53.8275 70.3131 57.6935 70.3131Z"
              fill="#BFD600"/>
    </g>
    <path d="M56.3754 57.097C56.3754 57.097 54.2314 54.681 54.3674 50.937C54.5034 47.193 57.1244 46.683 57.1244 46.683C57.1244 46.683 59.1324 48.146 58.5194 51.073C57.9064 54 56.3754 57.097 56.3754 57.097Z"
          fill="#00CF24"/>
    <path d="M59.5064 59.1051C59.5064 59.1051 56.3864 50.532 60.6974 50.46C65.0084 50.388 62.8754 57.1311 59.5064 59.1051Z"
          fill="#00A000"/>
    <path d="M57.4635 68.028C57.3975 65.049 57.4705 62.0181 56.6715 59.1231C55.9285 56.1861 55.8185 53.1111 56.2095 50.1161C56.2135 50.0801 56.2725 50.0841 56.2685 50.1221C55.9945 53.1111 56.2155 56.1391 57.0625 59.0211C57.9825 61.9131 58.0335 65.007 58.2135 68.015C58.2315 68.511 57.4645 68.535 57.4635 68.028Z"
          fill="#BBED91"/>
    <path d="M57.3975 62.834C59.0965 60.149 60.1775 56.975 60.4165 53.781C60.4205 53.676 60.5885 53.677 60.5865 53.787C60.5285 57.09 59.6335 60.33 58.0285 63.239C57.7695 63.687 57.0975 63.261 57.3975 62.834Z"
          fill="#BBED91"/>
    <g style="mix-blend-mode:multiply">
        <path d="M42.3734 78.325C46.2394 78.325 49.3734 77.0894 49.3734 75.5651C49.3734 74.0408 46.2394 72.8051 42.3734 72.8051C38.5074 72.8051 35.3734 74.0408 35.3734 75.5651C35.3734 77.0894 38.5074 78.325 42.3734 78.325Z"
              fill="#BFD600"/>
    </g>
    <path d="M41.0725 64.951C41.0725 64.951 43.2165 62.535 43.0805 58.791C42.9445 55.047 40.3235 54.537 40.3235 54.537C40.3235 54.537 38.3155 56 38.9285 58.927C39.5415 61.854 41.0725 64.951 41.0725 64.951Z"
          fill="#00CF24"/>
    <path d="M44.9495 66.568C44.9495 66.568 43.7055 57.53 47.9345 58.368C52.1745 59.208 48.6585 65.348 44.9495 66.568Z"
          fill="#00A000"/>
    <path d="M42.1114 75.882C42.0454 72.903 42.1184 69.8721 41.3194 66.9771C40.5764 64.0401 40.4664 60.9651 40.8574 57.9701C40.8614 57.9341 40.9204 57.9381 40.9164 57.9761C40.6424 60.9651 40.8634 63.9931 41.7104 66.8751C42.6304 69.7671 42.6814 72.861 42.8614 75.869C42.8794 76.365 42.1124 76.389 42.1114 75.882Z"
          fill="#BBED91"/>
    <path d="M41.9956 69.8821C44.2576 67.5781 46.0396 64.6781 46.9616 61.5561C46.9876 61.4541 47.1516 61.4911 47.1266 61.5981C46.7486 63.2151 46.1596 64.7911 45.3706 66.2631C44.5866 67.7431 43.6626 69.1311 42.5276 70.4121C42.3906 70.5671 42.1526 70.5811 41.9976 70.4441C41.8296 70.2971 41.8306 70.0321 41.9956 69.8831V69.8821Z"
          fill="#BBED91"/>
    <path d="M39.7985 70.891C39.7985 70.891 41.0425 61.853 36.8135 62.691C32.5735 63.531 36.0895 69.671 39.7985 70.891Z"
          fill="#00A000"/>
    <path d="M42.1245 74.634C40.0175 72.127 38.1414 68.996 37.6844 65.818C37.7284 65.808 37.7734 65.835 37.7854 65.878C38.6934 68.955 40.4244 71.833 42.6554 74.104C43.0404 74.444 42.4645 75.025 42.1245 74.634Z"
          fill="#BBED91"/>
    <g style="mix-blend-mode:multiply">
        <path d="M73.0135 61.681C76.8795 61.681 80.0135 60.4453 80.0135 58.921C80.0135 57.3967 76.8795 56.161 73.0135 56.161C69.1476 56.161 66.0135 57.3967 66.0135 58.921C66.0135 60.4453 69.1476 61.681 73.0135 61.681Z"
              fill="#BFD600"/>
    </g>
    <path d="M72.0335 48.516C72.0335 48.516 74.1775 46.1 74.0415 42.356C73.9055 38.612 71.2845 38.1021 71.2845 38.1021C71.2845 38.1021 69.2765 39.565 69.8895 42.492C70.5025 45.419 72.0335 48.516 72.0335 48.516Z"
          fill="#00CF24"/>
    <path d="M75.9105 50.134C75.9105 50.134 74.6666 41.096 78.8956 41.934C83.1356 42.774 79.6195 48.914 75.9105 50.134Z"
          fill="#00A000"/>
    <path d="M73.0715 59.448C73.0055 56.469 73.0785 53.438 72.2795 50.543C71.5365 47.606 71.4265 44.531 71.8175 41.536C71.8205 41.5 71.8805 41.504 71.8765 41.542C71.6025 44.532 71.8235 47.559 72.6705 50.441C73.5905 53.333 73.6415 56.427 73.8215 59.435C73.8395 59.931 73.0725 59.955 73.0715 59.448Z"
          fill="#BBED91"/>
    <path d="M72.9565 53.448C75.2185 51.144 77.0005 48.244 77.9225 45.122C77.9485 45.02 78.1125 45.057 78.0875 45.164C77.7095 46.781 77.1205 48.357 76.3315 49.829C75.5475 51.309 74.6235 52.697 73.4885 53.978C73.3515 54.133 73.1135 54.147 72.9585 54.01C72.7905 53.863 72.7915 53.598 72.9565 53.449V53.448Z"
          fill="#BBED91"/>
    <path d="M70.7585 54.456C70.7585 54.456 72.0025 45.418 67.7735 46.256C63.5335 47.096 67.0495 53.236 70.7585 54.456Z"
          fill="#00A000"/>
    <path d="M73.0855 58.1991C70.9785 55.6921 69.1025 52.5611 68.6455 49.3831C68.6895 49.3731 68.7345 49.4001 68.7465 49.4431C69.6545 52.5201 71.3855 55.3981 73.6165 57.6691C74.0015 58.0091 73.4255 58.5881 73.0855 58.1981V58.1991Z"
          fill="#BBED91"/>
    <g style="mix-blend-mode:multiply">
        <path d="M56.6725 86.744C60.5385 86.744 63.6725 85.5083 63.6725 83.9839C63.6725 82.4596 60.5385 81.224 56.6725 81.224C52.8065 81.224 49.6725 82.4596 49.6725 83.9839C49.6725 85.5083 52.8065 86.744 56.6725 86.744Z"
              fill="#BFD600"/>
    </g>
    <path d="M55.0724 73.7141C55.0724 73.7141 52.9284 71.298 53.0644 67.554C53.2004 63.81 55.8214 63.3 55.8214 63.3C55.8214 63.3 57.8294 64.7631 57.2164 67.6901C56.6034 70.6171 55.0724 73.7141 55.0724 73.7141Z"
          fill="#00CF24"/>
    <path d="M58.2035 75.722C58.2035 75.722 55.0835 67.149 59.3945 67.077C63.7055 67.005 61.5725 73.748 58.2035 75.722Z"
          fill="#00A000"/>
    <path d="M56.1605 84.645C56.0945 81.666 56.1675 78.635 55.3685 75.74C54.6255 72.803 54.5155 69.728 54.9065 66.733C54.9095 66.697 54.9695 66.701 54.9655 66.739C54.6915 69.729 54.9125 72.756 55.7595 75.638C56.6795 78.53 56.7305 81.624 56.9105 84.632C56.9285 85.128 56.1615 85.152 56.1605 84.645Z"
          fill="#BBED91"/>
    <path d="M56.0945 79.4511C57.7935 76.7661 58.8745 73.5921 59.1135 70.3981C59.1175 70.2931 59.2855 70.2941 59.2835 70.4041C59.2255 73.7071 58.3305 76.9471 56.7255 79.8561C56.4655 80.3041 55.7945 79.8771 56.0945 79.4501V79.4511Z"
          fill="#BBED91"/>
    <g style="mix-blend-mode:multiply">
        <path d="M87.4445 69.905C91.3105 69.905 94.4445 68.6693 94.4445 67.145C94.4445 65.6207 91.3105 64.385 87.4445 64.385C83.5785 64.385 80.4445 65.6207 80.4445 67.145C80.4445 68.6693 83.5785 69.905 87.4445 69.905Z"
              fill="#BFD600"/>
    </g>
    <path d="M85.8434 56.8751C85.8434 56.8751 83.6994 54.4591 83.8354 50.7151C83.9714 46.9711 86.5924 46.4611 86.5924 46.4611C86.5924 46.4611 88.6004 47.9241 87.9874 50.8511C87.3744 53.7781 85.8434 56.8751 85.8434 56.8751Z"
          fill="#00CF24"/>
    <path d="M88.9745 58.883C88.9745 58.883 85.8545 50.31 90.1655 50.238C94.4765 50.166 92.3435 56.909 88.9745 58.883Z"
          fill="#00A000"/>
    <path d="M86.9325 67.806C86.8665 64.827 86.9395 61.796 86.1405 58.901C85.3975 55.964 85.2875 52.889 85.6785 49.894C85.6825 49.858 85.7415 49.862 85.7375 49.9C85.4635 52.89 85.6845 55.916 86.5315 58.799C87.4515 61.691 87.5025 64.785 87.6825 67.793C87.7005 68.289 86.9335 68.313 86.9325 67.806Z"
          fill="#BBED91"/>
    <path d="M86.8665 62.612C88.5655 59.927 89.6465 56.753 89.8855 53.559C89.8895 53.454 90.0575 53.455 90.0555 53.565C89.9975 56.868 89.1025 60.108 87.4975 63.017C87.2385 63.465 86.5665 63.038 86.8665 62.612Z"
          fill="#BBED91"/>
    <g style="mix-blend-mode:multiply">
        <path d="M71.8495 78.8451C75.7155 78.8451 78.8495 77.6094 78.8495 76.0851C78.8495 74.5608 75.7155 73.3251 71.8495 73.3251C67.9835 73.3251 64.8495 74.5608 64.8495 76.0851C64.8495 77.6094 67.9835 78.8451 71.8495 78.8451Z"
              fill="#BFD600"/>
    </g>
    <path d="M70.5485 65.471C70.5485 65.471 72.6925 63.055 72.5565 59.311C72.4205 55.567 69.7995 55.057 69.7995 55.057C69.7995 55.057 67.7915 56.52 68.4045 59.447C69.0175 62.374 70.5485 65.471 70.5485 65.471Z"
          fill="#00CF24"/>
    <path d="M74.4254 67.088C74.4254 67.088 73.1814 58.05 77.4104 58.888C81.6504 59.728 78.1344 65.868 74.4254 67.088Z"
          fill="#00A000"/>
    <path d="M71.5866 76.4021C71.5206 73.4231 71.5935 70.3921 70.7945 67.4971C70.0515 64.5601 69.9415 61.4851 70.3325 58.4901C70.3365 58.4541 70.3956 58.4581 70.3916 58.4961C70.1176 61.4851 70.3386 64.5131 71.1856 67.3951C72.1056 70.2871 72.1566 73.3811 72.3366 76.3891C72.3546 76.8851 71.5876 76.9091 71.5866 76.4021Z"
          fill="#BBED91"/>
    <path d="M71.4704 70.4021C73.7324 68.0981 75.5144 65.1981 76.4364 62.0761C76.4624 61.9741 76.6264 62.0111 76.6014 62.1181C76.2234 63.7351 75.6344 65.3111 74.8454 66.7831C74.0614 68.2631 73.1374 69.6511 72.0024 70.9321C71.8654 71.0871 71.6274 71.1011 71.4724 70.9641C71.3044 70.8171 71.3054 70.5511 71.4704 70.4021Z"
          fill="#BBED91"/>
    <path d="M69.2735 71.411C69.2735 71.411 70.5175 62.373 66.2885 63.211C62.0485 64.051 65.5645 70.191 69.2735 71.411Z"
          fill="#00A000"/>
    <path d="M71.6005 75.154C69.4935 72.647 67.6175 69.516 67.1605 66.338C67.2045 66.328 67.2495 66.355 67.2615 66.398C68.1695 69.475 69.9005 72.353 72.1315 74.624C72.5165 74.964 71.9405 75.544 71.6005 75.153V75.154Z"
          fill="#BBED91"/>
    <g style="mix-blend-mode:multiply">
        <path d="M41.8245 95.373C45.6905 95.373 48.8245 94.1373 48.8245 92.613C48.8245 91.0887 45.6905 89.853 41.8245 89.853C37.9585 89.853 34.8245 91.0887 34.8245 92.613C34.8245 94.1373 37.9585 95.373 41.8245 95.373Z"
              fill="#BFD600"/>
    </g>
    <path d="M40.5234 81.9991C40.5234 81.9991 42.6674 79.5831 42.5314 75.8391C42.3954 72.0951 39.7744 71.5851 39.7744 71.5851C39.7744 71.5851 37.7665 73.0481 38.3795 75.9751C38.9925 78.9021 40.5234 81.9991 40.5234 81.9991Z"
          fill="#00CF24"/>
    <path d="M44.4005 83.6161C44.4005 83.6161 43.1565 74.5781 47.3855 75.4161C51.6255 76.2561 48.1095 82.3961 44.4005 83.6161Z"
          fill="#00A000"/>
    <path d="M41.5625 92.93C41.4965 89.951 41.5695 86.92 40.7705 84.025C40.0275 81.088 39.9175 78.013 40.3085 75.018C40.3125 74.982 40.3715 74.986 40.3675 75.024C40.0935 78.013 40.3145 81.04 41.1615 83.922C42.0815 86.814 42.1325 89.908 42.3125 92.916C42.3305 93.412 41.5635 93.436 41.5625 92.929V92.93Z"
          fill="#BBED91"/>
    <path d="M41.4465 86.9301C43.7085 84.6261 45.4905 81.7261 46.4125 78.6041C46.4385 78.5021 46.6025 78.5391 46.5775 78.6461C46.1995 80.2631 45.6105 81.839 44.8215 83.311C44.0375 84.791 43.1135 86.179 41.9785 87.46C41.8415 87.615 41.6035 87.6291 41.4485 87.4921C41.2805 87.3451 41.2815 87.0791 41.4465 86.9301Z"
          fill="#BBED91"/>
    <path d="M39.2485 87.9391C39.2485 87.9391 40.4925 78.9011 36.2635 79.7391C32.0235 80.5791 35.5395 86.7191 39.2485 87.9391Z"
          fill="#00A000"/>
    <path d="M41.5755 91.682C39.4685 89.175 37.5925 86.044 37.1355 82.866C37.1795 82.856 37.2245 82.883 37.2365 82.926C38.1445 86.003 39.8755 88.881 42.1065 91.152C42.4915 91.492 41.9155 92.073 41.5755 91.682Z"
          fill="#BBED91"/>
    <g style="mix-blend-mode:multiply">
        <path d="M56.9354 104.238C60.8014 104.238 63.9354 103.002 63.9354 101.478C63.9354 99.9537 60.8014 98.718 56.9354 98.718C53.0694 98.718 49.9354 99.9537 49.9354 101.478C49.9354 103.002 53.0694 104.238 56.9354 104.238Z"
              fill="#BFD600"/>
    </g>
    <path d="M55.3345 91.2081C55.3345 91.2081 53.1905 88.7921 53.3265 85.0481C53.4625 81.3041 56.0835 80.7941 56.0835 80.7941C56.0835 80.7941 58.0915 82.2571 57.4785 85.1841C56.8655 88.1111 55.3345 91.2081 55.3345 91.2081Z"
          fill="#00CF24"/>
    <path d="M58.4654 93.216C58.4654 93.216 55.3454 84.643 59.6564 84.571C63.9674 84.499 61.8344 91.242 58.4654 93.216Z"
          fill="#00A000"/>
    <path d="M56.4234 102.139C56.3574 99.16 56.4304 96.129 55.6314 93.234C54.8884 90.297 54.7784 87.222 55.1694 84.227C55.1724 84.191 55.2325 84.195 55.2285 84.233C54.9545 87.223 55.1754 90.25 56.0224 93.132C56.9424 96.024 56.9934 99.118 57.1734 102.126C57.1914 102.622 56.4244 102.646 56.4234 102.139Z"
          fill="#BBED91"/>
    <path d="M56.3575 96.945C58.0565 94.26 59.1375 91.086 59.3765 87.892C59.3805 87.787 59.5485 87.788 59.5465 87.898C59.4885 91.201 58.5935 94.441 56.9885 97.35C56.7295 97.798 56.0575 97.371 56.3575 96.945Z"
          fill="#BBED91"/>
    <g style="mix-blend-mode:multiply">
        <path d="M87.1725 87.665C91.0385 87.665 94.1725 86.4293 94.1725 84.905C94.1725 83.3807 91.0385 82.145 87.1725 82.145C83.3065 82.145 80.1725 83.3807 80.1725 84.905C80.1725 86.4293 83.3065 87.665 87.1725 87.665Z"
              fill="#BFD600"/>
    </g>
    <path d="M85.8544 74.449C85.8544 74.449 83.7104 72.0331 83.8464 68.2891C83.9824 64.5451 86.6034 64.035 86.6034 64.035C86.6034 64.035 88.6114 65.498 87.9984 68.425C87.3854 71.352 85.8544 74.449 85.8544 74.449Z"
          fill="#00CF24"/>
    <path d="M88.9854 76.457C88.9854 76.457 85.8654 67.884 90.1764 67.812C94.4874 67.74 92.3544 74.483 88.9854 76.457Z"
          fill="#00A000"/>
    <path d="M86.9425 85.38C86.8765 82.401 86.9495 79.37 86.1505 76.475C85.4075 73.538 85.2975 70.463 85.6885 67.468C85.6925 67.432 85.7515 67.436 85.7475 67.474C85.4735 70.464 85.6945 73.491 86.5415 76.373C87.4615 79.265 87.5125 82.359 87.6925 85.367C87.7105 85.863 86.9435 85.887 86.9425 85.38Z"
          fill="#BBED91"/>
    <path d="M86.8765 80.1861C88.5755 77.5011 89.6565 74.3271 89.8955 71.1331C89.8995 71.0281 90.0685 71.0291 90.0655 71.1391C90.0075 74.4421 89.1125 77.6821 87.5075 80.5911C87.2485 81.0391 86.5765 80.6131 86.8765 80.1861Z"
          fill="#BBED91"/>
    <g style="mix-blend-mode:multiply">
        <path d="M71.8524 95.6771C75.7184 95.6771 78.8524 94.4414 78.8524 92.9171C78.8524 91.3928 75.7184 90.1571 71.8524 90.1571C67.9864 90.1571 64.8524 91.3928 64.8524 92.9171C64.8524 94.4414 67.9864 95.6771 71.8524 95.6771Z"
              fill="#BFD600"/>
    </g>
    <path d="M70.5515 82.303C70.5515 82.303 72.6955 79.8871 72.5595 76.1431C72.4235 72.3991 69.8025 71.889 69.8025 71.889C69.8025 71.889 67.7945 73.3521 68.4075 76.2791C69.0205 79.2061 70.5515 82.303 70.5515 82.303Z"
          fill="#00CF24"/>
    <path d="M74.4285 83.92C74.4285 83.92 73.1845 74.882 77.4135 75.72C81.6535 76.56 78.1375 82.7 74.4285 83.92Z"
          fill="#00A000"/>
    <path d="M71.5904 93.2341C71.5244 90.2551 71.5974 87.2241 70.7984 84.3291C70.0554 81.3921 69.9454 78.3171 70.3364 75.3221C70.3404 75.2861 70.3994 75.2901 70.3954 75.3281C70.1214 78.3181 70.3424 81.3451 71.1894 84.2271C72.1094 87.1191 72.1604 90.2131 72.3404 93.2211C72.3584 93.7171 71.5914 93.7411 71.5904 93.2341Z"
          fill="#BBED91"/>
    <path d="M71.4745 87.234C73.7365 84.93 75.5185 82.03 76.4405 78.908C76.4665 78.806 76.6315 78.843 76.6055 78.95C76.2275 80.567 75.6385 82.1431 74.8495 83.6151C74.0655 85.0951 73.1415 86.483 72.0065 87.764C71.8695 87.919 71.6315 87.933 71.4765 87.796C71.3085 87.649 71.3095 87.384 71.4745 87.235V87.234Z"
          fill="#BBED91"/>
    <path d="M69.2775 88.243C69.2775 88.243 70.5215 79.205 66.2925 80.043C62.0525 80.883 65.5685 87.023 69.2775 88.243Z"
          fill="#00A000"/>
    <path d="M71.6035 91.986C69.4965 89.479 67.6205 86.3481 67.1635 83.1701C67.2075 83.1601 67.2524 83.187 67.2644 83.23C68.1724 86.307 69.9034 89.1851 72.1344 91.4561C72.5194 91.7961 71.9435 92.376 71.6035 91.986Z"
          fill="#BBED91"/>
    <g style="mix-blend-mode:multiply">
        <path d="M102.493 79.033C106.359 79.033 109.493 77.7973 109.493 76.273C109.493 74.7487 106.359 73.5131 102.493 73.5131C98.6266 73.5131 95.4926 74.7487 95.4926 76.273C95.4926 77.7973 98.6266 79.033 102.493 79.033Z"
              fill="#BFD600"/>
    </g>
    <path d="M101.512 65.868C101.512 65.868 103.656 63.452 103.52 59.708C103.384 55.964 100.763 55.454 100.763 55.454C100.763 55.454 98.7555 56.917 99.3685 59.844C99.9815 62.771 101.512 65.868 101.512 65.868Z"
          fill="#00CF24"/>
    <path d="M105.39 67.4861C105.39 67.4861 104.146 58.4481 108.375 59.2861C112.615 60.1261 109.099 66.2661 105.39 67.4861Z"
          fill="#00A000"/>
    <path d="M102.551 76.8C102.485 73.821 102.558 70.79 101.759 67.895C101.016 64.958 100.906 61.883 101.297 58.888C101.3 58.852 101.36 58.856 101.356 58.894C101.082 61.884 101.303 64.911 102.15 67.793C103.07 70.685 103.121 73.779 103.301 76.787C103.319 77.283 102.552 77.307 102.551 76.8Z"
          fill="#BBED91"/>
    <path d="M102.436 70.8001C104.698 68.4961 106.48 65.5961 107.402 62.4741C107.428 62.3721 107.592 62.4091 107.567 62.5161C107.189 64.1331 106.6 65.7091 105.811 67.1811C105.027 68.6611 104.103 70.049 102.968 71.33C102.831 71.485 102.593 71.4991 102.438 71.3621C102.27 71.2151 102.271 70.9491 102.436 70.8001Z"
          fill="#BBED91"/>
    <path d="M100.237 71.808C100.237 71.808 101.481 62.77 97.2525 63.608C93.0125 64.448 96.5285 70.588 100.237 71.808Z"
          fill="#00A000"/>
    <path d="M102.565 75.5511C100.458 73.0441 98.5815 69.9131 98.1245 66.7351C98.1685 66.7251 98.2135 66.7521 98.2255 66.7951C99.1335 69.8721 100.864 72.7501 103.095 75.0211C103.48 75.3611 102.905 75.9421 102.565 75.5511Z"
          fill="#BBED91"/>
</svg>
