<svg width="116" height="134" viewBox="0 0 116 134" fill="none" xmlns="http://www.w3.org/2000/svg">
    <path d="M115.564 99.8969V82.888L113.137 82.221L113.005 83.076L62.367 57.306C59.835 55.844 55.73 55.844 53.198 57.306L3.02798 82.3369L0 83.004V99.908C0 100.866 0.632987 101.824 1.89899 102.555L53.198 132.173C55.73 133.635 59.835 133.635 62.367 132.173L113.666 102.556C114.937 101.822 115.569 100.859 115.564 99.8969Z"
          fill="#A8522A"/>
    <path d="M115.564 84.2001V80.7971H113.137L113.005 81.1841L62.367 51.9481C59.835 50.4861 55.73 50.4861 53.198 51.9481L3.02798 80.9141H0V84.212C0 85.17 0.632987 86.1281 1.89899 86.8601L53.198 116.477C55.73 117.939 59.835 117.939 62.367 116.477L113.666 86.8601C114.937 86.126 115.57 85.1631 115.565 84.2011L115.564 84.2001Z"
          fill="#C16037"/>
    <path d="M115.564 81.2249V77.822H113.137L113.005 78.209L62.367 48.973C59.835 47.511 55.73 47.511 53.198 48.973L3.02798 77.939H0V81.237C0 82.195 0.632987 83.1529 1.89899 83.8839L53.198 113.502C55.73 114.963 59.835 114.963 62.367 113.502L113.666 83.885C114.937 83.151 115.57 82.188 115.565 81.226L115.564 81.2249Z"
          fill="#C16037"/>
    <path d="M57.798 56.2109C56.134 56.2089 54.468 56.574 53.198 57.307L3.02798 82.338L0 83.005V99.9089C0 100.867 0.632987 101.825 1.89899 102.556L53.198 132.174C54.468 132.907 56.134 133.272 57.798 133.27V56.212V56.2109Z"
          fill="#C96A3E"/>
    <path d="M57.798 50.8521C56.134 50.8501 54.468 51.2151 53.198 51.9481L3.02798 80.9141H0V84.212C0 85.17 0.632987 86.1281 1.89899 86.8601L53.198 116.477C54.468 117.21 56.134 117.575 57.798 117.573V50.8531V50.8521Z"
          fill="#EA8F67"/>
    <path d="M57.798 47.8779C56.134 47.8759 54.468 48.2409 53.198 48.9739L3.02798 77.9399H0V81.2379C0 82.1959 0.632987 83.154 1.89899 83.885L53.198 113.503C54.468 114.236 56.134 114.601 57.798 114.599V47.8789V47.8779Z"
          fill="#EA8F67"/>
    <path d="M62.366 110.204C59.834 111.666 55.729 111.666 53.198 110.204L1.899 80.5869C-0.633 79.1249 -0.633 76.755 1.899 75.293L53.198 45.676C55.73 44.214 59.835 44.214 62.366 45.676L113.665 75.293C116.197 76.755 116.197 79.1249 113.665 80.5869L62.366 110.204Z"
          fill="#D2704A"/>
    <g style="mix-blend-mode:multiply" opacity="0.3">
        <path d="M57.783 94.517C74.0832 94.517 87.297 88.8059 87.297 81.761C87.297 74.716 74.0832 69.005 57.783 69.005C41.4829 69.005 28.269 74.716 28.269 81.761C28.269 88.8059 41.4829 94.517 57.783 94.517Z"
              fill="#B85B3E"/>
    </g>
    <path d="M66.0339 86.475C60.1639 88.505 54.064 88.445 48.514 86.695C44.864 85.545 41.454 83.655 38.504 81.145C34.664 77.875 31.604 73.545 29.824 68.405C29.664 67.935 29.514 67.475 29.384 67.005C25.084 52.315 32.824 36.785 47.154 31.835C51.604 30.295 56.1839 29.955 60.5539 30.645C66.1639 31.525 71.434 34.095 75.644 37.995C76.654 38.945 77.614 39.965 78.504 41.065C79.084 41.805 79.6539 42.565 80.1739 43.365C81.4739 45.355 82.554 47.545 83.374 49.895C88.584 64.985 80.8239 81.365 66.0339 86.475Z"
          fill="#FF0000"/>
    <path opacity="0.7"
          d="M66.0339 86.4749C60.1639 88.5049 54.0639 88.4449 48.5139 86.6949C44.8639 85.5449 41.4539 83.655 38.5039 81.145C44.4039 82.545 50.7239 82.3349 56.8339 80.2249C72.9939 74.6349 82.0639 57.6949 78.5039 41.0649C79.0839 41.8049 79.6539 42.5649 80.1739 43.3649C81.4739 45.3549 82.5539 47.5449 83.3739 49.8949C88.5839 64.9849 80.8239 81.3649 66.0339 86.4749Z"
          fill="#F10000"/>
    <path d="M64.694 44.5759C64.694 58.396 53.7439 69.606 40.2339 69.606C36.3339 69.606 32.654 68.676 29.384 67.006C25.084 52.316 32.824 36.786 47.154 31.836C51.604 30.296 56.1839 29.956 60.5539 30.646C63.1639 34.626 64.694 39.4159 64.694 44.5759Z"
          fill="url(#paint0_linear_918_41350)"/>
    <path d="M42.8579 57.069C41.7619 64.514 38.2599 70.165 35.0359 69.691C31.8109 69.216 30.0839 62.796 31.1789 55.352C32.2749 47.907 35.7769 42.2571 39.0019 42.7301C42.2259 43.2051 43.9529 49.625 42.8579 57.069Z"
          fill="url(#paint1_linear_918_41350)"/>
    <path d="M45.111 49.0211C45.111 49.0211 43.1481 44.1031 45.4121 41.9241C47.6761 39.7461 47.162 38.7791 51.049 38.3831C54.937 37.9861 56.4641 36.2941 56.4641 36.2941L50.672 35.955C50.672 35.955 50.339 33.3411 55.064 32.6081C59.787 31.8751 57.0451 31.248 57.0451 31.248L48.617 34.0511C48.617 34.0511 42.913 42.2451 41.725 43.2271C40.537 44.2081 45.111 49.0221 45.111 49.0221V49.0211Z"
          fill="#F10000"/>
    <path d="M48.8471 35.776C48.9201 35.646 48.99 35.514 49.052 35.378C50.624 31.993 51.636 23.223 48.528 21.819C48.528 21.819 51.944 28.875 48.036 32.758C47.663 33.128 47.3361 33.468 47.0461 33.777C46.9741 30.645 44.1801 27.698 44.1801 27.698C46.9091 32.863 42.846 37.831 42.846 37.831C40.471 38.675 27.657 36.516 23.998 47.457C23.998 47.457 25.2791 43.99 28.3321 42.945C30.8111 42.097 37.5721 41.719 40.4251 41.463C40.4551 42.129 40.5011 43.013 40.5371 44.207C40.6651 48.335 45.1111 49.021 45.1111 49.021C45.1111 49.021 42.8 46.483 42.406 45.274C42.128 44.42 43.4771 41.951 44.2951 40.572C49.1431 35.2 56.4651 36.294 56.4651 36.294C54.1171 34.151 51.1661 34.734 48.8471 35.776Z"
          fill="#8B9F00"/>
    <path d="M41.8069 39.24C41.8069 39.24 42.73 36.391 41.717 34.765C40.704 33.139 39.223 32.681 39.223 32.681C39.223 32.681 38.704 32.021 39.415 31.705C40.126 31.389 41.542 31.367 42.267 30.437C42.992 29.507 42.962 28.775 43.54 28.938C44.118 29.102 44.287 29.425 44.413 30.084C44.538 30.743 46.5359 35.332 45.3359 37.379C45.3359 37.379 43.4149 40.368 41.8069 39.24Z"
          fill="#758500"/>
    <g filter="url(#filter0_f_918_41350)">
        <path d="M75.6664 20.4132C76.1618 18.7855 78.4661 18.7855 78.9616 20.4132L80.6634 26.0045C80.8305 26.5536 81.2603 26.9834 81.8095 27.1506L87.4008 28.8524C89.0284 29.3478 89.0284 31.6522 87.4008 32.1476L81.8095 33.8494C81.2603 34.0166 80.8305 34.4463 80.6634 34.9955L78.9616 40.5868C78.4661 42.2145 76.1618 42.2145 75.6664 40.5868L73.9646 34.9955C73.7974 34.4463 73.3676 34.0166 72.8184 33.8494L67.2271 32.1476C65.5995 31.6522 65.5995 29.3478 67.2271 28.8524L72.8184 27.1506C73.3676 26.9834 73.7974 26.5536 73.9646 26.0045L75.6664 20.4132Z"
              fill="#FDCB1B"/>
    </g>
    <g filter="url(#filter1_f_918_41350)">
        <path d="M36.6664 73.4132C37.1618 71.7855 39.4662 71.7855 39.9616 73.4132L40.9633 76.7045C41.1305 77.2537 41.5603 77.6835 42.1095 77.8506L45.4008 78.8524C47.0285 79.3478 47.0285 81.6522 45.4008 82.1476L42.1095 83.1494C41.5603 83.3165 41.1305 83.7463 40.9633 84.2955L39.9616 87.5868C39.4662 89.2145 37.1618 89.2145 36.6664 87.5868L35.6646 84.2955C35.4974 83.7463 35.0676 83.3165 34.5185 83.1494L31.2271 82.1476C29.5995 81.6522 29.5995 79.3478 31.2271 78.8524L34.5185 77.8506C35.0676 77.6835 35.4974 77.2537 35.6646 76.7045L36.6664 73.4132Z"
              fill="#FDCB1B"/>
    </g>
    <path d="M75.6664 20.4132C76.1618 18.7855 78.4661 18.7855 78.9616 20.4132L80.6634 26.0045C80.8305 26.5536 81.2603 26.9834 81.8095 27.1506L87.4008 28.8524C89.0284 29.3478 89.0284 31.6522 87.4008 32.1476L81.8095 33.8494C81.2603 34.0166 80.8305 34.4463 80.6634 34.9955L78.9616 40.5868C78.4661 42.2145 76.1618 42.2145 75.6664 40.5868L73.9646 34.9955C73.7974 34.4463 73.3676 34.0166 72.8184 33.8494L67.2271 32.1476C65.5995 31.6522 65.5995 29.3478 67.2271 28.8524L72.8184 27.1506C73.3676 26.9834 73.7974 26.5536 73.9646 26.0045L75.6664 20.4132Z"
          fill="#FDCB1B"/>
    <path d="M36.9853 72.3655C37.3848 71.0528 39.2431 71.0528 39.6427 72.3655L41.0151 76.8746C41.1499 77.3175 41.4965 77.6641 41.9394 77.7989L46.4485 79.1713C47.7611 79.5708 47.7611 81.4292 46.4485 81.8287L41.9394 83.2011C41.4965 83.3359 41.1499 83.6825 41.0151 84.1254L39.6427 88.6345C39.2431 89.9472 37.3848 89.9472 36.9853 88.6345L35.6128 84.1254C35.478 83.6825 35.1314 83.3359 34.6885 83.2011L30.1794 81.8287C28.8668 81.4292 28.8668 79.5708 30.1794 79.1713L34.6885 77.7989C35.1314 77.6641 35.478 77.3175 35.6128 76.8746L36.9853 72.3655Z"
          fill="#FDCB1B"/>
    <defs>
        <filter id="filter0_f_918_41350" x="62.0064" y="15.1924" width="30.6151" height="30.6152"
                filterUnits="userSpaceOnUse" color-interpolation-filters="sRGB">
            <feFlood flood-opacity="0" result="BackgroundImageFix"/>
            <feBlend mode="normal" in="SourceGraphic" in2="BackgroundImageFix" result="shape"/>
            <feGaussianBlur stdDeviation="2" result="effect1_foregroundBlur_918_41350"/>
        </filter>
        <filter id="filter1_f_918_41350" x="26.0064" y="68.1924" width="24.6152" height="24.6152"
                filterUnits="userSpaceOnUse" color-interpolation-filters="sRGB">
            <feFlood flood-opacity="0" result="BackgroundImageFix"/>
            <feBlend mode="normal" in="SourceGraphic" in2="BackgroundImageFix" result="shape"/>
            <feGaussianBlur stdDeviation="2" result="effect1_foregroundBlur_918_41350"/>
        </filter>
        <linearGradient id="paint0_linear_918_41350" x1="6.73697" y1="27.718" x2="51.43" y2="52.3919"
                        gradientUnits="userSpaceOnUse">
            <stop stop-color="white"/>
            <stop offset="1" stop-color="white" stop-opacity="0"/>
        </linearGradient>
        <linearGradient id="paint1_linear_918_41350" x1="-7.21013" y1="17.6111" x2="44.8028" y2="63.0042"
                        gradientUnits="userSpaceOnUse">
            <stop stop-color="white"/>
            <stop offset="1" stop-color="white" stop-opacity="0"/>
        </linearGradient>
    </defs>
</svg>
