<svg width="116" height="133" viewBox="0 0 116 133" fill="none" xmlns="http://www.w3.org/2000/svg">
    <path d="M115.564 99.25V82.241L113.137 81.574L113.005 82.429L62.367 56.659C59.835 55.197 55.73 55.197 53.198 56.659L3.028 81.69L0 82.357V99.261C0 100.219 0.633002 101.177 1.899 101.908L53.198 131.526C55.73 132.988 59.835 132.988 62.367 131.526L113.666 101.909C114.937 101.175 115.569 100.212 115.564 99.25Z"
          fill="#A8522A"/>
    <path d="M115.564 83.553V80.15H113.137L113.005 80.537L62.367 51.301C59.835 49.839 55.73 49.839 53.198 51.301L3.028 80.267H0V83.565C0 84.523 0.633002 85.481 1.899 86.213L53.198 115.83C55.73 117.292 59.835 117.292 62.367 115.83L113.666 86.213C114.937 85.479 115.57 84.516 115.565 83.554L115.564 83.553Z"
          fill="#C16037"/>
    <path d="M115.564 80.5781V77.1751H113.137L113.005 77.5621L62.367 48.3261C59.835 46.8641 55.73 46.8641 53.198 48.3261L3.028 77.2921H0V80.5901C0 81.5481 0.633002 82.5061 1.899 83.2371L53.198 112.855C55.73 114.316 59.835 114.316 62.367 112.855L113.666 83.2381C114.937 82.5041 115.57 81.5411 115.565 80.5791L115.564 80.5781Z"
          fill="#C16037"/>
    <path d="M57.798 55.5641C56.134 55.5621 54.468 55.9271 53.198 56.6601L3.028 81.6911L0 82.3581V99.2621C0 100.22 0.633002 101.178 1.899 101.909L53.198 131.527C54.468 132.26 56.134 132.625 57.798 132.623V55.5651V55.5641Z"
          fill="#C96A3E"/>
    <path d="M57.798 50.2051C56.134 50.2031 54.468 50.5681 53.198 51.3011L3.028 80.2671H0V83.5651C0 84.5231 0.633002 85.4811 1.899 86.2131L53.198 115.83C54.468 116.563 56.134 116.928 57.798 116.926V50.2051Z"
          fill="#EA8F67"/>
    <path d="M57.798 47.2311C56.134 47.2291 54.468 47.5941 53.198 48.3271L3.028 77.2931H0V80.5911C0 81.5491 0.633002 82.5071 1.899 83.2381L53.198 112.856C54.468 113.589 56.134 113.954 57.798 113.952V47.2311Z"
          fill="#EA8F67"/>
    <path d="M62.366 109.557C59.834 111.019 55.729 111.019 53.198 109.557L1.899 79.94C-0.633 78.478 -0.633 76.108 1.899 74.646L53.198 45.029C55.73 43.567 59.835 43.567 62.366 45.029L113.665 74.646C116.197 76.108 116.197 78.478 113.665 79.94L62.366 109.557Z"
          fill="#D2704A"/>
    <path d="M27.9729 74.597L27.9459 74.677L17.4919 68.642C16.9689 68.34 16.1219 68.34 15.5989 68.642L5.24194 74.622H4.61694V76.673C4.61694 76.871 4.74794 76.313 5.00894 76.464L15.5989 83.334C16.1219 83.636 16.9689 83.636 17.4919 83.334L68.0889 54.08C68.3509 53.928 68.4819 53.73 68.4809 53.531V51.458L27.9729 74.597Z"
          fill="#8E331D"/>
    <path d="M15.5989 68.6411L5.24194 74.621H4.61694V76.6721C4.61694 76.8701 4.74794 77.0681 5.00894 77.2191L15.5989 83.333C15.8609 83.484 16.2049 83.56 16.5489 83.559V68.415C16.2049 68.415 15.8619 68.4901 15.5989 68.6411Z"
          fill="#A54C33"/>
    <path d="M17.492 81.282C16.969 81.584 16.1219 81.584 15.5989 81.282L5.00895 75.168C4.48595 74.866 4.48595 74.377 5.00895 74.075L55.6179 44.909C56.1409 44.607 56.9879 44.607 57.5109 44.909L68.1009 51.023C68.6239 51.325 68.6239 51.814 68.1009 52.116L17.492 81.281V81.282Z"
          fill="#B85B3E"/>
    <path d="M42.0199 82.883L41.9929 82.963L31.5389 76.928C31.0159 76.626 30.169 76.626 29.646 76.928L19.2889 82.908H18.6639V84.959C18.6639 85.157 18.7949 84.599 19.0559 84.75L29.646 91.62C30.169 91.922 31.0159 91.922 31.5389 91.62L82.1359 62.366C82.3979 62.214 82.5289 62.016 82.5279 61.817V59.744L42.0199 82.883Z"
          fill="#8E331D"/>
    <path d="M29.646 76.9271L19.2889 82.907H18.6639V84.958C18.6639 85.156 18.7949 85.3541 19.0559 85.5051L29.646 91.619C29.908 91.77 30.2519 91.846 30.5959 91.845V76.701C30.2519 76.701 29.909 76.7761 29.646 76.9271Z"
          fill="#A54C33"/>
    <path d="M31.5389 89.567C31.0159 89.869 30.169 89.869 29.646 89.567L19.0559 83.4531C18.5329 83.1511 18.5329 82.662 19.0559 82.36L69.6649 53.194C70.1879 52.892 71.0349 52.892 71.5579 53.194L82.1479 59.308C82.6709 59.61 82.6709 60.099 82.1479 60.401L31.5389 89.567Z"
          fill="#B85B3E"/>
    <path d="M56.131 90.9771L56.104 91.057L45.65 85.022C45.127 84.72 44.28 84.72 43.757 85.022L33.4 91.002H32.775V93.053C32.775 93.251 32.906 92.6931 33.167 92.8441L43.757 99.7141C44.28 100.016 45.127 100.016 45.65 99.7141L96.247 70.46C96.509 70.308 96.64 70.11 96.639 69.911V67.838L56.131 90.9771Z"
          fill="#8E331D"/>
    <path d="M43.758 85.0211L33.401 91.001H32.776V93.0521C32.776 93.2501 32.907 93.4481 33.168 93.5991L43.758 99.713C44.02 99.864 44.364 99.94 44.708 99.939V84.795C44.364 84.795 44.021 84.8701 43.758 85.0211Z"
          fill="#A54C33"/>
    <path d="M45.65 97.661C45.127 97.963 44.28 97.963 43.757 97.661L33.167 91.5471C32.644 91.2451 32.644 90.756 33.167 90.454L83.776 61.288C84.299 60.986 85.146 60.986 85.669 61.288L96.259 67.402C96.782 67.704 96.782 68.1931 96.259 68.4951L45.65 97.661Z"
          fill="#B85B3E"/>
    <path d="M70.4269 99.221L70.3999 99.301L59.9459 93.2661C59.4229 92.9641 58.5759 92.9641 58.0529 93.2661L47.6959 99.246H47.0709V101.297C47.0709 101.495 47.2019 100.937 47.4629 101.088L58.0529 107.958C58.5759 108.26 59.4229 108.26 59.9459 107.958L110.543 78.704C110.805 78.552 110.936 78.354 110.935 78.155V76.082L70.4269 99.221Z"
          fill="#8E331D"/>
    <path d="M58.054 93.265L47.697 99.2451H47.072V101.296C47.072 101.494 47.203 101.692 47.464 101.843L58.054 107.957C58.316 108.108 58.66 108.184 59.004 108.183V93.0391C58.66 93.0391 58.317 93.114 58.054 93.265Z"
          fill="#A54C33"/>
    <path d="M59.9459 105.906C59.4229 106.208 58.5759 106.208 58.0529 105.906L47.4629 99.7921C46.9399 99.4901 46.9399 99.001 47.4629 98.699L98.0719 69.533C98.5949 69.231 99.4419 69.231 99.9649 69.533L110.555 75.647C111.078 75.949 111.078 76.438 110.555 76.74L59.9459 105.906Z"
          fill="#B85B3E"/>
    <g style="mix-blend-mode:multiply" opacity="0.4">
        <path d="M28.8419 69.2831C32.7079 69.2831 35.8419 68.0473 35.8419 66.523C35.8419 64.9987 32.7079 63.7631 28.8419 63.7631C24.9759 63.7631 21.8419 64.9987 21.8419 66.523C21.8419 68.0473 24.9759 69.2831 28.8419 69.2831Z"
              fill="#B85B3E"/>
    </g>
    <path d="M27.241 56.253C27.241 56.253 25.097 53.837 25.233 50.093C25.369 46.349 27.99 45.839 27.99 45.839C27.99 45.839 29.998 47.302 29.385 50.229C28.772 53.156 27.241 56.253 27.241 56.253Z"
          fill="#00CF24"/>
    <path d="M30.373 58.2611C30.373 58.2611 27.253 49.6881 31.564 49.6161C35.875 49.5441 33.742 56.2871 30.373 58.2611Z"
          fill="#00A000"/>
    <path d="M28.3299 67.1851C28.2639 64.2061 28.3369 61.175 27.5379 58.28C26.7949 55.343 26.6849 52.2681 27.0759 49.2731C27.0799 49.2371 27.1389 49.241 27.1349 49.279C26.8609 52.269 27.0819 55.2961 27.9289 58.1781C28.8489 61.0701 28.8999 64.1641 29.0799 67.1721C29.0979 67.6681 28.3309 67.6921 28.3299 67.1851Z"
          fill="#BBED91"/>
    <path d="M28.264 61.99C29.963 59.305 31.044 56.131 31.283 52.937C31.287 52.832 31.455 52.833 31.453 52.943C31.395 56.246 30.5 59.486 28.895 62.395C28.636 62.843 27.964 62.416 28.264 61.99Z"
          fill="#BBED91"/>
    <g style="mix-blend-mode:multiply" opacity="0.4">
        <path d="M59.6129 52.4441C63.4789 52.4441 66.6129 51.2084 66.6129 49.6841C66.6129 48.1597 63.4789 46.9241 59.6129 46.9241C55.7469 46.9241 52.6129 48.1597 52.6129 49.6841C52.6129 51.2084 55.7469 52.4441 59.6129 52.4441Z"
              fill="#B85B3E"/>
    </g>
    <path d="M58.013 39.414C58.013 39.414 55.869 36.998 56.005 33.254C56.141 29.51 58.762 29 58.762 29C58.762 29 60.77 30.463 60.157 33.39C59.544 36.317 58.013 39.414 58.013 39.414Z"
          fill="#00CF24"/>
    <path d="M61.144 41.4221C61.144 41.4221 58.024 32.8491 62.335 32.7771C66.646 32.7051 64.513 39.4481 61.144 41.4221Z"
          fill="#00A000"/>
    <path d="M59.1009 50.3461C59.0349 47.3671 59.1079 44.3361 58.3089 41.4411C57.5659 38.5041 57.4559 35.4291 57.8469 32.4341C57.8499 32.3981 57.9099 32.4021 57.9059 32.4401C57.6319 35.4301 57.8529 38.4571 58.6999 41.3391C59.6199 44.2311 59.6709 47.3251 59.8509 50.3331C59.8689 50.8291 59.1019 50.8531 59.1009 50.3461Z"
          fill="#BBED91"/>
    <path d="M59.035 45.151C60.734 42.466 61.815 39.292 62.054 36.098C62.058 35.993 62.226 35.994 62.224 36.104C62.166 39.407 61.271 42.647 59.666 45.556C59.407 46.004 58.735 45.577 59.035 45.151Z"
          fill="#BBED91"/>
    <g style="mix-blend-mode:multiply" opacity="0.4">
        <path d="M44.0189 61.3851C47.8849 61.3851 51.0189 60.1494 51.0189 58.6251C51.0189 57.1008 47.8849 55.8651 44.0189 55.8651C40.1529 55.8651 37.0189 57.1008 37.0189 58.6251C37.0189 60.1494 40.1529 61.3851 44.0189 61.3851Z"
              fill="#B85B3E"/>
    </g>
    <path d="M42.7169 48.0101C42.7169 48.0101 44.8609 45.5941 44.7249 41.8501C44.5889 38.1061 41.9679 37.5961 41.9679 37.5961C41.9679 37.5961 39.9599 39.0591 40.5729 41.9861C41.1859 44.9131 42.7169 48.0101 42.7169 48.0101Z"
          fill="#00CF24"/>
    <path d="M46.594 49.6271C46.594 49.6271 45.35 40.5891 49.579 41.4271C53.819 42.2671 50.303 48.4071 46.594 49.6271Z"
          fill="#00A000"/>
    <path d="M43.756 58.942C43.69 55.963 43.763 52.932 42.964 50.037C42.221 47.1 42.111 44.025 42.502 41.03C42.505 40.994 42.565 40.998 42.561 41.036C42.287 44.026 42.508 47.053 43.355 49.935C44.275 52.827 44.326 55.921 44.506 58.929C44.524 59.425 43.757 59.449 43.756 58.942Z"
          fill="#BBED91"/>
    <path d="M43.64 52.942C45.902 50.638 47.684 47.738 48.606 44.616C48.632 44.514 48.796 44.551 48.771 44.658C48.393 46.275 47.804 47.851 47.015 49.323C46.231 50.803 45.307 52.191 44.172 53.472C44.035 53.627 43.797 53.641 43.642 53.504C43.474 53.357 43.475 53.091 43.64 52.942Z"
          fill="#BBED91"/>
    <path d="M41.4429 53.9501C41.4429 53.9501 42.6869 44.9121 38.4579 45.7501C34.2179 46.5901 37.7339 52.7301 41.4429 53.9501Z"
          fill="#00A000"/>
    <path d="M43.769 57.6931C41.662 55.1861 39.786 52.0551 39.329 48.8771C39.373 48.8671 39.418 48.8941 39.43 48.9371C40.338 52.0141 42.069 54.8921 44.3 57.1631C44.685 57.5031 44.109 58.0831 43.769 57.6931Z"
          fill="#BBED91"/>
    <g style="mix-blend-mode:multiply" opacity="0.4">
        <path d="M13.994 77.913C17.86 77.913 20.994 76.6773 20.994 75.153C20.994 73.6287 17.86 72.3931 13.994 72.3931C10.128 72.3931 6.99402 73.6287 6.99402 75.153C6.99402 76.6773 10.128 77.913 13.994 77.913Z"
              fill="#B85B3E"/>
    </g>
    <path d="M12.693 64.538C12.693 64.538 14.837 62.122 14.701 58.378C14.565 54.634 11.944 54.124 11.944 54.124C11.944 54.124 9.93601 55.587 10.549 58.514C11.162 61.441 12.693 64.538 12.693 64.538Z"
          fill="#00CF24"/>
    <path d="M16.57 66.156C16.57 66.156 15.326 57.118 19.555 57.956C23.795 58.796 20.279 64.936 16.57 66.156Z"
          fill="#00A000"/>
    <path d="M13.7309 75.4701C13.6649 72.4911 13.7379 69.4601 12.9389 66.5651C12.1959 63.6281 12.0859 60.5531 12.4769 57.5581C12.4809 57.5221 12.5399 57.5261 12.5359 57.5641C12.2619 60.5541 12.4829 63.5811 13.3299 66.4631C14.2499 69.3551 14.3009 72.4491 14.4809 75.4571C14.4989 75.9531 13.7319 75.9771 13.7309 75.4701Z"
          fill="#BBED91"/>
    <path d="M13.6159 69.47C15.8779 67.166 17.6599 64.266 18.5819 61.144C18.6079 61.042 18.7719 61.079 18.7469 61.186C18.3689 62.803 17.7799 64.379 16.9909 65.851C16.2069 67.331 15.2829 68.719 14.1479 70C14.0109 70.155 13.7729 70.169 13.6179 70.032C13.4499 69.885 13.4509 69.619 13.6159 69.47Z"
          fill="#BBED91"/>
    <path d="M11.418 70.478C11.418 70.478 12.662 61.44 8.43301 62.278C4.19301 63.118 7.70901 69.258 11.418 70.478Z"
          fill="#00A000"/>
    <path d="M13.7449 74.221C11.6379 71.714 9.76193 68.583 9.30493 65.405C9.34893 65.395 9.39394 65.422 9.40594 65.465C10.3139 68.542 12.0449 71.42 14.2759 73.691C14.6609 74.031 14.0849 74.612 13.7449 74.221Z"
          fill="#BBED91"/>
    <g style="mix-blend-mode:multiply" opacity="0.4">
        <path d="M28.4249 85.8861C32.2909 85.8861 35.4249 84.6504 35.4249 83.1261C35.4249 81.6018 32.2909 80.3661 28.4249 80.3661C24.5589 80.3661 21.4249 81.6018 21.4249 83.1261C21.4249 84.6504 24.5589 85.8861 28.4249 85.8861Z"
              fill="#B85B3E"/>
    </g>
    <path d="M26.825 72.856C26.825 72.856 24.681 70.44 24.817 66.696C24.953 62.952 27.574 62.442 27.574 62.442C27.574 62.442 29.582 63.905 28.969 66.832C28.356 69.759 26.825 72.856 26.825 72.856Z"
          fill="#00CF24"/>
    <path d="M29.9559 74.8639C29.9559 74.8639 26.8359 66.291 31.1469 66.219C35.4579 66.147 33.3249 72.8899 29.9559 74.8639Z"
          fill="#00A000"/>
    <path d="M27.913 83.7881C27.847 80.8091 27.9199 77.7781 27.1209 74.8831C26.3779 71.9461 26.268 68.8711 26.659 65.8761C26.663 65.8401 26.7219 65.8441 26.7179 65.8821C26.4439 68.8721 26.665 71.899 27.512 74.781C28.432 77.673 28.483 80.7671 28.663 83.7751C28.681 84.2711 27.914 84.2951 27.913 83.7881Z"
          fill="#BBED91"/>
    <path d="M27.847 78.593C29.546 75.908 30.627 72.7341 30.866 69.5401C30.87 69.4351 31.038 69.436 31.036 69.546C30.978 72.849 30.083 76.0891 28.478 78.9981C28.219 79.4461 27.547 79.02 27.847 78.593Z"
          fill="#BBED91"/>
    <g style="mix-blend-mode:multiply" opacity="0.4">
        <path d="M58.663 69.3131C62.529 69.3131 65.663 68.0774 65.663 66.5531C65.663 65.0288 62.529 63.7931 58.663 63.7931C54.797 63.7931 51.663 65.0288 51.663 66.5531C51.663 68.0774 54.797 69.3131 58.663 69.3131Z"
              fill="#B85B3E"/>
    </g>
    <path d="M57.344 56.097C57.344 56.097 55.2 53.681 55.336 49.937C55.472 46.193 58.093 45.683 58.093 45.683C58.093 45.683 60.101 47.146 59.488 50.073C58.875 53 57.344 56.097 57.344 56.097Z"
          fill="#00CF24"/>
    <path d="M60.4749 58.1051C60.4749 58.1051 57.355 49.532 61.666 49.46C65.977 49.388 63.8439 56.1311 60.4749 58.1051Z"
          fill="#00A000"/>
    <path d="M58.433 67.028C58.367 64.049 58.44 61.0181 57.641 58.1231C56.898 55.1861 56.788 52.1111 57.179 49.1161C57.183 49.0801 57.242 49.0841 57.238 49.1221C56.964 52.1111 57.185 55.1391 58.032 58.0211C58.952 60.9131 59.003 64.007 59.183 67.015C59.201 67.511 58.434 67.535 58.433 67.028Z"
          fill="#BBED91"/>
    <path d="M58.367 61.834C60.066 59.149 61.147 55.975 61.386 52.781C61.39 52.676 61.558 52.677 61.556 52.787C61.497 56.09 60.603 59.33 58.998 62.239C58.739 62.687 58.067 62.26 58.367 61.834Z"
          fill="#BBED91"/>
    <g style="mix-blend-mode:multiply" opacity="0.4">
        <path d="M43.343 77.325C47.209 77.325 50.343 76.0894 50.343 74.5651C50.343 73.0408 47.209 71.8051 43.343 71.8051C39.477 71.8051 36.343 73.0408 36.343 74.5651C36.343 76.0894 39.477 77.325 43.343 77.325Z"
              fill="#B85B3E"/>
    </g>
    <path d="M42.042 63.951C42.042 63.951 44.186 61.535 44.05 57.791C43.914 54.047 41.293 53.537 41.293 53.537C41.293 53.537 39.285 55 39.898 57.927C40.511 60.854 42.042 63.951 42.042 63.951Z"
          fill="#00CF24"/>
    <path d="M45.919 65.568C45.919 65.568 44.675 56.53 48.904 57.368C53.144 58.208 49.628 64.348 45.919 65.568Z"
          fill="#00A000"/>
    <path d="M43.0809 74.882C43.0149 71.903 43.0879 68.8721 42.2889 65.9771C41.5459 63.0401 41.4359 59.9651 41.8269 56.9701C41.8299 56.9341 41.8899 56.9381 41.8859 56.9761C41.6119 59.9651 41.8329 62.9931 42.6799 65.8751C43.5999 68.7671 43.6509 71.861 43.8309 74.869C43.8489 75.365 43.0819 75.389 43.0809 74.882Z"
          fill="#BBED91"/>
    <path d="M42.9649 68.8821C45.2269 66.5781 47.009 63.6781 47.931 60.5561C47.957 60.4541 48.1209 60.4911 48.0959 60.5981C47.7179 62.2151 47.1289 63.7911 46.3399 65.2631C45.5559 66.7431 44.6319 68.1311 43.4969 69.4121C43.3599 69.5671 43.1219 69.5811 42.9669 69.4441C42.7989 69.2971 42.7999 69.0321 42.9649 68.8831V68.8821Z"
          fill="#BBED91"/>
    <path d="M40.767 69.891C40.767 69.891 42.011 60.853 37.782 61.691C33.542 62.531 37.058 68.671 40.767 69.891Z"
          fill="#00A000"/>
    <path d="M43.0939 73.634C40.9869 71.127 39.1109 67.996 38.6539 64.818C38.6979 64.808 38.7429 64.835 38.7549 64.878C39.6629 67.955 41.3939 70.833 43.6249 73.104C44.0099 73.444 43.4339 74.025 43.0939 73.634Z"
          fill="#BBED91"/>
    <g style="mix-blend-mode:multiply" opacity="0.4">
        <path d="M73.9829 60.681C77.8489 60.681 80.9829 59.4453 80.9829 57.921C80.9829 56.3967 77.8489 55.161 73.9829 55.161C70.1169 55.161 66.9829 56.3967 66.9829 57.921C66.9829 59.4453 70.1169 60.681 73.9829 60.681Z"
              fill="#B85B3E"/>
    </g>
    <path d="M73.002 47.516C73.002 47.516 75.146 45.1 75.01 41.356C74.874 37.612 72.253 37.1021 72.253 37.1021C72.253 37.1021 70.245 38.565 70.858 41.492C71.471 44.419 73.002 47.516 73.002 47.516Z"
          fill="#00CF24"/>
    <path d="M76.8789 49.134C76.8789 49.134 75.6349 40.096 79.8639 40.934C84.1039 41.774 80.5879 47.914 76.8789 49.134Z"
          fill="#00A000"/>
    <path d="M74.041 58.448C73.975 55.469 74.048 52.438 73.249 49.543C72.506 46.606 72.396 43.531 72.787 40.536C72.791 40.5 72.85 40.504 72.846 40.542C72.572 43.532 72.793 46.559 73.64 49.441C74.56 52.333 74.611 55.427 74.791 58.435C74.809 58.931 74.042 58.955 74.041 58.448Z"
          fill="#BBED91"/>
    <path d="M73.925 52.448C76.187 50.144 77.969 47.244 78.891 44.122C78.917 44.02 79.081 44.057 79.056 44.164C78.678 45.781 78.089 47.357 77.3 48.829C76.516 50.309 75.592 51.697 74.457 52.978C74.32 53.133 74.082 53.147 73.927 53.01C73.759 52.863 73.76 52.598 73.925 52.449V52.448Z"
          fill="#BBED91"/>
    <path d="M71.728 53.456C71.728 53.456 72.9719 44.418 68.7429 45.256C64.5029 46.096 68.019 52.236 71.728 53.456Z"
          fill="#00A000"/>
    <path d="M74.054 57.1991C71.947 54.6921 70.071 51.5611 69.614 48.3831C69.658 48.3731 69.703 48.4001 69.715 48.4431C70.623 51.5201 72.354 54.3981 74.585 56.6691C74.97 57.0091 74.394 57.5881 74.054 57.1981V57.1991Z"
          fill="#BBED91"/>
    <g style="mix-blend-mode:multiply" opacity="0.4">
        <path d="M57.642 85.744C61.508 85.744 64.642 84.5083 64.642 82.9839C64.642 81.4596 61.508 80.224 57.642 80.224C53.776 80.224 50.642 81.4596 50.642 82.9839C50.642 84.5083 53.776 85.744 57.642 85.744Z"
              fill="#B85B3E"/>
    </g>
    <path d="M56.0409 72.7141C56.0409 72.7141 53.8969 70.298 54.0329 66.554C54.1689 62.81 56.7899 62.3 56.7899 62.3C56.7899 62.3 58.7979 63.7631 58.1849 66.6901C57.5719 69.6171 56.0409 72.7141 56.0409 72.7141Z"
          fill="#00CF24"/>
    <path d="M59.1729 74.722C59.1729 74.722 56.0529 66.149 60.3639 66.077C64.6749 66.005 62.5419 72.748 59.1729 74.722Z"
          fill="#00A000"/>
    <path d="M57.13 83.645C57.064 80.666 57.137 77.635 56.338 74.74C55.595 71.803 55.485 68.728 55.876 65.733C55.879 65.697 55.939 65.701 55.935 65.739C55.661 68.729 55.882 71.756 56.729 74.638C57.649 77.53 57.7 80.624 57.88 83.632C57.898 84.128 57.131 84.152 57.13 83.645Z"
          fill="#BBED91"/>
    <path d="M57.064 78.4511C58.764 75.7661 59.844 72.5921 60.083 69.3981C60.087 69.2931 60.255 69.2941 60.253 69.4041C60.195 72.7071 59.3 75.9471 57.695 78.8561C57.435 79.3041 56.764 78.8781 57.064 78.4501V78.4511Z"
          fill="#BBED91"/>
    <g style="mix-blend-mode:multiply" opacity="0.4">
        <path d="M88.413 68.905C92.279 68.905 95.413 67.6693 95.413 66.145C95.413 64.6207 92.279 63.385 88.413 63.385C84.547 63.385 81.413 64.6207 81.413 66.145C81.413 67.6693 84.547 68.905 88.413 68.905Z"
              fill="#B85B3E"/>
    </g>
    <path d="M86.813 55.8751C86.813 55.8751 84.669 53.4591 84.805 49.7151C84.941 45.9711 87.562 45.4611 87.562 45.4611C87.562 45.4611 89.57 46.9241 88.957 49.8511C88.344 52.7781 86.813 55.8751 86.813 55.8751Z"
          fill="#00CF24"/>
    <path d="M89.9439 57.883C89.9439 57.883 86.8239 49.31 91.1349 49.238C95.4459 49.166 93.3129 55.909 89.9439 57.883Z"
          fill="#00A000"/>
    <path d="M87.901 66.806C87.835 63.827 87.908 60.796 87.109 57.901C86.366 54.964 86.256 51.889 86.647 48.894C86.65 48.858 86.71 48.862 86.706 48.9C86.432 51.89 86.653 54.917 87.5 57.799C88.42 60.691 88.471 63.785 88.651 66.793C88.669 67.289 87.902 67.313 87.901 66.806Z"
          fill="#BBED91"/>
    <path d="M87.835 61.612C89.534 58.927 90.615 55.753 90.854 52.559C90.858 52.454 91.026 52.455 91.024 52.565C90.966 55.868 90.071 59.108 88.466 62.017C88.207 62.465 87.535 62.039 87.835 61.612Z"
          fill="#BBED91"/>
    <g style="mix-blend-mode:multiply" opacity="0.4">
        <path d="M72.819 77.8451C76.685 77.8451 79.819 76.6094 79.819 75.0851C79.819 73.5608 76.685 72.3251 72.819 72.3251C68.953 72.3251 65.819 73.5608 65.819 75.0851C65.819 76.6094 68.953 77.8451 72.819 77.8451Z"
              fill="#B85B3E"/>
    </g>
    <path d="M71.517 64.471C71.517 64.471 73.661 62.055 73.525 58.311C73.389 54.567 70.768 54.057 70.768 54.057C70.768 54.057 68.76 55.52 69.373 58.447C69.986 61.374 71.517 64.471 71.517 64.471Z"
          fill="#00CF24"/>
    <path d="M75.3939 66.088C75.3939 66.088 74.15 57.05 78.379 57.888C82.619 58.728 79.1029 64.868 75.3939 66.088Z"
          fill="#00A000"/>
    <path d="M72.556 75.4021C72.49 72.4231 72.563 69.3921 71.764 66.4971C71.021 63.5601 70.911 60.4851 71.302 57.4901C71.305 57.4541 71.365 57.4581 71.361 57.4961C71.087 60.4851 71.308 63.5131 72.155 66.3951C73.075 69.2871 73.126 72.3811 73.306 75.3891C73.324 75.8851 72.557 75.9091 72.556 75.4021Z"
          fill="#BBED91"/>
    <path d="M72.4399 69.4021C74.7019 67.0981 76.4839 64.1981 77.4059 61.0761C77.4319 60.9741 77.5959 61.0111 77.5709 61.1181C77.1929 62.7351 76.6039 64.3111 75.8149 65.7831C75.0309 67.2631 74.1069 68.6511 72.9719 69.9321C72.8349 70.0871 72.5969 70.1011 72.4419 69.9641C72.2739 69.8171 72.2749 69.5511 72.4399 69.4021Z"
          fill="#BBED91"/>
    <path d="M70.243 70.411C70.243 70.411 71.487 61.373 67.258 62.211C63.018 63.051 66.534 69.191 70.243 70.411Z"
          fill="#00A000"/>
    <path d="M72.569 74.154C70.462 71.647 68.586 68.516 68.129 65.338C68.173 65.328 68.218 65.355 68.23 65.398C69.138 68.475 70.869 71.353 73.1 73.624C73.485 73.964 72.909 74.544 72.569 74.153V74.154Z"
          fill="#BBED91"/>
    <g style="mix-blend-mode:multiply" opacity="0.4">
        <path d="M42.7939 94.373C46.6599 94.373 49.7939 93.1373 49.7939 91.613C49.7939 90.0887 46.6599 88.853 42.7939 88.853C38.928 88.853 35.7939 90.0887 35.7939 91.613C35.7939 93.1373 38.928 94.373 42.7939 94.373Z"
              fill="#B85B3E"/>
    </g>
    <path d="M41.4929 80.9991C41.4929 80.9991 43.6369 78.5831 43.5009 74.8391C43.3649 71.0951 40.7439 70.5851 40.7439 70.5851C40.7439 70.5851 38.7359 72.0481 39.3489 74.9751C39.9619 77.9021 41.4929 80.9991 41.4929 80.9991Z"
          fill="#00CF24"/>
    <path d="M45.37 82.6161C45.37 82.6161 44.126 73.5781 48.355 74.4161C52.595 75.2561 49.079 81.3961 45.37 82.6161Z"
          fill="#00A000"/>
    <path d="M42.531 91.93C42.465 88.951 42.538 85.92 41.739 83.025C40.996 80.088 40.886 77.013 41.277 74.018C41.281 73.982 41.34 73.986 41.336 74.024C41.062 77.013 41.283 80.04 42.13 82.922C43.05 85.814 43.101 88.908 43.281 91.916C43.299 92.412 42.532 92.436 42.531 91.929V91.93Z"
          fill="#BBED91"/>
    <path d="M42.416 85.9301C44.678 83.6261 46.46 80.7261 47.382 77.6041C47.408 77.5021 47.572 77.5391 47.547 77.6461C47.169 79.2631 46.58 80.839 45.791 82.311C45.007 83.791 44.083 85.179 42.948 86.46C42.811 86.615 42.573 86.6291 42.418 86.4921C42.25 86.3451 42.251 86.0791 42.416 85.9301Z"
          fill="#BBED91"/>
    <path d="M40.218 86.9391C40.218 86.9391 41.4619 77.9011 37.2329 78.7391C32.9929 79.5791 36.509 85.7191 40.218 86.9391Z"
          fill="#00A000"/>
    <path d="M42.545 90.682C40.438 88.175 38.562 85.044 38.105 81.866C38.149 81.856 38.194 81.883 38.206 81.926C39.114 85.003 40.845 87.881 43.076 90.152C43.461 90.492 42.885 91.073 42.545 90.682Z"
          fill="#BBED91"/>
    <g style="mix-blend-mode:multiply" opacity="0.4">
        <path d="M57.905 103.238C61.771 103.238 64.905 102.002 64.905 100.478C64.905 98.9537 61.771 97.718 57.905 97.718C54.039 97.718 50.905 98.9537 50.905 100.478C50.905 102.002 54.039 103.238 57.905 103.238Z"
              fill="#B85B3E"/>
    </g>
    <path d="M56.304 90.2081C56.304 90.2081 54.16 87.7921 54.296 84.0481C54.432 80.3041 57.053 79.7941 57.053 79.7941C57.053 79.7941 59.061 81.2571 58.448 84.1841C57.835 87.1111 56.304 90.2081 56.304 90.2081Z"
          fill="#00CF24"/>
    <path d="M59.4349 92.216C59.4349 92.216 56.3149 83.643 60.6259 83.571C64.9369 83.499 62.8039 90.242 59.4349 92.216Z"
          fill="#00A000"/>
    <path d="M57.3929 101.139C57.3269 98.16 57.3999 95.129 56.6009 92.234C55.8579 89.297 55.7479 86.222 56.1389 83.227C56.1429 83.191 56.2019 83.195 56.1979 83.233C55.9239 86.223 56.1449 89.25 56.9919 92.132C57.9119 95.024 57.9629 98.118 58.1429 101.126C58.1609 101.622 57.3939 101.646 57.3929 101.139Z"
          fill="#BBED91"/>
    <path d="M57.327 95.945C59.026 93.26 60.107 90.086 60.346 86.892C60.35 86.787 60.518 86.788 60.516 86.898C60.458 90.201 59.563 93.441 57.958 96.35C57.699 96.798 57.027 96.371 57.327 95.945Z"
          fill="#BBED91"/>
    <g style="mix-blend-mode:multiply" opacity="0.4">
        <path d="M88.142 86.665C92.008 86.665 95.142 85.4293 95.142 83.905C95.142 82.3807 92.008 81.145 88.142 81.145C84.276 81.145 81.142 82.3807 81.142 83.905C81.142 85.4293 84.276 86.665 88.142 86.665Z"
              fill="#B85B3E"/>
    </g>
    <path d="M86.8229 73.449C86.8229 73.449 84.6789 71.0331 84.8149 67.2891C84.9509 63.5451 87.5719 63.035 87.5719 63.035C87.5719 63.035 89.5799 64.498 88.9669 67.425C88.3539 70.352 86.8229 73.449 86.8229 73.449Z"
          fill="#00CF24"/>
    <path d="M89.9549 75.457C89.9549 75.457 86.8349 66.884 91.1459 66.812C95.4569 66.74 93.3239 73.483 89.9549 75.457Z"
          fill="#00A000"/>
    <path d="M87.912 84.38C87.846 81.401 87.919 78.37 87.12 75.475C86.377 72.538 86.267 69.463 86.658 66.468C86.662 66.432 86.721 66.436 86.717 66.474C86.443 69.464 86.664 72.491 87.511 75.373C88.431 78.265 88.482 81.359 88.662 84.367C88.68 84.863 87.913 84.887 87.912 84.38Z"
          fill="#BBED91"/>
    <path d="M87.846 79.1861C89.545 76.5011 90.626 73.3271 90.865 70.1331C90.869 70.0281 91.037 70.0291 91.035 70.1391C90.976 73.4421 90.082 76.6821 88.477 79.5911C88.218 80.0391 87.546 79.6121 87.846 79.1861Z"
          fill="#BBED91"/>
    <g style="mix-blend-mode:multiply" opacity="0.4">
        <path d="M72.822 94.6771C76.688 94.6771 79.822 93.4414 79.822 91.9171C79.822 90.3928 76.688 89.1571 72.822 89.1571C68.956 89.1571 65.822 90.3928 65.822 91.9171C65.822 93.4414 68.956 94.6771 72.822 94.6771Z"
              fill="#B85B3E"/>
    </g>
    <path d="M71.521 81.303C71.521 81.303 73.665 78.8871 73.529 75.1431C73.393 71.3991 70.772 70.889 70.772 70.889C70.772 70.889 68.764 72.3521 69.377 75.2791C69.99 78.2061 71.521 81.303 71.521 81.303Z"
          fill="#00CF24"/>
    <path d="M75.398 82.92C75.398 82.92 74.154 73.882 78.383 74.72C82.623 75.56 79.107 81.7 75.398 82.92Z"
          fill="#00A000"/>
    <path d="M72.5599 92.2341C72.4939 89.2551 72.5669 86.2241 71.7679 83.3291C71.0249 80.3921 70.9149 77.3171 71.3059 74.3221C71.3089 74.2861 71.3689 74.2901 71.3649 74.3281C71.0909 77.3181 71.3119 80.3451 72.1589 83.2271C73.0789 86.1191 73.1299 89.2131 73.3099 92.2211C73.3279 92.7171 72.5609 92.7411 72.5599 92.2341Z"
          fill="#BBED91"/>
    <path d="M72.4439 86.234C74.7059 83.93 76.4879 81.03 77.4099 77.908C77.4359 77.806 77.5999 77.843 77.5749 77.95C77.1969 79.567 76.6079 81.1431 75.8189 82.6151C75.0349 84.0951 74.1109 85.483 72.9759 86.764C72.8389 86.919 72.601 86.933 72.446 86.796C72.278 86.649 72.2789 86.384 72.4439 86.235V86.234Z"
          fill="#BBED91"/>
    <path d="M70.246 87.243C70.246 87.243 71.49 78.205 67.261 79.043C63.021 79.883 66.537 86.023 70.246 87.243Z"
          fill="#00A000"/>
    <path d="M72.5729 90.986C70.4659 88.479 68.5899 85.3481 68.1329 82.1701C68.1769 82.1601 68.2219 82.187 68.2339 82.23C69.1419 85.307 70.8729 88.1851 73.1039 90.4561C73.4889 90.7961 72.9129 91.376 72.5729 90.986Z"
          fill="#BBED91"/>
    <g style="mix-blend-mode:multiply" opacity="0.4">
        <path d="M103.462 78.033C107.328 78.033 110.462 76.7973 110.462 75.273C110.462 73.7487 107.328 72.5131 103.462 72.5131C99.5959 72.5131 96.4619 73.7487 96.4619 75.273C96.4619 76.7973 99.5959 78.033 103.462 78.033Z"
              fill="#B85B3E"/>
    </g>
    <path d="M102.482 64.868C102.482 64.868 104.626 62.452 104.49 58.708C104.354 54.964 101.733 54.454 101.733 54.454C101.733 54.454 99.7249 55.917 100.338 58.844C100.951 61.771 102.482 64.868 102.482 64.868Z"
          fill="#00CF24"/>
    <path d="M106.359 66.4861C106.359 66.4861 105.115 57.4481 109.344 58.2861C113.584 59.1261 110.068 65.2661 106.359 66.4861Z"
          fill="#00A000"/>
    <path d="M103.52 75.8C103.454 72.821 103.527 69.79 102.728 66.895C101.985 63.958 101.875 60.883 102.266 57.888C102.27 57.852 102.329 57.856 102.325 57.894C102.051 60.884 102.272 63.911 103.119 66.793C104.039 69.685 104.09 72.779 104.27 75.787C104.288 76.283 103.521 76.307 103.52 75.8Z"
          fill="#BBED91"/>
    <path d="M103.404 69.8001C105.666 67.4961 107.448 64.5961 108.37 61.4741C108.396 61.3721 108.561 61.4091 108.535 61.5161C108.157 63.1331 107.568 64.7091 106.779 66.1811C105.995 67.6611 105.071 69.049 103.936 70.33C103.799 70.485 103.561 70.4991 103.406 70.3621C103.238 70.2151 103.239 69.9491 103.404 69.8001Z"
          fill="#BBED91"/>
    <path d="M101.207 70.808C101.207 70.808 102.451 61.77 98.222 62.608C93.982 63.448 97.4979 69.588 101.207 70.808Z"
          fill="#00A000"/>
    <path d="M103.534 74.5511C101.427 72.0441 99.551 68.9131 99.094 65.7351C99.138 65.7251 99.183 65.7521 99.195 65.7951C100.103 68.8721 101.834 71.7501 104.065 74.0211C104.45 74.3611 103.874 74.9421 103.534 74.5511Z"
          fill="#BBED91"/>
</svg>
