<svg width="117" height="133" viewBox="0 0 117 133" fill="none" xmlns="http://www.w3.org/2000/svg">
    <path d="M115.7 99.3682V82.3592L113.273 81.6922L113.141 82.5472L62.5035 56.7772C59.9715 55.3152 55.8665 55.3152 53.3345 56.7772L3.16446 81.8082L0.136475 82.4752V99.3792C0.136475 100.337 0.769461 101.295 2.03546 102.026L53.3345 131.644C55.8665 133.106 59.9715 133.106 62.5035 131.644L113.802 102.027C115.073 101.293 115.706 100.33 115.701 99.3682H115.7Z"
          fill="#A8522A"/>
    <path d="M115.7 83.671V80.268H113.273L113.141 80.655L62.5035 51.419C59.9715 49.957 55.8665 49.957 53.3345 51.419L3.16446 80.385H0.136475V83.683C0.136475 84.641 0.769461 85.599 2.03546 86.331L53.3345 115.948C55.8665 117.41 59.9715 117.41 62.5035 115.948L113.802 86.331C115.073 85.597 115.706 84.634 115.701 83.672L115.7 83.671Z"
          fill="#C16037"/>
    <path d="M115.7 80.6971V77.2941H113.273L113.141 77.6811L62.5035 48.4451C59.9715 46.9831 55.8665 46.9831 53.3345 48.4451L3.16446 77.4111H0.136475V80.7091C0.136475 81.6671 0.769461 82.6251 2.03546 83.3561L53.3345 112.974C55.8665 114.435 59.9715 114.435 62.5035 112.974L113.802 83.3571C115.073 82.6231 115.706 81.6601 115.701 80.6981L115.7 80.6971Z"
          fill="#C16037"/>
    <path d="M57.9345 55.6821C56.2705 55.6801 54.6045 56.0451 53.3345 56.7781L3.16446 81.8091L0.136475 82.4761V99.3801C0.136475 100.338 0.769461 101.296 2.03546 102.027L53.3345 131.645C54.6045 132.378 56.2705 132.743 57.9345 132.741V55.6821Z"
          fill="#C96A3E"/>
    <path d="M57.9345 50.323C56.2705 50.321 54.6045 50.686 53.3345 51.419L3.16446 80.385H0.136475V83.683C0.136475 84.641 0.769461 85.599 2.03546 86.331L53.3345 115.948C54.6045 116.681 56.2705 117.046 57.9345 117.044V50.324V50.323Z"
          fill="#EA8F67"/>
    <path d="M57.9345 47.3491C56.2705 47.3471 54.6045 47.7121 53.3345 48.4451L3.16446 77.4111H0.136475V80.7091C0.136475 81.6671 0.769461 82.6251 2.03546 83.3561L53.3345 112.974C54.6045 113.707 56.2705 114.072 57.9345 114.07V47.3501V47.3491Z"
          fill="#EA8F67"/>
    <path d="M62.5025 109.675C59.9705 111.137 55.8655 111.137 53.3345 109.675L2.03547 80.058C-0.496525 78.596 -0.496525 76.226 2.03547 74.764L53.3345 45.147C55.8665 43.685 59.9715 43.685 62.5025 45.147L113.801 74.764C116.333 76.226 116.333 78.596 113.801 80.058L62.5025 109.675Z"
          fill="#D2704A"/>
    <path d="M71.4914 50.1551L71.4604 50.2451L59.6674 43.4371C59.0774 43.0971 58.1214 43.0971 57.5324 43.4371L45.8494 50.1821H45.1444V52.4951C45.1444 52.7181 45.2914 52.0891 45.5864 52.2591L57.5324 60.0091C58.1224 60.3491 59.0784 60.3491 59.6674 60.0091L71.6134 53.1121C71.9094 52.9411 72.0564 52.7171 72.0554 52.4931V50.1551H71.4904H71.4914Z"
          fill="#97AB00"/>
    <path d="M57.5335 43.4371L45.8505 50.1822H45.1455V52.4951C45.1455 52.7181 45.2925 52.9412 45.5875 53.1122L57.5335 60.0092C57.8295 60.1802 58.2175 60.2652 58.6045 60.2642V43.1812C58.2165 43.1812 57.8295 43.2661 57.5335 43.4371Z"
          fill="#A5BA00"/>
    <path d="M59.6684 57.6961C59.0784 58.0361 58.1224 58.0361 57.5334 57.6961L45.5874 50.7991C44.9974 50.4591 44.9974 49.9071 45.5874 49.5661L57.5334 42.6691C58.1234 42.3291 59.0794 42.3291 59.6684 42.6691L71.6144 49.5661C72.2044 49.9061 72.2044 50.4581 71.6144 50.7991L59.6684 57.6961Z"
          fill="#BFD600"/>
    <path d="M56.4665 58.848L56.4355 58.938L44.6425 52.13C44.0525 51.79 43.0965 51.79 42.5075 52.13L30.8245 58.875H30.1195V61.188C30.1195 61.411 30.2665 60.782 30.5615 60.952L42.5075 68.702C43.0975 69.042 44.0535 69.042 44.6425 68.702L56.5885 61.805C56.8845 61.634 57.0315 61.41 57.0305 61.186V58.848H56.4665Z"
          fill="#97AB00"/>
    <path d="M42.5075 52.13L30.8245 58.875H30.1195V61.188C30.1195 61.411 30.2665 61.634 30.5615 61.805L42.5075 68.702C42.8035 68.873 43.1915 68.958 43.5785 68.957V51.874C43.1905 51.874 42.8035 51.958 42.5075 52.129V52.13Z"
          fill="#A5BA00"/>
    <path d="M44.6425 66.3892C44.0525 66.7292 43.0965 66.7292 42.5075 66.3892L30.5615 59.4922C29.9715 59.1522 29.9715 58.6002 30.5615 58.2592L42.5075 51.3622C43.0975 51.0222 44.0535 51.0222 44.6425 51.3622L56.5885 58.2592C57.1785 58.5992 57.1785 59.1512 56.5885 59.4922L44.6425 66.3892Z"
          fill="#BFD600"/>
    <path d="M41.3725 67.4891L41.3415 67.5791L29.5485 60.7711C28.9585 60.4311 28.0025 60.4311 27.4135 60.7711L15.7305 67.5161H15.0255V69.8291C15.0255 70.0521 15.1725 69.4231 15.4675 69.5931L27.4135 77.3431C28.0035 77.6831 28.9595 77.6831 29.5485 77.3431L41.4945 70.4461C41.7905 70.2751 41.9375 70.0511 41.9365 69.8271V67.4891H41.3715H41.3725Z"
          fill="#97AB00"/>
    <path d="M27.4145 60.7711L15.7315 67.5161H15.0265V69.8291C15.0265 70.0521 15.1735 70.2751 15.4685 70.4461L27.4145 77.3431C27.7105 77.5141 28.0985 77.5991 28.4855 77.5981V60.5151C28.0975 60.5151 27.7105 60.6001 27.4145 60.7711Z"
          fill="#A5BA00"/>
    <path d="M29.5495 75.03C28.9595 75.37 28.0035 75.37 27.4145 75.03L15.4685 68.133C14.8785 67.793 14.8785 67.241 15.4685 66.9L27.4145 60.003C28.0045 59.663 28.9605 59.663 29.5495 60.003L41.4955 66.9C42.0855 67.24 42.0855 67.792 41.4955 68.133L29.5495 75.03Z"
          fill="#BFD600"/>
    <path d="M26.3475 76.182L26.3165 76.272L14.5235 69.464C13.9335 69.124 12.9775 69.124 12.3885 69.464L0.705505 76.209H0.000488281V78.522C0.000488281 78.745 0.147505 78.116 0.442505 78.286L12.3885 86.036C12.9785 86.376 13.9345 86.376 14.5235 86.036L26.4695 79.139C26.7655 78.968 26.9125 78.744 26.9115 78.52V76.182H26.3465H26.3475Z"
          fill="#97AB00"/>
    <path d="M12.3885 69.464L0.705505 76.209H0.000488281V78.522C0.000488281 78.745 0.147505 78.968 0.442505 79.139L12.3885 86.036C12.6845 86.207 13.0725 86.292 13.4595 86.291V69.208C13.0715 69.208 12.6845 69.292 12.3885 69.463V69.464Z"
          fill="#A5BA00"/>
    <path d="M14.5235 83.7232C13.9335 84.0632 12.9775 84.0632 12.3885 83.7232L0.4425 76.8262C-0.1475 76.4862 -0.1475 75.9342 0.4425 75.5932L12.3885 68.6962C12.9785 68.3562 13.9345 68.3562 14.5235 68.6962L26.4695 75.5932C27.0595 75.9332 27.0595 76.4852 26.4695 76.8262L14.5235 83.7232Z"
          fill="#BFD600"/>
    <path d="M86.0155 58.5641L85.9845 58.6541L74.1915 51.8461C73.6015 51.5061 72.6455 51.5061 72.0565 51.8461L60.3735 58.5911H59.6685V60.9041C59.6685 61.1271 59.8155 60.4981 60.1105 60.6681L72.0565 68.4181C72.6465 68.7581 73.6025 68.7581 74.1915 68.4181L86.1375 61.5211C86.4335 61.3501 86.5805 61.1261 86.5795 60.9021V58.5641H86.0145H86.0155Z"
          fill="#97AB00"/>
    <path d="M72.0565 51.8461L60.3735 58.5911H59.6685V60.9041C59.6685 61.1271 59.8155 61.3501 60.1105 61.5211L72.0565 68.4181C72.3525 68.5891 72.7405 68.6741 73.1275 68.6731V51.5901C72.7395 51.5901 72.3525 51.6741 72.0565 51.8451V51.8461Z"
          fill="#A5BA00"/>
    <path d="M74.1915 66.105C73.6015 66.445 72.6455 66.445 72.0565 66.105L60.1105 59.208C59.5205 58.868 59.5205 58.316 60.1105 57.975L72.0565 51.078C72.6465 50.738 73.6025 50.738 74.1915 51.078L86.1375 57.975C86.7275 58.315 86.7275 58.867 86.1375 59.208L74.1915 66.105Z"
          fill="#BFD600"/>
    <path d="M70.9894 67.2572L70.9584 67.3472L59.1654 60.5392C58.5754 60.1992 57.6194 60.1992 57.0304 60.5392L45.3474 67.2842H44.6425V69.5972C44.6425 69.8202 44.7894 69.1912 45.0844 69.3612L57.0304 77.1112C57.6204 77.4512 58.5764 77.4512 59.1654 77.1112L71.1115 70.2142C71.4074 70.0432 71.5544 69.8192 71.5534 69.5952V67.2572H70.9884H70.9894Z"
          fill="#97AB00"/>
    <path d="M57.0314 60.538L45.3484 67.283H44.6434V69.596C44.6434 69.819 44.7904 70.042 45.0854 70.213L57.0314 77.11C57.3274 77.281 57.7154 77.366 58.1024 77.365V60.282C57.7144 60.282 57.3274 60.367 57.0314 60.538Z"
          fill="#A5BA00"/>
    <path d="M59.1664 74.7971C58.5764 75.1371 57.6204 75.1371 57.0314 74.7971L45.0854 67.9001C44.4954 67.5601 44.4954 67.0081 45.0854 66.6671L57.0314 59.7701C57.6214 59.4301 58.5774 59.4301 59.1664 59.7701L71.1124 66.6671C71.7024 67.0071 71.7024 67.5591 71.1124 67.9001L59.1664 74.7971Z"
          fill="#BFD600"/>
    <path d="M55.8955 75.898L55.8645 75.988L44.0715 69.18C43.4815 68.84 42.5255 68.84 41.9365 69.18L30.2535 75.925H29.5485V78.238C29.5485 78.461 29.6955 77.832 29.9905 78.002L41.9365 85.752C42.5265 86.092 43.4825 86.092 44.0715 85.752L56.0175 78.855C56.3135 78.684 56.4605 78.46 56.4595 78.236V75.898H55.8945H55.8955Z"
          fill="#97AB00"/>
    <path d="M41.9374 69.1801L30.2545 75.9251H29.5494V78.2381C29.5494 78.4611 29.6965 78.6841 29.9915 78.8551L41.9374 85.7521C42.2334 85.9231 42.6215 86.0081 43.0085 86.0071V68.9241C42.6205 68.9241 42.2334 69.0081 41.9374 69.1791V69.1801Z"
          fill="#A5BA00"/>
    <path d="M44.0724 83.439C43.4824 83.779 42.5264 83.779 41.9374 83.439L29.9915 76.542C29.4015 76.202 29.4015 75.65 29.9915 75.309L41.9374 68.412C42.5274 68.072 43.4834 68.072 44.0724 68.412L56.0184 75.309C56.6084 75.649 56.6084 76.201 56.0184 76.542L44.0724 83.439Z"
          fill="#BFD600"/>
    <path d="M40.8706 84.5912L40.8396 84.6812L29.0466 77.8732C28.4566 77.5332 27.5006 77.5332 26.9116 77.8732L15.2286 84.6182H14.5236V86.9312C14.5236 87.1542 14.6706 86.5252 14.9656 86.6952L26.9116 94.4452C27.5016 94.7852 28.4576 94.7852 29.0466 94.4452L40.9926 87.5482C41.2886 87.3772 41.4356 87.1532 41.4346 86.9292V84.5912H40.8696H40.8706Z"
          fill="#97AB00"/>
    <path d="M26.9116 77.8732L15.2286 84.6182H14.5236V86.9312C14.5236 87.1542 14.6706 87.3772 14.9656 87.5482L26.9116 94.4452C27.2076 94.6162 27.5956 94.7012 27.9826 94.7002V77.6172C27.5946 77.6172 27.2076 77.7012 26.9116 77.8722V77.8732Z"
          fill="#A5BA00"/>
    <path d="M29.0466 92.1321C28.4566 92.4721 27.5006 92.4721 26.9116 92.1321L14.9656 85.2351C14.3756 84.8951 14.3756 84.3431 14.9656 84.0021L26.9116 77.1051C27.5016 76.7651 28.4576 76.7651 29.0466 77.1051L40.9925 84.0021C41.5825 84.3421 41.5825 84.8941 40.9925 85.2351L29.0466 92.1321Z"
          fill="#BFD600"/>
    <path d="M101.04 67.1571L101.009 67.2471L89.2165 60.4391C88.6265 60.0991 87.6705 60.0991 87.0815 60.4391L75.3985 67.1841H74.6935V69.4971C74.6935 69.7201 74.8405 69.0911 75.1355 69.2611L87.0815 77.0111C87.6715 77.3511 88.6275 77.3511 89.2165 77.0111L101.162 70.1141C101.458 69.9431 101.605 69.7191 101.604 69.4951V67.1571H101.039H101.04Z"
          fill="#97AB00"/>
    <path d="M87.0825 60.4381L75.3995 67.1831H74.6945V69.4961C74.6945 69.7191 74.8415 69.9421 75.1365 70.1131L87.0825 77.0101C87.3785 77.1811 87.7665 77.2661 88.1535 77.2651V60.1821C87.7655 60.1821 87.3785 60.2661 87.0825 60.4371V60.4381Z"
          fill="#A5BA00"/>
    <path d="M89.2175 74.698C88.6275 75.038 87.6715 75.038 87.0825 74.698L75.1365 67.801C74.5465 67.461 74.5465 66.909 75.1365 66.568L87.0825 59.671C87.6725 59.331 88.6285 59.331 89.2175 59.671L101.163 66.568C101.753 66.908 101.753 67.46 101.163 67.801L89.2175 74.698Z"
          fill="#BFD600"/>
    <path d="M86.0155 75.849L85.9845 75.939L74.1915 69.131C73.6015 68.791 72.6455 68.791 72.0565 69.131L60.3735 75.876H59.6685V78.189C59.6685 78.412 59.8155 77.783 60.1105 77.953L72.0565 85.703C72.6465 86.043 73.6025 86.043 74.1915 85.703L86.1375 78.806C86.4335 78.635 86.5805 78.411 86.5795 78.187V75.849H86.0145H86.0155Z"
          fill="#97AB00"/>
    <path d="M72.0565 69.131L60.3735 75.876H59.6685V78.189C59.6685 78.412 59.8155 78.635 60.1105 78.806L72.0565 85.703C72.3525 85.874 72.7405 85.959 73.1275 85.958V68.875C72.7395 68.875 72.3525 68.96 72.0565 69.131Z"
          fill="#A5BA00"/>
    <path d="M74.1915 83.3901C73.6015 83.7301 72.6455 83.7301 72.0565 83.3901L60.1105 76.4931C59.5205 76.1531 59.5205 75.6011 60.1105 75.2601L72.0565 68.3632C72.6465 68.0232 73.6025 68.0232 74.1915 68.3632L86.1375 75.2601C86.7275 75.6001 86.7275 76.1521 86.1375 76.4931L74.1915 83.3901Z"
          fill="#BFD600"/>
    <path d="M70.9215 84.4911L70.8905 84.5811L59.0975 77.7731C58.5075 77.4331 57.5515 77.4331 56.9625 77.7731L45.2795 84.5181H44.5745V86.8311C44.5745 87.0541 44.7215 86.4251 45.0165 86.5951L56.9625 94.3451C57.5525 94.6851 58.5085 94.6851 59.0975 94.3451L71.0435 87.4481C71.3395 87.2771 71.4865 87.0531 71.4855 86.8291V84.4911H70.9205H70.9215Z"
          fill="#97AB00"/>
    <path d="M56.9636 77.7731L45.2805 84.5181H44.5756V86.8311C44.5756 87.0541 44.7226 87.2771 45.0176 87.4481L56.9636 94.3451C57.2596 94.5161 57.6476 94.6011 58.0346 94.6001V77.5171C57.6466 77.5171 57.2596 77.6021 56.9636 77.7731Z"
          fill="#A5BA00"/>
    <path d="M59.0986 92.032C58.5086 92.372 57.5526 92.372 56.9636 92.032L45.0176 85.135C44.4276 84.795 44.4276 84.243 45.0176 83.902L56.9636 77.005C57.5536 76.665 58.5096 76.665 59.0986 77.005L71.0445 83.902C71.6346 84.242 71.6346 84.794 71.0445 85.135L59.0986 92.032Z"
          fill="#BFD600"/>
    <path d="M55.8955 93.1842L55.8645 93.2742L44.0715 86.4662C43.4815 86.1262 42.5255 86.1262 41.9365 86.4662L30.2535 93.2112H29.5485V95.5242C29.5485 95.7472 29.6955 95.1182 29.9905 95.2882L41.9365 103.038C42.5265 103.378 43.4825 103.378 44.0715 103.038L56.0175 96.1412C56.3135 95.9702 56.4605 95.7462 56.4595 95.5222V93.1842H55.8945H55.8955Z"
          fill="#97AB00"/>
    <path d="M41.9374 86.465L30.2545 93.21H29.5494V95.523C29.5494 95.746 29.6965 95.969 29.9915 96.14L41.9374 103.037C42.2334 103.208 42.6215 103.293 43.0085 103.292V86.209C42.6205 86.209 42.2334 86.294 41.9374 86.465Z"
          fill="#A5BA00"/>
    <path d="M44.0724 100.725C43.4824 101.065 42.5264 101.065 41.9374 100.725L29.9915 93.8281C29.4015 93.4881 29.4015 92.9361 29.9915 92.5951L41.9374 85.6981C42.5274 85.3581 43.4834 85.3581 44.0724 85.6981L56.0184 92.5951C56.6084 92.9351 56.6084 93.4871 56.0184 93.8281L44.0724 100.725Z"
          fill="#BFD600"/>
    <path d="M115.958 75.8131L115.927 75.9031L104.134 69.0951C103.544 68.7551 102.588 68.7551 101.999 69.0951L90.3164 75.8401H89.6115V78.1531C89.6115 78.3761 89.7584 77.7471 90.0534 77.9171L101.999 85.6671C102.589 86.0071 103.545 86.0071 104.134 85.6671L116.08 78.7701C116.376 78.5991 116.523 78.3751 116.522 78.1511V75.8131H115.957H115.958Z"
          fill="#97AB00"/>
    <path d="M101.999 69.0951L90.3164 75.8401H89.6115V78.1531C89.6115 78.3761 89.7584 78.5991 90.0534 78.7701L101.999 85.6671C102.295 85.8381 102.683 85.9231 103.07 85.9221V68.8391C102.682 68.8391 102.295 68.9231 101.999 69.0941V69.0951Z"
          fill="#A5BA00"/>
    <path d="M104.134 83.354C103.544 83.694 102.588 83.694 101.999 83.354L90.0535 76.457C89.4635 76.117 89.4635 75.565 90.0535 75.224L101.999 68.327C102.589 67.987 103.545 67.987 104.134 68.327L116.08 75.224C116.67 75.564 116.67 76.116 116.08 76.457L104.134 83.354Z"
          fill="#BFD600"/>
    <path d="M100.933 84.506L100.902 84.596L89.1086 77.788C88.5186 77.448 87.5626 77.448 86.9736 77.788L75.2906 84.533H74.5856V86.846C74.5856 87.069 74.7326 86.44 75.0276 86.61L86.9736 94.36C87.5636 94.7 88.5196 94.7 89.1086 94.36L101.055 87.463C101.351 87.292 101.498 87.068 101.497 86.844V84.506H100.932H100.933Z"
          fill="#97AB00"/>
    <path d="M86.9745 77.788L75.2915 84.533H74.5865V86.846C74.5865 87.069 74.7335 87.292 75.0285 87.463L86.9745 94.36C87.2705 94.531 87.6585 94.616 88.0455 94.615V77.532C87.6575 77.532 87.2705 77.617 86.9745 77.788Z"
          fill="#A5BA00"/>
    <path d="M89.1096 92.0471C88.5196 92.3871 87.5635 92.3871 86.9745 92.0471L75.0286 85.1501C74.4386 84.8101 74.4386 84.2581 75.0286 83.9171L86.9745 77.0201C87.5645 76.6801 88.5206 76.6801 89.1096 77.0201L101.056 83.9171C101.646 84.2571 101.646 84.8091 101.056 85.1501L89.1096 92.0471Z"
          fill="#BFD600"/>
    <path d="M85.8396 93.148L85.8086 93.238L74.0156 86.43C73.4256 86.09 72.4696 86.09 71.8806 86.43L60.1976 93.175H59.4926V95.488C59.4926 95.711 59.6396 95.082 59.9346 95.252L71.8806 103.002C72.4706 103.342 73.4266 103.342 74.0156 103.002L85.9616 96.105C86.2576 95.934 86.4046 95.71 86.4036 95.486V93.148H85.8386H85.8396Z"
          fill="#97AB00"/>
    <path d="M71.8806 86.4291L60.1976 93.1741H59.4926V95.4871C59.4926 95.7101 59.6396 95.9331 59.9346 96.1041L71.8806 103.001C72.1766 103.172 72.5646 103.257 72.9516 103.256V86.1731C72.5636 86.1731 72.1766 86.2581 71.8806 86.4291Z"
          fill="#A5BA00"/>
    <path d="M74.0156 100.689C73.4256 101.029 72.4695 101.029 71.8805 100.689L59.9346 93.792C59.3446 93.452 59.3446 92.9 59.9346 92.559L71.8805 85.662C72.4705 85.322 73.4266 85.322 74.0156 85.662L85.9616 92.559C86.5516 92.899 86.5516 93.451 85.9616 93.792L74.0156 100.689Z"
          fill="#BFD600"/>
    <path d="M70.8134 101.84L70.7824 101.93L58.9894 95.1219C58.3994 94.7819 57.4434 94.7819 56.8544 95.1219L45.1714 101.867H44.4664V104.18C44.4664 104.403 44.6134 103.774 44.9084 103.944L56.8544 111.694C57.4444 112.034 58.4004 112.034 58.9894 111.694L70.9355 104.797C71.2315 104.626 71.3784 104.402 71.3774 104.178V101.84H70.8124H70.8134Z"
          fill="#97AB00"/>
    <path d="M56.8554 95.122L45.1724 101.867H44.4674V104.18C44.4674 104.403 44.6144 104.626 44.9094 104.797L56.8554 111.694C57.1514 111.865 57.5394 111.95 57.9264 111.949V94.866C57.5384 94.866 57.1514 94.951 56.8554 95.122Z"
          fill="#A5BA00"/>
    <path d="M58.9904 109.381C58.4004 109.721 57.4444 109.721 56.8554 109.381L44.9094 102.484C44.3194 102.144 44.3194 101.592 44.9094 101.251L56.8554 94.3541C57.4454 94.0141 58.4014 94.0141 58.9904 94.3541L70.9364 101.251C71.5264 101.591 71.5264 102.143 70.9364 102.484L58.9904 109.381Z"
          fill="#BFD600"/>
    <g style="mix-blend-mode:multiply">
        <path d="M57.8595 104.124C61.7255 104.124 64.8595 102.888 64.8595 101.364C64.8595 99.8397 61.7255 98.604 57.8595 98.604C53.9935 98.604 50.8595 99.8397 50.8595 101.364C50.8595 102.888 53.9935 104.124 57.8595 104.124Z"
              fill="#BFD600"/>
    </g>
    <path d="M57.4435 102.299C57.0035 102.299 56.6035 102.219 56.2435 102.059C56.0535 101.989 55.8735 101.889 55.7135 101.759C54.2635 100.739 53.4835 98.2692 52.9035 94.7592C52.1535 90.2192 48.3035 85.6592 48.0635 85.3792C48.3135 85.4892 52.0235 87.3092 55.3635 90.2892C55.7435 90.6192 56.1135 90.9692 56.4735 91.3392C56.6435 91.5092 56.8135 91.6892 56.9835 91.8692C60.7035 95.8992 60.0835 102.299 57.4435 102.299Z"
          fill="#00AC00"/>
    <g style="mix-blend-mode:multiply" opacity="0.2">
        <path d="M57.4436 102.299C57.0036 102.299 56.6036 102.219 56.2436 102.059C56.0536 101.989 55.8736 101.889 55.7136 101.759C54.8436 100.349 54.2836 98.1591 54.2836 95.6991C54.2836 93.5891 54.6936 91.6891 55.3636 90.2891C55.7436 90.6191 56.1136 90.9691 56.4736 91.3391C56.6436 91.5091 56.8136 91.6891 56.9836 91.8691C60.7036 95.8991 60.0836 102.299 57.4436 102.299Z"
              fill="#00AC00"/>
    </g>
    <g style="mix-blend-mode:multiply" opacity="0.2">
        <path d="M57.4435 102.299C57.0035 102.299 56.6035 102.219 56.2435 102.059C55.6435 100.699 55.2935 98.9191 55.2935 96.9491C55.2935 94.7291 55.7435 92.7391 56.4735 91.3391C56.6435 91.5091 56.8135 91.6891 56.9835 91.8691C60.7035 95.8991 60.0835 102.299 57.4435 102.299Z"
              fill="#00AC00"/>
    </g>
    <path d="M62.7635 94.3992C63.0235 96.1392 62.6135 98.3892 61.7335 99.9492V99.9592C61.4135 100.529 61.0335 101.009 60.5935 101.329C60.5335 101.379 60.4735 101.419 60.4035 101.459C59.9235 101.779 59.3835 101.909 58.7935 101.789C58.5035 101.729 58.2435 101.619 58.0135 101.459C57.7535 101.279 57.5435 101.049 57.3635 100.779C57.2735 100.639 57.1935 100.499 57.1135 100.339C56.3035 98.5492 56.6836 95.6192 57.4436 94.0892C59.1336 90.7292 63.3836 85.6292 63.3836 85.6292C63.3836 85.6292 62.3035 91.2492 62.7635 94.3992Z"
          fill="#5DE572"/>
    <path d="M61.7334 99.9491V99.9591C61.4134 100.529 61.0334 101.009 60.5934 101.329C60.5334 101.379 60.4734 101.419 60.4034 101.459C59.9234 101.779 59.3834 101.909 58.7934 101.789C58.5034 101.729 58.2434 101.619 58.0134 101.459C57.7534 101.279 57.5434 101.049 57.3634 100.779C57.2734 100.639 57.1934 100.499 57.1134 100.339C57.1534 99.8291 57.2434 99.3591 57.3734 98.9791C58.3034 96.1991 61.0434 91.7891 61.0434 91.7891C61.0434 91.7891 60.8134 96.2591 61.5134 98.6391C61.6334 99.0391 61.7134 99.4891 61.7334 99.9491Z"
          fill="#20D651"/>
    <path d="M60.7236 99.769C60.7536 100.359 60.6236 100.959 60.4036 101.459C59.9236 101.779 59.3835 101.909 58.7935 101.789C58.5035 101.729 58.2435 101.619 58.0135 101.459C58.0235 100.959 58.1436 100.299 58.3536 99.399C58.9036 97.029 60.2036 95.259 60.2036 95.259C60.2036 95.259 60.6236 98.099 60.7236 99.769Z"
          fill="#5DE572"/>
    <g style="mix-blend-mode:multiply">
        <path d="M72.7765 95.8201C76.6425 95.8201 79.7765 94.5843 79.7765 93.06C79.7765 91.5357 76.6425 90.3 72.7765 90.3C68.9105 90.3 65.7765 91.5357 65.7765 93.06C65.7765 94.5843 68.9105 95.8201 72.7765 95.8201Z"
              fill="#BFD600"/>
    </g>
    <path d="M72.3605 93.9962C71.9205 93.9962 71.5205 93.9162 71.1605 93.7562C70.9705 93.6862 70.7905 93.5862 70.6305 93.4562C69.1805 92.4362 68.4005 89.9662 67.8205 86.4562C67.0705 81.9162 63.2205 77.3562 62.9805 77.0762C63.2305 77.1862 66.9405 79.0062 70.2805 81.9862C70.6605 82.3162 71.0305 82.6662 71.3905 83.0362C71.5605 83.2062 71.7305 83.3862 71.9005 83.5662C75.6205 87.5962 75.0005 93.9962 72.3605 93.9962Z"
          fill="#00AC00"/>
    <g style="mix-blend-mode:multiply" opacity="0.2">
        <path d="M72.3606 93.9961C71.9206 93.9961 71.5206 93.9161 71.1606 93.7561C70.9706 93.6861 70.7906 93.5861 70.6306 93.4561C69.7606 92.0461 69.2006 89.8561 69.2006 87.3961C69.2006 85.2861 69.6105 83.3861 70.2805 81.9861C70.6605 82.3161 71.0306 82.6661 71.3906 83.0361C71.5606 83.2061 71.7306 83.3861 71.9006 83.5661C75.6206 87.5961 75.0006 93.9961 72.3606 93.9961Z"
              fill="#00AC00"/>
    </g>
    <g style="mix-blend-mode:multiply" opacity="0.2">
        <path d="M72.3606 93.9961C71.9206 93.9961 71.5206 93.9161 71.1606 93.7561C70.5606 92.3961 70.2106 90.6161 70.2106 88.6461C70.2106 86.4261 70.6606 84.4361 71.3906 83.0361C71.5606 83.2061 71.7306 83.3861 71.9006 83.5661C75.6206 87.5961 75.0006 93.9961 72.3606 93.9961Z"
              fill="#00AC00"/>
    </g>
    <path d="M77.6806 86.0962C77.9405 87.8362 77.5306 90.0862 76.6506 91.6462V91.6562C76.3306 92.2262 75.9505 92.7062 75.5105 93.0262C75.4505 93.0762 75.3905 93.1162 75.3205 93.1562C74.8405 93.4762 74.3005 93.6062 73.7105 93.4862C73.4205 93.4262 73.1606 93.3162 72.9306 93.1562C72.6706 92.9762 72.4605 92.7462 72.2805 92.4762C72.1905 92.3362 72.1105 92.1962 72.0305 92.0362C71.2205 90.2462 71.6005 87.3162 72.3605 85.7862C74.0505 82.4262 78.3005 77.3262 78.3005 77.3262C78.3005 77.3262 77.2206 82.9462 77.6806 86.0962Z"
          fill="#5DE572"/>
    <path d="M76.6504 91.6461V91.6561C76.3304 92.2261 75.9504 92.7061 75.5104 93.0261C75.4504 93.0761 75.3904 93.1161 75.3204 93.1561C74.8404 93.4761 74.3004 93.6061 73.7104 93.4861C73.4204 93.4261 73.1604 93.3161 72.9304 93.1561C72.6704 92.9761 72.4604 92.7461 72.2804 92.4761C72.1904 92.3361 72.1104 92.1961 72.0304 92.0361C72.0704 91.5261 72.1604 91.0561 72.2904 90.6761C73.2204 87.8961 75.9604 83.4861 75.9604 83.4861C75.9604 83.4861 75.7304 87.9561 76.4304 90.3361C76.5504 90.7361 76.6304 91.1861 76.6504 91.6461Z"
          fill="#20D651"/>
    <path d="M75.6405 91.466C75.6705 92.056 75.5405 92.6561 75.3205 93.1561C74.8405 93.4761 74.3005 93.6061 73.7105 93.4861C73.4205 93.4261 73.1605 93.3161 72.9305 93.1561C72.9405 92.6561 73.0605 91.9961 73.2705 91.0961C73.8205 88.7261 75.1205 86.9561 75.1205 86.9561C75.1205 86.9561 75.5405 89.796 75.6405 91.466Z"
          fill="#5DE572"/>
    <g style="mix-blend-mode:multiply">
        <path d="M88.0966 87.6591C91.9626 87.6591 95.0966 86.4235 95.0966 84.8992C95.0966 83.3748 91.9626 82.1392 88.0966 82.1392C84.2306 82.1392 81.0966 83.3748 81.0966 84.8992C81.0966 86.4235 84.2306 87.6591 88.0966 87.6591Z"
              fill="#BFD600"/>
    </g>
    <path d="M87.6804 85.835C87.2404 85.835 86.8404 85.755 86.4804 85.595C86.2904 85.525 86.1104 85.425 85.9504 85.295C84.5004 84.275 83.7204 81.805 83.1404 78.295C82.3904 73.755 78.5404 69.195 78.3004 68.915C78.5504 69.025 82.2604 70.845 85.6004 73.825C85.9804 74.155 86.3504 74.505 86.7104 74.875C86.8804 75.045 87.0504 75.225 87.2204 75.405C90.9404 79.435 90.3204 85.835 87.6804 85.835Z"
          fill="#00AC00"/>
    <g style="mix-blend-mode:multiply" opacity="0.2">
        <path d="M87.6805 85.835C87.2405 85.835 86.8405 85.755 86.4805 85.595C86.2905 85.525 86.1105 85.425 85.9505 85.295C85.0805 83.885 84.5205 81.695 84.5205 79.235C84.5205 77.125 84.9305 75.225 85.6005 73.825C85.9805 74.155 86.3505 74.505 86.7105 74.875C86.8805 75.045 87.0505 75.225 87.2205 75.405C90.9405 79.435 90.3205 85.835 87.6805 85.835Z"
              fill="#00AC00"/>
    </g>
    <g style="mix-blend-mode:multiply" opacity="0.2">
        <path d="M87.6804 85.835C87.2404 85.835 86.8404 85.755 86.4804 85.595C85.8804 84.235 85.5304 82.455 85.5304 80.485C85.5304 78.265 85.9804 76.275 86.7104 74.875C86.8804 75.045 87.0504 75.225 87.2204 75.405C90.9404 79.435 90.3204 85.835 87.6804 85.835Z"
              fill="#00AC00"/>
    </g>
    <path d="M93.0005 77.935C93.2605 79.675 92.8505 81.925 91.9705 83.485V83.495C91.6505 84.065 91.2705 84.545 90.8305 84.865C90.7705 84.915 90.7105 84.955 90.6405 84.995C90.1605 85.315 89.6205 85.445 89.0305 85.325C88.7405 85.265 88.4805 85.155 88.2505 84.995C87.9905 84.815 87.7805 84.585 87.6005 84.315C87.5105 84.175 87.4305 84.035 87.3505 83.875C86.5405 82.085 86.9205 79.155 87.6805 77.625C89.3705 74.265 93.6205 69.165 93.6205 69.165C93.6205 69.165 92.5405 74.785 93.0005 77.935Z"
          fill="#5DE572"/>
    <path d="M91.9705 83.485V83.4949C91.6505 84.0649 91.2705 84.545 90.8305 84.865C90.7705 84.915 90.7105 84.9549 90.6405 84.9949C90.1605 85.3149 89.6205 85.445 89.0305 85.325C88.7405 85.265 88.4805 85.1549 88.2505 84.9949C87.9905 84.8149 87.7805 84.585 87.6005 84.315C87.5105 84.175 87.4305 84.035 87.3505 83.875C87.3905 83.365 87.4805 82.895 87.6105 82.515C88.5405 79.735 91.2805 75.325 91.2805 75.325C91.2805 75.325 91.0505 79.795 91.7505 82.175C91.8705 82.575 91.9505 83.025 91.9705 83.485Z"
          fill="#20D651"/>
    <path d="M90.9605 83.3052C90.9905 83.8952 90.8605 84.4952 90.6405 84.9952C90.1605 85.3152 89.6205 85.4452 89.0305 85.3252C88.7405 85.2652 88.4805 85.1552 88.2505 84.9952C88.2605 84.4952 88.3805 83.8352 88.5905 82.9352C89.1405 80.5652 90.4405 78.7952 90.4405 78.7952C90.4405 78.7952 90.8605 81.6352 90.9605 83.3052Z"
          fill="#5DE572"/>
    <g style="mix-blend-mode:multiply">
        <path d="M103.417 79.0281C107.282 79.0281 110.417 77.7924 110.417 76.2681C110.417 74.7438 107.282 73.5081 103.417 73.5081C99.5505 73.5081 96.4165 74.7438 96.4165 76.2681C96.4165 77.7924 99.5505 79.0281 103.417 79.0281Z"
              fill="#BFD600"/>
    </g>
    <path d="M103 77.203C102.56 77.203 102.16 77.123 101.8 76.963C101.61 76.893 101.43 76.7929 101.27 76.6629C99.8205 75.6429 99.0405 73.1729 98.4605 69.6629C97.7105 65.1229 93.8605 60.563 93.6205 60.283C93.8705 60.393 97.5805 62.213 100.92 65.193C101.3 65.523 101.67 65.873 102.03 66.243C102.2 66.413 102.37 66.5929 102.54 66.7729C106.26 70.8029 105.64 77.203 103 77.203Z"
          fill="#00AC00"/>
    <g style="mix-blend-mode:multiply" opacity="0.2">
        <path d="M103 77.2031C102.56 77.2031 102.16 77.1231 101.8 76.9631C101.61 76.8931 101.43 76.7931 101.27 76.6631C100.4 75.2531 99.8405 73.0631 99.8405 70.6031C99.8405 68.4931 100.25 66.5931 100.92 65.1931C101.3 65.5231 101.67 65.8731 102.03 66.2431C102.2 66.4131 102.37 66.5931 102.54 66.7731C106.26 70.8031 105.64 77.2031 103 77.2031Z"
              fill="#00AC00"/>
    </g>
    <g style="mix-blend-mode:multiply" opacity="0.2">
        <path d="M103 77.2032C102.56 77.2032 102.16 77.1232 101.8 76.9632C101.2 75.6032 100.85 73.8232 100.85 71.8532C100.85 69.6332 101.3 67.6432 102.03 66.2432C102.2 66.4132 102.37 66.5932 102.54 66.7732C106.26 70.8032 105.64 77.2032 103 77.2032Z"
              fill="#00AC00"/>
    </g>
    <path d="M108.32 69.303C108.58 71.043 108.17 73.293 107.29 74.853V74.863C106.97 75.433 106.59 75.913 106.15 76.233C106.09 76.283 106.03 76.323 105.96 76.363C105.48 76.683 104.94 76.813 104.35 76.693C104.06 76.633 103.8 76.523 103.57 76.363C103.31 76.183 103.1 75.953 102.92 75.683C102.83 75.543 102.75 75.403 102.67 75.243C101.86 73.453 102.24 70.523 103 68.993C104.69 65.633 108.94 60.533 108.94 60.533C108.94 60.533 107.86 66.153 108.32 69.303Z"
          fill="#5DE572"/>
    <path d="M107.291 74.8531V74.8631C106.971 75.4331 106.591 75.9131 106.151 76.2331C106.091 76.2831 106.031 76.3231 105.961 76.3631C105.481 76.6831 104.941 76.8131 104.351 76.6931C104.061 76.6331 103.801 76.5231 103.571 76.3631C103.311 76.1831 103.101 75.9531 102.921 75.6831C102.831 75.5431 102.751 75.4031 102.671 75.2431C102.711 74.7331 102.801 74.2631 102.931 73.8831C103.861 71.1031 106.601 66.6931 106.601 66.6931C106.601 66.6931 106.371 71.1631 107.071 73.5431C107.191 73.9431 107.271 74.3931 107.291 74.8531Z"
          fill="#20D651"/>
    <path d="M106.28 74.6731C106.31 75.2631 106.18 75.8631 105.96 76.3631C105.48 76.6831 104.94 76.8131 104.35 76.6931C104.06 76.6331 103.8 76.5231 103.57 76.3631C103.58 75.8631 103.7 75.2031 103.91 74.3031C104.46 71.9331 105.76 70.1631 105.76 70.1631C105.76 70.1631 106.18 73.0031 106.28 74.6731Z"
          fill="#5DE572"/>
    <g style="mix-blend-mode:multiply">
        <path d="M42.8335 95.531C46.6995 95.531 49.8335 94.2953 49.8335 92.771C49.8335 91.2467 46.6995 90.011 42.8335 90.011C38.9675 90.011 35.8335 91.2467 35.8335 92.771C35.8335 94.2953 38.9675 95.531 42.8335 95.531Z"
              fill="#BFD600"/>
    </g>
    <path d="M42.4175 93.7061C41.9775 93.7061 41.5775 93.6261 41.2175 93.4661C41.0275 93.3961 40.8475 93.2961 40.6875 93.1661C39.2375 92.1461 38.4575 89.6761 37.8775 86.1661C37.1275 81.6261 33.2775 77.0661 33.0375 76.7861C33.2875 76.8961 36.9975 78.7161 40.3375 81.6961C40.7175 82.0261 41.0875 82.3761 41.4475 82.7461C41.6175 82.9161 41.7875 83.0961 41.9575 83.2761C45.6775 87.3061 45.0575 93.7061 42.4175 93.7061Z"
          fill="#00AC00"/>
    <g style="mix-blend-mode:multiply" opacity="0.2">
        <path d="M42.4174 93.7061C41.9774 93.7061 41.5774 93.626 41.2174 93.466C41.0274 93.396 40.8474 93.296 40.6874 93.166C39.8174 91.756 39.2574 89.566 39.2574 87.106C39.2574 84.996 39.6674 83.096 40.3374 81.696C40.7174 82.026 41.0874 82.376 41.4474 82.746C41.6174 82.916 41.7874 83.096 41.9574 83.276C45.6774 87.306 45.0575 93.7061 42.4174 93.7061Z"
              fill="#00AC00"/>
    </g>
    <g style="mix-blend-mode:multiply" opacity="0.2">
        <path d="M42.4174 93.7061C41.9774 93.7061 41.5774 93.6261 41.2174 93.4661C40.6174 92.1061 40.2675 90.3261 40.2675 88.3561C40.2675 86.1361 40.7174 84.1461 41.4474 82.7461C41.6174 82.9161 41.7874 83.0961 41.9574 83.2761C45.6774 87.3061 45.0575 93.7061 42.4174 93.7061Z"
              fill="#00AC00"/>
    </g>
    <path d="M47.7374 85.8061C47.9974 87.5461 47.5874 89.7961 46.7074 91.3561V91.3661C46.3874 91.9361 46.0074 92.4161 45.5674 92.7361C45.5074 92.7861 45.4474 92.8261 45.3774 92.8661C44.8974 93.1861 44.3574 93.3161 43.7674 93.1961C43.4774 93.1361 43.2174 93.0261 42.9874 92.8661C42.7274 92.6861 42.5174 92.4561 42.3374 92.1861C42.2474 92.0461 42.1674 91.9061 42.0874 91.7461C41.2774 89.9561 41.6574 87.0261 42.4174 85.4961C44.1074 82.1361 48.3574 77.0361 48.3574 77.0361C48.3574 77.0361 47.2774 82.6561 47.7374 85.8061Z"
          fill="#5DE572"/>
    <path d="M46.7075 91.356V91.366C46.3875 91.936 46.0075 92.4161 45.5675 92.7361C45.5075 92.7861 45.4475 92.826 45.3775 92.866C44.8975 93.186 44.3575 93.316 43.7675 93.196C43.4775 93.136 43.2175 93.026 42.9875 92.866C42.7275 92.686 42.5175 92.4561 42.3375 92.1861C42.2475 92.0461 42.1675 91.906 42.0875 91.746C42.1275 91.236 42.2175 90.766 42.3475 90.386C43.2775 87.606 46.0175 83.196 46.0175 83.196C46.0175 83.196 45.7875 87.6661 46.4875 90.0461C46.6075 90.4461 46.6875 90.896 46.7075 91.356Z"
          fill="#20D651"/>
    <path d="M45.6974 91.176C45.7274 91.766 45.5974 92.366 45.3774 92.866C44.8974 93.186 44.3575 93.316 43.7675 93.196C43.4775 93.136 43.2174 93.026 42.9874 92.866C42.9974 92.366 43.1175 91.706 43.3275 90.806C43.8775 88.436 45.1774 86.666 45.1774 86.666C45.1774 86.666 45.5974 89.506 45.6974 91.176Z"
          fill="#5DE572"/>
    <g style="mix-blend-mode:multiply">
        <path d="M57.7515 87.228C61.6175 87.228 64.7515 85.9923 64.7515 84.468C64.7515 82.9437 61.6175 81.708 57.7515 81.708C53.8855 81.708 50.7515 82.9437 50.7515 84.468C50.7515 85.9923 53.8855 87.228 57.7515 87.228Z"
              fill="#BFD600"/>
    </g>
    <path d="M57.3354 85.4032C56.8954 85.4032 56.4954 85.3231 56.1354 85.1631C55.9454 85.0931 55.7654 84.9932 55.6054 84.8632C54.1554 83.8432 53.3754 81.3732 52.7954 77.8632C52.0454 73.3232 48.1954 68.7632 47.9554 68.4832C48.2054 68.5932 51.9154 70.4132 55.2554 73.3932C55.6354 73.7232 56.0054 74.0732 56.3654 74.4432C56.5354 74.6132 56.7054 74.7932 56.8754 74.9732C60.5954 79.0032 59.9754 85.4032 57.3354 85.4032Z"
          fill="#00AC00"/>
    <g style="mix-blend-mode:multiply" opacity="0.2">
        <path d="M57.3354 85.4031C56.8954 85.4031 56.4954 85.3231 56.1354 85.1631C55.9454 85.0931 55.7654 84.9931 55.6054 84.8631C54.7354 83.4531 54.1754 81.2631 54.1754 78.8031C54.1754 76.6931 54.5854 74.7931 55.2554 73.3931C55.6354 73.7231 56.0054 74.0731 56.3654 74.4431C56.5354 74.6131 56.7054 74.7931 56.8754 74.9731C60.5954 79.0031 59.9754 85.4031 57.3354 85.4031Z"
              fill="#00AC00"/>
    </g>
    <g style="mix-blend-mode:multiply" opacity="0.2">
        <path d="M57.3354 85.4031C56.8954 85.4031 56.4954 85.3231 56.1354 85.1631C55.5354 83.8031 55.1854 82.0231 55.1854 80.0531C55.1854 77.8331 55.6354 75.8431 56.3654 74.4431C56.5354 74.6131 56.7054 74.7931 56.8754 74.9731C60.5954 79.0031 59.9754 85.4031 57.3354 85.4031Z"
              fill="#00AC00"/>
    </g>
    <path d="M62.6555 77.5032C62.9155 79.2432 62.5055 81.4932 61.6255 83.0532V83.0632C61.3055 83.6332 60.9255 84.1132 60.4855 84.4332C60.4255 84.4832 60.3655 84.5232 60.2955 84.5632C59.8155 84.8832 59.2755 85.0132 58.6855 84.8932C58.3955 84.8332 58.1355 84.7232 57.9055 84.5632C57.6455 84.3832 57.4355 84.1531 57.2555 83.8831C57.1655 83.7431 57.0855 83.6032 57.0055 83.4432C56.1955 81.6532 56.5755 78.7232 57.3355 77.1932C59.0255 73.8332 63.2755 68.7332 63.2755 68.7332C63.2755 68.7332 62.1955 74.3532 62.6555 77.5032Z"
          fill="#5DE572"/>
    <path d="M61.6255 83.0531V83.0631C61.3055 83.6331 60.9255 84.1131 60.4855 84.4331C60.4255 84.4831 60.3655 84.5231 60.2955 84.5631C59.8155 84.8831 59.2755 85.0131 58.6855 84.8931C58.3955 84.8331 58.1355 84.7231 57.9055 84.5631C57.6455 84.3831 57.4355 84.1531 57.2555 83.8831C57.1655 83.7431 57.0855 83.6031 57.0055 83.4431C57.0455 82.9331 57.1355 82.4631 57.2655 82.0831C58.1955 79.3031 60.9355 74.8931 60.9355 74.8931C60.9355 74.8931 60.7055 79.3631 61.4055 81.7431C61.5255 82.1431 61.6055 82.5931 61.6255 83.0531Z"
          fill="#20D651"/>
    <path d="M60.6154 82.873C60.6454 83.463 60.5154 84.063 60.2954 84.563C59.8154 84.883 59.2754 85.013 58.6854 84.893C58.3954 84.833 58.1354 84.723 57.9054 84.563C57.9154 84.063 58.0354 83.403 58.2454 82.503C58.7954 80.133 60.0954 78.363 60.0954 78.363C60.0954 78.363 60.5154 81.203 60.6154 82.873Z"
          fill="#5DE572"/>
    <g style="mix-blend-mode:multiply">
        <path d="M73.0714 79.0671C76.9374 79.0671 80.0714 77.8314 80.0714 76.3071C80.0714 74.7828 76.9374 73.5471 73.0714 73.5471C69.2054 73.5471 66.0714 74.7828 66.0714 76.3071C66.0714 77.8314 69.2054 79.0671 73.0714 79.0671Z"
              fill="#BFD600"/>
    </g>
    <path d="M72.6545 77.242C72.2145 77.242 71.8145 77.162 71.4545 77.002C71.2645 76.932 71.0845 76.832 70.9245 76.702C69.4745 75.682 68.6945 73.212 68.1145 69.702C67.3645 65.162 63.5145 60.602 63.2745 60.322C63.5245 60.432 67.2345 62.252 70.5745 65.232C70.9545 65.562 71.3245 65.912 71.6845 66.282C71.8545 66.452 72.0245 66.632 72.1945 66.812C75.9145 70.842 75.2945 77.242 72.6545 77.242Z"
          fill="#00AC00"/>
    <g style="mix-blend-mode:multiply" opacity="0.2">
        <path d="M72.6545 77.2422C72.2145 77.2422 71.8145 77.1622 71.4545 77.0022C71.2645 76.9322 71.0845 76.8322 70.9245 76.7022C70.0545 75.2922 69.4945 73.1022 69.4945 70.6422C69.4945 68.5322 69.9045 66.6322 70.5745 65.2322C70.9545 65.5622 71.3245 65.9122 71.6845 66.2822C71.8545 66.4522 72.0245 66.6322 72.1945 66.8122C75.9145 70.8422 75.2945 77.2422 72.6545 77.2422Z"
              fill="#00AC00"/>
    </g>
    <g style="mix-blend-mode:multiply" opacity="0.2">
        <path d="M72.6545 77.242C72.2145 77.242 71.8145 77.162 71.4545 77.002C70.8545 75.642 70.5045 73.862 70.5045 71.892C70.5045 69.672 70.9545 67.682 71.6845 66.282C71.8545 66.452 72.0245 66.632 72.1945 66.812C75.9145 70.842 75.2945 77.242 72.6545 77.242Z"
              fill="#00AC00"/>
    </g>
    <path d="M77.9755 69.342C78.2355 71.082 77.8255 73.332 76.9455 74.892V74.902C76.6255 75.472 76.2455 75.952 75.8055 76.272C75.7455 76.322 75.6855 76.362 75.6155 76.402C75.1355 76.722 74.5955 76.852 74.0055 76.732C73.7155 76.672 73.4555 76.562 73.2255 76.402C72.9655 76.222 72.7555 75.992 72.5755 75.722C72.4855 75.582 72.4055 75.442 72.3255 75.282C71.5155 73.492 71.8954 70.562 72.6554 69.032C74.3454 65.672 78.5954 60.572 78.5954 60.572C78.5954 60.572 77.5155 66.192 77.9755 69.342Z"
          fill="#5DE572"/>
    <path d="M76.9456 74.8922V74.9022C76.6256 75.4722 76.2456 75.9522 75.8056 76.2722C75.7456 76.3222 75.6856 76.3622 75.6156 76.4022C75.1356 76.7222 74.5956 76.8522 74.0056 76.7322C73.7156 76.6722 73.4556 76.5622 73.2256 76.4022C72.9656 76.2222 72.7556 75.9922 72.5756 75.7222C72.4856 75.5822 72.4056 75.4422 72.3256 75.2822C72.3656 74.7722 72.4556 74.3022 72.5856 73.9222C73.5156 71.1422 76.2556 66.7322 76.2556 66.7322C76.2556 66.7322 76.0256 71.2022 76.7256 73.5822C76.8456 73.9822 76.9256 74.4322 76.9456 74.8922Z"
          fill="#20D651"/>
    <path d="M75.9355 74.7122C75.9655 75.3022 75.8355 75.9022 75.6155 76.4022C75.1355 76.7222 74.5955 76.8521 74.0055 76.7321C73.7155 76.6721 73.4555 76.5622 73.2255 76.4022C73.2355 75.9022 73.3555 75.2421 73.5655 74.3421C74.1155 71.9721 75.4155 70.2021 75.4155 70.2021C75.4155 70.2021 75.8355 73.0422 75.9355 74.7122Z"
          fill="#5DE572"/>
    <g style="mix-blend-mode:multiply">
        <path d="M88.3905 70.435C92.2565 70.435 95.3905 69.1993 95.3905 67.675C95.3905 66.1507 92.2565 64.915 88.3905 64.915C84.5245 64.915 81.3905 66.1507 81.3905 67.675C81.3905 69.1993 84.5245 70.435 88.3905 70.435Z"
              fill="#BFD600"/>
    </g>
    <path d="M87.9745 68.6102C87.5345 68.6102 87.1345 68.5302 86.7745 68.3702C86.5845 68.3002 86.4045 68.2002 86.2445 68.0702C84.7945 67.0502 84.0145 64.5802 83.4345 61.0702C82.6845 56.5302 78.8345 51.9702 78.5945 51.6902C78.8445 51.8002 82.5545 53.6202 85.8945 56.6002C86.2745 56.9302 86.6445 57.2802 87.0045 57.6502C87.1745 57.8202 87.3445 58.0002 87.5145 58.1802C91.2345 62.2102 90.6145 68.6102 87.9745 68.6102Z"
          fill="#00AC00"/>
    <g style="mix-blend-mode:multiply" opacity="0.2">
        <path d="M87.9745 68.6101C87.5345 68.6101 87.1346 68.5301 86.7746 68.3701C86.5846 68.3001 86.4046 68.2001 86.2446 68.0701C85.3746 66.6601 84.8146 64.4701 84.8146 62.0101C84.8146 59.9001 85.2246 58.0001 85.8946 56.6001C86.2746 56.9301 86.6446 57.2801 87.0046 57.6501C87.1746 57.8201 87.3446 58.0001 87.5146 58.1801C91.2346 62.2101 90.6145 68.6101 87.9745 68.6101Z"
              fill="#00AC00"/>
    </g>
    <g style="mix-blend-mode:multiply" opacity="0.2">
        <path d="M87.9745 68.6102C87.5345 68.6102 87.1345 68.5301 86.7745 68.3701C86.1745 67.0101 85.8245 65.2301 85.8245 63.2601C85.8245 61.0401 86.2745 59.0501 87.0045 57.6501C87.1745 57.8201 87.3445 58.0002 87.5145 58.1802C91.2345 62.2102 90.6145 68.6102 87.9745 68.6102Z"
              fill="#00AC00"/>
    </g>
    <path d="M93.2945 60.7102C93.5545 62.4502 93.1445 64.7002 92.2645 66.2602V66.2702C91.9445 66.8402 91.5646 67.3202 91.1246 67.6402C91.0646 67.6902 91.0046 67.7302 90.9346 67.7702C90.4546 68.0902 89.9145 68.2202 89.3245 68.1002C89.0345 68.0402 88.7745 67.9302 88.5445 67.7702C88.2845 67.5902 88.0745 67.3602 87.8945 67.0902C87.8045 66.9502 87.7245 66.8102 87.6445 66.6502C86.8345 64.8602 87.2145 61.9302 87.9745 60.4002C89.6645 57.0402 93.9145 51.9402 93.9145 51.9402C93.9145 51.9402 92.8345 57.5602 93.2945 60.7102Z"
          fill="#5DE572"/>
    <path d="M92.2644 66.2601V66.2701C91.9444 66.8401 91.5644 67.3201 91.1244 67.6401C91.0644 67.6901 91.0044 67.7301 90.9344 67.7701C90.4544 68.0901 89.9144 68.2201 89.3244 68.1001C89.0344 68.0401 88.7744 67.9301 88.5444 67.7701C88.2844 67.5901 88.0744 67.3601 87.8944 67.0901C87.8044 66.9501 87.7244 66.8101 87.6444 66.6501C87.6844 66.1401 87.7744 65.6701 87.9044 65.2901C88.8344 62.5101 91.5744 58.1001 91.5744 58.1001C91.5744 58.1001 91.3444 62.5701 92.0444 64.9501C92.1644 65.3501 92.2444 65.8001 92.2644 66.2601Z"
          fill="#20D651"/>
    <path d="M91.2546 66.0801C91.2846 66.6701 91.1546 67.2701 90.9346 67.7701C90.4546 68.0901 89.9146 68.2201 89.3246 68.1001C89.0346 68.0401 88.7746 67.9301 88.5446 67.7701C88.5546 67.2701 88.6746 66.6101 88.8846 65.7101C89.4346 63.3401 90.7346 61.5701 90.7346 61.5701C90.7346 61.5701 91.1546 64.4101 91.2546 66.0801Z"
          fill="#5DE572"/>
    <g style="mix-blend-mode:multiply">
        <path d="M28.3104 87.122C32.1764 87.122 35.3104 85.8864 35.3104 84.362C35.3104 82.8377 32.1764 81.6021 28.3104 81.6021C24.4444 81.6021 21.3104 82.8377 21.3104 84.362C21.3104 85.8864 24.4444 87.122 28.3104 87.122Z"
              fill="#BFD600"/>
    </g>
    <path d="M27.8945 85.2982C27.4545 85.2982 27.0545 85.2182 26.6945 85.0582C26.5045 84.9882 26.3245 84.8882 26.1645 84.7582C24.7145 83.7382 23.9345 81.2682 23.3545 77.7582C22.6045 73.2182 18.7545 68.6582 18.5145 68.3782C18.7645 68.4882 22.4745 70.3082 25.8145 73.2882C26.1945 73.6182 26.5645 73.9682 26.9245 74.3382C27.0945 74.5082 27.2645 74.6882 27.4345 74.8682C31.1545 78.8982 30.5345 85.2982 27.8945 85.2982Z"
          fill="#00AC00"/>
    <g style="mix-blend-mode:multiply" opacity="0.2">
        <path d="M27.8945 85.2981C27.4545 85.2981 27.0545 85.2181 26.6945 85.0581C26.5045 84.9881 26.3245 84.8881 26.1645 84.7581C25.2945 83.3481 24.7345 81.1581 24.7345 78.6981C24.7345 76.5881 25.1445 74.6881 25.8145 73.2881C26.1945 73.6181 26.5645 73.9681 26.9245 74.3381C27.0945 74.5081 27.2645 74.6881 27.4345 74.8681C31.1545 78.8981 30.5345 85.2981 27.8945 85.2981Z"
              fill="#00AC00"/>
    </g>
    <g style="mix-blend-mode:multiply" opacity="0.2">
        <path d="M27.8945 85.2981C27.4545 85.2981 27.0545 85.2181 26.6945 85.0581C26.0945 83.6981 25.7445 81.9181 25.7445 79.9481C25.7445 77.7281 26.1945 75.7381 26.9245 74.3381C27.0945 74.5081 27.2645 74.6881 27.4345 74.8681C31.1545 78.8981 30.5345 85.2981 27.8945 85.2981Z"
              fill="#00AC00"/>
    </g>
    <path d="M33.2145 77.3982C33.4745 79.1382 33.0645 81.3882 32.1845 82.9482V82.9582C31.8645 83.5282 31.4845 84.0082 31.0445 84.3282C30.9845 84.3782 30.9244 84.4182 30.8544 84.4582C30.3744 84.7782 29.8345 84.9082 29.2445 84.7882C28.9545 84.7282 28.6945 84.6182 28.4645 84.4582C28.2045 84.2782 27.9945 84.0482 27.8145 83.7782C27.7245 83.6382 27.6445 83.4982 27.5645 83.3382C26.7545 81.5482 27.1345 78.6182 27.8945 77.0882C29.5845 73.7282 33.8345 68.6282 33.8345 68.6282C33.8345 68.6282 32.7545 74.2482 33.2145 77.3982Z"
          fill="#5DE572"/>
    <path d="M32.1846 82.9481V82.9581C31.8646 83.5281 31.4846 84.0081 31.0446 84.3281C30.9846 84.3781 30.9246 84.4181 30.8546 84.4581C30.3746 84.7781 29.8346 84.9081 29.2446 84.7881C28.9546 84.7281 28.6946 84.6181 28.4646 84.4581C28.2046 84.2781 27.9946 84.0481 27.8146 83.7781C27.7246 83.6381 27.6446 83.4981 27.5646 83.3381C27.6046 82.8281 27.6946 82.3581 27.8246 81.9781C28.7546 79.1981 31.4946 74.7881 31.4946 74.7881C31.4946 74.7881 31.2646 79.2581 31.9646 81.6381C32.0846 82.0381 32.1646 82.4881 32.1846 82.9481Z"
          fill="#20D651"/>
    <path d="M31.1745 82.7681C31.2045 83.3581 31.0745 83.9581 30.8545 84.4581C30.3745 84.7781 29.8345 84.9081 29.2445 84.7881C28.9545 84.7281 28.6945 84.6181 28.4645 84.4581C28.4745 83.9581 28.5945 83.2981 28.8045 82.3981C29.3545 80.0281 30.6545 78.2581 30.6545 78.2581C30.6545 78.2581 31.0745 81.0981 31.1745 82.7681Z"
          fill="#5DE572"/>
    <g style="mix-blend-mode:multiply">
        <path d="M43.2285 78.8191C47.0945 78.8191 50.2285 77.5834 50.2285 76.0591C50.2285 74.5348 47.0945 73.2991 43.2285 73.2991C39.3625 73.2991 36.2285 74.5348 36.2285 76.0591C36.2285 77.5834 39.3625 78.8191 43.2285 78.8191Z"
              fill="#BFD600"/>
    </g>
    <path d="M42.8115 76.994C42.3715 76.994 41.9715 76.914 41.6115 76.754C41.4215 76.684 41.2415 76.584 41.0815 76.454C39.6315 75.434 38.8515 72.964 38.2715 69.454C37.5215 64.914 33.6715 60.354 33.4315 60.074C33.6815 60.184 37.3915 62.004 40.7315 64.984C41.1115 65.314 41.4815 65.664 41.8415 66.034C42.0115 66.204 42.1815 66.384 42.3515 66.564C46.0715 70.594 45.4515 76.994 42.8115 76.994Z"
          fill="#00AC00"/>
    <g style="mix-blend-mode:multiply" opacity="0.2">
        <path d="M42.8115 76.9941C42.3715 76.9941 41.9715 76.9141 41.6115 76.7541C41.4215 76.6841 41.2415 76.5841 41.0815 76.4541C40.2115 75.0441 39.6515 72.8541 39.6515 70.3941C39.6515 68.2841 40.0615 66.3841 40.7315 64.9841C41.1115 65.3141 41.4815 65.6641 41.8415 66.0341C42.0115 66.2041 42.1815 66.3841 42.3515 66.5641C46.0715 70.5941 45.4515 76.9941 42.8115 76.9941Z"
              fill="#00AC00"/>
    </g>
    <g style="mix-blend-mode:multiply" opacity="0.2">
        <path d="M42.8115 76.9942C42.3715 76.9942 41.9715 76.9142 41.6115 76.7542C41.0115 75.3942 40.6615 73.6142 40.6615 71.6442C40.6615 69.4242 41.1115 67.4342 41.8415 66.0342C42.0115 66.2042 42.1815 66.3842 42.3515 66.5642C46.0715 70.5942 45.4515 76.9942 42.8115 76.9942Z"
              fill="#00AC00"/>
    </g>
    <path d="M48.1324 69.094C48.3924 70.834 47.9824 73.084 47.1024 74.644V74.654C46.7824 75.224 46.4024 75.704 45.9624 76.024C45.9024 76.074 45.8424 76.114 45.7724 76.154C45.2924 76.474 44.7524 76.604 44.1624 76.484C43.8724 76.424 43.6124 76.314 43.3824 76.154C43.1224 75.974 42.9124 75.744 42.7324 75.474C42.6424 75.334 42.5624 75.194 42.4824 75.034C41.6724 73.244 42.0524 70.314 42.8124 68.784C44.5024 65.424 48.7524 60.324 48.7524 60.324C48.7524 60.324 47.6724 65.944 48.1324 69.094Z"
          fill="#5DE572"/>
    <path d="M47.1025 74.6441V74.6541C46.7825 75.2241 46.4025 75.7041 45.9625 76.0241C45.9025 76.0741 45.8425 76.1141 45.7725 76.1541C45.2925 76.4741 44.7525 76.6041 44.1625 76.4841C43.8725 76.4241 43.6125 76.3141 43.3825 76.1541C43.1225 75.9741 42.9125 75.7441 42.7325 75.4741C42.6425 75.3341 42.5625 75.1941 42.4825 75.0341C42.5225 74.5241 42.6125 74.0541 42.7425 73.6741C43.6725 70.8941 46.4125 66.4841 46.4125 66.4841C46.4125 66.4841 46.1825 70.9541 46.8825 73.3341C47.0025 73.7341 47.0825 74.1841 47.1025 74.6441Z"
          fill="#20D651"/>
    <path d="M46.0924 74.4641C46.1224 75.0541 45.9924 75.6541 45.7724 76.1541C45.2924 76.4741 44.7524 76.6041 44.1624 76.4841C43.8724 76.4241 43.6124 76.3141 43.3824 76.1541C43.3924 75.6541 43.5124 74.9941 43.7224 74.0941C44.2724 71.7241 45.5724 69.9541 45.5724 69.9541C45.5724 69.9541 45.9924 72.7941 46.0924 74.4641Z"
          fill="#5DE572"/>
    <g style="mix-blend-mode:multiply">
        <path d="M58.5475 70.6582C62.4135 70.6582 65.5475 69.4225 65.5475 67.8982C65.5475 66.3739 62.4135 65.1382 58.5475 65.1382C54.6815 65.1382 51.5475 66.3739 51.5475 67.8982C51.5475 69.4225 54.6815 70.6582 58.5475 70.6582Z"
              fill="#BFD600"/>
    </g>
    <path d="M58.1315 68.8331C57.6915 68.8331 57.2915 68.7531 56.9315 68.5931C56.7415 68.5231 56.5615 68.4231 56.4015 68.2931C54.9515 67.2731 54.1715 64.8031 53.5915 61.2931C52.8415 56.7531 48.9915 52.1931 48.7515 51.9131C49.0015 52.0231 52.7115 53.8431 56.0515 56.8231C56.4315 57.1531 56.8015 57.5031 57.1615 57.8731C57.3315 58.0431 57.5015 58.2231 57.6715 58.4031C61.3915 62.4331 60.7715 68.8331 58.1315 68.8331Z"
          fill="#00AC00"/>
    <g style="mix-blend-mode:multiply" opacity="0.2">
        <path d="M58.1316 68.833C57.6916 68.833 57.2915 68.753 56.9315 68.593C56.7415 68.523 56.5616 68.423 56.4016 68.293C55.5316 66.883 54.9716 64.693 54.9716 62.233C54.9716 60.123 55.3816 58.223 56.0516 56.823C56.4316 57.153 56.8016 57.503 57.1616 57.873C57.3316 58.043 57.5016 58.223 57.6716 58.403C61.3916 62.433 60.7716 68.833 58.1316 68.833Z"
              fill="#00AC00"/>
    </g>
    <g style="mix-blend-mode:multiply" opacity="0.2">
        <path d="M58.1316 68.8331C57.6916 68.8331 57.2915 68.753 56.9315 68.593C56.3315 67.233 55.9816 65.453 55.9816 63.483C55.9816 61.263 56.4316 59.273 57.1616 57.873C57.3316 58.043 57.5016 58.223 57.6716 58.403C61.3916 62.433 60.7716 68.8331 58.1316 68.8331Z"
              fill="#00AC00"/>
    </g>
    <path d="M63.4515 60.9331C63.7115 62.6731 63.3015 64.9231 62.4215 66.4831V66.4931C62.1015 67.0631 61.7215 67.5431 61.2815 67.8631C61.2215 67.9131 61.1615 67.9531 61.0915 67.9931C60.6115 68.3131 60.0715 68.4431 59.4815 68.3231C59.1915 68.2631 58.9315 68.1531 58.7015 67.9931C58.4415 67.8131 58.2315 67.5831 58.0515 67.3131C57.9615 67.1731 57.8815 67.0331 57.8015 66.8731C56.9915 65.0831 57.3715 62.1531 58.1315 60.6231C59.8215 57.2631 64.0715 52.1631 64.0715 52.1631C64.0715 52.1631 62.9915 57.7831 63.4515 60.9331Z"
          fill="#5DE572"/>
    <path d="M62.4215 66.483V66.493C62.1015 67.063 61.7215 67.543 61.2815 67.863C61.2215 67.913 61.1615 67.953 61.0915 67.993C60.6115 68.313 60.0715 68.443 59.4815 68.323C59.1915 68.263 58.9315 68.153 58.7015 67.993C58.4415 67.813 58.2315 67.583 58.0515 67.313C57.9615 67.173 57.8815 67.033 57.8015 66.873C57.8415 66.363 57.9315 65.893 58.0615 65.513C58.9915 62.733 61.7315 58.323 61.7315 58.323C61.7315 58.323 61.5015 62.793 62.2015 65.173C62.3215 65.573 62.4015 66.023 62.4215 66.483Z"
          fill="#20D651"/>
    <path d="M61.4115 66.303C61.4415 66.893 61.3115 67.493 61.0915 67.993C60.6115 68.313 60.0715 68.443 59.4815 68.323C59.1915 68.263 58.9315 68.153 58.7015 67.993C58.7115 67.493 58.8315 66.833 59.0415 65.933C59.5915 63.563 60.8915 61.793 60.8915 61.793C60.8915 61.793 61.3115 64.633 61.4115 66.303Z"
          fill="#5DE572"/>
    <g style="mix-blend-mode:multiply">
        <path d="M73.8676 62.0261C77.7335 62.0261 80.8676 60.7904 80.8676 59.2661C80.8676 57.7418 77.7335 56.5061 73.8676 56.5061C70.0016 56.5061 66.8676 57.7418 66.8676 59.2661C66.8676 60.7904 70.0016 62.0261 73.8676 62.0261Z"
              fill="#BFD600"/>
    </g>
    <path d="M73.4514 60.202C73.0114 60.202 72.6114 60.122 72.2514 59.962C72.0614 59.892 71.8814 59.792 71.7214 59.662C70.2714 58.642 69.4914 56.172 68.9114 52.662C68.1614 48.122 64.3114 43.562 64.0714 43.282C64.3214 43.392 68.0314 45.212 71.3714 48.192C71.7514 48.522 72.1214 48.872 72.4814 49.242C72.6514 49.412 72.8214 49.592 72.9914 49.772C76.7114 53.802 76.0914 60.202 73.4514 60.202Z"
          fill="#00AC00"/>
    <g style="mix-blend-mode:multiply" opacity="0.2">
        <path d="M73.4515 60.2021C73.0115 60.2021 72.6115 60.1221 72.2515 59.9621C72.0615 59.8921 71.8815 59.7921 71.7215 59.6621C70.8515 58.2521 70.2915 56.0621 70.2915 53.6021C70.2915 51.4921 70.7015 49.5921 71.3715 48.1921C71.7515 48.5221 72.1215 48.8721 72.4815 49.2421C72.6515 49.4121 72.8215 49.5921 72.9915 49.7721C76.7115 53.8021 76.0915 60.2021 73.4515 60.2021Z"
              fill="#00AC00"/>
    </g>
    <g style="mix-blend-mode:multiply" opacity="0.2">
        <path d="M73.4515 60.2022C73.0115 60.2022 72.6115 60.1222 72.2515 59.9622C71.6515 58.6022 71.3015 56.8222 71.3015 54.8522C71.3015 52.6322 71.7515 50.6422 72.4815 49.2422C72.6515 49.4122 72.8215 49.5922 72.9915 49.7722C76.7115 53.8022 76.0915 60.2022 73.4515 60.2022Z"
              fill="#00AC00"/>
    </g>
    <path d="M78.7715 52.301C79.0315 54.041 78.6215 56.291 77.7415 57.851V57.861C77.4215 58.431 77.0415 58.911 76.6015 59.231C76.5415 59.281 76.4815 59.321 76.4115 59.361C75.9315 59.681 75.3915 59.811 74.8015 59.691C74.5115 59.631 74.2515 59.521 74.0215 59.361C73.7615 59.181 73.5515 58.951 73.3715 58.681C73.2815 58.541 73.2015 58.401 73.1215 58.241C72.3115 56.451 72.6915 53.521 73.4515 51.991C75.1415 48.631 79.3915 43.531 79.3915 43.531C79.3915 43.531 78.3115 49.151 78.7715 52.301Z"
          fill="#5DE572"/>
    <path d="M77.7415 57.8521V57.8621C77.4215 58.4321 77.0415 58.9121 76.6015 59.2321C76.5415 59.2821 76.4815 59.3221 76.4115 59.3621C75.9315 59.6821 75.3915 59.8121 74.8015 59.6921C74.5115 59.6321 74.2515 59.5221 74.0215 59.3621C73.7615 59.1821 73.5515 58.9521 73.3715 58.6821C73.2815 58.5421 73.2015 58.4021 73.1215 58.2421C73.1615 57.7321 73.2515 57.2621 73.3815 56.8821C74.3115 54.1021 77.0515 49.6921 77.0515 49.6921C77.0515 49.6921 76.8215 54.1621 77.5215 56.5421C77.6415 56.9421 77.7215 57.3921 77.7415 57.8521Z"
          fill="#20D651"/>
    <path d="M76.7315 57.6711C76.7615 58.2611 76.6315 58.8611 76.4115 59.3611C75.9315 59.6811 75.3915 59.8111 74.8015 59.6911C74.5115 59.6311 74.2515 59.5211 74.0215 59.3611C74.0315 58.8611 74.1515 58.2011 74.3615 57.3011C74.9115 54.9311 76.2115 53.1611 76.2115 53.1611C76.2115 53.1611 76.6315 56.0011 76.7315 57.6711Z"
          fill="#5DE572"/>
    <g style="mix-blend-mode:multiply">
        <path d="M13.7865 78.841C17.6525 78.841 20.7865 77.6054 20.7865 76.0811C20.7865 74.5567 17.6525 73.321 13.7865 73.321C9.92051 73.321 6.7865 74.5567 6.7865 76.0811C6.7865 77.6054 9.92051 78.841 13.7865 78.841Z"
              fill="#BFD600"/>
    </g>
    <path d="M13.3705 77.0162C12.9305 77.0162 12.5305 76.9362 12.1705 76.7762C11.9805 76.7062 11.8005 76.6062 11.6405 76.4762C10.1905 75.4562 9.41047 72.9862 8.83047 69.4762C8.08047 64.9362 4.23048 60.3762 3.99048 60.0962C4.24048 60.2062 7.95047 62.0262 11.2905 65.0062C11.6705 65.3362 12.0405 65.6862 12.4005 66.0562C12.5705 66.2262 12.7405 66.4062 12.9105 66.5862C16.6305 70.6162 16.0105 77.0162 13.3705 77.0162Z"
          fill="#00AC00"/>
    <g style="mix-blend-mode:multiply" opacity="0.2">
        <path d="M13.3706 77.0161C12.9306 77.0161 12.5306 76.9361 12.1706 76.7761C11.9806 76.7061 11.8006 76.6061 11.6406 76.4761C10.7706 75.0661 10.2106 72.8761 10.2106 70.4161C10.2106 68.3061 10.6206 66.4061 11.2906 65.0061C11.6706 65.3361 12.0406 65.6861 12.4006 66.0561C12.5706 66.2261 12.7406 66.4061 12.9106 66.5861C16.6306 70.6161 16.0106 77.0161 13.3706 77.0161Z"
              fill="#00AC00"/>
    </g>
    <g style="mix-blend-mode:multiply" opacity="0.2">
        <path d="M13.3705 77.0162C12.9305 77.0162 12.5305 76.9362 12.1705 76.7762C11.5705 75.4162 11.2205 73.6362 11.2205 71.6662C11.2205 69.4462 11.6705 67.4562 12.4005 66.0562C12.5705 66.2262 12.7405 66.4062 12.9105 66.5862C16.6305 70.6162 16.0105 77.0162 13.3705 77.0162Z"
              fill="#00AC00"/>
    </g>
    <path d="M18.6905 69.1162C18.9505 70.8562 18.5405 73.1062 17.6605 74.6662V74.6762C17.3405 75.2462 16.9605 75.7262 16.5205 76.0462C16.4605 76.0962 16.4005 76.1362 16.3305 76.1762C15.8505 76.4962 15.3105 76.6262 14.7205 76.5062C14.4305 76.4462 14.1705 76.3362 13.9405 76.1762C13.6805 75.9962 13.4705 75.7662 13.2905 75.4962C13.2005 75.3562 13.1205 75.2162 13.0405 75.0562C12.2305 73.2662 12.6106 70.3362 13.3706 68.8062C15.0606 65.4462 19.3106 60.3462 19.3106 60.3462C19.3106 60.3462 18.2305 65.9662 18.6905 69.1162Z"
          fill="#5DE572"/>
    <path d="M17.6604 74.6661V74.6761C17.3404 75.2461 16.9604 75.7261 16.5204 76.0461C16.4604 76.0961 16.4004 76.1361 16.3304 76.1761C15.8504 76.4961 15.3104 76.6261 14.7204 76.5061C14.4304 76.4461 14.1704 76.3361 13.9404 76.1761C13.6804 75.9961 13.4704 75.7661 13.2904 75.4961C13.2004 75.3561 13.1204 75.2161 13.0404 75.0561C13.0804 74.5461 13.1704 74.0761 13.3004 73.6961C14.2304 70.9161 16.9704 66.5061 16.9704 66.5061C16.9704 66.5061 16.7404 70.9761 17.4404 73.3561C17.5604 73.7561 17.6404 74.2061 17.6604 74.6661Z"
          fill="#20D651"/>
    <path d="M16.6506 74.4861C16.6806 75.0761 16.5506 75.6761 16.3306 76.1761C15.8506 76.4961 15.3106 76.6261 14.7206 76.5061C14.4306 76.4461 14.1706 76.3361 13.9406 76.1761C13.9506 75.6761 14.0705 75.0161 14.2805 74.1161C14.8305 71.7461 16.1306 69.9761 16.1306 69.9761C16.1306 69.9761 16.5506 72.8161 16.6506 74.4861Z"
          fill="#5DE572"/>
    <g style="mix-blend-mode:multiply">
        <path d="M28.7045 70.5371C32.5705 70.5371 35.7045 69.3014 35.7045 67.7771C35.7045 66.2528 32.5705 65.0171 28.7045 65.0171C24.8385 65.0171 21.7045 66.2528 21.7045 67.7771C21.7045 69.3014 24.8385 70.5371 28.7045 70.5371Z"
              fill="#BFD600"/>
    </g>
    <path d="M28.2886 68.713C27.8486 68.713 27.4486 68.633 27.0886 68.473C26.8986 68.403 26.7186 68.303 26.5586 68.173C25.1086 67.153 24.3286 64.683 23.7486 61.173C22.9986 56.633 19.1486 52.073 18.9086 51.793C19.1586 51.903 22.8686 53.723 26.2086 56.703C26.5886 57.033 26.9586 57.383 27.3186 57.753C27.4886 57.923 27.6586 58.103 27.8286 58.283C31.5486 62.313 30.9286 68.713 28.2886 68.713Z"
          fill="#00AC00"/>
    <g style="mix-blend-mode:multiply" opacity="0.2">
        <path d="M28.2885 68.7131C27.8485 68.7131 27.4485 68.6331 27.0885 68.4731C26.8985 68.4031 26.7185 68.3031 26.5585 68.1731C25.6885 66.7631 25.1285 64.5731 25.1285 62.1131C25.1285 60.0031 25.5385 58.1031 26.2085 56.7031C26.5885 57.0331 26.9585 57.3831 27.3185 57.7531C27.4885 57.9231 27.6585 58.1031 27.8285 58.2831C31.5485 62.3131 30.9285 68.7131 28.2885 68.7131Z"
              fill="#00AC00"/>
    </g>
    <g style="mix-blend-mode:multiply" opacity="0.2">
        <path d="M28.2886 68.7132C27.8486 68.7132 27.4486 68.6332 27.0886 68.4732C26.4886 67.1132 26.1385 65.3332 26.1385 63.3632C26.1385 61.1432 26.5886 59.1532 27.3186 57.7532C27.4886 57.9232 27.6586 58.1032 27.8286 58.2832C31.5486 62.3132 30.9286 68.7132 28.2886 68.7132Z"
              fill="#00AC00"/>
    </g>
    <path d="M33.6085 60.812C33.8685 62.552 33.4585 64.802 32.5785 66.362V66.372C32.2585 66.942 31.8785 67.422 31.4385 67.742C31.3785 67.792 31.3185 67.832 31.2485 67.872C30.7685 68.192 30.2285 68.322 29.6385 68.202C29.3485 68.142 29.0885 68.032 28.8585 67.872C28.5985 67.692 28.3885 67.462 28.2085 67.192C28.1185 67.052 28.0385 66.912 27.9585 66.752C27.1485 64.962 27.5285 62.032 28.2885 60.502C29.9785 57.142 34.2285 52.042 34.2285 52.042C34.2285 52.042 33.1485 57.662 33.6085 60.812Z"
          fill="#5DE572"/>
    <path d="M32.5785 66.3631V66.3731C32.2585 66.9431 31.8785 67.4231 31.4385 67.7431C31.3785 67.7931 31.3185 67.8331 31.2485 67.8731C30.7685 68.1931 30.2285 68.3231 29.6385 68.2031C29.3485 68.1431 29.0885 68.0331 28.8585 67.8731C28.5985 67.6931 28.3885 67.4631 28.2085 67.1931C28.1185 67.0531 28.0385 66.9131 27.9585 66.7531C27.9985 66.2431 28.0885 65.7731 28.2185 65.3931C29.1485 62.6131 31.8885 58.2031 31.8885 58.2031C31.8885 58.2031 31.6585 62.6731 32.3585 65.0531C32.4785 65.4531 32.5585 65.9031 32.5785 66.3631Z"
          fill="#20D651"/>
    <path d="M31.5685 66.1821C31.5985 66.7721 31.4685 67.3721 31.2485 67.8721C30.7685 68.1921 30.2285 68.3221 29.6385 68.2021C29.3485 68.1421 29.0885 68.0321 28.8585 67.8721C28.8685 67.3721 28.9885 66.7121 29.1985 65.8121C29.7485 63.4421 31.0485 61.6721 31.0485 61.6721C31.0485 61.6721 31.4685 64.5121 31.5685 66.1821Z"
          fill="#5DE572"/>
    <g style="mix-blend-mode:multiply">
        <path d="M44.0245 62.376C47.8905 62.376 51.0245 61.1403 51.0245 59.616C51.0245 58.0916 47.8905 56.856 44.0245 56.856C40.1585 56.856 37.0245 58.0916 37.0245 59.616C37.0245 61.1403 40.1585 62.376 44.0245 62.376Z"
              fill="#BFD600"/>
    </g>
    <path d="M43.6085 60.5521C43.1685 60.5521 42.7685 60.4721 42.4085 60.3121C42.2185 60.2421 42.0385 60.1421 41.8785 60.0121C40.4285 58.9921 39.6485 56.5221 39.0685 53.0121C38.3185 48.4721 34.4685 43.9121 34.2285 43.6321C34.4785 43.7421 38.1885 45.5621 41.5285 48.5421C41.9085 48.8721 42.2785 49.2221 42.6385 49.5921C42.8085 49.7621 42.9785 49.9421 43.1485 50.1221C46.8685 54.1521 46.2485 60.5521 43.6085 60.5521Z"
          fill="#00AC00"/>
    <g style="mix-blend-mode:multiply" opacity="0.2">
        <path d="M43.6085 60.552C43.1685 60.552 42.7685 60.472 42.4085 60.312C42.2185 60.242 42.0385 60.142 41.8785 60.012C41.0085 58.602 40.4485 56.412 40.4485 53.952C40.4485 51.842 40.8585 49.942 41.5285 48.542C41.9085 48.872 42.2785 49.222 42.6385 49.592C42.8085 49.762 42.9785 49.942 43.1485 50.122C46.8685 54.152 46.2485 60.552 43.6085 60.552Z"
              fill="#00AC00"/>
    </g>
    <g style="mix-blend-mode:multiply" opacity="0.2">
        <path d="M43.6085 60.552C43.1685 60.552 42.7685 60.472 42.4085 60.312C41.8085 58.952 41.4585 57.172 41.4585 55.202C41.4585 52.982 41.9085 50.992 42.6385 49.592C42.8085 49.762 42.9785 49.942 43.1485 50.122C46.8685 54.152 46.2485 60.552 43.6085 60.552Z"
              fill="#00AC00"/>
    </g>
    <path d="M48.9285 52.6511C49.1885 54.3911 48.7785 56.6411 47.8985 58.2011V58.2111C47.5785 58.7811 47.1985 59.2611 46.7585 59.5811C46.6985 59.6311 46.6385 59.6711 46.5685 59.7111C46.0885 60.0311 45.5485 60.1611 44.9585 60.0411C44.6685 59.9811 44.4085 59.8711 44.1785 59.7111C43.9185 59.5311 43.7085 59.3011 43.5285 59.0311C43.4385 58.8911 43.3585 58.7511 43.2785 58.5911C42.4685 56.8011 42.8484 53.8711 43.6084 52.3411C45.2984 48.9811 49.5484 43.8811 49.5484 43.8811C49.5484 43.8811 48.4685 49.5011 48.9285 52.6511Z"
          fill="#5DE572"/>
    <path d="M47.8984 58.202V58.212C47.5784 58.782 47.1985 59.262 46.7585 59.582C46.6985 59.632 46.6385 59.672 46.5685 59.712C46.0885 60.032 45.5484 60.162 44.9584 60.042C44.6684 59.982 44.4084 59.872 44.1784 59.712C43.9184 59.532 43.7084 59.302 43.5284 59.032C43.4384 58.892 43.3584 58.752 43.2784 58.592C43.3184 58.082 43.4085 57.612 43.5385 57.232C44.4685 54.452 47.2084 50.042 47.2084 50.042C47.2084 50.042 46.9784 54.512 47.6784 56.892C47.7984 57.292 47.8784 57.742 47.8984 58.202Z"
          fill="#20D651"/>
    <path d="M46.8885 58.021C46.9185 58.611 46.7885 59.211 46.5685 59.711C46.0885 60.031 45.5485 60.161 44.9585 60.041C44.6685 59.981 44.4085 59.871 44.1785 59.711C44.1885 59.211 44.3085 58.551 44.5185 57.651C45.0685 55.281 46.3685 53.511 46.3685 53.511C46.3685 53.511 46.7885 56.351 46.8885 58.021Z"
          fill="#5DE572"/>
    <g style="mix-blend-mode:multiply">
        <path d="M59.3445 53.7441C63.2105 53.7441 66.3445 52.5084 66.3445 50.9841C66.3445 49.4598 63.2105 48.2241 59.3445 48.2241C55.4785 48.2241 52.3445 49.4598 52.3445 50.9841C52.3445 52.5084 55.4785 53.7441 59.3445 53.7441Z"
              fill="#BFD600"/>
    </g>
    <path d="M58.9275 51.92C58.4875 51.92 58.0875 51.84 57.7275 51.68C57.5375 51.61 57.3575 51.51 57.1975 51.38C55.7475 50.36 54.9675 47.89 54.3875 44.38C53.6375 39.84 49.7875 35.28 49.5475 35C49.7975 35.11 53.5075 36.93 56.8475 39.91C57.2275 40.24 57.5975 40.59 57.9575 40.96C58.1275 41.13 58.2975 41.31 58.4675 41.49C62.1875 45.52 61.5675 51.92 58.9275 51.92Z"
          fill="#00AC00"/>
    <g style="mix-blend-mode:multiply" opacity="0.2">
        <path d="M58.9274 51.9202C58.4874 51.9202 58.0874 51.8402 57.7274 51.6802C57.5374 51.6102 57.3574 51.5102 57.1974 51.3802C56.3274 49.9702 55.7675 47.7802 55.7675 45.3202C55.7675 43.2102 56.1774 41.3102 56.8474 39.9102C57.2274 40.2402 57.5974 40.5902 57.9574 40.9602C58.1274 41.1302 58.2974 41.3102 58.4674 41.4902C62.1874 45.5202 61.5674 51.9202 58.9274 51.9202Z"
              fill="#00AC00"/>
    </g>
    <g style="mix-blend-mode:multiply" opacity="0.2">
        <path d="M58.9275 51.92C58.4875 51.92 58.0875 51.84 57.7275 51.68C57.1275 50.32 56.7775 48.54 56.7775 46.57C56.7775 44.35 57.2275 42.36 57.9575 40.96C58.1275 41.13 58.2975 41.31 58.4675 41.49C62.1875 45.52 61.5675 51.92 58.9275 51.92Z"
              fill="#00AC00"/>
    </g>
    <path d="M64.2484 44.02C64.5084 45.76 64.0984 48.01 63.2184 49.57V49.58C62.8984 50.15 62.5184 50.63 62.0784 50.95C62.0184 51 61.9584 51.04 61.8884 51.08C61.4084 51.4 60.8684 51.53 60.2784 51.41C59.9884 51.35 59.7284 51.24 59.4984 51.08C59.2384 50.9 59.0284 50.67 58.8484 50.4C58.7584 50.26 58.6784 50.12 58.5984 49.96C57.7884 48.17 58.1684 45.24 58.9284 43.71C60.6184 40.35 64.8684 35.25 64.8684 35.25C64.8684 35.25 63.7884 40.87 64.2484 44.02Z"
          fill="#5DE572"/>
    <path d="M63.2175 49.5702V49.5802C62.8975 50.1502 62.5175 50.6301 62.0775 50.9501C62.0175 51.0001 61.9575 51.0402 61.8875 51.0802C61.4075 51.4002 60.8675 51.5302 60.2775 51.4102C59.9875 51.3502 59.7275 51.2402 59.4975 51.0802C59.2375 50.9002 59.0275 50.6701 58.8475 50.4001C58.7575 50.2601 58.6775 50.1202 58.5975 49.9602C58.6375 49.4502 58.7275 48.9802 58.8575 48.6002C59.7875 45.8202 62.5275 41.4102 62.5275 41.4102C62.5275 41.4102 62.2975 45.8801 62.9975 48.2601C63.1175 48.6601 63.1975 49.1102 63.2175 49.5702Z"
          fill="#20D651"/>
    <path d="M62.2074 49.3901C62.2374 49.9801 62.1075 50.5801 61.8875 51.0801C61.4075 51.4001 60.8674 51.5301 60.2774 51.4101C59.9874 51.3501 59.7274 51.2401 59.4974 51.0801C59.5074 50.5801 59.6274 49.9201 59.8374 49.0201C60.3874 46.6501 61.6874 44.8801 61.6874 44.8801C61.6874 44.8801 62.1074 47.7201 62.2074 49.3901Z"
          fill="#5DE572"/>
</svg>
