<svg width="116" height="133" viewBox="0 0 116 133" fill="none" xmlns="http://www.w3.org/2000/svg">
    <g filter="url(#filter0_f_918_41362)">
        <path d="M100.985 25.3655C101.385 24.0528 103.243 24.0528 103.643 25.3655L105.015 29.8746C105.15 30.3175 105.497 30.6641 105.939 30.7989L110.449 32.1713C111.761 32.5708 111.761 34.4292 110.449 34.8287L105.939 36.2011C105.497 36.3359 105.15 36.6825 105.015 37.1254L103.643 41.6345C103.243 42.9472 101.385 42.9472 100.985 41.6345L99.6128 37.1254C99.478 36.6825 99.1314 36.3359 98.6885 36.2011L94.1794 34.8287C92.8668 34.4292 92.8668 32.5708 94.1794 32.1713L98.6885 30.7989C99.1314 30.6641 99.478 30.3175 99.6128 29.8746L100.985 25.3655Z"
              fill="#FDCB1B"/>
    </g>
    <path d="M115.564 99.4548V82.4458L113.137 81.7788L113.005 82.6338L62.367 56.8638C59.835 55.4018 55.73 55.4018 53.198 56.8638L3.02798 81.8948L0 82.5618V99.4658C0 100.424 0.632987 101.382 1.89899 102.113L53.198 131.731C55.73 133.193 59.835 133.193 62.367 131.731L113.666 102.114C114.937 101.38 115.569 100.417 115.564 99.4548Z"
          fill="#A8522A"/>
    <path d="M115.564 83.7579V80.3549H113.137L113.005 80.7419L62.367 51.5059C59.835 50.0439 55.73 50.0439 53.198 51.5059L3.02798 80.4719H0V83.7699C0 84.7279 0.632987 85.6859 1.89899 86.4179L53.198 116.035C55.73 117.497 59.835 117.497 62.367 116.035L113.666 86.4179C114.937 85.6839 115.57 84.7209 115.565 83.7589L115.564 83.7579Z"
          fill="#C16037"/>
    <path d="M115.564 80.7838V77.3808H113.137L113.005 77.7678L62.367 48.5318C59.835 47.0698 55.73 47.0698 53.198 48.5318L3.02798 77.4978H0V80.7958C0 81.7538 0.632987 82.7118 1.89899 83.4428L53.198 113.061C55.73 114.522 59.835 114.522 62.367 113.061L113.666 83.4438C114.937 82.7098 115.57 81.7468 115.565 80.7848L115.564 80.7838Z"
          fill="#C16037"/>
    <path d="M57.798 55.7688C56.134 55.7668 54.468 56.1318 53.198 56.8648L3.02798 81.8958L0 82.5628V99.4668C0 100.425 0.632987 101.383 1.89899 102.114L53.198 131.732C54.468 132.465 56.134 132.83 57.798 132.828V55.7688Z"
          fill="#C96A3E"/>
    <path d="M57.798 50.4099C56.134 50.4079 54.468 50.7729 53.198 51.5059L3.02798 80.4719H0V83.7699C0 84.7279 0.632987 85.6859 1.89899 86.4179L53.198 116.035C54.468 116.768 56.134 117.133 57.798 117.131V50.4109V50.4099Z"
          fill="#EA8F67"/>
    <path d="M57.798 47.4358C56.134 47.4338 54.468 47.7988 53.198 48.5318L3.02798 77.4978H0V80.7958C0 81.7538 0.632987 82.7118 1.89899 83.4428L53.198 113.061C54.468 113.794 56.134 114.159 57.798 114.157V47.4368V47.4358Z"
          fill="#EA8F67"/>
    <path d="M62.366 109.762C59.834 111.224 55.729 111.224 53.198 109.762L1.899 80.1449C-0.633 78.6829 -0.633 76.313 1.899 74.851L53.198 45.234C55.73 43.772 59.835 43.772 62.366 45.234L113.665 74.851C116.197 76.313 116.197 78.6829 113.665 80.1449L62.366 109.762Z"
          fill="#D2704A"/>
    <g style="mix-blend-mode:multiply" opacity="0.3">
        <path d="M55.2254 93.7969C67.8379 93.7969 78.0624 89.3779 78.0624 83.9269C78.0624 78.4758 67.8379 74.0569 55.2254 74.0569C42.6129 74.0569 32.3884 78.4758 32.3884 83.9269C32.3884 89.3779 42.6129 93.7969 55.2254 93.7969Z"
              fill="#B85B3E"/>
    </g>
    <path d="M58.2683 50.1929C57.9863 50.0299 57.7493 49.7788 57.6023 49.4588C57.2293 48.6418 57.5893 47.6769 58.4073 47.3029C58.4643 47.2759 64.3393 44.5469 72.2033 38.1369C79.4523 32.2269 89.8783 21.9759 98.6123 6.27686C99.0243 6.59986 100.662 8.17586 101.141 8.45686C92.1993 24.2979 81.5563 34.7269 74.1573 40.7429C65.9913 47.3819 60.0103 50.1478 59.7593 50.2628C59.2623 50.4898 58.7093 50.4459 58.2683 50.1918V50.1929Z"
          fill="#924F01"/>
    <path d="M53.2544 80.9339C52.9004 80.8159 52.6024 80.5449 52.4674 80.1659C52.2344 79.5139 52.5764 78.7979 53.2264 78.5659C53.3624 78.5169 66.9743 73.5849 75.1374 63.9889C75.5844 63.4619 76.3744 63.3989 76.9014 63.8459C77.4294 64.2939 77.4924 65.0839 77.0444 65.6109C68.4384 75.7279 54.6494 80.7159 54.0664 80.9239C53.7944 81.0209 53.5094 81.0169 53.2544 80.9319V80.9339Z"
          fill="#924F01"/>
    <path d="M52.9733 76.095C52.8453 76.052 52.7223 75.99 52.6063 75.908C52.2453 75.65 43.7263 69.439 40.0173 56.232C39.8123 55.5 40.2393 54.739 40.9703 54.534C41.7023 54.328 42.4633 54.755 42.6693 55.487C46.1203 67.772 54.1273 73.609 54.2073 73.666C54.8263 74.109 54.9693 74.969 54.5263 75.587C54.1663 76.091 53.5313 76.281 52.9733 76.095Z"
          fill="#924F01"/>
    <path d="M52.5433 91.2449C51.6843 90.9599 51.0713 90.1439 51.0853 89.1909C51.5843 56.6449 61.8383 34.0799 62.2743 33.1349C62.7673 32.0679 64.0354 31.6049 65.0994 32.0939C66.1664 32.5869 66.6323 33.8529 66.1393 34.9209C66.0103 35.2009 55.8263 57.7039 55.3433 89.2569C55.3263 90.4329 54.3584 91.3709 53.1824 91.3529C52.9584 91.3489 52.7443 91.3119 52.5433 91.2449Z"
          fill="#924F01"/>
    <path d="M73.7043 33.3528C71.5553 37.0818 66.7373 38.3308 62.9403 36.1428C59.1443 33.9548 57.8083 29.1598 59.9573 25.4308C62.1063 21.7028 66.9253 20.4548 70.7203 22.6418C74.5163 24.8298 75.8523 29.6248 73.7043 33.3518V33.3528Z"
          fill="#7A4100"/>
    <path d="M73.4664 10.768C73.4664 10.768 76.1964 7.32898 80.8984 4.97998C80.9594 10.724 79.6384 14.325 79.6384 14.325L75.1254 14.997L73.4653 10.768H73.4664Z"
          fill="#924F01"/>
    <path d="M81.6434 33.011C79.1924 37.265 71.4474 37.396 64.3464 33.304C57.2444 29.212 53.4764 22.446 55.9274 18.192C58.3784 13.937 66.1234 13.807 73.2244 17.899C80.3254 21.992 84.0954 28.757 81.6434 33.011Z"
          fill="#7A4100"/>
    <path d="M59.4493 6.48488C54.6443 12.0509 57.1723 17.1849 61.8403 20.5999C70.3453 26.8219 70.7903 22.2529 74.4623 15.8829C77.7103 10.2459 80.9953 6.72988 78.1813 3.06488C73.3733 -3.19912 63.9663 1.25388 59.4493 6.48488Z"
          fill="#EFF0F0"/>
    <path d="M74.2603 12.6589L73.9563 12.3559C77.9353 1.41286 66.2863 0.980859 64.6703 2.20086C58.8183 5.37186 57.8163 17.6559 61.8393 20.5999C70.3443 26.8219 70.7893 22.2529 74.4613 15.8829C74.9733 14.9929 75.4873 14.1559 75.9773 13.3639C76.9463 11.7979 77.8233 10.4029 78.4243 9.11086C78.5353 8.21986 75.3493 13.2519 74.2593 12.6599L74.2603 12.6589Z"
          fill="#E4E5E6"/>
    <path d="M90.3524 24.2928C87.9464 31.2408 82.2374 31.6278 76.9404 29.3028C67.2924 25.0638 71.0223 22.3878 74.6943 16.0168C77.9423 10.3808 79.3373 5.77576 83.9183 6.37276C91.7483 7.39076 92.6144 17.7618 90.3524 24.2928Z"
          fill="#EFF0F0"/>
    <path d="M77.5834 14.5739L77.9993 14.6849C85.4703 5.75492 91.6853 15.6179 91.4393 17.6279C91.6313 24.2809 81.5054 31.3089 76.9404 29.3039C67.2924 25.0649 71.0223 22.3889 74.6943 16.0179C75.2063 15.1289 75.4333 14.1259 75.8733 13.3049C76.7423 11.6819 77.7494 10.3619 78.5654 9.19292C79.2824 8.64992 76.5254 13.9289 77.5834 14.5759V14.5739Z"
          fill="#E4E5E6"/>
    <path d="M69.0864 2.82598C61.0364 -1.26402 57.0244 5.04698 57.0244 5.04698L60.0414 8.44698C60.0414 8.44698 69.3614 3.50398 69.0864 2.82598Z"
          fill="#924F01"/>
    <path d="M90.9374 18.5688C98.9084 27.9778 89.6803 34.1269 88.9213 34.0489L87.6783 27.3868C87.6783 27.3868 91.5354 24.6228 90.9374 18.5688Z"
          fill="#924F01"/>
    <path d="M54.3673 7.52597C49.7583 13.438 51.0532 17.93 56.0282 22.257C61.2082 26.762 64.9552 23.662 69.1242 17.36C70.4212 15.401 75.8333 9.77696 72.6143 4.89196C69.4103 0.0319624 58.6993 1.96797 54.3673 7.52597Z"
          fill="#EFF0F0"/>
    <path d="M58.3013 23.8009C62.3593 25.7439 65.5893 22.7019 69.1243 17.3599C69.9973 16.0409 72.2113 14.7129 72.9273 11.4189C73.0473 10.1119 69.9873 10.8099 66.7613 12.9159C62.8693 15.4569 58.6473 19.9219 58.3013 23.8009Z"
          fill="#E4E5E6"/>
    <path d="M92.0004 29.211C89.1954 36.164 84.6604 37.297 78.4224 35.161C71.9254 32.938 72.7304 28.143 76.0924 21.376C77.1384 19.272 79.2894 11.768 85.1304 12.105C90.9424 12.44 94.6384 22.678 92.0014 29.212L92.0004 29.211Z"
          fill="#EFF0F0"/>
    <path d="M75.9454 33.969C72.2304 31.433 73.2413 27.113 76.0913 21.376C76.7943 19.961 76.8343 17.378 79.3273 15.107C80.3963 14.349 81.3264 17.345 81.1224 21.192C80.8754 25.832 79.1284 31.724 75.9454 33.969Z"
          fill="#E4E5E6"/>
    <path d="M63.4203 17.2109C63.4203 17.2109 58.2593 18.7529 56.7223 22.8199C56.5513 23.3869 56.5393 24.1799 57.3863 25.1739C57.5373 26.5859 58.9902 27.3409 59.4602 27.3449C59.6302 27.3309 63.4203 17.2109 63.4203 17.2109Z"
          fill="#924F01"/>
    <path d="M78.8284 25.803C78.8284 25.803 79.9863 30.709 77.4803 34.065C77.1133 34.498 76.5034 34.931 75.3704 34.803C74.2104 35.44 73.0053 34.717 72.8033 34.355C72.7403 34.217 78.8284 25.803 78.8284 25.803Z"
          fill="#924F01"/>
    <path d="M75.3694 34.8029C76.9204 33.4939 78.0614 30.5259 78.0614 30.5259C78.0614 30.5259 77.0264 34.6459 75.3694 34.8029Z"
          fill="#7A4100"/>
    <path d="M78.8183 15.8648C77.8523 17.5398 75.6773 18.0958 73.9593 17.1048C72.2413 16.1148 71.6303 13.9538 72.5953 12.2798C73.5613 10.6038 75.7363 10.0488 77.4543 11.0398C79.1733 12.0298 79.7843 14.1898 78.8183 15.8648Z"
          fill="#924F01"/>
    <path d="M61.3834 19.7199C57.3704 25.8809 58.6804 30.6179 63.6924 33.5059C68.9134 36.5129 73.6524 36.4219 77.1064 29.9309C80.4554 23.6369 81.2924 14.8449 76.5944 12.1469C72.2654 9.65888 65.3964 13.5579 61.3834 19.7199Z"
          fill="#EFF0F0"/>
    <path d="M57.3854 25.1738C57.6174 23.0498 59.6694 20.4558 59.6694 20.4558C59.6694 20.4558 56.6474 23.5708 57.3854 25.1738Z"
          fill="#7A4100"/>
    <path d="M82.6533 66.3529C80.5403 68.6229 76.9543 68.7189 74.6423 66.5669C72.3313 64.4149 72.1723 60.8309 74.2853 58.5609C76.3983 56.2909 79.9853 56.1969 82.2963 58.3489C84.6073 60.5009 84.7683 64.0849 82.6533 66.3529Z"
          fill="#7A4100"/>
    <path d="M86.1504 50.454C86.1504 50.454 88.6254 48.481 92.3084 47.594C91.4194 51.638 89.9074 53.952 89.9074 53.952L86.6294 53.693L86.1494 50.453L86.1504 50.454Z"
          fill="#924F01"/>
    <path d="M88.2853 67.4009C85.8733 69.9909 80.4144 68.8269 76.0924 64.8009C71.7674 60.7749 70.2194 55.4119 72.6304 52.8229C75.0414 50.2329 80.5013 51.3969 84.8243 55.4219C89.1463 59.4479 90.6973 64.8099 88.2853 67.4009Z"
          fill="#7A4100"/>
    <path d="M77.0013 45.1719C72.7243 48.3009 73.6663 52.3169 76.3923 55.4739C81.3553 61.2219 82.4073 58.0849 86.0203 54.2079C89.2153 50.7759 92.0923 48.8389 90.7103 45.8089C88.3503 40.6309 81.0233 42.2299 77.0013 45.1719Z"
          fill="#EFF0F0"/>
    <path d="M86.4014 51.9108L86.2363 51.6488C90.8063 44.6098 82.6954 42.4168 81.3634 43.0108C76.7384 44.2888 74.0414 52.7528 76.3914 55.4738C81.3544 61.2218 82.4064 58.0848 86.0194 54.2078C86.5224 53.6648 87.0204 53.1598 87.4934 52.6828C88.4274 51.7418 89.2704 50.9038 89.9014 50.0938C90.1244 49.4858 87.0694 52.5028 86.4014 51.9098V51.9108Z"
          fill="#E4E5E6"/>
    <path d="M95.8143 62.6908C92.9983 67.1798 88.9243 66.5258 85.5833 64.0318C79.4953 59.4898 82.5493 58.2178 86.1603 54.3378C89.3553 50.9058 91.0823 47.8988 94.2033 49.0608C99.5363 51.0468 98.4633 58.4708 95.8143 62.6908Z"
          fill="#EFF0F0"/>
    <path d="M88.4243 53.7938L88.6972 53.9398C95.3942 48.8798 98.1573 56.8138 97.6603 58.1848C96.7153 62.8888 88.4643 66.1818 85.5843 64.0318C79.4963 59.4898 82.5503 58.2178 86.1613 54.3378C86.6653 53.7958 86.9872 53.1288 87.4292 52.6238C88.3022 51.6248 89.2243 50.8618 89.9873 50.1728C90.5773 49.9078 87.7863 53.1678 88.4243 53.7938Z"
          fill="#E4E5E6"/>
    <path d="M84.3624 44.1669C79.3724 39.9889 75.5314 43.7699 75.5314 43.7699L77.0983 46.6469C77.0983 46.6469 84.4454 44.6869 84.3624 44.1669Z"
          fill="#924F01"/>
    <path d="M97.1553 58.7668C101.225 66.6678 93.7483 69.4888 93.2263 69.3098L93.4353 64.4308C93.4353 64.4308 96.5913 63.1158 97.1553 58.7668Z"
          fill="#924F01"/>
    <path d="M73.2644 45.0789C69.0684 48.4839 69.2494 51.8468 72.0404 55.6938C74.9484 59.6978 78.0824 58.1279 82.0314 54.3789C83.2594 53.2139 87.9734 50.1418 86.5054 46.1898C85.0444 42.2568 77.2074 41.8779 73.2644 45.0789Z"
          fill="#EFF0F0"/>
    <path d="M73.3864 57.1458C75.9214 59.1688 78.6824 57.5578 82.0314 54.3788C82.8574 53.5948 84.6283 53.0208 85.6663 50.8228C85.9613 49.9258 83.7003 49.9198 81.0923 50.8758C77.9483 52.0268 74.2594 54.4778 73.3864 57.1458Z"
          fill="#E4E5E6"/>
    <path d="M96.1744 66.4129C93.0774 70.8399 89.7083 70.8989 85.6733 68.3879C81.4723 65.7729 82.8144 62.5359 86.2734 58.3279C87.3484 57.0199 90.0763 52.0999 94.1243 53.2829C98.1513 54.4619 99.0864 62.2509 96.1744 66.4129Z"
          fill="#EFF0F0"/>
    <path d="M84.1283 67.1488C81.9293 64.7648 83.3413 61.8948 86.2743 58.3278C86.9973 57.4478 87.4443 55.6408 89.5633 54.4498C90.4363 54.0908 90.6033 56.3468 89.8373 59.0138C88.9103 62.2328 86.7283 66.0878 84.1293 67.1478L84.1283 67.1488Z"
          fill="#E4E5E6"/>
    <path d="M78.0504 53.3499C78.0504 53.3499 74.1754 53.5949 72.4364 56.2019C72.2254 56.5719 72.0864 57.1269 72.5214 57.9619C72.3964 58.9769 73.2964 59.7439 73.6254 59.8229C73.7464 59.8409 78.0504 53.3499 78.0504 53.3499Z"
          fill="#924F01"/>
    <path d="M87.4764 61.8819C87.4764 61.8819 87.4944 65.5149 85.1904 67.4649C84.8614 67.7089 84.3634 67.9149 83.5884 67.6409C82.6704 67.8999 81.9414 67.1959 81.8574 66.9099C81.8374 66.8019 87.4753 61.8809 87.4753 61.8809L87.4764 61.8819Z"
          fill="#924F01"/>
    <path d="M83.5884 67.641C84.8894 66.973 86.1744 65.074 86.1744 65.074C86.1744 65.074 84.7774 67.799 83.5884 67.641Z"
          fill="#7A4100"/>
    <path d="M89.0814 54.9018C88.1314 55.9208 86.5154 55.9578 85.4664 54.9848C84.4214 54.0108 84.3424 52.3938 85.2934 51.3748C86.2424 50.3538 87.8604 50.3178 88.9064 51.2918C89.9524 52.2658 90.0314 53.8808 89.0814 54.9018Z"
          fill="#924F01"/>
    <path d="M76.2134 54.7808C72.3954 58.4558 72.5473 61.9948 75.5983 64.8368C78.7763 67.7948 82.1193 68.5008 85.5973 64.5018C88.9713 60.6248 90.9843 54.5858 88.1233 51.9298C85.4873 49.4818 80.0304 51.1048 76.2134 54.7808Z"
          fill="#EFF0F0"/>
    <path d="M72.5214 57.9618C73.0274 56.5068 74.8894 55.0198 74.8894 55.0198C74.8894 55.0198 72.2624 56.7168 72.5214 57.9618Z"
          fill="#7A4100"/>
    <path d="M45.6594 50.3029C46.3154 53.3349 44.3433 56.3329 41.2563 56.9999C38.1693 57.6659 35.1363 55.7489 34.4813 52.7169C33.8273 49.6849 35.7994 46.6879 38.8864 46.0219C41.9724 45.3549 45.0054 47.2719 45.6594 50.3029Z"
          fill="#7A4100"/>
    <path d="M34.6114 38.3479C34.6114 38.3479 34.4084 35.1889 35.7854 31.6609C38.5944 34.7009 39.6304 37.2639 39.6304 37.2639L37.5434 39.8059L34.6114 38.3479Z"
          fill="#924F01"/>
    <path d="M49.7383 46.282C50.4853 49.741 46.4103 53.556 40.6353 54.804C34.8603 56.05 29.5753 54.257 28.8283 50.797C28.0813 47.338 32.1573 43.524 37.9313 42.277C43.7063 41.031 48.9913 42.824 49.7383 46.282Z"
          fill="#7A4100"/>
    <path d="M25.0493 42.8368C25.1723 48.1348 29.0053 49.6568 33.1523 49.2238C40.7073 48.4368 38.7353 45.7798 37.6163 40.5998C36.6273 36.0168 36.6813 32.5488 33.4073 31.9508C27.8073 30.9268 24.9343 37.8568 25.0493 42.8368Z"
          fill="#EFF0F0"/>
    <path d="M35.9514 38.975L35.6424 38.96C32.4784 31.187 26.0424 36.588 25.7694 38.023C24.1744 42.547 29.5784 49.598 33.1524 49.225C40.7074 48.438 38.7354 45.781 37.6164 40.601C37.4594 39.877 37.3304 39.181 37.2094 38.52C36.9694 37.215 36.7654 36.046 36.4614 35.063C36.0894 34.535 36.8194 38.764 35.9514 38.975Z"
          fill="#E4E5E6"/>
    <path d="M50.1763 37.411C52.2513 42.287 49.3873 45.255 45.4303 46.573C38.2233 48.973 38.9233 45.739 37.8053 40.56C36.8173 35.976 35.3363 32.84 38.0723 30.944C42.7503 27.703 48.2273 32.828 50.1763 37.411Z"
          fill="#EFF0F0"/>
    <path d="M38.6523 38.3918L38.9283 38.2497C38.6043 29.8647 46.6944 32.1298 47.5344 33.3228C50.8534 36.7858 48.8403 45.4388 45.4293 46.5738C38.2223 48.9738 38.9223 45.7398 37.8043 40.5608C37.6493 39.8378 37.2844 39.1918 37.1234 38.5388C36.8034 37.2517 36.7023 36.0598 36.5743 35.0398C36.6953 34.4038 37.7743 38.5568 38.6523 38.3918Z"
          fill="#E4E5E6"/>
    <path d="M28.4314 36.2219C22.1504 37.9279 23.0574 43.2409 23.0574 43.2409L26.3134 43.5999C26.3134 43.5999 28.9044 36.4509 28.4314 36.2219Z"
          fill="#924F01"/>
    <path d="M47.7234 34.0688C56.5324 35.2438 54.5734 42.9919 54.1294 43.3179L50.2434 40.3589C50.2434 40.3589 50.9684 37.0159 47.7234 34.0699V34.0688Z"
          fill="#924F01"/>
    <path d="M22.8354 45.8509C23.2314 51.2399 26.0953 53.0139 30.8453 52.9209C35.7933 52.8239 36.2974 49.3559 35.4774 43.9709C35.2234 42.2979 35.3974 36.6739 31.3144 35.6199C27.2504 34.5709 22.4624 40.7849 22.8344 45.8509H22.8354Z"
          fill="#EFF0F0"/>
    <path d="M32.8093 52.648C35.9163 51.723 36.1714 48.537 35.4784 43.971C35.3074 42.845 35.8484 41.064 34.6374 38.956C34.0704 38.2 32.7734 40.054 32.0664 42.738C31.2154 45.978 31.1194 50.406 32.8104 52.648H32.8093Z"
          fill="#E4E5E6"/>
    <path d="M53.4374 39.2438C55.2984 44.3158 53.4224 47.1128 49.0574 48.9888C44.5094 50.9428 42.6203 47.9898 41.1443 42.7468C40.6863 41.1178 38.2073 36.0658 41.4913 33.4218C44.7603 30.7908 51.6864 34.4758 53.4374 39.2438Z"
          fill="#EFF0F0"/>
    <path d="M47.1554 49.5499C43.9424 49.9909 42.3955 47.1929 41.1435 42.7479C40.8355 41.6519 39.6074 40.2539 39.8424 37.8339C40.0464 36.9109 41.9934 38.0639 43.7434 40.2179C45.8554 42.8179 47.7714 46.8109 47.1554 49.5499Z"
          fill="#E4E5E6"/>
    <path d="M32.3573 46.6489C32.3573 46.6489 30.3453 49.9699 31.4903 52.8869C31.6723 53.2709 32.0493 53.7019 32.9843 53.8229C33.7453 54.5049 34.8893 54.2049 35.1403 53.9799C35.2253 53.8919 32.3573 46.6489 32.3573 46.6489Z"
          fill="#924F01"/>
    <path d="M44.7483 43.7908C44.7483 43.7908 47.7393 45.8528 48.0213 48.8578C48.0363 49.2678 47.9183 49.7938 47.2523 50.2738C46.9403 51.1758 45.9453 51.3708 45.6633 51.2768C45.5623 51.2318 44.7483 43.7918 44.7483 43.7918V43.7908Z"
          fill="#924F01"/>
    <path d="M47.2523 50.2738C47.4473 48.8238 46.6223 46.6858 46.6223 46.6858C46.6223 46.6858 48.0613 49.3888 47.2523 50.2738Z"
          fill="#7A4100"/>
    <path d="M39.9374 38.4849C40.2314 39.8479 39.3373 41.1959 37.9393 41.4979C36.5423 41.7989 35.1713 40.939 34.8773 39.578C34.5833 38.215 35.4783 36.867 36.8743 36.566C38.2703 36.265 39.6434 37.124 39.9374 38.486V38.4849Z"
          fill="#924F01"/>
    <path d="M32.4823 48.9759C33.3173 54.2089 36.3073 56.1069 40.3823 55.2279C44.6273 54.3099 47.1163 51.9699 45.8233 46.8299C44.5703 41.8458 40.7663 36.7419 36.9513 37.5729C33.4353 38.3379 31.6483 43.7419 32.4823 48.9759Z"
          fill="#EFF0F0"/>
    <path d="M32.9844 53.823C32.0804 52.577 31.9233 50.198 31.9233 50.198C31.9233 50.198 31.8144 53.325 32.9844 53.823Z"
          fill="#7A4100"/>
    <path d="M101.089 8.52992C100.802 8.82892 100.026 8.55092 99.3563 7.90692C98.6883 7.26392 98.3794 6.49992 98.6674 6.20192C98.9554 5.90192 99.7304 6.18092 100.398 6.82392C101.068 7.46692 101.376 8.23092 101.089 8.52992Z"
          fill="#E4D8AF"/>
    <g filter="url(#filter1_f_918_41362)">
        <path d="M26.9853 65.3655C27.3848 64.0528 29.2431 64.0528 29.6427 65.3655L31.0151 69.8746C31.1499 70.3175 31.4965 70.6641 31.9394 70.7989L36.4485 72.1713C37.7611 72.5708 37.7611 74.4292 36.4485 74.8287L31.9394 76.2011C31.4965 76.3359 31.1499 76.6825 31.0151 77.1254L29.6427 81.6345C29.2431 82.9472 27.3848 82.9472 26.9853 81.6345L25.6128 77.1254C25.478 76.6825 25.1314 76.3359 24.6885 76.2011L20.1794 74.8287C18.8668 74.4292 18.8668 72.5708 20.1794 72.1713L24.6885 70.7989C25.1314 70.6641 25.478 70.3175 25.6128 69.8746L26.9853 65.3655Z"
              fill="#FDCB1B"/>
    </g>
    <path d="M26.9853 65.3655C27.3848 64.0528 29.2431 64.0528 29.6427 65.3655L31.0151 69.8746C31.1499 70.3175 31.4965 70.6641 31.9394 70.7989L36.4485 72.1713C37.7611 72.5708 37.7611 74.4292 36.4485 74.8287L31.9394 76.2011C31.4965 76.3359 31.1499 76.6825 31.0151 77.1254L29.6427 81.6345C29.2431 82.9472 27.3848 82.9472 26.9853 81.6345L25.6128 77.1254C25.478 76.6825 25.1314 76.3359 24.6885 76.2011L20.1794 74.8287C18.8668 74.4292 18.8668 72.5708 20.1794 72.1713L24.6885 70.7989C25.1314 70.6641 25.478 70.3175 25.6128 69.8746L26.9853 65.3655Z"
          fill="#FDCB1B"/>
    <path d="M101.171 25.3655C101.571 24.0528 103.429 24.0528 103.829 25.3655L105.201 29.8746C105.336 30.3175 105.683 30.6641 106.125 30.7989L110.635 32.1713C111.947 32.5708 111.947 34.4292 110.635 34.8287L106.125 36.2011C105.683 36.3359 105.336 36.6825 105.201 37.1254L103.829 41.6345C103.429 42.9472 101.571 42.9472 101.171 41.6345L99.7989 37.1254C99.6641 36.6825 99.3175 36.3359 98.8746 36.2011L94.3655 34.8287C93.0528 34.4292 93.0528 32.5708 94.3655 32.1713L98.8746 30.7989C99.3175 30.6641 99.6641 30.3175 99.7989 29.8746L101.171 25.3655Z"
          fill="#FDCB1B"/>
    <defs>
        <filter id="filter0_f_918_41362" x="89.1949" y="20.381" width="26.238" height="26.238"
                filterUnits="userSpaceOnUse" color-interpolation-filters="sRGB">
            <feFlood flood-opacity="0" result="BackgroundImageFix"/>
            <feBlend mode="normal" in="SourceGraphic" in2="BackgroundImageFix" result="shape"/>
            <feGaussianBlur stdDeviation="2" result="effect1_foregroundBlur_918_41362"/>
        </filter>
        <filter id="filter1_f_918_41362" x="15.1949" y="60.381" width="26.238" height="26.238"
                filterUnits="userSpaceOnUse" color-interpolation-filters="sRGB">
            <feFlood flood-opacity="0" result="BackgroundImageFix"/>
            <feBlend mode="normal" in="SourceGraphic" in2="BackgroundImageFix" result="shape"/>
            <feGaussianBlur stdDeviation="2" result="effect1_foregroundBlur_918_41362"/>
        </filter>
    </defs>
</svg>
