<svg width="116" height="133" viewBox="0 0 116 133" fill="none" xmlns="http://www.w3.org/2000/svg">
    <path d="M115.564 99.2441V82.2351L113.137 81.5681L113.005 82.4231L62.367 56.6531C59.835 55.1911 55.73 55.1911 53.198 56.6531L3.028 81.6841L0 82.3511V99.2551C0 100.213 0.633002 101.171 1.899 101.902L53.198 131.52C55.73 132.982 59.835 132.982 62.367 131.52L113.666 101.903C114.937 101.169 115.569 100.206 115.564 99.2441Z"
          fill="#A8522A"/>
    <path d="M115.564 83.547V80.144H113.137L113.005 80.531L62.367 51.295C59.835 49.833 55.73 49.833 53.198 51.295L3.028 80.261H0V83.559C0 84.517 0.633002 85.475 1.899 86.207L53.198 115.824C55.73 117.286 59.835 117.286 62.367 115.824L113.666 86.207C114.937 85.473 115.57 84.51 115.565 83.548L115.564 83.547Z"
          fill="#C16037"/>
    <path d="M115.564 80.5731V77.1701H113.137L113.005 77.5571L62.367 48.3211C59.835 46.8591 55.73 46.8591 53.198 48.3211L3.028 77.2871H0V80.5851C0 81.5431 0.633002 82.5011 1.899 83.2321L53.198 112.85C55.73 114.311 59.835 114.311 62.367 112.85L113.666 83.2331C114.937 82.4991 115.57 81.5361 115.565 80.5741L115.564 80.5731Z"
          fill="#C16037"/>
    <path d="M57.798 55.5581C56.134 55.5561 54.468 55.9211 53.198 56.6541L3.028 81.6851L0 82.3521V99.2561C0 100.214 0.633002 101.172 1.899 101.903L53.198 131.521C54.468 132.254 56.134 132.619 57.798 132.617V55.5591V55.5581Z"
          fill="#C96A3E"/>
    <path d="M57.798 50.199C56.134 50.197 54.468 50.562 53.198 51.295L3.028 80.261H0V83.559C0 84.517 0.633002 85.475 1.899 86.207L53.198 115.824C54.468 116.557 56.134 116.922 57.798 116.92V50.199Z"
          fill="#EA8F67"/>
    <path d="M57.798 47.2251C56.134 47.2231 54.468 47.5881 53.198 48.3211L3.028 77.2871H0V80.5851C0 81.5431 0.633002 82.5011 1.899 83.2321L53.198 112.85C54.468 113.583 56.134 113.948 57.798 113.946V47.2251Z"
          fill="#EA8F67"/>
    <path d="M62.366 109.551C59.834 111.013 55.729 111.013 53.198 109.551L1.899 79.934C-0.633 78.472 -0.633 76.102 1.899 74.64L53.198 45.023C55.73 43.561 59.835 43.561 62.366 45.023L113.665 74.64C116.197 76.102 116.197 78.472 113.665 79.934L62.366 109.551Z"
          fill="#D2704A"/>
    <path d="M27.9729 74.5912L27.9459 74.6712L17.4919 68.6362C16.9689 68.3342 16.1219 68.3342 15.5989 68.6362L5.24194 74.6161H4.61694V76.6672C4.61694 76.8652 4.74794 76.3072 5.00894 76.4582L15.5989 83.3282C16.1219 83.6302 16.9689 83.6302 17.4919 83.3282L68.0889 54.0742C68.3509 53.9222 68.4819 53.7241 68.4809 53.5251V51.4521L27.9729 74.5912Z"
          fill="#8E331D"/>
    <path d="M15.5989 68.6362L5.24194 74.6161H4.61694V76.6672C4.61694 76.8652 4.74794 77.0632 5.00894 77.2142L15.5989 83.3282C15.8609 83.4792 16.2049 83.5552 16.5489 83.5542V68.4102C16.2049 68.4102 15.8619 68.4852 15.5989 68.6362Z"
          fill="#A54C33"/>
    <path d="M17.492 81.276C16.969 81.578 16.1219 81.578 15.5989 81.276L5.00895 75.162C4.48595 74.86 4.48595 74.371 5.00895 74.069L55.6179 44.903C56.1409 44.601 56.9879 44.601 57.5109 44.903L68.1009 51.017C68.6239 51.319 68.6239 51.808 68.1009 52.11L17.492 81.275V81.276Z"
          fill="#B85B3E"/>
    <path d="M42.0199 82.877L41.9929 82.957L31.5389 76.922C31.0159 76.62 30.169 76.62 29.646 76.922L19.2889 82.902H18.6639V84.953C18.6639 85.151 18.7949 84.593 19.0559 84.744L29.646 91.614C30.169 91.916 31.0159 91.916 31.5389 91.614L82.1359 62.36C82.3979 62.208 82.5289 62.01 82.5279 61.811V59.738L42.0199 82.877Z"
          fill="#8E331D"/>
    <path d="M29.646 76.9211L19.2889 82.9011H18.6639V84.9521C18.6639 85.1501 18.7949 85.3481 19.0559 85.4991L29.646 91.6131C29.908 91.7641 30.2519 91.8401 30.5959 91.8391V76.6951C30.2519 76.6951 29.909 76.7701 29.646 76.9211Z"
          fill="#A54C33"/>
    <path d="M31.5389 89.5621C31.0159 89.8641 30.169 89.8641 29.646 89.5621L19.0559 83.4481C18.5329 83.1461 18.5329 82.6571 19.0559 82.3551L69.6649 53.1891C70.1879 52.8871 71.0349 52.8871 71.5579 53.1891L82.1479 59.3032C82.6709 59.6052 82.6709 60.0941 82.1479 60.3961L31.5389 89.5621Z"
          fill="#B85B3E"/>
    <path d="M56.131 90.971L56.104 91.051L45.65 85.016C45.127 84.714 44.28 84.714 43.757 85.016L33.4 90.996H32.775V93.047C32.775 93.245 32.906 92.687 33.167 92.838L43.757 99.708C44.28 100.01 45.127 100.01 45.65 99.708L96.247 70.454C96.509 70.302 96.64 70.104 96.639 69.905V67.832L56.131 90.971Z"
          fill="#8E331D"/>
    <path d="M43.758 85.016L33.401 90.996H32.776V93.047C32.776 93.245 32.907 93.443 33.168 93.594L43.758 99.708C44.02 99.859 44.364 99.935 44.708 99.934V84.79C44.364 84.79 44.021 84.865 43.758 85.016Z"
          fill="#A54C33"/>
    <path d="M45.65 97.6561C45.127 97.9581 44.28 97.9581 43.757 97.6561L33.167 91.5421C32.644 91.2401 32.644 90.7511 33.167 90.4491L83.776 61.2831C84.299 60.9811 85.146 60.9811 85.669 61.2831L96.259 67.3971C96.782 67.6991 96.782 68.1881 96.259 68.4901L45.65 97.6551V97.6561Z"
          fill="#B85B3E"/>
    <path d="M70.4269 99.2152L70.3999 99.2952L59.9459 93.2602C59.4229 92.9582 58.5759 92.9582 58.0529 93.2602L47.6959 99.2402H47.0709V101.291C47.0709 101.489 47.2019 100.931 47.4629 101.082L58.0529 107.952C58.5759 108.254 59.4229 108.254 59.9459 107.952L110.543 78.6982C110.805 78.5462 110.936 78.3482 110.935 78.1492V76.0762L70.4269 99.2152Z"
          fill="#8E331D"/>
    <path d="M58.054 93.2602L47.697 99.2402H47.072V101.291C47.072 101.489 47.203 101.687 47.464 101.838L58.054 107.952C58.316 108.103 58.66 108.179 59.004 108.178V93.0342C58.66 93.0342 58.317 93.1092 58.054 93.2602Z"
          fill="#A54C33"/>
    <path d="M59.9459 105.9C59.4229 106.202 58.5759 106.202 58.0529 105.9L47.4629 99.786C46.9399 99.484 46.9399 98.995 47.4629 98.693L98.0719 69.527C98.5949 69.225 99.4419 69.225 99.9649 69.527L110.555 75.641C111.078 75.943 111.078 76.432 110.555 76.734L59.9459 105.9Z"
          fill="#B85B3E"/>
    <g style="mix-blend-mode:multiply" opacity="0.4">
        <path d="M57.905 103.124C61.771 103.124 64.905 101.888 64.905 100.364C64.905 98.8397 61.771 97.604 57.905 97.604C54.039 97.604 50.905 98.8397 50.905 100.364C50.905 101.888 54.039 103.124 57.905 103.124Z"
              fill="#B85B3E"/>
    </g>
    <path d="M57.4879 101.299C57.0479 101.299 56.6479 101.219 56.2879 101.059C56.0979 100.989 55.9179 100.889 55.7579 100.759C54.3079 99.7392 53.5279 97.2692 52.9479 93.7592C52.1979 89.2192 48.3479 84.6592 48.1079 84.3792C48.3579 84.4892 52.0679 86.3092 55.4079 89.2892C55.7879 89.6192 56.1579 89.9692 56.5179 90.3392C56.6879 90.5092 56.8579 90.6892 57.0279 90.8692C60.7479 94.8992 60.1279 101.299 57.4879 101.299Z"
          fill="#00AC00"/>
    <g style="mix-blend-mode:multiply" opacity="0.2">
        <path d="M57.488 101.299C57.048 101.299 56.648 101.219 56.288 101.059C56.098 100.989 55.918 100.889 55.758 100.759C54.888 99.3491 54.328 97.1591 54.328 94.6991C54.328 92.5891 54.738 90.6891 55.408 89.2891C55.788 89.6191 56.158 89.9691 56.518 90.3391C56.688 90.5091 56.858 90.6891 57.028 90.8691C60.748 94.8991 60.128 101.299 57.488 101.299Z"
              fill="#00AC00"/>
    </g>
    <g style="mix-blend-mode:multiply" opacity="0.2">
        <path d="M57.488 101.299C57.048 101.299 56.648 101.219 56.288 101.059C55.688 99.6991 55.338 97.9191 55.338 95.9491C55.338 93.7291 55.788 91.7391 56.518 90.3391C56.688 90.5091 56.858 90.6891 57.028 90.8691C60.748 94.8991 60.128 101.299 57.488 101.299Z"
              fill="#00AC00"/>
    </g>
    <path d="M62.8089 93.3992C63.0689 95.1392 62.6589 97.3892 61.7789 98.9492V98.9592C61.4589 99.5292 61.0789 100.009 60.6389 100.329C60.5789 100.379 60.5189 100.419 60.4489 100.459C59.9689 100.779 59.4289 100.909 58.8389 100.789C58.5489 100.729 58.2889 100.619 58.0589 100.459C57.7989 100.279 57.589 100.049 57.409 99.7792C57.319 99.6392 57.239 99.4992 57.159 99.3392C56.349 97.5492 56.7289 94.6192 57.4889 93.0892C59.1789 89.7292 63.4289 84.6292 63.4289 84.6292C63.4289 84.6292 62.3489 90.2492 62.8089 93.3992Z"
          fill="#5DE572"/>
    <path d="M61.7789 98.9491V98.9591C61.4589 99.5291 61.0789 100.009 60.6389 100.329C60.5789 100.379 60.5189 100.419 60.4489 100.459C59.9689 100.779 59.4289 100.909 58.8389 100.789C58.5489 100.729 58.2889 100.619 58.0589 100.459C57.7989 100.279 57.5889 100.049 57.4089 99.7791C57.3189 99.6391 57.2389 99.4991 57.1589 99.3391C57.1989 98.8291 57.2889 98.3591 57.4189 97.9791C58.3489 95.1991 61.0889 90.7891 61.0889 90.7891C61.0889 90.7891 60.8589 95.2591 61.5589 97.6391C61.6789 98.0391 61.7589 98.4891 61.7789 98.9491Z"
          fill="#20D651"/>
    <path d="M60.768 98.769C60.798 99.359 60.668 99.959 60.448 100.459C59.968 100.779 59.428 100.909 58.838 100.789C58.548 100.729 58.288 100.619 58.058 100.459C58.068 99.959 58.188 99.299 58.398 98.399C58.948 96.029 60.248 94.259 60.248 94.259C60.248 94.259 60.668 97.099 60.768 98.769Z"
          fill="#5DE572"/>
    <g style="mix-blend-mode:multiply" opacity="0.4">
        <path d="M72.822 94.8201C76.688 94.8201 79.822 93.5843 79.822 92.06C79.822 90.5357 76.688 89.3 72.822 89.3C68.956 89.3 65.822 90.5357 65.822 92.06C65.822 93.5843 68.956 94.8201 72.822 94.8201Z"
              fill="#B85B3E"/>
    </g>
    <path d="M72.406 92.9962C71.966 92.9962 71.566 92.9162 71.206 92.7562C71.016 92.6862 70.836 92.5862 70.676 92.4562C69.226 91.4362 68.446 88.9662 67.866 85.4562C67.116 80.9162 63.266 76.3562 63.026 76.0762C63.276 76.1862 66.986 78.0062 70.326 80.9862C70.706 81.3162 71.076 81.6662 71.436 82.0362C71.606 82.2062 71.776 82.3862 71.946 82.5662C75.666 86.5962 75.046 92.9962 72.406 92.9962Z"
          fill="#00AC00"/>
    <g style="mix-blend-mode:multiply" opacity="0.2">
        <path d="M72.406 92.9961C71.966 92.9961 71.566 92.9161 71.206 92.7561C71.016 92.6861 70.836 92.5861 70.676 92.4561C69.806 91.0461 69.246 88.8561 69.246 86.3961C69.246 84.2861 69.656 82.3861 70.326 80.9861C70.706 81.3161 71.076 81.6661 71.436 82.0361C71.606 82.2061 71.776 82.3861 71.946 82.5661C75.666 86.5961 75.046 92.9961 72.406 92.9961Z"
              fill="#00AC00"/>
    </g>
    <g style="mix-blend-mode:multiply" opacity="0.2">
        <path d="M72.406 92.9961C71.966 92.9961 71.566 92.9161 71.206 92.7561C70.606 91.3961 70.256 89.6161 70.256 87.6461C70.256 85.4261 70.706 83.4361 71.436 82.0361C71.606 82.2061 71.776 82.3861 71.946 82.5661C75.666 86.5961 75.046 92.9961 72.406 92.9961Z"
              fill="#00AC00"/>
    </g>
    <path d="M77.7259 85.0962C77.9859 86.8362 77.5759 89.0862 76.6959 90.6462V90.6562C76.3759 91.2262 75.996 91.7062 75.556 92.0262C75.496 92.0762 75.436 92.1162 75.366 92.1562C74.886 92.4762 74.3459 92.6062 73.7559 92.4862C73.4659 92.4262 73.2059 92.3162 72.9759 92.1562C72.7159 91.9762 72.5059 91.7462 72.3259 91.4762C72.2359 91.3362 72.1559 91.1962 72.0759 91.0362C71.2659 89.2462 71.6459 86.3162 72.4059 84.7862C74.0959 81.4262 78.3459 76.3262 78.3459 76.3262C78.3459 76.3262 77.2659 81.9462 77.7259 85.0962Z"
          fill="#5DE572"/>
    <path d="M76.6959 90.6461V90.6561C76.3759 91.2261 75.9959 91.7061 75.5559 92.0261C75.4959 92.0761 75.4359 92.1161 75.3659 92.1561C74.8859 92.4761 74.3459 92.6061 73.7559 92.4861C73.4659 92.4261 73.2059 92.3161 72.9759 92.1561C72.7159 91.9761 72.5059 91.7461 72.3259 91.4761C72.2359 91.3361 72.1559 91.1961 72.0759 91.0361C72.1159 90.5261 72.2059 90.0561 72.3359 89.6761C73.2659 86.8961 76.0059 82.4861 76.0059 82.4861C76.0059 82.4861 75.7759 86.9561 76.4759 89.3361C76.5959 89.7361 76.6759 90.1861 76.6959 90.6461Z"
          fill="#20D651"/>
    <path d="M75.6859 90.466C75.7159 91.056 75.586 91.6561 75.366 92.1561C74.886 92.4761 74.346 92.6061 73.756 92.4861C73.466 92.4261 73.206 92.3161 72.976 92.1561C72.986 91.6561 73.1059 90.9961 73.3159 90.0961C73.8659 87.7261 75.166 85.9561 75.166 85.9561C75.166 85.9561 75.5859 88.796 75.6859 90.466Z"
          fill="#5DE572"/>
    <g style="mix-blend-mode:multiply" opacity="0.4">
        <path d="M88.142 86.6591C92.008 86.6591 95.142 85.4235 95.142 83.8992C95.142 82.3748 92.008 81.1392 88.142 81.1392C84.276 81.1392 81.142 82.3748 81.142 83.8992C81.142 85.4235 84.276 86.6591 88.142 86.6591Z"
              fill="#B85B3E"/>
    </g>
    <path d="M87.726 84.835C87.286 84.835 86.8859 84.755 86.5259 84.595C86.3359 84.525 86.1559 84.425 85.9959 84.295C84.5459 83.275 83.7659 80.805 83.1859 77.295C82.4359 72.755 78.5859 68.195 78.3459 67.915C78.5959 68.025 82.306 69.845 85.646 72.825C86.026 73.155 86.396 73.505 86.756 73.875C86.926 74.045 87.096 74.225 87.266 74.405C90.986 78.435 90.366 84.835 87.726 84.835Z"
          fill="#00AC00"/>
    <g style="mix-blend-mode:multiply" opacity="0.2">
        <path d="M87.7259 84.835C87.2859 84.835 86.8859 84.755 86.5259 84.595C86.3359 84.525 86.1559 84.425 85.9959 84.295C85.1259 82.885 84.5659 80.695 84.5659 78.235C84.5659 76.125 84.9759 74.225 85.6459 72.825C86.0259 73.155 86.3959 73.505 86.7559 73.875C86.9259 74.045 87.0959 74.225 87.2659 74.405C90.9859 78.435 90.3659 84.835 87.7259 84.835Z"
              fill="#00AC00"/>
    </g>
    <g style="mix-blend-mode:multiply" opacity="0.2">
        <path d="M87.7259 84.835C87.2859 84.835 86.8859 84.755 86.5259 84.595C85.9259 83.235 85.5759 81.455 85.5759 79.485C85.5759 77.265 86.0259 75.275 86.7559 73.875C86.9259 74.045 87.0959 74.225 87.2659 74.405C90.9859 78.435 90.3659 84.835 87.7259 84.835Z"
              fill="#00AC00"/>
    </g>
    <path d="M93.046 76.935C93.306 78.675 92.896 80.925 92.016 82.485V82.495C91.696 83.065 91.316 83.545 90.876 83.865C90.816 83.915 90.756 83.955 90.686 83.995C90.206 84.315 89.666 84.445 89.076 84.325C88.786 84.265 88.526 84.155 88.296 83.995C88.036 83.815 87.826 83.585 87.646 83.315C87.556 83.175 87.476 83.035 87.396 82.875C86.586 81.085 86.966 78.155 87.726 76.625C89.416 73.265 93.666 68.165 93.666 68.165C93.666 68.165 92.586 73.785 93.046 76.935Z"
          fill="#5DE572"/>
    <path d="M92.016 82.485V82.4949C91.696 83.0649 91.316 83.545 90.876 83.865C90.816 83.915 90.756 83.9549 90.686 83.9949C90.206 84.3149 89.666 84.445 89.076 84.325C88.786 84.265 88.526 84.1549 88.296 83.9949C88.036 83.8149 87.826 83.585 87.646 83.315C87.556 83.175 87.476 83.035 87.396 82.875C87.436 82.365 87.526 81.895 87.656 81.515C88.586 78.735 91.326 74.325 91.326 74.325C91.326 74.325 91.096 78.795 91.796 81.175C91.916 81.575 91.996 82.025 92.016 82.485Z"
          fill="#20D651"/>
    <path d="M91.006 82.3052C91.036 82.8952 90.906 83.4952 90.686 83.9952C90.206 84.3152 89.666 84.4452 89.076 84.3252C88.786 84.2652 88.526 84.1552 88.296 83.9952C88.306 83.4952 88.426 82.8352 88.636 81.9352C89.186 79.5652 90.486 77.7952 90.486 77.7952C90.486 77.7952 90.906 80.6352 91.006 82.3052Z"
          fill="#5DE572"/>
    <g style="mix-blend-mode:multiply" opacity="0.4">
        <path d="M103.462 78.0281C107.328 78.0281 110.462 76.7924 110.462 75.2681C110.462 73.7438 107.328 72.5081 103.462 72.5081C99.5959 72.5081 96.4619 73.7438 96.4619 75.2681C96.4619 76.7924 99.5959 78.0281 103.462 78.0281Z"
              fill="#B85B3E"/>
    </g>
    <path d="M103.046 76.203C102.606 76.203 102.206 76.123 101.846 75.963C101.656 75.893 101.476 75.7929 101.316 75.6629C99.866 74.6429 99.086 72.1729 98.506 68.6629C97.756 64.1229 93.906 59.563 93.666 59.283C93.916 59.393 97.626 61.213 100.966 64.193C101.346 64.523 101.716 64.873 102.076 65.243C102.246 65.413 102.416 65.5929 102.586 65.7729C106.306 69.8029 105.686 76.203 103.046 76.203Z"
          fill="#00AC00"/>
    <g style="mix-blend-mode:multiply" opacity="0.2">
        <path d="M103.046 76.2031C102.606 76.2031 102.206 76.1231 101.846 75.9631C101.656 75.8931 101.476 75.7931 101.316 75.6631C100.446 74.2531 99.886 72.0631 99.886 69.6031C99.886 67.4931 100.296 65.5931 100.966 64.1931C101.346 64.5231 101.716 64.8731 102.076 65.2431C102.246 65.4131 102.416 65.5931 102.586 65.7731C106.306 69.8031 105.686 76.2031 103.046 76.2031Z"
              fill="#00AC00"/>
    </g>
    <g style="mix-blend-mode:multiply" opacity="0.2">
        <path d="M103.046 76.2032C102.606 76.2032 102.206 76.1232 101.846 75.9632C101.246 74.6032 100.896 72.8232 100.896 70.8532C100.896 68.6332 101.346 66.6432 102.076 65.2432C102.246 65.4132 102.416 65.5932 102.586 65.7732C106.306 69.8032 105.686 76.2032 103.046 76.2032Z"
              fill="#00AC00"/>
    </g>
    <path d="M108.366 68.303C108.626 70.043 108.216 72.293 107.336 73.853V73.863C107.016 74.433 106.636 74.913 106.196 75.233C106.136 75.283 106.076 75.323 106.006 75.363C105.526 75.683 104.986 75.813 104.396 75.693C104.106 75.633 103.846 75.523 103.616 75.363C103.356 75.183 103.146 74.953 102.966 74.683C102.876 74.543 102.796 74.403 102.716 74.243C101.906 72.453 102.286 69.523 103.046 67.993C104.736 64.633 108.986 59.533 108.986 59.533C108.986 59.533 107.906 65.153 108.366 68.303Z"
          fill="#5DE572"/>
    <path d="M107.336 73.8531V73.8631C107.016 74.4331 106.636 74.9131 106.196 75.2331C106.136 75.2831 106.076 75.3231 106.006 75.3631C105.526 75.6831 104.986 75.8131 104.396 75.6931C104.106 75.6331 103.846 75.5231 103.616 75.3631C103.356 75.1831 103.146 74.9531 102.966 74.6831C102.876 74.5431 102.796 74.4031 102.716 74.2431C102.756 73.7331 102.846 73.2631 102.976 72.8831C103.906 70.1031 106.646 65.6931 106.646 65.6931C106.646 65.6931 106.416 70.1631 107.116 72.5431C107.236 72.9431 107.316 73.3931 107.336 73.8531Z"
          fill="#20D651"/>
    <path d="M106.326 73.6731C106.356 74.2631 106.226 74.8631 106.006 75.3631C105.526 75.6831 104.986 75.8131 104.396 75.6931C104.106 75.6331 103.846 75.5231 103.616 75.3631C103.626 74.8631 103.746 74.2031 103.956 73.3031C104.506 70.9331 105.806 69.1631 105.806 69.1631C105.806 69.1631 106.226 72.0031 106.326 73.6731Z"
          fill="#5DE572"/>
    <g style="mix-blend-mode:multiply" opacity="0.4">
        <path d="M42.879 94.531C46.745 94.531 49.879 93.2953 49.879 91.771C49.879 90.2467 46.745 89.011 42.879 89.011C39.013 89.011 35.879 90.2467 35.879 91.771C35.879 93.2953 39.013 94.531 42.879 94.531Z"
              fill="#B85B3E"/>
    </g>
    <path d="M42.463 92.7061C42.023 92.7061 41.623 92.6261 41.263 92.4661C41.073 92.3961 40.893 92.2961 40.733 92.1661C39.283 91.1461 38.503 88.6761 37.923 85.1661C37.173 80.6261 33.323 76.0661 33.083 75.7861C33.333 75.8961 37.043 77.7161 40.383 80.6961C40.763 81.0261 41.133 81.3761 41.493 81.7461C41.663 81.9161 41.833 82.0961 42.003 82.2761C45.723 86.3061 45.103 92.7061 42.463 92.7061Z"
          fill="#00AC00"/>
    <g style="mix-blend-mode:multiply" opacity="0.2">
        <path d="M42.463 92.7061C42.023 92.7061 41.623 92.626 41.263 92.466C41.073 92.396 40.893 92.296 40.733 92.166C39.863 90.756 39.303 88.566 39.303 86.106C39.303 83.996 39.713 82.096 40.383 80.696C40.763 81.026 41.133 81.376 41.493 81.746C41.663 81.916 41.833 82.096 42.003 82.276C45.723 86.306 45.103 92.7061 42.463 92.7061Z"
              fill="#00AC00"/>
    </g>
    <g style="mix-blend-mode:multiply" opacity="0.2">
        <path d="M42.463 92.7061C42.023 92.7061 41.623 92.6261 41.263 92.4661C40.663 91.1061 40.313 89.3261 40.313 87.3561C40.313 85.1361 40.763 83.1461 41.493 81.7461C41.663 81.9161 41.833 82.0961 42.003 82.2761C45.723 86.3061 45.103 92.7061 42.463 92.7061Z"
              fill="#00AC00"/>
    </g>
    <path d="M47.7829 84.8061C48.0429 86.5461 47.6329 88.7961 46.7529 90.3561V90.3661C46.4329 90.9361 46.0529 91.4161 45.6129 91.7361C45.5529 91.7861 45.4929 91.8261 45.4229 91.8661C44.9429 92.1861 44.4029 92.3161 43.8129 92.1961C43.5229 92.1361 43.2629 92.0261 43.0329 91.8661C42.7729 91.6861 42.563 91.4561 42.383 91.1861C42.293 91.0461 42.213 90.9061 42.133 90.7461C41.323 88.9561 41.7029 86.0261 42.4629 84.4961C44.1529 81.1361 48.4029 76.0361 48.4029 76.0361C48.4029 76.0361 47.3229 81.6561 47.7829 84.8061Z"
          fill="#5DE572"/>
    <path d="M46.7529 90.356V90.366C46.4329 90.936 46.0529 91.4161 45.6129 91.7361C45.5529 91.7861 45.4929 91.826 45.4229 91.866C44.9429 92.186 44.4029 92.316 43.8129 92.196C43.5229 92.136 43.2629 92.026 43.0329 91.866C42.7729 91.686 42.5629 91.4561 42.3829 91.1861C42.2929 91.0461 42.2129 90.906 42.1329 90.746C42.1729 90.236 42.2629 89.766 42.3929 89.386C43.3229 86.606 46.0629 82.196 46.0629 82.196C46.0629 82.196 45.8329 86.6661 46.5329 89.0461C46.6529 89.4461 46.7329 89.896 46.7529 90.356Z"
          fill="#20D651"/>
    <path d="M45.743 90.176C45.773 90.766 45.6429 91.366 45.4229 91.866C44.9429 92.186 44.403 92.316 43.813 92.196C43.523 92.136 43.263 92.026 43.033 91.866C43.043 91.366 43.163 90.706 43.373 89.806C43.923 87.436 45.223 85.666 45.223 85.666C45.223 85.666 45.643 88.506 45.743 90.176Z"
          fill="#5DE572"/>
    <g style="mix-blend-mode:multiply" opacity="0.4">
        <path d="M57.797 86.228C61.663 86.228 64.797 84.9923 64.797 83.468C64.797 81.9437 61.663 80.708 57.797 80.708C53.931 80.708 50.797 81.9437 50.797 83.468C50.797 84.9923 53.931 86.228 57.797 86.228Z"
              fill="#B85B3E"/>
    </g>
    <path d="M57.381 84.4032C56.941 84.4032 56.541 84.3231 56.181 84.1631C55.991 84.0931 55.811 83.9932 55.651 83.8632C54.201 82.8432 53.421 80.3732 52.841 76.8632C52.091 72.3232 48.241 67.7632 48.001 67.4832C48.251 67.5932 51.961 69.4132 55.301 72.3932C55.681 72.7232 56.051 73.0732 56.411 73.4432C56.581 73.6132 56.751 73.7932 56.921 73.9732C60.641 78.0032 60.021 84.4032 57.381 84.4032Z"
          fill="#00AC00"/>
    <g style="mix-blend-mode:multiply" opacity="0.2">
        <path d="M57.381 84.4031C56.941 84.4031 56.541 84.3231 56.181 84.1631C55.991 84.0931 55.8109 83.9931 55.6509 83.8631C54.7809 82.4531 54.2209 80.2631 54.2209 77.8031C54.2209 75.6931 54.631 73.7931 55.301 72.3931C55.681 72.7231 56.0509 73.0731 56.4109 73.4431C56.5809 73.6131 56.751 73.7931 56.921 73.9731C60.641 78.0031 60.021 84.4031 57.381 84.4031Z"
              fill="#00AC00"/>
    </g>
    <g style="mix-blend-mode:multiply" opacity="0.2">
        <path d="M57.381 84.4031C56.941 84.4031 56.541 84.3231 56.181 84.1631C55.581 82.8031 55.231 81.0231 55.231 79.0531C55.231 76.8331 55.6809 74.8431 56.4109 73.4431C56.5809 73.6131 56.751 73.7931 56.921 73.9731C60.641 78.0031 60.021 84.4031 57.381 84.4031Z"
              fill="#00AC00"/>
    </g>
    <path d="M62.7009 76.5032C62.9609 78.2432 62.5509 80.4932 61.6709 82.0532V82.0632C61.3509 82.6332 60.9709 83.1132 60.5309 83.4332C60.4709 83.4832 60.4109 83.5232 60.3409 83.5632C59.8609 83.8832 59.3209 84.0132 58.7309 83.8932C58.4409 83.8332 58.1809 83.7232 57.9509 83.5632C57.6909 83.3832 57.4809 83.1531 57.3009 82.8831C57.2109 82.7431 57.1309 82.6032 57.0509 82.4432C56.2409 80.6532 56.6209 77.7232 57.3809 76.1932C59.0709 72.8332 63.3209 67.7332 63.3209 67.7332C63.3209 67.7332 62.2409 73.3532 62.7009 76.5032Z"
          fill="#5DE572"/>
    <path d="M61.671 82.0531V82.0631C61.351 82.6331 60.971 83.1131 60.531 83.4331C60.471 83.4831 60.411 83.5231 60.341 83.5631C59.861 83.8831 59.321 84.0131 58.731 83.8931C58.441 83.8331 58.181 83.7231 57.951 83.5631C57.691 83.3831 57.481 83.1531 57.301 82.8831C57.211 82.7431 57.131 82.6031 57.051 82.4431C57.091 81.9331 57.181 81.4631 57.311 81.0831C58.241 78.3031 60.981 73.8931 60.981 73.8931C60.981 73.8931 60.751 78.3631 61.451 80.7431C61.571 81.1431 61.651 81.5931 61.671 82.0531Z"
          fill="#20D651"/>
    <path d="M60.6609 81.873C60.6909 82.463 60.5609 83.063 60.3409 83.563C59.8609 83.883 59.3209 84.013 58.7309 83.893C58.4409 83.833 58.1809 83.723 57.9509 83.563C57.9609 83.063 58.0809 82.403 58.2909 81.503C58.8409 79.133 60.1409 77.363 60.1409 77.363C60.1409 77.363 60.5609 80.203 60.6609 81.873Z"
          fill="#5DE572"/>
    <g style="mix-blend-mode:multiply" opacity="0.4">
        <path d="M73.1169 78.0671C76.9829 78.0671 80.1169 76.8314 80.1169 75.3071C80.1169 73.7828 76.9829 72.5471 73.1169 72.5471C69.251 72.5471 66.1169 73.7828 66.1169 75.3071C66.1169 76.8314 69.251 78.0671 73.1169 78.0671Z"
              fill="#B85B3E"/>
    </g>
    <path d="M72.7 76.242C72.26 76.242 71.8599 76.162 71.4999 76.002C71.3099 75.932 71.1299 75.832 70.9699 75.702C69.5199 74.682 68.7399 72.212 68.1599 68.702C67.4099 64.162 63.5599 59.602 63.3199 59.322C63.5699 59.432 67.28 61.252 70.62 64.232C71 64.562 71.37 64.912 71.7299 65.282C71.9 65.452 72.07 65.632 72.24 65.812C75.96 69.842 75.34 76.242 72.7 76.242Z"
          fill="#00AC00"/>
    <g style="mix-blend-mode:multiply" opacity="0.2">
        <path d="M72.6999 76.2422C72.2599 76.2422 71.8599 76.1622 71.4999 76.0022C71.3099 75.9322 71.1299 75.8322 70.9699 75.7022C70.0999 74.2922 69.5399 72.1022 69.5399 69.6422C69.5399 67.5322 69.9499 65.6322 70.6199 64.2322C70.9999 64.5622 71.3699 64.9122 71.7299 65.2822C71.8999 65.4522 72.0699 65.6322 72.2399 65.8122C75.9599 69.8422 75.3399 76.2422 72.6999 76.2422Z"
              fill="#00AC00"/>
    </g>
    <g style="mix-blend-mode:multiply" opacity="0.2">
        <path d="M72.6999 76.242C72.2599 76.242 71.8599 76.162 71.4999 76.002C70.8999 74.642 70.5499 72.862 70.5499 70.892C70.5499 68.672 70.9999 66.682 71.7299 65.282C71.8999 65.452 72.0699 65.632 72.2399 65.812C75.9599 69.842 75.3399 76.242 72.6999 76.242Z"
              fill="#00AC00"/>
    </g>
    <path d="M78.02 68.342C78.28 70.082 77.87 72.332 76.99 73.892V73.902C76.67 74.472 76.29 74.952 75.85 75.272C75.79 75.322 75.73 75.362 75.66 75.402C75.18 75.722 74.64 75.852 74.05 75.732C73.76 75.672 73.5 75.562 73.27 75.402C73.01 75.222 72.8 74.992 72.62 74.722C72.53 74.582 72.45 74.442 72.37 74.282C71.56 72.492 71.94 69.562 72.7 68.032C74.39 64.672 78.64 59.572 78.64 59.572C78.64 59.572 77.56 65.192 78.02 68.342Z"
          fill="#5DE572"/>
    <path d="M76.99 73.8922V73.9022C76.67 74.4722 76.29 74.9522 75.85 75.2722C75.79 75.3222 75.73 75.3622 75.66 75.4022C75.18 75.7222 74.64 75.8522 74.05 75.7322C73.76 75.6722 73.5 75.5622 73.27 75.4022C73.01 75.2222 72.8 74.9922 72.62 74.7222C72.53 74.5822 72.45 74.4422 72.37 74.2822C72.41 73.7722 72.5 73.3022 72.63 72.9222C73.56 70.1422 76.3 65.7322 76.3 65.7322C76.3 65.7322 76.07 70.2022 76.77 72.5822C76.89 72.9822 76.97 73.4322 76.99 73.8922Z"
          fill="#20D651"/>
    <path d="M75.98 73.7122C76.01 74.3022 75.88 74.9022 75.66 75.4022C75.18 75.7222 74.64 75.8521 74.05 75.7321C73.76 75.6721 73.5 75.5622 73.27 75.4022C73.28 74.9022 73.4 74.2421 73.61 73.3421C74.16 70.9721 75.46 69.2021 75.46 69.2021C75.46 69.2021 75.88 72.0422 75.98 73.7122Z"
          fill="#5DE572"/>
    <g style="mix-blend-mode:multiply" opacity="0.4">
        <path d="M88.4359 69.435C92.3019 69.435 95.4359 68.1993 95.4359 66.675C95.4359 65.1507 92.3019 63.915 88.4359 63.915C84.5699 63.915 81.4359 65.1507 81.4359 66.675C81.4359 68.1993 84.5699 69.435 88.4359 69.435Z"
              fill="#B85B3E"/>
    </g>
    <path d="M88.02 67.6102C87.58 67.6102 87.18 67.5302 86.82 67.3702C86.63 67.3002 86.45 67.2002 86.29 67.0702C84.84 66.0502 84.06 63.5802 83.48 60.0702C82.73 55.5302 78.88 50.9702 78.64 50.6902C78.89 50.8002 82.6 52.6202 85.94 55.6002C86.32 55.9302 86.69 56.2802 87.05 56.6502C87.22 56.8202 87.39 57.0002 87.56 57.1802C91.28 61.2102 90.66 67.6102 88.02 67.6102Z"
          fill="#00AC00"/>
    <g style="mix-blend-mode:multiply" opacity="0.2">
        <path d="M88.02 67.6101C87.58 67.6101 87.18 67.5301 86.82 67.3701C86.63 67.3001 86.45 67.2001 86.29 67.0701C85.42 65.6601 84.86 63.4701 84.86 61.0101C84.86 58.9001 85.27 57.0001 85.94 55.6001C86.32 55.9301 86.69 56.2801 87.05 56.6501C87.22 56.8201 87.39 57.0001 87.56 57.1801C91.28 61.2101 90.66 67.6101 88.02 67.6101Z"
              fill="#00AC00"/>
    </g>
    <g style="mix-blend-mode:multiply" opacity="0.2">
        <path d="M88.02 67.6102C87.58 67.6102 87.18 67.5301 86.82 67.3701C86.22 66.0101 85.87 64.2301 85.87 62.2601C85.87 60.0401 86.32 58.0501 87.05 56.6501C87.22 56.8201 87.39 57.0002 87.56 57.1802C91.28 61.2102 90.66 67.6102 88.02 67.6102Z"
              fill="#00AC00"/>
    </g>
    <path d="M93.34 59.7102C93.6 61.4502 93.19 63.7002 92.31 65.2602V65.2702C91.99 65.8402 91.61 66.3202 91.17 66.6402C91.11 66.6902 91.05 66.7302 90.98 66.7702C90.5 67.0902 89.96 67.2202 89.37 67.1002C89.08 67.0402 88.82 66.9302 88.59 66.7702C88.33 66.5902 88.1199 66.3602 87.9399 66.0902C87.8499 65.9502 87.7699 65.8102 87.6899 65.6502C86.8799 63.8602 87.26 60.9302 88.02 59.4002C89.71 56.0402 93.96 50.9402 93.96 50.9402C93.96 50.9402 92.88 56.5602 93.34 59.7102Z"
          fill="#5DE572"/>
    <path d="M92.31 65.2601V65.2701C91.99 65.8401 91.61 66.3201 91.17 66.6401C91.11 66.6901 91.0499 66.7301 90.9799 66.7701C90.4999 67.0901 89.96 67.2201 89.37 67.1001C89.08 67.0401 88.82 66.9301 88.59 66.7701C88.33 66.5901 88.1199 66.3601 87.9399 66.0901C87.8499 65.9501 87.7699 65.8101 87.6899 65.6501C87.7299 65.1401 87.82 64.6701 87.95 64.2901C88.88 61.5101 91.62 57.1001 91.62 57.1001C91.62 57.1001 91.39 61.5701 92.09 63.9501C92.21 64.3501 92.29 64.8001 92.31 65.2601Z"
          fill="#20D651"/>
    <path d="M91.3 65.0801C91.33 65.6701 91.1999 66.2701 90.9799 66.7701C90.4999 67.0901 89.96 67.2201 89.37 67.1001C89.08 67.0401 88.82 66.9301 88.59 66.7701C88.6 66.2701 88.72 65.6101 88.93 64.7101C89.48 62.3401 90.78 60.5701 90.78 60.5701C90.78 60.5701 91.2 63.4101 91.3 65.0801Z"
          fill="#5DE572"/>
    <g style="mix-blend-mode:multiply" opacity="0.4">
        <path d="M28.356 86.122C32.222 86.122 35.356 84.8864 35.356 83.362C35.356 81.8377 32.222 80.6021 28.356 80.6021C24.49 80.6021 21.356 81.8377 21.356 83.362C21.356 84.8864 24.49 86.122 28.356 86.122Z"
              fill="#B85B3E"/>
    </g>
    <path d="M27.9399 84.2982C27.4999 84.2982 27.0999 84.2182 26.7399 84.0582C26.5499 83.9882 26.3699 83.8882 26.2099 83.7582C24.7599 82.7382 23.9799 80.2682 23.3999 76.7582C22.6499 72.2182 18.7999 67.6582 18.5599 67.3782C18.8099 67.4882 22.5199 69.3082 25.8599 72.2882C26.2399 72.6182 26.6099 72.9682 26.9699 73.3382C27.1399 73.5082 27.3099 73.6882 27.4799 73.8682C31.1999 77.8982 30.5799 84.2982 27.9399 84.2982Z"
          fill="#00AC00"/>
    <g style="mix-blend-mode:multiply" opacity="0.2">
        <path d="M27.94 84.2981C27.5 84.2981 27.1 84.2181 26.74 84.0581C26.55 83.9881 26.37 83.8881 26.21 83.7581C25.34 82.3481 24.78 80.1581 24.78 77.6981C24.78 75.5881 25.19 73.6881 25.86 72.2881C26.24 72.6181 26.61 72.9681 26.97 73.3381C27.14 73.5081 27.31 73.6881 27.48 73.8681C31.2 77.8981 30.58 84.2981 27.94 84.2981Z"
              fill="#00AC00"/>
    </g>
    <g style="mix-blend-mode:multiply" opacity="0.2">
        <path d="M27.9399 84.2981C27.4999 84.2981 27.0999 84.2181 26.7399 84.0581C26.1399 82.6981 25.7899 80.9181 25.7899 78.9481C25.7899 76.7281 26.2399 74.7381 26.9699 73.3381C27.1399 73.5081 27.3099 73.6881 27.4799 73.8681C31.1999 77.8981 30.5799 84.2981 27.9399 84.2981Z"
              fill="#00AC00"/>
    </g>
    <path d="M33.26 76.3982C33.52 78.1382 33.11 80.3882 32.23 81.9482V81.9582C31.91 82.5282 31.53 83.0082 31.09 83.3282C31.03 83.3782 30.97 83.4182 30.9 83.4582C30.42 83.7782 29.88 83.9082 29.29 83.7882C29 83.7282 28.74 83.6182 28.51 83.4582C28.25 83.2782 28.04 83.0482 27.86 82.7782C27.77 82.6382 27.69 82.4982 27.61 82.3382C26.8 80.5482 27.18 77.6182 27.94 76.0882C29.63 72.7282 33.88 67.6282 33.88 67.6282C33.88 67.6282 32.8 73.2482 33.26 76.3982Z"
          fill="#5DE572"/>
    <path d="M32.23 81.9481V81.9581C31.91 82.5281 31.53 83.0081 31.09 83.3281C31.03 83.3781 30.97 83.4181 30.9 83.4581C30.42 83.7781 29.88 83.9081 29.29 83.7881C29 83.7281 28.74 83.6181 28.51 83.4581C28.25 83.2781 28.04 83.0481 27.86 82.7781C27.77 82.6381 27.69 82.4981 27.61 82.3381C27.65 81.8281 27.74 81.3581 27.87 80.9781C28.8 78.1981 31.54 73.7881 31.54 73.7881C31.54 73.7881 31.31 78.2581 32.01 80.6381C32.13 81.0381 32.21 81.4881 32.23 81.9481Z"
          fill="#20D651"/>
    <path d="M31.22 81.7681C31.25 82.3581 31.12 82.9581 30.9 83.4581C30.42 83.7781 29.88 83.9081 29.29 83.7881C29 83.7281 28.74 83.6181 28.51 83.4581C28.52 82.9581 28.64 82.2981 28.85 81.3981C29.4 79.0281 30.7 77.2581 30.7 77.2581C30.7 77.2581 31.12 80.0981 31.22 81.7681Z"
          fill="#5DE572"/>
    <g style="mix-blend-mode:multiply" opacity="0.4">
        <path d="M43.2739 77.8191C47.1399 77.8191 50.2739 76.5834 50.2739 75.0591C50.2739 73.5348 47.1399 72.2991 43.2739 72.2991C39.4079 72.2991 36.2739 73.5348 36.2739 75.0591C36.2739 76.5834 39.4079 77.8191 43.2739 77.8191Z"
              fill="#B85B3E"/>
    </g>
    <path d="M42.8569 75.994C42.4169 75.994 42.0169 75.914 41.6569 75.754C41.4669 75.684 41.2869 75.584 41.1269 75.454C39.6769 74.434 38.8969 71.964 38.3169 68.454C37.5669 63.914 33.7169 59.354 33.4769 59.074C33.7269 59.184 37.4369 61.004 40.7769 63.984C41.1569 64.314 41.5269 64.664 41.8869 65.034C42.0569 65.204 42.2269 65.384 42.3969 65.564C46.1169 69.594 45.4969 75.994 42.8569 75.994Z"
          fill="#00AC00"/>
    <g style="mix-blend-mode:multiply" opacity="0.2">
        <path d="M42.857 75.9941C42.417 75.9941 42.017 75.9141 41.657 75.7541C41.467 75.6841 41.287 75.5841 41.127 75.4541C40.257 74.0441 39.697 71.8541 39.697 69.3941C39.697 67.2841 40.107 65.3841 40.777 63.9841C41.157 64.3141 41.527 64.6641 41.887 65.0341C42.057 65.2041 42.227 65.3841 42.397 65.5641C46.117 69.5941 45.497 75.9941 42.857 75.9941Z"
              fill="#00AC00"/>
    </g>
    <g style="mix-blend-mode:multiply" opacity="0.2">
        <path d="M42.8569 75.9942C42.4169 75.9942 42.0169 75.9142 41.6569 75.7542C41.0569 74.3942 40.7069 72.6142 40.7069 70.6442C40.7069 68.4242 41.1569 66.4342 41.8869 65.0342C42.0569 65.2042 42.2269 65.3842 42.3969 65.5642C46.1169 69.5942 45.4969 75.9942 42.8569 75.9942Z"
              fill="#00AC00"/>
    </g>
    <path d="M48.178 68.094C48.438 69.834 48.028 72.084 47.148 73.644V73.654C46.828 74.224 46.448 74.704 46.008 75.024C45.948 75.074 45.888 75.114 45.818 75.154C45.338 75.474 44.798 75.604 44.208 75.484C43.918 75.424 43.658 75.314 43.428 75.154C43.168 74.974 42.958 74.744 42.778 74.474C42.688 74.334 42.608 74.194 42.528 74.034C41.718 72.244 42.098 69.314 42.858 67.784C44.548 64.424 48.798 59.324 48.798 59.324C48.798 59.324 47.718 64.944 48.178 68.094Z"
          fill="#5DE572"/>
    <path d="M47.147 73.6441V73.6541C46.827 74.2241 46.447 74.7041 46.007 75.0241C45.947 75.0741 45.887 75.1141 45.817 75.1541C45.337 75.4741 44.797 75.6041 44.207 75.4841C43.917 75.4241 43.657 75.3141 43.427 75.1541C43.167 74.9741 42.957 74.7441 42.777 74.4741C42.687 74.3341 42.607 74.1941 42.527 74.0341C42.567 73.5241 42.657 73.0541 42.787 72.6741C43.717 69.8941 46.457 65.4841 46.457 65.4841C46.457 65.4841 46.227 69.9541 46.927 72.3341C47.047 72.7341 47.127 73.1841 47.147 73.6441Z"
          fill="#20D651"/>
    <path d="M46.137 73.4641C46.167 74.0541 46.037 74.6541 45.817 75.1541C45.337 75.4741 44.797 75.6041 44.207 75.4841C43.917 75.4241 43.657 75.3141 43.427 75.1541C43.437 74.6541 43.557 73.9941 43.767 73.0941C44.317 70.7241 45.617 68.9541 45.617 68.9541C45.617 68.9541 46.037 71.7941 46.137 73.4641Z"
          fill="#5DE572"/>
    <g style="mix-blend-mode:multiply" opacity="0.4">
        <path d="M58.593 69.6582C62.459 69.6582 65.593 68.4225 65.593 66.8982C65.593 65.3739 62.459 64.1382 58.593 64.1382C54.727 64.1382 51.593 65.3739 51.593 66.8982C51.593 68.4225 54.727 69.6582 58.593 69.6582Z"
              fill="#B85B3E"/>
    </g>
    <path d="M58.177 67.8331C57.737 67.8331 57.337 67.7531 56.977 67.5931C56.787 67.5231 56.607 67.4231 56.447 67.2931C54.997 66.2731 54.217 63.8031 53.637 60.2931C52.887 55.7531 49.037 51.1931 48.797 50.9131C49.047 51.0231 52.757 52.8431 56.097 55.8231C56.477 56.1531 56.847 56.5031 57.207 56.8731C57.377 57.0431 57.547 57.2231 57.717 57.4031C61.437 61.4331 60.817 67.8331 58.177 67.8331Z"
          fill="#00AC00"/>
    <g style="mix-blend-mode:multiply" opacity="0.2">
        <path d="M58.1769 67.833C57.7369 67.833 57.337 67.753 56.977 67.593C56.787 67.523 56.607 67.423 56.447 67.293C55.577 65.883 55.017 63.693 55.017 61.233C55.017 59.123 55.427 57.223 56.097 55.823C56.477 56.153 56.8469 56.503 57.2069 56.873C57.3769 57.043 57.5469 57.223 57.7169 57.403C61.4369 61.433 60.8169 67.833 58.1769 67.833Z"
              fill="#00AC00"/>
    </g>
    <g style="mix-blend-mode:multiply" opacity="0.2">
        <path d="M58.177 67.8331C57.737 67.8331 57.337 67.753 56.977 67.593C56.377 66.233 56.027 64.453 56.027 62.483C56.027 60.263 56.477 58.273 57.207 56.873C57.377 57.043 57.547 57.223 57.717 57.403C61.437 61.433 60.817 67.8331 58.177 67.8331Z"
              fill="#00AC00"/>
    </g>
    <path d="M63.4969 59.9331C63.7569 61.6731 63.3469 63.9231 62.4669 65.4831V65.4931C62.1469 66.0631 61.767 66.5431 61.327 66.8631C61.267 66.9131 61.207 66.9531 61.137 66.9931C60.657 67.3131 60.1169 67.4431 59.5269 67.3231C59.2369 67.2631 58.9769 67.1531 58.7469 66.9931C58.4869 66.8131 58.2769 66.5831 58.0969 66.3131C58.0069 66.1731 57.9269 66.0331 57.8469 65.8731C57.0369 64.0831 57.4169 61.1531 58.1769 59.6231C59.8669 56.2631 64.1169 51.1631 64.1169 51.1631C64.1169 51.1631 63.0369 56.7831 63.4969 59.9331Z"
          fill="#5DE572"/>
    <path d="M62.4669 65.483V65.493C62.1469 66.063 61.7669 66.543 61.3269 66.863C61.2669 66.913 61.2069 66.953 61.1369 66.993C60.6569 67.313 60.1169 67.443 59.5269 67.323C59.2369 67.263 58.9769 67.153 58.7469 66.993C58.4869 66.813 58.2769 66.583 58.0969 66.313C58.0069 66.173 57.9269 66.033 57.8469 65.873C57.8869 65.363 57.9769 64.893 58.1069 64.513C59.0369 61.733 61.7769 57.323 61.7769 57.323C61.7769 57.323 61.5469 61.793 62.2469 64.173C62.3669 64.573 62.4469 65.023 62.4669 65.483Z"
          fill="#20D651"/>
    <path d="M61.4569 65.303C61.4869 65.893 61.357 66.493 61.137 66.993C60.657 67.313 60.1169 67.443 59.5269 67.323C59.2369 67.263 58.9769 67.153 58.7469 66.993C58.7569 66.493 58.8769 65.833 59.0869 64.933C59.6369 62.563 60.937 60.793 60.937 60.793C60.937 60.793 61.3569 63.633 61.4569 65.303Z"
          fill="#5DE572"/>
    <g style="mix-blend-mode:multiply" opacity="0.4">
        <path d="M73.913 61.0261C77.779 61.0261 80.913 59.7904 80.913 58.2661C80.913 56.7418 77.779 55.5061 73.913 55.5061C70.047 55.5061 66.913 56.7418 66.913 58.2661C66.913 59.7904 70.047 61.0261 73.913 61.0261Z"
              fill="#B85B3E"/>
    </g>
    <path d="M73.4969 59.202C73.0569 59.202 72.657 59.122 72.297 58.962C72.107 58.892 71.927 58.792 71.767 58.662C70.317 57.642 69.5369 55.172 68.9569 51.662C68.2069 47.122 64.3569 42.562 64.1169 42.282C64.3669 42.392 68.077 44.212 71.417 47.192C71.797 47.522 72.1669 47.872 72.5269 48.242C72.6969 48.412 72.867 48.592 73.037 48.772C76.757 52.802 76.1369 59.202 73.4969 59.202Z"
          fill="#00AC00"/>
    <g style="mix-blend-mode:multiply" opacity="0.2">
        <path d="M73.4969 59.2021C73.0569 59.2021 72.6569 59.1221 72.2969 58.9621C72.1069 58.8921 71.9269 58.7921 71.7669 58.6621C70.8969 57.2521 70.3369 55.0621 70.3369 52.6021C70.3369 50.4921 70.7469 48.5921 71.4169 47.1921C71.7969 47.5221 72.1669 47.8721 72.5269 48.2421C72.6969 48.4121 72.8669 48.5921 73.0369 48.7721C76.7569 52.8021 76.1369 59.2021 73.4969 59.2021Z"
              fill="#00AC00"/>
    </g>
    <g style="mix-blend-mode:multiply" opacity="0.2">
        <path d="M73.4969 59.2022C73.0569 59.2022 72.6569 59.1222 72.2969 58.9622C71.6969 57.6022 71.3469 55.8222 71.3469 53.8522C71.3469 51.6322 71.7969 49.6422 72.5269 48.2422C72.6969 48.4122 72.8669 48.5922 73.0369 48.7722C76.7569 52.8022 76.1369 59.2022 73.4969 59.2022Z"
              fill="#00AC00"/>
    </g>
    <path d="M78.817 51.301C79.077 53.041 78.667 55.291 77.787 56.851V56.861C77.467 57.431 77.087 57.911 76.647 58.231C76.587 58.281 76.527 58.321 76.457 58.361C75.977 58.681 75.437 58.811 74.847 58.691C74.557 58.631 74.297 58.521 74.067 58.361C73.807 58.181 73.597 57.951 73.417 57.681C73.327 57.541 73.247 57.401 73.167 57.241C72.357 55.451 72.737 52.521 73.497 50.991C75.187 47.631 79.437 42.531 79.437 42.531C79.437 42.531 78.357 48.151 78.817 51.301Z"
          fill="#5DE572"/>
    <path d="M77.787 56.8521V56.8621C77.467 57.4321 77.087 57.9121 76.647 58.2321C76.587 58.2821 76.527 58.3221 76.457 58.3621C75.977 58.6821 75.437 58.8121 74.847 58.6921C74.557 58.6321 74.297 58.5221 74.067 58.3621C73.807 58.1821 73.597 57.9521 73.417 57.6821C73.327 57.5421 73.247 57.4021 73.167 57.2421C73.207 56.7321 73.297 56.2621 73.427 55.8821C74.357 53.1021 77.097 48.6921 77.097 48.6921C77.097 48.6921 76.867 53.1621 77.567 55.5421C77.687 55.9421 77.767 56.3921 77.787 56.8521Z"
          fill="#20D651"/>
    <path d="M76.777 56.6711C76.807 57.2611 76.677 57.8611 76.457 58.3611C75.977 58.6811 75.437 58.8111 74.847 58.6911C74.557 58.6311 74.297 58.5211 74.067 58.3611C74.077 57.8611 74.197 57.2011 74.407 56.3011C74.957 53.9311 76.257 52.1611 76.257 52.1611C76.257 52.1611 76.677 55.0011 76.777 56.6711Z"
          fill="#5DE572"/>
    <g style="mix-blend-mode:multiply" opacity="0.4">
        <path d="M13.8319 77.841C17.6979 77.841 20.8319 76.6054 20.8319 75.0811C20.8319 73.5567 17.6979 72.321 13.8319 72.321C9.96592 72.321 6.83191 73.5567 6.83191 75.0811C6.83191 76.6054 9.96592 77.841 13.8319 77.841Z"
              fill="#B85B3E"/>
    </g>
    <path d="M13.416 76.0162C12.976 76.0162 12.576 75.9362 12.216 75.7762C12.026 75.7062 11.846 75.6062 11.686 75.4762C10.236 74.4562 9.45602 71.9862 8.87602 68.4762C8.12602 63.9362 4.27601 59.3762 4.03601 59.0962C4.28601 59.2062 7.99601 61.0262 11.336 64.0062C11.716 64.3362 12.086 64.6862 12.446 65.0562C12.616 65.2262 12.786 65.4062 12.956 65.5862C16.676 69.6162 16.056 76.0162 13.416 76.0162Z"
          fill="#00AC00"/>
    <g style="mix-blend-mode:multiply" opacity="0.2">
        <path d="M13.416 76.0161C12.976 76.0161 12.576 75.9361 12.216 75.7761C12.026 75.7061 11.846 75.6061 11.686 75.4761C10.816 74.0661 10.256 71.8761 10.256 69.4161C10.256 67.3061 10.666 65.4061 11.336 64.0061C11.716 64.3361 12.086 64.6861 12.446 65.0561C12.616 65.2261 12.786 65.4061 12.956 65.5861C16.676 69.6161 16.056 76.0161 13.416 76.0161Z"
              fill="#00AC00"/>
    </g>
    <g style="mix-blend-mode:multiply" opacity="0.2">
        <path d="M13.416 76.0162C12.976 76.0162 12.576 75.9362 12.216 75.7762C11.616 74.4162 11.266 72.6362 11.266 70.6662C11.266 68.4462 11.716 66.4562 12.446 65.0562C12.616 65.2262 12.786 65.4062 12.956 65.5862C16.676 69.6162 16.056 76.0162 13.416 76.0162Z"
              fill="#00AC00"/>
    </g>
    <path d="M18.7359 68.1162C18.9959 69.8562 18.5859 72.1062 17.7059 73.6662V73.6762C17.3859 74.2462 17.0059 74.7262 16.5659 75.0462C16.5059 75.0962 16.446 75.1362 16.376 75.1762C15.896 75.4962 15.356 75.6262 14.766 75.5062C14.476 75.4462 14.2159 75.3362 13.9859 75.1762C13.7259 74.9962 13.516 74.7662 13.336 74.4962C13.246 74.3562 13.166 74.2162 13.086 74.0562C12.276 72.2662 12.656 69.3362 13.416 67.8062C15.106 64.4462 19.356 59.3462 19.356 59.3462C19.356 59.3462 18.2759 64.9662 18.7359 68.1162Z"
          fill="#5DE572"/>
    <path d="M17.7059 73.6661V73.6761C17.3859 74.2461 17.0059 74.7261 16.5659 75.0461C16.5059 75.0961 16.4459 75.1361 16.3759 75.1761C15.8959 75.4961 15.3559 75.6261 14.7659 75.5061C14.4759 75.4461 14.2159 75.3361 13.9859 75.1761C13.7259 74.9961 13.5159 74.7661 13.3359 74.4961C13.2459 74.3561 13.1659 74.2161 13.0859 74.0561C13.1259 73.5461 13.2159 73.0761 13.3459 72.6961C14.2759 69.9161 17.0159 65.5061 17.0159 65.5061C17.0159 65.5061 16.7859 69.9761 17.4859 72.3561C17.6059 72.7561 17.6859 73.2061 17.7059 73.6661Z"
          fill="#20D651"/>
    <path d="M16.696 73.4861C16.726 74.0761 16.596 74.6761 16.376 75.1761C15.896 75.4961 15.356 75.6261 14.766 75.5061C14.476 75.4461 14.216 75.3361 13.986 75.1761C13.996 74.6761 14.116 74.0161 14.326 73.1161C14.876 70.7461 16.176 68.9761 16.176 68.9761C16.176 68.9761 16.596 71.8161 16.696 73.4861Z"
          fill="#5DE572"/>
    <g style="mix-blend-mode:multiply" opacity="0.4">
        <path d="M28.75 69.5371C32.616 69.5371 35.75 68.3014 35.75 66.7771C35.75 65.2528 32.616 64.0171 28.75 64.0171C24.884 64.0171 21.75 65.2528 21.75 66.7771C21.75 68.3014 24.884 69.5371 28.75 69.5371Z"
              fill="#B85B3E"/>
    </g>
    <path d="M28.334 67.713C27.894 67.713 27.494 67.633 27.134 67.473C26.944 67.403 26.764 67.303 26.604 67.173C25.154 66.153 24.374 63.683 23.794 60.173C23.044 55.633 19.194 51.073 18.954 50.793C19.204 50.903 22.914 52.723 26.254 55.703C26.634 56.033 27.004 56.383 27.364 56.753C27.534 56.923 27.704 57.103 27.874 57.283C31.594 61.313 30.974 67.713 28.334 67.713Z"
          fill="#00AC00"/>
    <g style="mix-blend-mode:multiply" opacity="0.2">
        <path d="M28.334 67.7131C27.894 67.7131 27.4939 67.6331 27.1339 67.4731C26.9439 67.4031 26.7639 67.3031 26.6039 67.1731C25.7339 65.7631 25.174 63.5731 25.174 61.1131C25.174 59.0031 25.584 57.1031 26.254 55.7031C26.634 56.0331 27.004 56.3831 27.364 56.7531C27.534 56.9231 27.704 57.1031 27.874 57.2831C31.594 61.3131 30.974 67.7131 28.334 67.7131Z"
              fill="#00AC00"/>
    </g>
    <g style="mix-blend-mode:multiply" opacity="0.2">
        <path d="M28.334 67.7132C27.894 67.7132 27.4939 67.6332 27.1339 67.4732C26.5339 66.1132 26.184 64.3332 26.184 62.3632C26.184 60.1432 26.634 58.1532 27.364 56.7532C27.534 56.9232 27.704 57.1032 27.874 57.2832C31.594 61.3132 30.974 67.7132 28.334 67.7132Z"
              fill="#00AC00"/>
    </g>
    <path d="M33.6539 59.812C33.9139 61.552 33.5039 63.802 32.6239 65.362V65.372C32.3039 65.942 31.9239 66.422 31.4839 66.742C31.4239 66.792 31.3639 66.832 31.2939 66.872C30.8139 67.192 30.2739 67.322 29.6839 67.202C29.3939 67.142 29.1339 67.032 28.9039 66.872C28.6439 66.692 28.4339 66.462 28.2539 66.192C28.1639 66.052 28.0839 65.912 28.0039 65.752C27.1939 63.962 27.5739 61.032 28.3339 59.502C30.0239 56.142 34.2739 51.042 34.2739 51.042C34.2739 51.042 33.1939 56.662 33.6539 59.812Z"
          fill="#5DE572"/>
    <path d="M32.624 65.3631V65.3731C32.304 65.9431 31.924 66.4231 31.484 66.7431C31.424 66.7931 31.364 66.8331 31.294 66.8731C30.814 67.1931 30.274 67.3231 29.684 67.2031C29.394 67.1431 29.134 67.0331 28.904 66.8731C28.644 66.6931 28.434 66.4631 28.254 66.1931C28.164 66.0531 28.084 65.9131 28.004 65.7531C28.044 65.2431 28.134 64.7731 28.264 64.3931C29.194 61.6131 31.934 57.2031 31.934 57.2031C31.934 57.2031 31.704 61.6731 32.404 64.0531C32.524 64.4531 32.604 64.9031 32.624 65.3631Z"
          fill="#20D651"/>
    <path d="M31.6139 65.1821C31.6439 65.7721 31.5139 66.3721 31.2939 66.8721C30.8139 67.1921 30.2739 67.3221 29.6839 67.2021C29.3939 67.1421 29.1339 67.0321 28.9039 66.8721C28.9139 66.3721 29.0339 65.7121 29.2439 64.8121C29.7939 62.4421 31.0939 60.6721 31.0939 60.6721C31.0939 60.6721 31.5139 63.5121 31.6139 65.1821Z"
          fill="#5DE572"/>
    <g style="mix-blend-mode:multiply" opacity="0.4">
        <path d="M44.0699 61.376C47.9359 61.376 51.0699 60.1403 51.0699 58.616C51.0699 57.0916 47.9359 55.856 44.0699 55.856C40.204 55.856 37.0699 57.0916 37.0699 58.616C37.0699 60.1403 40.204 61.376 44.0699 61.376Z"
              fill="#B85B3E"/>
    </g>
    <path d="M43.6539 59.5521C43.2139 59.5521 42.8139 59.4721 42.4539 59.3121C42.2639 59.2421 42.0839 59.1421 41.9239 59.0121C40.4739 57.9921 39.6939 55.5221 39.1139 52.0121C38.3639 47.4721 34.5139 42.9121 34.2739 42.6321C34.5239 42.7421 38.2339 44.5621 41.5739 47.5421C41.9539 47.8721 42.3239 48.2221 42.6839 48.5921C42.8539 48.7621 43.0239 48.9421 43.1939 49.1221C46.9139 53.1521 46.2939 59.5521 43.6539 59.5521Z"
          fill="#00AC00"/>
    <g style="mix-blend-mode:multiply" opacity="0.2">
        <path d="M43.654 59.552C43.214 59.552 42.814 59.472 42.454 59.312C42.264 59.242 42.084 59.142 41.924 59.012C41.054 57.602 40.494 55.412 40.494 52.952C40.494 50.842 40.904 48.942 41.574 47.542C41.954 47.872 42.324 48.222 42.684 48.592C42.854 48.762 43.024 48.942 43.194 49.122C46.914 53.152 46.294 59.552 43.654 59.552Z"
              fill="#00AC00"/>
    </g>
    <g style="mix-blend-mode:multiply" opacity="0.2">
        <path d="M43.654 59.552C43.214 59.552 42.814 59.472 42.454 59.312C41.854 57.952 41.504 56.172 41.504 54.202C41.504 51.982 41.954 49.992 42.684 48.592C42.854 48.762 43.024 48.942 43.194 49.122C46.914 53.152 46.294 59.552 43.654 59.552Z"
              fill="#00AC00"/>
    </g>
    <path d="M48.974 51.6511C49.234 53.3911 48.824 55.6411 47.944 57.2011V57.2111C47.624 57.7811 47.244 58.2611 46.804 58.5811C46.744 58.6311 46.684 58.6711 46.614 58.7111C46.134 59.0311 45.594 59.1611 45.004 59.0411C44.714 58.9811 44.454 58.8711 44.224 58.7111C43.964 58.5311 43.754 58.3011 43.574 58.0311C43.484 57.8911 43.404 57.7511 43.324 57.5911C42.514 55.8011 42.894 52.8711 43.654 51.3411C45.344 47.9811 49.594 42.8811 49.594 42.8811C49.594 42.8811 48.514 48.5011 48.974 51.6511Z"
          fill="#5DE572"/>
    <path d="M47.944 57.202V57.212C47.624 57.782 47.244 58.262 46.804 58.582C46.744 58.632 46.684 58.672 46.614 58.712C46.134 59.032 45.594 59.162 45.004 59.042C44.714 58.982 44.454 58.872 44.224 58.712C43.964 58.532 43.754 58.302 43.574 58.032C43.484 57.892 43.404 57.752 43.324 57.592C43.364 57.082 43.454 56.612 43.584 56.232C44.514 53.452 47.254 49.042 47.254 49.042C47.254 49.042 47.024 53.512 47.724 55.892C47.844 56.292 47.924 56.742 47.944 57.202Z"
          fill="#20D651"/>
    <path d="M46.934 57.021C46.964 57.611 46.834 58.211 46.614 58.711C46.134 59.031 45.594 59.161 45.004 59.041C44.714 58.981 44.454 58.871 44.224 58.711C44.234 58.211 44.354 57.551 44.564 56.651C45.114 54.281 46.414 52.511 46.414 52.511C46.414 52.511 46.834 55.351 46.934 57.021Z"
          fill="#5DE572"/>
    <g style="mix-blend-mode:multiply" opacity="0.4">
        <path d="M59.3889 52.7441C63.2549 52.7441 66.3889 51.5084 66.3889 49.9841C66.3889 48.4598 63.2549 47.2241 59.3889 47.2241C55.5229 47.2241 52.3889 48.4598 52.3889 49.9841C52.3889 51.5084 55.5229 52.7441 59.3889 52.7441Z"
              fill="#B85B3E"/>
    </g>
    <path d="M58.973 50.92C58.533 50.92 58.133 50.84 57.773 50.68C57.583 50.61 57.403 50.51 57.243 50.38C55.793 49.36 55.013 46.89 54.433 43.38C53.683 38.84 49.833 34.28 49.593 34C49.843 34.11 53.553 35.93 56.893 38.91C57.273 39.24 57.643 39.59 58.003 39.96C58.173 40.13 58.343 40.31 58.513 40.49C62.233 44.52 61.613 50.92 58.973 50.92Z"
          fill="#00AC00"/>
    <g style="mix-blend-mode:multiply" opacity="0.2">
        <path d="M58.973 50.9202C58.533 50.9202 58.133 50.8402 57.773 50.6802C57.583 50.6102 57.403 50.5102 57.243 50.3802C56.373 48.9702 55.813 46.7802 55.813 44.3202C55.813 42.2102 56.223 40.3102 56.893 38.9102C57.273 39.2402 57.643 39.5902 58.003 39.9602C58.173 40.1302 58.343 40.3102 58.513 40.4902C62.233 44.5202 61.613 50.9202 58.973 50.9202Z"
              fill="#00AC00"/>
    </g>
    <g style="mix-blend-mode:multiply" opacity="0.2">
        <path d="M58.973 50.92C58.533 50.92 58.133 50.84 57.773 50.68C57.173 49.32 56.823 47.54 56.823 45.57C56.823 43.35 57.273 41.36 58.003 39.96C58.173 40.13 58.343 40.31 58.513 40.49C62.233 44.52 61.613 50.92 58.973 50.92Z"
              fill="#00AC00"/>
    </g>
    <path d="M64.293 43.02C64.553 44.76 64.1429 47.01 63.2629 48.57V48.58C62.9429 49.15 62.563 49.63 62.123 49.95C62.063 50 62.003 50.04 61.933 50.08C61.453 50.4 60.913 50.53 60.323 50.41C60.033 50.35 59.773 50.24 59.543 50.08C59.283 49.9 59.073 49.67 58.893 49.4C58.803 49.26 58.723 49.12 58.643 48.96C57.833 47.17 58.213 44.24 58.973 42.71C60.663 39.35 64.913 34.25 64.913 34.25C64.913 34.25 63.833 39.87 64.293 43.02Z"
          fill="#5DE572"/>
    <path d="M63.2629 48.5702V48.5802C62.9429 49.1502 62.563 49.6301 62.123 49.9501C62.063 50.0001 62.003 50.0402 61.933 50.0802C61.453 50.4002 60.913 50.5302 60.323 50.4102C60.033 50.3502 59.773 50.2402 59.543 50.0802C59.283 49.9002 59.0729 49.6701 58.8929 49.4001C58.8029 49.2601 58.7229 49.1202 58.6429 48.9602C58.6829 48.4502 58.773 47.9802 58.903 47.6002C59.833 44.8202 62.573 40.4102 62.573 40.4102C62.573 40.4102 62.343 44.8801 63.043 47.2601C63.163 47.6601 63.2429 48.1102 63.2629 48.5702Z"
          fill="#20D651"/>
    <path d="M62.253 48.3901C62.283 48.9801 62.153 49.5801 61.933 50.0801C61.453 50.4001 60.913 50.5301 60.323 50.4101C60.033 50.3501 59.773 50.2401 59.543 50.0801C59.553 49.5801 59.673 48.9201 59.883 48.0201C60.433 45.6501 61.7329 43.8801 61.7329 43.8801C61.7329 43.8801 62.153 46.7201 62.253 48.3901Z"
          fill="#5DE572"/>
</svg>
