<svg width="117" height="134" viewBox="0 0 117 134" fill="none" xmlns="http://www.w3.org/2000/svg">
    <path d="M115.7 99.983V82.974L113.273 82.307L113.141 83.1621L62.5035 57.392C59.9715 55.93 55.8665 55.93 53.3345 57.392L3.16446 82.423L0.136475 83.09V99.9941C0.136475 100.952 0.769461 101.91 2.03546 102.641L53.3345 132.259C55.8665 133.721 59.9715 133.721 62.5035 132.259L113.802 102.642C115.073 101.908 115.706 100.945 115.701 99.983H115.7Z"
          fill="#A8522A"/>
    <path d="M115.7 84.2861V80.8831H113.273L113.141 81.2701L62.5035 52.0341C59.9715 50.5721 55.8665 50.5721 53.3345 52.0341L3.16446 81.0001H0.136475V84.2981C0.136475 85.2561 0.769461 86.2141 2.03546 86.9461L53.3345 116.563C55.8665 118.025 59.9715 118.025 62.5035 116.563L113.802 86.9461C115.073 86.2121 115.706 85.2491 115.701 84.2871L115.7 84.2861Z"
          fill="#C16037"/>
    <path d="M115.7 81.312V77.909H113.273L113.141 78.296L62.5035 49.06C59.9715 47.598 55.8665 47.598 53.3345 49.06L3.16446 78.026H0.136475V81.324C0.136475 82.282 0.769461 83.24 2.03546 83.971L53.3345 113.589C55.8665 115.05 59.9715 115.05 62.5035 113.589L113.802 83.972C115.073 83.238 115.706 82.275 115.701 81.313L115.7 81.312Z"
          fill="#C16037"/>
    <path d="M57.9345 56.297C56.2705 56.295 54.6045 56.66 53.3345 57.393L3.16446 82.424L0.136475 83.091V99.995C0.136475 100.953 0.769461 101.911 2.03546 102.642L53.3345 132.26C54.6045 132.993 56.2705 133.358 57.9345 133.356V56.298V56.297Z"
          fill="#C96A3E"/>
    <path d="M57.9345 50.9381C56.2705 50.9361 54.6045 51.3011 53.3345 52.0341L3.16446 81.0001H0.136475V84.2981C0.136475 85.2561 0.769461 86.2141 2.03546 86.9461L53.3345 116.563C54.6045 117.296 56.2705 117.661 57.9345 117.659V50.9381Z"
          fill="#EA8F67"/>
    <path d="M57.9345 47.9641C56.2705 47.9621 54.6045 48.3271 53.3345 49.0601L3.16446 78.0261H0.136475V81.3241C0.136475 82.2821 0.769461 83.2401 2.03546 83.9711L53.3345 113.589C54.6045 114.322 56.2705 114.687 57.9345 114.685V47.9641Z"
          fill="#EA8F67"/>
    <path d="M62.5025 110.29C59.9705 111.752 55.8655 111.752 53.3345 110.29L2.03547 80.6731C-0.496525 79.2111 -0.496525 76.8411 2.03547 75.3791L53.3345 45.7621C55.8665 44.3001 59.9715 44.3001 62.5025 45.7621L113.801 75.3791C116.333 76.8411 116.333 79.2111 113.801 80.6731L62.5025 110.29Z"
          fill="#D2704A"/>
    <path d="M71.4914 50.77L71.4604 50.86L59.6674 44.052C59.0774 43.712 58.1214 43.712 57.5324 44.052L45.8494 50.797H45.1444V53.11C45.1444 53.333 45.2914 52.704 45.5864 52.874L57.5324 60.624C58.1224 60.964 59.0784 60.964 59.6674 60.624L71.6134 53.727C71.9094 53.556 72.0564 53.332 72.0554 53.108V50.77H71.4904H71.4914Z"
          fill="#97AB00"/>
    <path d="M57.5335 44.052L45.8505 50.797H45.1455V53.11C45.1455 53.333 45.2925 53.556 45.5875 53.727L57.5335 60.624C57.8295 60.795 58.2175 60.88 58.6045 60.879V43.796C58.2165 43.796 57.8295 43.881 57.5335 44.052Z"
          fill="#A5BA00"/>
    <path d="M59.6684 58.3111C59.0784 58.6511 58.1224 58.6511 57.5334 58.3111L45.5874 51.4141C44.9974 51.0741 44.9974 50.5221 45.5874 50.1811L57.5334 43.2841C58.1234 42.9441 59.0794 42.9441 59.6684 43.2841L71.6144 50.1811C72.2044 50.5211 72.2044 51.0731 71.6144 51.4141L59.6684 58.3111Z"
          fill="#BFD600"/>
    <path d="M56.4665 59.4631L56.4355 59.5531L44.6425 52.7451C44.0525 52.4051 43.0965 52.4051 42.5075 52.7451L30.8245 59.4901H30.1195V61.8031C30.1195 62.0261 30.2665 61.3971 30.5615 61.5671L42.5075 69.3171C43.0975 69.6571 44.0535 69.6571 44.6425 69.3171L56.5885 62.4201C56.8845 62.2491 57.0315 62.0251 57.0305 61.8011V59.4631H56.4665Z"
          fill="#97AB00"/>
    <path d="M42.5075 52.744L30.8245 59.489H30.1195V61.802C30.1195 62.025 30.2665 62.248 30.5615 62.419L42.5075 69.316C42.8035 69.487 43.1915 69.572 43.5785 69.571V52.488C43.1905 52.488 42.8035 52.572 42.5075 52.743V52.744Z"
          fill="#A5BA00"/>
    <path d="M44.6425 67.004C44.0525 67.344 43.0965 67.344 42.5075 67.004L30.5615 60.1071C29.9715 59.7671 29.9715 59.215 30.5615 58.874L42.5075 51.977C43.0975 51.637 44.0535 51.637 44.6425 51.977L56.5885 58.874C57.1785 59.214 57.1785 59.7661 56.5885 60.1071L44.6425 67.004Z"
          fill="#BFD600"/>
    <path d="M41.3725 68.1041L41.3415 68.1941L29.5485 61.3861C28.9585 61.0461 28.0025 61.0461 27.4135 61.3861L15.7305 68.1311H15.0255V70.4441C15.0255 70.6671 15.1725 70.0381 15.4675 70.2081L27.4135 77.9581C28.0035 78.2981 28.9595 78.2981 29.5485 77.9581L41.4945 71.0611C41.7905 70.8901 41.9375 70.6661 41.9365 70.4421V68.1041H41.3715H41.3725Z"
          fill="#97AB00"/>
    <path d="M27.4145 61.386L15.7315 68.131H15.0265V70.444C15.0265 70.667 15.1735 70.89 15.4685 71.061L27.4145 77.958C27.7105 78.129 28.0985 78.214 28.4855 78.213V61.13C28.0975 61.13 27.7105 61.214 27.4145 61.385V61.386Z"
          fill="#A5BA00"/>
    <path d="M29.5495 75.645C28.9595 75.985 28.0035 75.985 27.4145 75.645L15.4685 68.748C14.8785 68.408 14.8785 67.856 15.4685 67.515L27.4145 60.618C28.0045 60.278 28.9605 60.278 29.5495 60.618L41.4955 67.515C42.0855 67.855 42.0855 68.407 41.4955 68.748L29.5495 75.645Z"
          fill="#BFD600"/>
    <path d="M26.3475 76.7971L26.3165 76.8871L14.5235 70.0791C13.9335 69.7391 12.9775 69.7391 12.3885 70.0791L0.705505 76.8241H0.000488281V79.1371C0.000488281 79.3601 0.147505 78.7311 0.442505 78.9011L12.3885 86.6511C12.9785 86.9911 13.9345 86.9911 14.5235 86.6511L26.4695 79.7541C26.7655 79.5831 26.9125 79.3591 26.9115 79.1351V76.7971H26.3465H26.3475Z"
          fill="#97AB00"/>
    <path d="M12.3885 70.0791L0.705505 76.8241H0.000488281V79.1371C0.000488281 79.3601 0.147505 79.5831 0.442505 79.7541L12.3885 86.6511C12.6845 86.8221 13.0725 86.9071 13.4595 86.9061V69.8231C13.0715 69.8231 12.6845 69.9071 12.3885 70.0781V70.0791Z"
          fill="#A5BA00"/>
    <path d="M14.5235 84.338C13.9335 84.678 12.9775 84.678 12.3885 84.338L0.4425 77.441C-0.1475 77.101 -0.1475 76.549 0.4425 76.208L12.3885 69.311C12.9785 68.971 13.9345 68.971 14.5235 69.311L26.4695 76.208C27.0595 76.548 27.0595 77.1 26.4695 77.441L14.5235 84.338Z"
          fill="#BFD600"/>
    <path d="M86.0155 59.1791L85.9845 59.2691L74.1915 52.4611C73.6015 52.1211 72.6455 52.1211 72.0565 52.4611L60.3735 59.2061H59.6685V61.5191C59.6685 61.7421 59.8155 61.1131 60.1105 61.2831L72.0565 69.0331C72.6465 69.3731 73.6025 69.3731 74.1915 69.0331L86.1375 62.1361C86.4335 61.9651 86.5805 61.7411 86.5795 61.5171V59.1791H86.0145H86.0155Z"
          fill="#97AB00"/>
    <path d="M72.0565 52.4601L60.3735 59.2051H59.6685V61.5181C59.6685 61.7411 59.8155 61.9641 60.1105 62.1351L72.0565 69.0321C72.3525 69.2031 72.7405 69.2881 73.1275 69.2871V52.2041C72.7395 52.2041 72.3525 52.2881 72.0565 52.4591V52.4601Z"
          fill="#A5BA00"/>
    <path d="M74.1915 66.7201C73.6015 67.0601 72.6455 67.0601 72.0565 66.7201L60.1105 59.8231C59.5205 59.4831 59.5205 58.9311 60.1105 58.5901L72.0565 51.6931C72.6465 51.3531 73.6025 51.3531 74.1915 51.6931L86.1375 58.5901C86.7275 58.9301 86.7275 59.4821 86.1375 59.8231L74.1915 66.7201Z"
          fill="#BFD600"/>
    <path d="M70.9894 67.8711L70.9584 67.9611L59.1654 61.1531C58.5754 60.8131 57.6194 60.8131 57.0304 61.1531L45.3474 67.8981H44.6425V70.2111C44.6425 70.4341 44.7894 69.8051 45.0844 69.9751L57.0304 77.7251C57.6204 78.0651 58.5764 78.0651 59.1654 77.7251L71.1115 70.8281C71.4074 70.6571 71.5544 70.4331 71.5534 70.2091V67.8711H70.9884H70.9894Z"
          fill="#97AB00"/>
    <path d="M57.0314 61.1531L45.3484 67.8981H44.6434V70.2111C44.6434 70.4341 44.7904 70.6571 45.0854 70.8281L57.0314 77.7251C57.3274 77.8961 57.7154 77.9811 58.1024 77.9801V60.8971C57.7144 60.8971 57.3274 60.9811 57.0314 61.1521V61.1531Z"
          fill="#A5BA00"/>
    <path d="M59.1664 75.412C58.5764 75.752 57.6204 75.752 57.0314 75.412L45.0854 68.515C44.4954 68.175 44.4954 67.623 45.0854 67.282L57.0314 60.385C57.6214 60.045 58.5774 60.045 59.1664 60.385L71.1124 67.282C71.7024 67.622 71.7024 68.174 71.1124 68.515L59.1664 75.412Z"
          fill="#BFD600"/>
    <path d="M55.8955 76.513L55.8645 76.603L44.0715 69.795C43.4815 69.455 42.5255 69.455 41.9365 69.795L30.2535 76.54H29.5485V78.853C29.5485 79.076 29.6955 78.447 29.9905 78.617L41.9365 86.367C42.5265 86.707 43.4825 86.707 44.0715 86.367L56.0175 79.47C56.3135 79.299 56.4605 79.075 56.4595 78.851V76.513H55.8945H55.8955Z"
          fill="#97AB00"/>
    <path d="M41.9374 69.7951L30.2545 76.5401H29.5494V78.8531C29.5494 79.0761 29.6965 79.2991 29.9915 79.4701L41.9374 86.3671C42.2334 86.5381 42.6215 86.6231 43.0085 86.6221V69.5391C42.6205 69.5391 42.2334 69.6231 41.9374 69.7941V69.7951Z"
          fill="#A5BA00"/>
    <path d="M44.0724 84.0541C43.4824 84.3941 42.5264 84.3941 41.9374 84.0541L29.9915 77.1571C29.4015 76.8171 29.4015 76.2651 29.9915 75.9241L41.9374 69.0271C42.5274 68.6871 43.4834 68.6871 44.0724 69.0271L56.0184 75.9241C56.6084 76.2641 56.6084 76.8161 56.0184 77.1571L44.0724 84.0541Z"
          fill="#BFD600"/>
    <path d="M40.8706 85.206L40.8396 85.296L29.0466 78.488C28.4566 78.148 27.5006 78.148 26.9116 78.488L15.2286 85.233H14.5236V87.546C14.5236 87.769 14.6706 87.14 14.9656 87.31L26.9116 95.06C27.5016 95.4 28.4576 95.4 29.0466 95.06L40.9926 88.1631C41.2886 87.9921 41.4356 87.768 41.4346 87.544V85.206H40.8696H40.8706Z"
          fill="#97AB00"/>
    <path d="M26.9116 78.4871L15.2286 85.2321H14.5236V87.5451C14.5236 87.7681 14.6706 87.9911 14.9656 88.1621L26.9116 95.0591C27.2076 95.2301 27.5956 95.3151 27.9826 95.3141V78.2311C27.5946 78.2311 27.2076 78.3161 26.9116 78.4871Z"
          fill="#A5BA00"/>
    <path d="M29.0466 92.7471C28.4566 93.0871 27.5006 93.0871 26.9116 92.7471L14.9656 85.8501C14.3756 85.5101 14.3756 84.9581 14.9656 84.6171L26.9116 77.7201C27.5016 77.3801 28.4576 77.3801 29.0466 77.7201L40.9925 84.6171C41.5825 84.9571 41.5825 85.5091 40.9925 85.8501L29.0466 92.7471Z"
          fill="#BFD600"/>
    <path d="M101.04 67.7711L101.009 67.8611L89.2165 61.0531C88.6265 60.7131 87.6705 60.7131 87.0815 61.0531L75.3985 67.7981H74.6935V70.1111C74.6935 70.3341 74.8405 69.7051 75.1355 69.8751L87.0815 77.6251C87.6715 77.9651 88.6275 77.9651 89.2165 77.6251L101.162 70.7281C101.458 70.5571 101.605 70.3331 101.604 70.1091V67.7711H101.039H101.04Z"
          fill="#97AB00"/>
    <path d="M87.0825 61.053L75.3995 67.798H74.6945V70.111C74.6945 70.334 74.8415 70.557 75.1365 70.728L87.0825 77.625C87.3785 77.796 87.7665 77.881 88.1535 77.88V60.797C87.7655 60.797 87.3785 60.881 87.0825 61.052V61.053Z"
          fill="#A5BA00"/>
    <path d="M89.2175 75.312C88.6275 75.652 87.6715 75.652 87.0825 75.312L75.1365 68.415C74.5465 68.075 74.5465 67.523 75.1365 67.182L87.0825 60.285C87.6725 59.945 88.6285 59.945 89.2175 60.285L101.163 67.182C101.753 67.522 101.753 68.074 101.163 68.415L89.2175 75.312Z"
          fill="#BFD600"/>
    <path d="M86.0155 76.4641L85.9845 76.5541L74.1915 69.7461C73.6015 69.4061 72.6455 69.4061 72.0565 69.7461L60.3735 76.4911H59.6685V78.8041C59.6685 79.0271 59.8155 78.3981 60.1105 78.5681L72.0565 86.3181C72.6465 86.6581 73.6025 86.6581 74.1915 86.3181L86.1375 79.4211C86.4335 79.2501 86.5805 79.0261 86.5795 78.8021V76.4641H86.0145H86.0155Z"
          fill="#97AB00"/>
    <path d="M72.0565 69.7461L60.3735 76.4911H59.6685V78.8041C59.6685 79.0271 59.8155 79.2501 60.1105 79.4211L72.0565 86.3181C72.3525 86.4891 72.7405 86.5741 73.1275 86.5731V69.4901C72.7395 69.4901 72.3525 69.5741 72.0565 69.7451V69.7461Z"
          fill="#A5BA00"/>
    <path d="M74.1915 84.005C73.6015 84.345 72.6455 84.345 72.0565 84.005L60.1105 77.108C59.5205 76.768 59.5205 76.216 60.1105 75.875L72.0565 68.978C72.6465 68.638 73.6025 68.638 74.1915 68.978L86.1375 75.875C86.7275 76.215 86.7275 76.767 86.1375 77.108L74.1915 84.005Z"
          fill="#BFD600"/>
    <path d="M70.9215 85.1061L70.8905 85.1961L59.0975 78.3881C58.5075 78.0481 57.5515 78.0481 56.9625 78.3881L45.2795 85.1331H44.5745V87.4461C44.5745 87.6691 44.7215 87.0401 45.0165 87.2101L56.9625 94.9601C57.5525 95.3001 58.5085 95.3001 59.0975 94.9601L71.0435 88.0631C71.3395 87.8921 71.4865 87.6681 71.4855 87.4441V85.1061H70.9205H70.9215Z"
          fill="#97AB00"/>
    <path d="M56.9636 78.3871L45.2805 85.1321H44.5756V87.4451C44.5756 87.6681 44.7226 87.8911 45.0176 88.0621L56.9636 94.9591C57.2596 95.1301 57.6476 95.2151 58.0346 95.2141V78.1311C57.6466 78.1311 57.2596 78.2151 56.9636 78.3861V78.3871Z"
          fill="#A5BA00"/>
    <path d="M59.0986 92.6471C58.5086 92.9871 57.5526 92.9871 56.9636 92.6471L45.0176 85.7501C44.4276 85.4101 44.4276 84.8581 45.0176 84.5171L56.9636 77.6201C57.5536 77.2801 58.5096 77.2801 59.0986 77.6201L71.0445 84.5171C71.6346 84.8571 71.6346 85.4091 71.0445 85.7501L59.0986 92.6471Z"
          fill="#BFD600"/>
    <path d="M55.8955 93.7981L55.8645 93.8881L44.0715 87.0801C43.4815 86.7401 42.5255 86.7401 41.9365 87.0801L30.2535 93.8251H29.5485V96.1381C29.5485 96.3611 29.6955 95.7321 29.9905 95.9021L41.9365 103.652C42.5265 103.992 43.4825 103.992 44.0715 103.652L56.0175 96.7551C56.3135 96.5841 56.4605 96.3601 56.4595 96.1361V93.7981H55.8945H55.8955Z"
          fill="#97AB00"/>
    <path d="M41.9374 87.0801L30.2545 93.8251H29.5494V96.1381C29.5494 96.3611 29.6965 96.5841 29.9915 96.7551L41.9374 103.652C42.2334 103.823 42.6215 103.908 43.0085 103.907V86.8241C42.6205 86.8241 42.2334 86.9081 41.9374 87.0791V87.0801Z"
          fill="#A5BA00"/>
    <path d="M44.0724 101.339C43.4824 101.679 42.5264 101.679 41.9374 101.339L29.9915 94.442C29.4015 94.102 29.4015 93.55 29.9915 93.209L41.9374 86.312C42.5274 85.972 43.4834 85.972 44.0724 86.312L56.0184 93.209C56.6084 93.549 56.6084 94.101 56.0184 94.442L44.0724 101.339Z"
          fill="#BFD600"/>
    <path d="M115.958 76.4281L115.927 76.5181L104.134 69.7101C103.544 69.3701 102.588 69.3701 101.999 69.7101L90.3164 76.4551H89.6115V78.7681C89.6115 78.9911 89.7584 78.3621 90.0534 78.5321L101.999 86.2821C102.589 86.6221 103.545 86.6221 104.134 86.2821L116.08 79.3851C116.376 79.2141 116.523 78.9901 116.522 78.7661V76.4281H115.957H115.958Z"
          fill="#97AB00"/>
    <path d="M101.999 69.7101L90.3164 76.4551H89.6115V78.7681C89.6115 78.9911 89.7584 79.2141 90.0534 79.3851L101.999 86.2821C102.295 86.4531 102.683 86.5381 103.07 86.5371V69.4541C102.682 69.4541 102.295 69.5381 101.999 69.7091V69.7101Z"
          fill="#A5BA00"/>
    <path d="M104.134 83.9691C103.544 84.3091 102.588 84.3091 101.999 83.9691L90.0535 77.0721C89.4635 76.7321 89.4635 76.1801 90.0535 75.8391L101.999 68.9421C102.589 68.6021 103.545 68.6021 104.134 68.9421L116.08 75.8391C116.67 76.1791 116.67 76.7311 116.08 77.0721L104.134 83.9691Z"
          fill="#BFD600"/>
    <path d="M100.933 85.1211L100.902 85.2111L89.1086 78.4031C88.5186 78.0631 87.5626 78.0631 86.9736 78.4031L75.2906 85.1481H74.5856V87.4611C74.5856 87.6841 74.7326 87.0551 75.0276 87.2251L86.9736 94.9751C87.5636 95.3151 88.5196 95.3151 89.1086 94.9751L101.055 88.0781C101.351 87.9071 101.498 87.6831 101.497 87.4591V85.1211H100.932H100.933Z"
          fill="#97AB00"/>
    <path d="M86.9745 78.4031L75.2915 85.1481H74.5865V87.4611C74.5865 87.6841 74.7335 87.9071 75.0285 88.0781L86.9745 94.9751C87.2705 95.1461 87.6585 95.2311 88.0455 95.2301V78.1471C87.6575 78.1471 87.2705 78.2311 86.9745 78.4021V78.4031Z"
          fill="#A5BA00"/>
    <path d="M89.1096 92.662C88.5196 93.002 87.5635 93.002 86.9745 92.662L75.0286 85.765C74.4386 85.425 74.4386 84.873 75.0286 84.532L86.9745 77.635C87.5645 77.295 88.5206 77.295 89.1096 77.635L101.056 84.532C101.646 84.872 101.646 85.424 101.056 85.765L89.1096 92.662Z"
          fill="#BFD600"/>
    <path d="M85.8396 93.7621L85.8086 93.8521L74.0156 87.0441C73.4256 86.7041 72.4696 86.7041 71.8806 87.0441L60.1976 93.7891H59.4926V96.1021C59.4926 96.3251 59.6396 95.6961 59.9346 95.8661L71.8806 103.616C72.4706 103.956 73.4266 103.956 74.0156 103.616L85.9616 96.7191C86.2576 96.5481 86.4046 96.3241 86.4036 96.1001V93.7621H85.8386H85.8396Z"
          fill="#97AB00"/>
    <path d="M71.8806 87.0441L60.1976 93.7891H59.4926V96.1021C59.4926 96.3251 59.6396 96.5481 59.9346 96.7191L71.8806 103.616C72.1766 103.787 72.5646 103.872 72.9516 103.871V86.7881C72.5636 86.7881 72.1766 86.8721 71.8806 87.0431V87.0441Z"
          fill="#A5BA00"/>
    <path d="M74.0156 101.303C73.4256 101.643 72.4695 101.643 71.8805 101.303L59.9346 94.4061C59.3446 94.0661 59.3446 93.5141 59.9346 93.1731L71.8805 86.2761C72.4705 85.9361 73.4266 85.9361 74.0156 86.2761L85.9616 93.1731C86.5516 93.5131 86.5516 94.0651 85.9616 94.4061L74.0156 101.303Z"
          fill="#BFD600"/>
    <path d="M70.8134 102.455L70.7824 102.545L58.9894 95.7371C58.3994 95.3971 57.4434 95.3971 56.8544 95.7371L45.1714 102.482H44.4664V104.795C44.4664 105.018 44.6134 104.389 44.9084 104.559L56.8544 112.309C57.4444 112.649 58.4004 112.649 58.9894 112.309L70.9355 105.412C71.2315 105.241 71.3784 105.017 71.3774 104.793V102.455H70.8124H70.8134Z"
          fill="#97AB00"/>
    <path d="M56.8554 95.7371L45.1724 102.482H44.4674V104.795C44.4674 105.018 44.6144 105.241 44.9094 105.412L56.8554 112.309C57.1514 112.48 57.5394 112.565 57.9264 112.564V95.4811C57.5384 95.4811 57.1514 95.5661 56.8554 95.7371Z"
          fill="#A5BA00"/>
    <path d="M58.9904 109.996C58.4004 110.336 57.4444 110.336 56.8554 109.996L44.9094 103.099C44.3194 102.759 44.3194 102.207 44.9094 101.866L56.8554 94.9691C57.4454 94.6291 58.4014 94.6291 58.9904 94.9691L70.9364 101.866C71.5264 102.206 71.5264 102.758 70.9364 103.099L58.9904 109.996Z"
          fill="#BFD600"/>
    <g style="mix-blend-mode:multiply">
        <path d="M29.2135 70.7C33.0795 70.7 36.2135 69.4643 36.2135 67.94C36.2135 66.4157 33.0795 65.1801 29.2135 65.1801C25.3475 65.1801 22.2135 66.4157 22.2135 67.94C22.2135 69.4643 25.3475 70.7 29.2135 70.7Z"
              fill="#BFD600"/>
    </g>
    <path d="M33.4754 58.204C39.3224 56.549 37.5634 54.068 37.5634 54.068C40.4784 52.952 38.8454 50.35 38.8454 50.35C38.8454 50.35 40.8895 48.682 38.8875 47.384C36.8444 46.058 34.9764 48.865 34.9764 48.865C31.7284 48.821 32.6174 52.642 32.6174 52.642C31.5004 52.86 30.8925 53.466 30.5905 54.209C30.5015 54.421 30.4414 54.643 30.3994 54.87C30.3964 54.889 30.3924 54.906 30.3904 54.923C30.3064 55.418 30.3145 55.938 30.3665 56.419C30.3785 56.531 30.4034 56.642 30.4384 56.752C30.8284 57.979 32.2354 58.555 33.4744 58.205L33.4754 58.204Z"
          fill="#00CF24"/>
    <path d="M26.9694 58.5241C20.9184 59.0741 21.6714 56.1271 21.6714 56.1271C18.5494 56.1301 19.1424 53.1151 19.1424 53.1151C19.1424 53.1151 16.6364 52.2911 18.0404 50.3611C19.4734 48.3911 22.2224 50.3421 22.2224 50.3421C25.2384 49.1381 25.7784 53.0221 25.7784 53.0221C26.8994 52.8251 27.6844 53.1741 28.2324 53.7591C28.3914 53.9251 28.5274 54.1111 28.6474 54.3081C28.6574 54.3241 28.6664 54.3391 28.6744 54.3541C28.9304 54.7861 29.1094 55.2741 29.2324 55.7421C29.2614 55.8511 29.2784 55.9641 29.2844 56.0781C29.3604 57.3631 28.2524 58.4061 26.9704 58.5221L26.9694 58.5241Z"
          fill="#00CF24"/>
    <path d="M31.1445 55.2531C34.9865 50.5451 32.1225 49.5211 32.1225 49.5211C33.8715 46.9351 31.0415 45.7401 31.0415 45.7401C31.0415 45.7401 31.7605 43.2021 29.3755 43.2861C26.9415 43.3711 27.0205 46.7411 27.0205 46.7411C24.3345 48.5671 27.2525 51.1881 27.2525 51.1881C26.4625 52.0071 26.3115 52.8521 26.4905 53.6341C26.5395 53.8591 26.6175 54.0751 26.7135 54.2851C26.7215 54.3021 26.7285 54.3181 26.7365 54.3331C26.9515 54.7871 27.2555 55.2081 27.5745 55.5721C27.6485 55.6571 27.7325 55.7341 27.8245 55.8041C28.8475 56.5861 30.3305 56.2511 31.1455 55.2541L31.1445 55.2531Z"
          fill="#00A000"/>
    <path d="M28.8375 66.9381C29.1375 60.2241 32.7785 54.1721 36.9025 49.0821C37.0005 48.9641 37.1975 49.1171 37.0895 49.2411C33.2275 54.3501 29.8255 60.3941 29.7365 66.9381C29.7535 67.5411 28.8205 67.5511 28.8375 66.9381Z"
          fill="#B3002D"/>
    <path d="M29.7525 47.031L29.7365 68.331C29.7335 68.918 28.8285 68.92 28.8375 68.321L29.2795 47.026C29.2805 46.728 29.7585 46.722 29.7535 47.031H29.7525Z"
          fill="#B3002D"/>
    <path d="M20.2624 51.5961C24.2494 53.7901 28.8454 56.8331 29.5394 61.7011C29.5534 61.8401 29.4514 61.9641 29.3124 61.9781C29.1734 61.9921 29.0494 61.8901 29.0354 61.7521C28.3954 57.0751 23.9094 54.0901 20.0934 51.9401C19.8684 51.8381 20.0374 51.4791 20.2614 51.5971L20.2624 51.5961Z"
          fill="#B3002D"/>
    <path d="M27.5534 48.2261L29.5954 51.2381C29.7654 51.4811 29.3794 51.7451 29.2154 51.4951C29.2084 51.4891 27.3754 48.3511 27.3694 48.3421C27.2984 48.2261 27.4784 48.1111 27.5534 48.2261Z"
          fill="#B3002D"/>
    <path d="M31.2404 50.888L29.5974 54.538C29.5554 54.632 29.4444 54.674 29.3504 54.632C29.2514 54.588 29.2104 54.466 29.2634 54.371C29.2934 54.385 31.2034 50.746 31.2394 50.889L31.2404 50.888Z"
          fill="#B3002D"/>
    <path d="M37.9355 52.1381C36.4945 52.4381 34.7565 52.7821 33.7885 53.9551C33.7465 54.0191 33.6595 54.0351 33.5975 53.9891C33.5375 53.9451 33.5255 53.8621 33.5685 53.8021C34.0815 53.1431 34.8565 52.8201 35.6125 52.5531C36.3645 52.3521 37.2515 51.9991 37.9865 52.0701C37.9905 52.1021 37.9675 52.1331 37.9355 52.1381Z"
          fill="#B3002D"/>
    <path d="M23.4115 56.7031C24.1065 56.1141 24.9255 55.3711 25.9315 55.6301C25.9985 55.6521 26.0345 55.7241 26.0115 55.7901C25.9885 55.8591 25.9105 55.8951 25.8435 55.8681C25.4725 55.7121 25.0065 55.8461 24.6105 56.0391C24.1875 56.1811 23.6835 56.7241 23.4075 56.7831C23.3865 56.7611 23.3895 56.7241 23.4105 56.7031H23.4115Z"
          fill="#B3002D"/>
    <path d="M23.5404 50.7941C23.5434 51.9881 23.5664 53.6691 24.6304 54.3831C24.7244 54.4321 24.7604 54.5501 24.7074 54.6431C24.6564 54.7341 24.5414 54.7661 24.4504 54.7151C23.2364 53.8381 23.3154 52.1161 23.3714 50.7811C23.3804 50.6731 23.5454 50.6861 23.5404 50.7951V50.7941Z"
          fill="#B3002D"/>
    <g style="mix-blend-mode:multiply">
        <path d="M44.5336 62.6871C48.3996 62.6871 51.5336 61.4514 51.5336 59.9271C51.5336 58.4028 48.3996 57.1671 44.5336 57.1671C40.6676 57.1671 37.5336 58.4028 37.5336 59.9271C37.5336 61.4514 40.6676 62.6871 44.5336 62.6871Z"
              fill="#BFD600"/>
    </g>
    <path d="M48.7254 50.349C54.5724 48.694 52.8134 46.213 52.8134 46.213C55.7284 45.097 54.0954 42.495 54.0954 42.495C54.0954 42.495 56.1395 40.827 54.1375 39.529C52.0944 38.203 50.2264 41.01 50.2264 41.01C46.9784 40.966 47.8674 44.787 47.8674 44.787C46.7504 45.005 46.1425 45.611 45.8405 46.354C45.7515 46.566 45.6914 46.788 45.6494 47.015C45.6464 47.034 45.6424 47.051 45.6404 47.068C45.5564 47.563 45.5645 48.083 45.6165 48.564C45.6285 48.676 45.6534 48.787 45.6884 48.897C46.0784 50.124 47.4854 50.7 48.7244 50.35L48.7254 50.349Z"
          fill="#00CF24"/>
    <path d="M42.2194 50.6691C36.1684 51.2191 36.9214 48.2721 36.9214 48.2721C33.7994 48.2751 34.3924 45.2601 34.3924 45.2601C34.3924 45.2601 31.8864 44.4361 33.2904 42.5061C34.7234 40.5361 37.4724 42.4871 37.4724 42.4871C40.4884 41.2831 41.0284 45.1671 41.0284 45.1671C42.1494 44.9701 42.9344 45.3191 43.4824 45.9041C43.6414 46.0701 43.7774 46.2561 43.8974 46.4531C43.9074 46.4691 43.9164 46.4841 43.9244 46.4991C44.1804 46.9311 44.3594 47.4191 44.4824 47.8871C44.5114 47.9961 44.5284 48.1091 44.5344 48.2231C44.6104 49.5081 43.5024 50.5511 42.2204 50.6671L42.2194 50.6691Z"
          fill="#00CF24"/>
    <path d="M46.3945 47.3991C50.2365 42.6911 47.3725 41.6671 47.3725 41.6671C49.1215 39.0811 46.2915 37.8861 46.2915 37.8861C46.2915 37.8861 47.0105 35.3481 44.6255 35.4321C42.1915 35.5171 42.2705 38.8871 42.2705 38.8871C39.5845 40.7131 42.5025 43.3341 42.5025 43.3341C41.7125 44.1531 41.5615 44.9981 41.7405 45.7801C41.7895 46.0051 41.8675 46.2211 41.9635 46.4311C41.9715 46.4481 41.9785 46.4641 41.9865 46.4791C42.2015 46.9331 42.5055 47.3541 42.8245 47.7181C42.8985 47.8031 42.9825 47.8801 43.0745 47.9501C44.0975 48.7321 45.5805 48.3971 46.3955 47.4001L46.3945 47.3991Z"
          fill="#00A000"/>
    <path d="M44.0875 59.0841C44.3875 52.3701 48.0285 46.318 52.1525 41.228C52.2505 41.11 52.4475 41.2631 52.3395 41.3871C48.4775 46.4961 45.0755 52.5401 44.9865 59.0851C45.0045 59.6881 44.0705 59.6981 44.0875 59.0851V59.0841Z"
          fill="#B3002D"/>
    <path d="M45.0036 39.1761L44.9876 60.476C44.9846 61.064 44.0796 61.065 44.0886 60.466L44.5306 39.171C44.5316 38.873 45.0096 38.8671 45.0046 39.1761H45.0036Z"
          fill="#B3002D"/>
    <path d="M35.5124 43.742C39.4994 45.936 44.0954 48.979 44.7894 53.847C44.8034 53.986 44.7014 54.1101 44.5624 54.1241C44.4234 54.1381 44.2994 54.036 44.2854 53.897C43.6454 49.22 39.1594 46.2351 35.3434 44.0851C35.1184 43.9831 35.2874 43.624 35.5114 43.742H35.5124Z"
          fill="#B3002D"/>
    <path d="M42.8034 40.3721L44.8454 43.3841C45.0154 43.6271 44.6294 43.8911 44.4654 43.6411C44.4584 43.6351 42.6254 40.4971 42.6194 40.4881C42.5484 40.3721 42.7284 40.2571 42.8034 40.3721Z"
          fill="#B3002D"/>
    <path d="M46.4915 43.033L44.8485 46.683C44.8065 46.777 44.6955 46.819 44.6015 46.777C44.5025 46.733 44.4615 46.611 44.5145 46.516C44.5445 46.53 46.4545 42.891 46.4905 43.034L46.4915 43.033Z"
          fill="#B3002D"/>
    <path d="M53.1855 44.2831C51.7445 44.5831 50.0065 44.9271 49.0385 46.1001C48.9965 46.1631 48.9095 46.1801 48.8475 46.1341C48.7875 46.0901 48.7755 46.0071 48.8185 45.9471C49.3315 45.2881 50.1065 44.9651 50.8625 44.6981C51.6145 44.4971 52.5015 44.1441 53.2365 44.2151C53.2405 44.2471 53.2175 44.2771 53.1855 44.2821V44.2831Z"
          fill="#B3002D"/>
    <path d="M38.6615 48.8481C39.3565 48.2591 40.1755 47.5151 41.1815 47.7751C41.2485 47.7971 41.2845 47.8691 41.2615 47.9351C41.2385 48.0041 41.1605 48.0401 41.0935 48.0131C40.7225 47.8571 40.2565 47.9911 39.8605 48.1841C39.4375 48.3261 38.9335 48.8691 38.6575 48.9281C38.6365 48.9061 38.6395 48.8691 38.6605 48.8481H38.6615Z"
          fill="#B3002D"/>
    <path d="M38.7904 42.9391C38.7934 44.1331 38.8164 45.8141 39.8804 46.5281C39.9744 46.5771 40.0104 46.6951 39.9574 46.7881C39.9064 46.8791 39.7914 46.9111 39.7004 46.8601C38.4864 45.9831 38.5654 44.2611 38.6214 42.9261C38.6304 42.8181 38.7954 42.8311 38.7894 42.9401L38.7904 42.9391Z"
          fill="#B3002D"/>
    <g style="mix-blend-mode:multiply">
        <path d="M59.8535 54.056C63.7195 54.056 66.8535 52.8203 66.8535 51.296C66.8535 49.7717 63.7195 48.536 59.8535 48.536C55.9875 48.536 52.8535 49.7717 52.8535 51.296C52.8535 52.8203 55.9875 54.056 59.8535 54.056Z"
              fill="#BFD600"/>
    </g>
    <path d="M64.3624 41.9201C70.2094 40.2651 68.4504 37.7841 68.4504 37.7841C71.3654 36.6681 69.7324 34.0661 69.7324 34.0661C69.7324 34.0661 71.7764 32.3981 69.7744 31.1001C67.7314 29.7741 65.8634 32.5811 65.8634 32.5811C62.6154 32.5371 63.5044 36.3581 63.5044 36.3581C62.3874 36.5761 61.7794 37.1821 61.4774 37.9251C61.3884 38.1371 61.3284 38.3591 61.2864 38.5861C61.2834 38.6051 61.2794 38.6221 61.2774 38.6391C61.1934 39.1341 61.2014 39.6541 61.2534 40.1351C61.2654 40.2471 61.2904 40.3581 61.3254 40.4681C61.7154 41.6951 63.1224 42.2711 64.3614 41.9211L64.3624 41.9201Z"
          fill="#00CF24"/>
    <path d="M57.8565 42.2401C51.8055 42.7901 52.5585 39.8431 52.5585 39.8431C49.4365 39.8461 50.0295 36.8311 50.0295 36.8311C50.0295 36.8311 47.5235 36.007 48.9275 34.077C50.3605 32.107 53.1095 34.0581 53.1095 34.0581C56.1255 32.8541 56.6655 36.738 56.6655 36.738C57.7865 36.541 58.5715 36.89 59.1195 37.475C59.2785 37.641 59.4145 37.8271 59.5345 38.0241C59.5445 38.0401 59.5535 38.055 59.5615 38.07C59.8175 38.502 59.9965 38.99 60.1195 39.458C60.1485 39.567 60.1655 39.68 60.1715 39.794C60.2475 41.079 59.1395 42.122 57.8575 42.238L57.8565 42.2401Z"
          fill="#00CF24"/>
    <path d="M62.0315 38.9691C65.8735 34.2611 63.0094 33.237 63.0094 33.237C64.7584 30.651 61.9285 29.456 61.9285 29.456C61.9285 29.456 62.6475 26.918 60.2625 27.002C57.8285 27.087 57.9075 30.457 57.9075 30.457C55.2215 32.283 58.1395 34.904 58.1395 34.904C57.3495 35.723 57.1985 36.568 57.3775 37.35C57.4265 37.575 57.5045 37.791 57.6005 38.001C57.6085 38.018 57.6155 38.034 57.6235 38.049C57.8385 38.503 58.1425 38.9241 58.4615 39.2881C58.5355 39.3731 58.6195 39.45 58.7115 39.52C59.7345 40.302 61.2175 39.967 62.0325 38.97L62.0315 38.9691Z"
          fill="#00A000"/>
    <path d="M59.7245 50.6541C60.0245 43.9401 63.6655 37.8881 67.7895 32.7981C67.8875 32.6801 68.0845 32.8331 67.9765 32.9571C64.1145 38.0661 60.7125 44.1101 60.6235 50.6551C60.6415 51.2581 59.7075 51.2671 59.7245 50.6541Z"
          fill="#B3002D"/>
    <path d="M60.6396 30.7471L60.6236 52.0471C60.6206 52.6341 59.7156 52.6361 59.7246 52.0371L60.1666 30.7421C60.1676 30.4441 60.6456 30.4381 60.6406 30.7471H60.6396Z"
          fill="#B3002D"/>
    <path d="M51.1495 35.3121C55.1365 37.5061 59.7325 40.5491 60.4265 45.4171C60.4405 45.5561 60.3385 45.6801 60.1995 45.6941C60.0605 45.7081 59.9365 45.6061 59.9225 45.4681C59.2825 40.7911 54.7965 37.8061 50.9805 35.6561C50.7555 35.5541 50.9245 35.1951 51.1485 35.3131L51.1495 35.3121Z"
          fill="#B3002D"/>
    <path d="M58.4405 31.942L60.4825 34.954C60.6525 35.197 60.2665 35.461 60.1025 35.211C60.0955 35.205 58.2625 32.067 58.2565 32.058C58.1855 31.942 58.3655 31.827 58.4405 31.942Z"
          fill="#B3002D"/>
    <path d="M62.1275 34.6041L60.4845 38.254C60.4425 38.348 60.3315 38.3901 60.2375 38.3481C60.1385 38.3041 60.0975 38.1821 60.1505 38.0871C60.1805 38.1011 62.0905 34.4621 62.1265 34.6051L62.1275 34.6041Z"
          fill="#B3002D"/>
    <path d="M68.8215 35.854C67.3805 36.154 65.6425 36.498 64.6745 37.671C64.6325 37.734 64.5455 37.751 64.4835 37.705C64.4235 37.661 64.4115 37.578 64.4545 37.518C64.9675 36.859 65.7425 36.536 66.4985 36.269C67.2505 36.068 68.1375 35.715 68.8725 35.786C68.8765 35.818 68.8535 35.848 68.8215 35.853V35.854Z"
          fill="#B3002D"/>
    <path d="M54.2985 40.4191C54.9935 39.8301 55.8125 39.0871 56.8185 39.3461C56.8855 39.3681 56.9215 39.4401 56.8985 39.5061C56.8755 39.5751 56.7975 39.6111 56.7305 39.5841C56.3595 39.4281 55.8935 39.5621 55.4975 39.7551C55.0745 39.8971 54.5705 40.4401 54.2945 40.4991C54.2735 40.4771 54.2775 40.4401 54.2985 40.4191Z"
          fill="#B3002D"/>
    <path d="M54.4275 34.51C54.4305 35.704 54.4535 37.385 55.5175 38.099C55.6115 38.148 55.6475 38.266 55.5945 38.359C55.5435 38.45 55.4285 38.482 55.3375 38.431C54.1235 37.554 54.2025 35.832 54.2585 34.497C54.2675 34.389 54.4325 34.4021 54.4275 34.5111V34.51Z"
          fill="#B3002D"/>
    <g style="mix-blend-mode:multiply">
        <path d="M14.2965 79.2601C18.1625 79.2601 21.2965 78.0244 21.2965 76.5001C21.2965 74.9758 18.1625 73.7401 14.2965 73.7401C10.4305 73.7401 7.29651 74.9758 7.29651 76.5001C7.29651 78.0244 10.4305 79.2601 14.2965 79.2601Z"
              fill="#BFD600"/>
    </g>
    <path d="M18.4215 67.0131C24.2685 65.3581 22.5095 62.8771 22.5095 62.8771C25.4245 61.7611 23.7915 59.1591 23.7915 59.1591C23.7915 59.1591 25.8355 57.4911 23.8335 56.1931C21.7905 54.8671 19.9225 57.6741 19.9225 57.6741C16.6745 57.6301 17.5635 61.4511 17.5635 61.4511C16.4465 61.6691 15.8385 62.2751 15.5365 63.0181C15.4475 63.2301 15.3875 63.4521 15.3455 63.6791C15.3425 63.6981 15.3385 63.7151 15.3365 63.7321C15.2525 64.2271 15.2605 64.7471 15.3125 65.2281C15.3245 65.3401 15.3495 65.4511 15.3845 65.5611C15.7745 66.7881 17.1815 67.3641 18.4205 67.0141L18.4215 67.0131Z"
          fill="#00CF24"/>
    <path d="M11.9164 67.3321C5.86543 67.8821 6.61843 64.9351 6.61843 64.9351C3.49643 64.9381 4.08943 61.9231 4.08943 61.9231C4.08943 61.9231 1.58341 61.0991 2.98741 59.1691C4.42041 57.1991 7.16942 59.1501 7.16942 59.1501C10.1854 57.9461 10.7254 61.8301 10.7254 61.8301C11.8464 61.6331 12.6314 61.9821 13.1794 62.5671C13.3384 62.7331 13.4744 62.9191 13.5944 63.1161C13.6044 63.1321 13.6134 63.1471 13.6214 63.1621C13.8774 63.5941 14.0564 64.0821 14.1794 64.5501C14.2084 64.6591 14.2254 64.7721 14.2314 64.8861C14.3074 66.1711 13.1994 67.2141 11.9174 67.3301L11.9164 67.3321Z"
          fill="#00CF24"/>
    <path d="M16.0904 64.0621C19.9324 59.3541 17.0684 58.3301 17.0684 58.3301C18.8174 55.7441 15.9874 54.5491 15.9874 54.5491C15.9874 54.5491 16.7064 52.0111 14.3214 52.0951C11.8874 52.1801 11.9664 55.5501 11.9664 55.5501C9.28041 57.3761 12.1984 59.9971 12.1984 59.9971C11.4084 60.8161 11.2574 61.6611 11.4364 62.4431C11.4854 62.6681 11.5634 62.8841 11.6594 63.0941C11.6674 63.1111 11.6744 63.1271 11.6824 63.1421C11.8974 63.5961 12.2014 64.0171 12.5204 64.3811C12.5944 64.4661 12.6784 64.5431 12.7704 64.6131C13.7934 65.3951 15.2764 65.0601 16.0914 64.0631L16.0904 64.0621Z"
          fill="#00A000"/>
    <path d="M13.7845 75.7471C14.0845 69.0331 17.7255 62.9811 21.8495 57.8911C21.9485 57.7731 22.1445 57.9261 22.0365 58.0501C18.1745 63.1591 14.7725 69.2031 14.6835 75.7471C14.7015 76.3501 13.7675 76.3601 13.7845 75.7471Z"
          fill="#B3002D"/>
    <path d="M14.6995 55.8391L14.6835 77.1391C14.6805 77.7271 13.7755 77.7281 13.7845 77.1291L14.2265 55.8341C14.2275 55.5361 14.7055 55.5301 14.7005 55.8391H14.6995Z"
          fill="#B3002D"/>
    <path d="M5.20846 60.4051C9.19546 62.5991 13.7915 65.6421 14.4855 70.5101C14.4995 70.6491 14.3975 70.7731 14.2585 70.7871C14.1195 70.8011 13.9955 70.6991 13.9815 70.5611C13.3415 65.8841 8.85545 62.8991 5.03945 60.7491C4.81445 60.6471 4.98345 60.2881 5.20745 60.4061L5.20846 60.4051Z"
          fill="#B3002D"/>
    <path d="M12.5004 57.035L14.5424 60.047C14.7124 60.29 14.3264 60.554 14.1624 60.304C14.1564 60.298 12.3224 57.16 12.3164 57.151C12.2454 57.035 12.4254 56.92 12.5004 57.035Z"
          fill="#B3002D"/>
    <path d="M16.1874 59.6971L14.5444 63.3471C14.5024 63.4411 14.3914 63.4831 14.2974 63.4411C14.1984 63.3971 14.1574 63.2751 14.2104 63.1801C14.2404 63.1941 16.1504 59.5551 16.1864 59.6981L16.1874 59.6971Z"
          fill="#B3002D"/>
    <path d="M22.8815 60.9471C21.4405 61.2471 19.7025 61.591 18.7345 62.764C18.6925 62.827 18.6055 62.844 18.5435 62.798C18.4835 62.754 18.4715 62.6711 18.5145 62.6111C19.0275 61.9521 19.8025 61.629 20.5585 61.362C21.3105 61.161 22.1975 60.808 22.9325 60.879C22.9365 60.911 22.9135 60.9411 22.8815 60.9461V60.9471Z"
          fill="#B3002D"/>
    <path d="M8.35757 65.511C9.05257 64.922 9.87155 64.179 10.8776 64.438C10.9446 64.46 10.9805 64.532 10.9575 64.598C10.9345 64.667 10.8565 64.7031 10.7895 64.6761C10.4185 64.5201 9.95254 64.654 9.55654 64.847C9.13354 64.989 8.62957 65.532 8.35357 65.591C8.33257 65.569 8.33556 65.532 8.35656 65.511H8.35757Z"
          fill="#B3002D"/>
    <path d="M8.48645 59.6021C8.48945 60.7961 8.51244 62.4771 9.57644 63.1911C9.67044 63.2401 9.70644 63.3581 9.65344 63.4511C9.60244 63.5421 9.48745 63.5741 9.39645 63.5231C8.18245 62.6461 8.26144 60.9241 8.31744 59.5891C8.32644 59.4811 8.49144 59.4941 8.48544 59.6031L8.48645 59.6021Z"
          fill="#B3002D"/>
    <g style="mix-blend-mode:multiply">
        <path d="M43.6066 78.794C47.4726 78.794 50.6066 77.5583 50.6066 76.034C50.6066 74.5097 47.4726 73.274 43.6066 73.274C39.7406 73.274 36.6066 74.5097 36.6066 76.034C36.6066 77.5583 39.7406 78.794 43.6066 78.794Z"
              fill="#BFD600"/>
    </g>
    <path d="M47.8685 66.298C53.7155 64.643 51.9565 62.162 51.9565 62.162C54.8715 61.046 53.2385 58.444 53.2385 58.444C53.2385 58.444 55.2825 56.776 53.2805 55.478C51.2375 54.152 49.3695 56.959 49.3695 56.959C46.1215 56.915 47.0105 60.736 47.0105 60.736C45.8935 60.954 45.2855 61.56 44.9835 62.303C44.8945 62.515 44.8345 62.737 44.7925 62.964C44.7895 62.983 44.7855 63 44.7835 63.017C44.6995 63.512 44.7075 64.032 44.7595 64.513C44.7715 64.625 44.7965 64.736 44.8315 64.846C45.2215 66.073 46.6285 66.649 47.8675 66.299L47.8685 66.298Z"
          fill="#00CF24"/>
    <path d="M41.3624 66.6181C35.3114 67.1681 36.0645 64.2211 36.0645 64.2211C32.9425 64.2241 33.5355 61.2091 33.5355 61.2091C33.5355 61.2091 31.0295 60.3851 32.4335 58.4551C33.8665 56.4851 36.6155 58.4361 36.6155 58.4361C39.6315 57.2321 40.1715 61.1161 40.1715 61.1161C41.2925 60.9191 42.0774 61.2681 42.6254 61.8531C42.7844 62.0191 42.9205 62.2051 43.0405 62.4021C43.0505 62.4181 43.0595 62.4331 43.0675 62.4481C43.3235 62.8801 43.5024 63.3681 43.6254 63.8361C43.6544 63.9451 43.6715 64.0581 43.6775 64.1721C43.7535 65.4571 42.6455 66.5001 41.3635 66.6161L41.3624 66.6181Z"
          fill="#00CF24"/>
    <path d="M45.5374 63.3471C49.3794 58.6391 46.5154 57.6151 46.5154 57.6151C48.2644 55.0291 45.4344 53.8341 45.4344 53.8341C45.4344 53.8341 46.1534 51.2961 43.7684 51.3801C41.3344 51.4651 41.4134 54.8351 41.4134 54.8351C38.7274 56.6611 41.6454 59.2821 41.6454 59.2821C40.8554 60.1011 40.7044 60.9461 40.8834 61.7281C40.9324 61.9531 41.0104 62.1691 41.1064 62.3791C41.1144 62.3961 41.1214 62.4121 41.1294 62.4271C41.3444 62.8811 41.6484 63.3021 41.9674 63.6661C42.0414 63.7511 42.1254 63.8281 42.2174 63.8981C43.2404 64.6801 44.7234 64.3451 45.5384 63.3481L45.5374 63.3471Z"
          fill="#00A000"/>
    <path d="M43.2305 75.033C43.5305 68.319 47.1715 62.267 51.2955 57.177C51.3935 57.059 51.5905 57.212 51.4825 57.336C47.6205 62.445 44.2185 68.489 44.1295 75.034C44.1465 75.637 43.2135 75.646 43.2305 75.033Z"
          fill="#B3002D"/>
    <path d="M44.1454 55.125L44.1294 76.425C44.1264 77.013 43.2214 77.014 43.2304 76.415L43.6724 55.12C43.6734 54.822 44.1514 54.816 44.1464 55.125H44.1454Z"
          fill="#B3002D"/>
    <path d="M34.6554 59.6911C38.6424 61.8851 43.2385 64.9281 43.9325 69.7961C43.9465 69.9351 43.8445 70.0591 43.7055 70.0731C43.5665 70.0871 43.4425 69.9851 43.4285 69.8461C42.7885 65.1691 38.3025 62.1841 34.4865 60.0341C34.2615 59.9321 34.4314 59.5731 34.6554 59.6911Z"
          fill="#B3002D"/>
    <path d="M41.9465 56.321L43.9885 59.333C44.1585 59.576 43.7725 59.84 43.6085 59.59C43.6015 59.584 41.7685 56.446 41.7625 56.437C41.6915 56.321 41.8715 56.206 41.9465 56.321Z"
          fill="#B3002D"/>
    <path d="M45.6335 58.982L43.9905 62.632C43.9485 62.726 43.8375 62.768 43.7435 62.726C43.6445 62.682 43.6035 62.56 43.6565 62.465C43.6865 62.479 45.5965 58.84 45.6325 58.983L45.6335 58.982Z"
          fill="#B3002D"/>
    <path d="M52.3275 60.2321C50.8865 60.5321 49.1485 60.8761 48.1805 62.0491C48.1385 62.1131 48.0515 62.1291 47.9895 62.0831C47.9295 62.0391 47.9175 61.9561 47.9605 61.8961C48.4735 61.2371 49.2485 60.9141 50.0045 60.6471C50.7565 60.4461 51.6435 60.0931 52.3785 60.1641C52.3825 60.1961 52.3595 60.2261 52.3275 60.2311V60.2321Z"
          fill="#B3002D"/>
    <path d="M37.8045 64.7971C38.4995 64.2081 39.3185 63.4651 40.3245 63.7241C40.3915 63.7461 40.4265 63.8181 40.4045 63.8841C40.3815 63.9531 40.3035 63.9891 40.2365 63.9621C39.8655 63.8061 39.3995 63.9401 39.0035 64.1331C38.5805 64.2751 38.0765 64.8181 37.8005 64.8771C37.7795 64.8551 37.7825 64.8181 37.8035 64.7971H37.8045Z"
          fill="#B3002D"/>
    <path d="M37.9335 58.8881C37.9365 60.0821 37.9595 61.7631 39.0235 62.4771C39.1175 62.5261 39.1525 62.6441 39.1005 62.7371C39.0495 62.8281 38.9345 62.8601 38.8435 62.8091C37.6295 61.9321 37.7085 60.2091 37.7645 58.8751C37.7735 58.7671 37.9385 58.7801 37.9325 58.8891L37.9335 58.8881Z"
          fill="#B3002D"/>
    <g style="mix-blend-mode:multiply">
        <path d="M58.9265 70.7821C62.7925 70.7821 65.9265 69.5464 65.9265 68.0221C65.9265 66.4978 62.7925 65.2621 58.9265 65.2621C55.0605 65.2621 51.9265 66.4978 51.9265 68.0221C51.9265 69.5464 55.0605 70.7821 58.9265 70.7821Z"
              fill="#BFD600"/>
    </g>
    <path d="M63.1185 58.444C68.9655 56.789 67.2065 54.308 67.2065 54.308C70.1215 53.192 68.4885 50.59 68.4885 50.59C68.4885 50.59 70.5325 48.922 68.5305 47.624C66.4875 46.298 64.6195 49.105 64.6195 49.105C61.3715 49.061 62.2605 52.882 62.2605 52.882C61.1435 53.1 60.5355 53.706 60.2335 54.449C60.1445 54.661 60.0845 54.883 60.0425 55.11C60.0395 55.129 60.0355 55.146 60.0335 55.163C59.9495 55.658 59.9575 56.178 60.0095 56.659C60.0215 56.771 60.0465 56.882 60.0815 56.992C60.4715 58.219 61.8785 58.795 63.1175 58.445L63.1185 58.444Z"
          fill="#00CF24"/>
    <path d="M56.6124 58.7631C50.5614 59.3131 51.3145 56.3661 51.3145 56.3661C48.1925 56.3691 48.7855 53.3541 48.7855 53.3541C48.7855 53.3541 46.2795 52.5301 47.6835 50.6001C49.1165 48.6301 51.8655 50.5811 51.8655 50.5811C54.8815 49.3771 55.4215 53.2611 55.4215 53.2611C56.5425 53.0641 57.3274 53.4131 57.8754 53.9981C58.0344 54.1641 58.1705 54.3501 58.2905 54.5471C58.3005 54.5631 58.3095 54.5781 58.3175 54.5931C58.5735 55.0251 58.7524 55.5131 58.8754 55.9811C58.9044 56.0901 58.9215 56.2031 58.9275 56.3171C59.0035 57.6021 57.8955 58.6451 56.6135 58.7611L56.6124 58.7631Z"
          fill="#00CF24"/>
    <path d="M60.7874 55.4931C64.6294 50.7851 61.7654 49.7611 61.7654 49.7611C63.5144 47.1751 60.6844 45.9801 60.6844 45.9801C60.6844 45.9801 61.4034 43.4421 59.0184 43.5261C56.5844 43.6111 56.6634 46.9811 56.6634 46.9811C53.9774 48.8071 56.8954 51.4281 56.8954 51.4281C56.1054 52.2471 55.9544 53.0921 56.1334 53.8741C56.1824 54.0991 56.2604 54.3151 56.3564 54.5251C56.3644 54.5421 56.3714 54.5581 56.3794 54.5731C56.5944 55.0271 56.8984 55.4481 57.2174 55.8121C57.2914 55.8971 57.3754 55.9741 57.4674 56.0441C58.4904 56.8261 59.9734 56.4911 60.7884 55.4941L60.7874 55.4931Z"
          fill="#00A000"/>
    <path d="M58.4805 67.178C58.7805 60.464 62.4215 54.412 66.5455 49.322C66.6435 49.204 66.8405 49.357 66.7325 49.481C62.8705 54.59 59.4685 60.634 59.3795 67.179C59.3975 67.782 58.4635 67.792 58.4805 67.179V67.178Z"
          fill="#B3002D"/>
    <path d="M59.3954 47.27L59.3794 68.57C59.3764 69.158 58.4714 69.159 58.4804 68.56L58.9224 47.265C58.9234 46.967 59.4014 46.961 59.3964 47.27H59.3954Z"
          fill="#B3002D"/>
    <path d="M49.9054 51.8361C53.8924 54.0301 58.4885 57.0731 59.1825 61.9411C59.1965 62.0801 59.0945 62.2041 58.9555 62.2181C58.8165 62.2321 58.6925 62.1301 58.6785 61.9921C58.0385 57.3151 53.5525 54.3301 49.7365 52.1801C49.5115 52.0781 49.6805 51.7191 49.9045 51.8371L49.9054 51.8361Z"
          fill="#B3002D"/>
    <path d="M57.1965 48.4661L59.2385 51.4781C59.4085 51.7211 59.0225 51.9851 58.8585 51.7351C58.8515 51.7291 57.0185 48.5911 57.0125 48.5821C56.9415 48.4661 57.1215 48.3511 57.1965 48.4661Z"
          fill="#B3002D"/>
    <path d="M60.8835 51.128L59.2405 54.778C59.1985 54.872 59.0875 54.914 58.9935 54.872C58.8945 54.828 58.8535 54.706 58.9065 54.611C58.9365 54.625 60.8465 50.986 60.8825 51.129L60.8835 51.128Z"
          fill="#B3002D"/>
    <path d="M67.5785 52.3781C66.1375 52.6781 64.3995 53.0221 63.4315 54.1951C63.3895 54.2581 63.3026 54.2751 63.2406 54.2291C63.1806 54.1851 63.1686 54.1021 63.2116 54.0421C63.7246 53.3831 64.4995 53.0601 65.2555 52.7931C66.0075 52.5921 66.8946 52.2391 67.6296 52.3101C67.6336 52.3421 67.6105 52.3721 67.5785 52.3771V52.3781Z"
          fill="#B3002D"/>
    <path d="M53.0545 56.9421C53.7495 56.3531 54.5685 55.6101 55.5745 55.8691C55.6415 55.8911 55.6775 55.9631 55.6545 56.0291C55.6315 56.0981 55.5535 56.1341 55.4865 56.1071C55.1155 55.9511 54.6495 56.0851 54.2535 56.2781C53.8305 56.4201 53.3265 56.9631 53.0505 57.0221C53.0295 57.0001 53.0325 56.9631 53.0535 56.9421H53.0545Z"
          fill="#B3002D"/>
    <path d="M53.1835 51.0331C53.1865 52.2271 53.2095 53.9081 54.2735 54.6221C54.3675 54.6711 54.4035 54.7891 54.3505 54.8821C54.2995 54.9731 54.1845 55.0051 54.0935 54.9541C52.8795 54.0771 52.9585 52.3551 53.0145 51.0201C53.0235 50.9121 53.1885 50.9241 53.1835 51.0331Z"
          fill="#B3002D"/>
    <g style="mix-blend-mode:multiply">
        <path d="M74.2465 62.15C78.1125 62.15 81.2465 60.9143 81.2465 59.39C81.2465 57.8657 78.1125 56.63 74.2465 56.63C70.3805 56.63 67.2465 57.8657 67.2465 59.39C67.2465 60.9143 70.3805 62.15 74.2465 62.15Z"
              fill="#BFD600"/>
    </g>
    <path d="M78.7555 50.0141C84.6025 48.3591 82.8435 45.8781 82.8435 45.8781C85.7585 44.7621 84.1255 42.1601 84.1255 42.1601C84.1255 42.1601 86.1695 40.4921 84.1675 39.1941C82.1245 37.8681 80.2565 40.6751 80.2565 40.6751C77.0085 40.6311 77.8975 44.4521 77.8975 44.4521C76.7805 44.6701 76.1725 45.2761 75.8705 46.0191C75.7815 46.2311 75.7215 46.4531 75.6795 46.6801C75.6765 46.6991 75.6725 46.7161 75.6705 46.7331C75.5865 47.2281 75.5945 47.7481 75.6465 48.2291C75.6585 48.3411 75.6835 48.4521 75.7185 48.5621C76.1085 49.7891 77.5155 50.3651 78.7545 50.0151L78.7555 50.0141Z"
          fill="#00CF24"/>
    <path d="M72.2494 50.334C66.1984 50.884 66.9514 47.937 66.9514 47.937C63.8294 47.94 64.4224 44.925 64.4224 44.925C64.4224 44.925 61.9164 44.101 63.3204 42.171C64.7534 40.201 67.5024 42.152 67.5024 42.152C70.5184 40.948 71.0584 44.832 71.0584 44.832C72.1794 44.635 72.9644 44.984 73.5124 45.569C73.6714 45.735 73.8074 45.921 73.9274 46.118C73.9374 46.134 73.9464 46.149 73.9544 46.164C74.2104 46.596 74.3894 47.084 74.5124 47.552C74.5414 47.661 74.5584 47.774 74.5644 47.888C74.6404 49.173 73.5324 50.216 72.2504 50.332L72.2494 50.334Z"
          fill="#00CF24"/>
    <path d="M76.4234 47.063C80.2654 42.355 77.4014 41.331 77.4014 41.331C79.1504 38.745 76.3204 37.55 76.3204 37.55C76.3204 37.55 77.0394 35.012 74.6544 35.096C72.2204 35.181 72.2994 38.5511 72.2994 38.5511C69.6134 40.3771 72.5314 42.998 72.5314 42.998C71.7414 43.817 71.5904 44.662 71.7694 45.444C71.8184 45.669 71.8964 45.885 71.9924 46.095C72.0004 46.112 72.0074 46.128 72.0154 46.143C72.2304 46.597 72.5344 47.018 72.8534 47.382C72.9274 47.467 73.0114 47.544 73.1034 47.614C74.1264 48.396 75.6094 48.061 76.4244 47.064L76.4234 47.063Z"
          fill="#00A000"/>
    <path d="M74.1175 58.7491C74.4175 52.0351 78.0585 45.9831 82.1825 40.8931C82.2805 40.7751 82.4776 40.9281 82.3696 41.0521C78.5076 46.1611 75.1056 52.2051 75.0166 58.7491C75.0336 59.3521 74.1005 59.3621 74.1175 58.7491Z"
          fill="#B3002D"/>
    <path d="M75.0325 38.8411L75.0165 60.1411C75.0135 60.7291 74.1085 60.7301 74.1175 60.1311L74.5595 38.8361C74.5605 38.5381 75.0385 38.5321 75.0335 38.8411H75.0325Z"
          fill="#B3002D"/>
    <path d="M65.5415 43.407C69.5285 45.601 74.1245 48.6441 74.8185 53.5121C74.8325 53.6511 74.7305 53.775 74.5915 53.789C74.4525 53.803 74.3285 53.701 74.3145 53.5631C73.6745 48.8861 69.1885 45.901 65.3725 43.751C65.1475 43.649 65.3165 43.2901 65.5405 43.4081L65.5415 43.407Z"
          fill="#B3002D"/>
    <path d="M72.8334 40.0371L74.8754 43.0491C75.0454 43.2921 74.6594 43.5561 74.4954 43.3061C74.4884 43.3001 72.6554 40.1621 72.6494 40.1531C72.5784 40.0371 72.7584 39.9221 72.8334 40.0371Z"
          fill="#B3002D"/>
    <path d="M76.5205 42.698L74.8774 46.3481C74.8354 46.4421 74.7244 46.4841 74.6304 46.4421C74.5314 46.3981 74.4904 46.276 74.5434 46.181C74.5734 46.195 76.4834 42.5561 76.5194 42.6991L76.5205 42.698Z"
          fill="#B3002D"/>
    <path d="M83.2146 43.948C81.7736 44.248 80.0356 44.592 79.0676 45.765C79.0256 45.829 78.9385 45.845 78.8765 45.799C78.8165 45.755 78.8046 45.672 78.8476 45.612C79.3606 44.953 80.1356 44.63 80.8916 44.363C81.6436 44.162 82.5305 43.809 83.2655 43.88C83.2695 43.912 83.2466 43.943 83.2146 43.948Z"
          fill="#B3002D"/>
    <path d="M68.6915 48.5131C69.3865 47.9241 70.2056 47.1811 71.2116 47.4401C71.2786 47.4621 71.3146 47.5341 71.2916 47.6001C71.2686 47.6691 71.1906 47.7051 71.1236 47.6781C70.7526 47.5221 70.2866 47.6561 69.8906 47.8491C69.4676 47.9911 68.9636 48.5341 68.6876 48.5931C68.6666 48.5711 68.6695 48.5341 68.6905 48.5131H68.6915Z"
          fill="#B3002D"/>
    <path d="M68.8194 42.604C68.8224 43.798 68.8455 45.4791 69.9095 46.1931C70.0035 46.2421 70.0394 46.36 69.9864 46.453C69.9354 46.544 69.8204 46.5761 69.7294 46.5251C68.5154 45.6481 68.5945 43.926 68.6505 42.591C68.6595 42.483 68.8244 42.4961 68.8194 42.6051V42.604Z"
          fill="#B3002D"/>
    <g style="mix-blend-mode:multiply">
        <path d="M28.6885 87.3541C32.5545 87.3541 35.6885 86.1184 35.6885 84.5941C35.6885 83.0698 32.5545 81.8341 28.6885 81.8341C24.8225 81.8341 21.6885 83.0698 21.6885 84.5941C21.6885 86.1184 24.8225 87.3541 28.6885 87.3541Z"
              fill="#BFD600"/>
    </g>
    <path d="M32.8146 75.1071C38.6616 73.4521 36.9026 70.9711 36.9026 70.9711C39.8176 69.8551 38.1846 67.2531 38.1846 67.2531C38.1846 67.2531 40.2286 65.5851 38.2266 64.2871C36.1836 62.9611 34.3156 65.7681 34.3156 65.7681C31.0676 65.7241 31.9566 69.5451 31.9566 69.5451C30.8396 69.7631 30.2316 70.3691 29.9296 71.1121C29.8406 71.3241 29.7806 71.5461 29.7386 71.7731C29.7356 71.7921 29.7316 71.8091 29.7296 71.8261C29.6456 72.3211 29.6536 72.8411 29.7056 73.3221C29.7176 73.4341 29.7426 73.5451 29.7776 73.6551C30.1676 74.8821 31.5746 75.4581 32.8136 75.1081L32.8146 75.1071Z"
          fill="#00CF24"/>
    <path d="M26.3085 75.4271C20.2575 75.9771 21.0105 73.03 21.0105 73.03C17.8885 73.033 18.4815 70.0181 18.4815 70.0181C18.4815 70.0181 15.9755 69.1941 17.3795 67.2641C18.8125 65.2941 21.5615 67.245 21.5615 67.245C24.5775 66.041 25.1175 69.9251 25.1175 69.9251C26.2385 69.7281 27.0235 70.0771 27.5715 70.6621C27.7305 70.8281 27.8665 71.014 27.9865 71.211C27.9965 71.227 28.0055 71.2421 28.0135 71.2571C28.2695 71.6891 28.4485 72.1771 28.5715 72.6451C28.6005 72.7541 28.6175 72.8671 28.6235 72.9811C28.6995 74.2661 27.5915 75.3091 26.3095 75.4251L26.3085 75.4271Z"
          fill="#00CF24"/>
    <path d="M30.4835 72.1561C34.3255 67.4481 31.4615 66.4241 31.4615 66.4241C33.2105 63.8381 30.3805 62.6431 30.3805 62.6431C30.3805 62.6431 31.0995 60.1051 28.7145 60.1891C26.2805 60.2741 26.3595 63.6441 26.3595 63.6441C23.6735 65.4701 26.5915 68.0911 26.5915 68.0911C25.8015 68.9101 25.6505 69.7551 25.8295 70.5371C25.8785 70.7621 25.9565 70.9781 26.0525 71.1881C26.0605 71.2051 26.0675 71.2211 26.0755 71.2361C26.2905 71.6901 26.5945 72.1111 26.9135 72.4751C26.9875 72.5601 27.0715 72.6371 27.1635 72.7071C28.1865 73.4891 29.6695 73.1541 30.4845 72.1571L30.4835 72.1561Z"
          fill="#00A000"/>
    <path d="M28.1765 83.8411C28.4765 77.1271 32.1175 71.0751 36.2415 65.9851C36.3395 65.8671 36.5365 66.0201 36.4285 66.1441C32.5665 71.2531 29.1645 77.2971 29.0755 83.8421C29.0935 84.4451 28.1595 84.4551 28.1765 83.8421V83.8411Z"
          fill="#B3002D"/>
    <path d="M29.0924 63.9341L29.0765 85.2341C29.0735 85.8221 28.1684 85.8231 28.1774 85.2241L28.6195 63.9291C28.6205 63.6311 29.0985 63.6251 29.0935 63.9341H29.0924Z"
          fill="#B3002D"/>
    <path d="M19.6015 68.4991C23.5885 70.6931 28.1845 73.7361 28.8785 78.6041C28.8925 78.7431 28.7905 78.8671 28.6515 78.8811C28.5125 78.8951 28.3885 78.7931 28.3745 78.6541C27.7345 73.9771 23.2485 70.9911 19.4325 68.8421C19.2075 68.7401 19.3765 68.3811 19.6005 68.4991H19.6015Z"
          fill="#B3002D"/>
    <path d="M26.8935 65.129L28.9355 68.1411C29.1055 68.3841 28.7195 68.648 28.5555 68.398C28.5485 68.392 26.7155 65.254 26.7095 65.245C26.6385 65.129 26.8185 65.014 26.8935 65.129Z"
          fill="#B3002D"/>
    <path d="M30.5805 67.7911L28.9375 71.4411C28.8955 71.5351 28.7845 71.5771 28.6905 71.5351C28.5915 71.4911 28.5505 71.3691 28.6035 71.2741C28.6335 71.2881 30.5435 67.6491 30.5795 67.7921L30.5805 67.7911Z"
          fill="#B3002D"/>
    <path d="M37.2745 69.041C35.8335 69.341 34.0955 69.685 33.1275 70.858C33.0855 70.921 32.9985 70.938 32.9365 70.892C32.8765 70.848 32.8645 70.765 32.9075 70.705C33.4205 70.046 34.1955 69.723 34.9515 69.456C35.7035 69.255 36.5905 68.902 37.3255 68.973C37.3295 69.005 37.3065 69.035 37.2745 69.04V69.041Z"
          fill="#B3002D"/>
    <path d="M22.7505 73.6061C23.4455 73.0171 24.2645 72.2731 25.2705 72.5331C25.3375 72.5551 25.3735 72.6271 25.3505 72.6931C25.3275 72.7621 25.2495 72.7981 25.1825 72.7711C24.8115 72.6151 24.3455 72.7491 23.9495 72.9421C23.5265 73.0841 23.0225 73.6271 22.7465 73.6861C22.7255 73.6641 22.7295 73.6271 22.7505 73.6061Z"
          fill="#B3002D"/>
    <path d="M22.8795 67.6961C22.8825 68.8901 22.9055 70.5711 23.9695 71.2851C24.0635 71.3341 24.0995 71.4521 24.0465 71.5451C23.9955 71.6361 23.8805 71.6681 23.7895 71.6171C22.5755 70.7401 22.6545 69.0181 22.7105 67.6831C22.7195 67.5751 22.8845 67.5881 22.8795 67.6971V67.6961Z"
          fill="#B3002D"/>
    <g style="mix-blend-mode:multiply">
        <path d="M58.0865 87.1341C61.9525 87.1341 65.0865 85.8985 65.0865 84.3741C65.0865 82.8498 61.9525 81.6141 58.0865 81.6141C54.2206 81.6141 51.0865 82.8498 51.0865 84.3741C51.0865 85.8985 54.2206 87.1341 58.0865 87.1341Z"
              fill="#BFD600"/>
    </g>
    <path d="M62.3485 74.6391C68.1955 72.9841 66.4365 70.5031 66.4365 70.5031C69.3515 69.3871 67.7185 66.7851 67.7185 66.7851C67.7185 66.7851 69.7625 65.1171 67.7605 63.8191C65.7175 62.4931 63.8495 65.3001 63.8495 65.3001C60.6015 65.2561 61.4905 69.0771 61.4905 69.0771C60.3735 69.2951 59.7655 69.9011 59.4635 70.6441C59.3745 70.8561 59.3145 71.0781 59.2725 71.3051C59.2695 71.3241 59.2655 71.3411 59.2635 71.3581C59.1795 71.8531 59.1875 72.3731 59.2395 72.8541C59.2515 72.9661 59.2765 73.0771 59.3115 73.1871C59.7015 74.4141 61.1085 74.9901 62.3475 74.6401L62.3485 74.6391Z"
          fill="#00CF24"/>
    <path d="M55.8424 74.959C49.7914 75.509 50.5444 72.562 50.5444 72.562C47.4224 72.565 48.0154 69.55 48.0154 69.55C48.0154 69.55 45.5094 68.726 46.9134 66.796C48.3464 64.826 51.0954 66.777 51.0954 66.777C54.1114 65.573 54.6514 69.457 54.6514 69.457C55.7724 69.26 56.5574 69.609 57.1054 70.194C57.2644 70.36 57.4004 70.546 57.5204 70.743C57.5304 70.759 57.5394 70.774 57.5474 70.789C57.8034 71.221 57.9824 71.709 58.1054 72.177C58.1344 72.286 58.1514 72.399 58.1574 72.513C58.2334 73.798 57.1254 74.841 55.8434 74.957L55.8424 74.959Z"
          fill="#00CF24"/>
    <path d="M60.0174 71.688C63.8594 66.98 60.9954 65.956 60.9954 65.956C62.7444 63.37 59.9144 62.175 59.9144 62.175C59.9144 62.175 60.6334 59.637 58.2484 59.721C55.8144 59.806 55.8934 63.1761 55.8934 63.1761C53.2074 65.0021 56.1254 67.623 56.1254 67.623C55.3354 68.442 55.1844 69.287 55.3634 70.069C55.4124 70.294 55.4904 70.51 55.5864 70.72C55.5944 70.737 55.6014 70.753 55.6094 70.768C55.8244 71.222 56.1284 71.643 56.4474 72.007C56.5214 72.092 56.6054 72.169 56.6974 72.239C57.7204 73.021 59.2034 72.686 60.0184 71.689L60.0174 71.688Z"
          fill="#00A000"/>
    <path d="M57.7106 83.3731C58.0106 76.6591 61.6516 70.6071 65.7756 65.5171C65.8736 65.3991 66.0705 65.5521 65.9625 65.6761C62.1005 70.7851 58.6985 76.8291 58.6095 83.3741C58.6265 83.9771 57.6936 83.9871 57.7106 83.3741V83.3731Z"
          fill="#B3002D"/>
    <path d="M58.6265 63.4661L58.6105 84.7661C58.6075 85.3531 57.7025 85.3551 57.7115 84.7561L58.1535 63.4611C58.1545 63.1631 58.6325 63.1571 58.6275 63.4661H58.6265Z"
          fill="#B3002D"/>
    <path d="M49.1355 68.0311C53.1225 70.2251 57.7185 73.2681 58.4125 78.1361C58.4265 78.2751 58.3245 78.3991 58.1855 78.4131C58.0465 78.4271 57.9225 78.3251 57.9085 78.1861C57.2685 73.5091 52.7825 70.5241 48.9665 68.3741C48.7415 68.2721 48.9105 67.9131 49.1345 68.0311H49.1355Z"
          fill="#B3002D"/>
    <path d="M56.4265 64.661L58.4685 67.673C58.6385 67.916 58.2525 68.18 58.0885 67.93C58.0815 67.924 56.2485 64.786 56.2425 64.777C56.1715 64.661 56.3515 64.546 56.4265 64.661Z"
          fill="#B3002D"/>
    <path d="M60.1134 67.323L58.4704 70.9731C58.4284 71.0671 58.3175 71.1091 58.2235 71.0671C58.1245 71.0231 58.0835 70.901 58.1365 70.806C58.1665 70.82 60.0764 67.1811 60.1124 67.3241L60.1134 67.323Z"
          fill="#B3002D"/>
    <path d="M66.8085 68.573C65.3675 68.873 63.6295 69.217 62.6615 70.39C62.6195 70.454 62.5325 70.47 62.4705 70.424C62.4105 70.38 62.3985 70.297 62.4415 70.237C62.9545 69.578 63.7296 69.255 64.4856 68.988C65.2376 68.787 66.1245 68.434 66.8595 68.505C66.8635 68.537 66.8405 68.568 66.8085 68.573Z"
          fill="#B3002D"/>
    <path d="M52.2846 73.1381C52.9796 72.5491 53.7986 71.8061 54.8046 72.0651C54.8716 72.0871 54.9066 72.1591 54.8846 72.2251C54.8616 72.2941 54.7836 72.3301 54.7166 72.3031C54.3456 72.1471 53.8796 72.2811 53.4836 72.4741C53.0606 72.6161 52.5566 73.1591 52.2806 73.2181C52.2596 73.1961 52.2626 73.1591 52.2836 73.1381H52.2846Z"
          fill="#B3002D"/>
    <path d="M52.4134 67.2281C52.4164 68.4221 52.4394 70.1031 53.5034 70.8171C53.5974 70.8661 53.6324 70.9841 53.5804 71.0771C53.5294 71.1681 53.4145 71.2001 53.3235 71.1491C52.1095 70.2721 52.1884 68.5501 52.2444 67.2151C52.2534 67.1071 52.4184 67.1201 52.4124 67.2291L52.4134 67.2281Z"
          fill="#B3002D"/>
    <g style="mix-blend-mode:multiply">
        <path d="M73.4065 79.122C77.2725 79.122 80.4065 77.8863 80.4065 76.362C80.4065 74.8377 77.2725 73.6021 73.4065 73.6021C69.5405 73.6021 66.4065 74.8377 66.4065 76.362C66.4065 77.8863 69.5405 79.122 73.4065 79.122Z"
              fill="#BFD600"/>
    </g>
    <path d="M77.5985 66.7841C83.4455 65.1291 81.6865 62.6481 81.6865 62.6481C84.6015 61.5321 82.9685 58.9301 82.9685 58.9301C82.9685 58.9301 85.0125 57.2621 83.0105 55.9641C80.9675 54.6381 79.0995 57.4451 79.0995 57.4451C75.8515 57.4011 76.7405 61.2221 76.7405 61.2221C75.6235 61.4401 75.0155 62.0461 74.7135 62.7891C74.6245 63.0011 74.5645 63.2231 74.5225 63.4501C74.5195 63.4691 74.5155 63.4861 74.5135 63.5031C74.4295 63.9981 74.4375 64.5181 74.4895 64.9991C74.5015 65.1111 74.5265 65.2221 74.5615 65.3321C74.9515 66.5591 76.3585 67.1351 77.5975 66.7851L77.5985 66.7841Z"
          fill="#00CF24"/>
    <path d="M71.0924 67.1041C65.0414 67.6541 65.7944 64.7071 65.7944 64.7071C62.6724 64.7101 63.2654 61.6951 63.2654 61.6951C63.2654 61.6951 60.7594 60.8711 62.1634 58.9411C63.5964 56.9711 66.3454 58.922 66.3454 58.922C69.3614 57.718 69.9014 61.6021 69.9014 61.6021C71.0224 61.4051 71.8074 61.7541 72.3554 62.3391C72.5144 62.5051 72.6504 62.6911 72.7704 62.8881C72.7804 62.904 72.7894 62.9191 72.7974 62.9341C73.0534 63.3661 73.2324 63.8541 73.3554 64.3221C73.3844 64.4311 73.4014 64.5441 73.4074 64.6581C73.4834 65.9431 72.3754 66.9861 71.0934 67.1021L71.0924 67.1041Z"
          fill="#00CF24"/>
    <path d="M75.2674 63.8331C79.1094 59.1251 76.2454 58.1011 76.2454 58.1011C77.9944 55.5151 75.1644 54.3201 75.1644 54.3201C75.1644 54.3201 75.8834 51.7821 73.4984 51.8661C71.0644 51.9511 71.1434 55.3211 71.1434 55.3211C68.4574 57.1471 71.3754 59.7681 71.3754 59.7681C70.5854 60.5871 70.4344 61.4321 70.6134 62.2141C70.6624 62.4391 70.7404 62.6551 70.8364 62.8651C70.8444 62.8821 70.8514 62.8981 70.8594 62.9131C71.0744 63.3671 71.3784 63.7881 71.6974 64.1521C71.7714 64.2371 71.8554 64.3141 71.9474 64.3841C72.9704 65.1661 74.4534 64.8311 75.2684 63.8341L75.2674 63.8331Z"
          fill="#00A000"/>
    <path d="M72.9606 75.5191C73.2606 68.8051 76.9016 62.7531 81.0256 57.6631C81.1236 57.5451 81.3205 57.6981 81.2125 57.8221C77.3505 62.9311 73.9485 68.9751 73.8595 75.5191C73.8775 76.1221 72.9436 76.1321 72.9606 75.5191Z"
          fill="#B3002D"/>
    <path d="M73.8765 55.6111L73.8605 76.9111C73.8575 77.4991 72.9525 77.5001 72.9615 76.9011L73.4035 55.6061C73.4045 55.3081 73.8825 55.3021 73.8775 55.6111H73.8765Z"
          fill="#B3002D"/>
    <path d="M64.3855 60.1761C68.3725 62.3701 72.9685 65.4131 73.6625 70.2811C73.6765 70.4201 73.5745 70.5441 73.4355 70.5581C73.2965 70.5721 73.1725 70.4701 73.1585 70.3321C72.5185 65.6551 68.0325 62.6701 64.2165 60.5201C63.9915 60.4181 64.1605 60.0591 64.3845 60.1771L64.3855 60.1761Z"
          fill="#B3002D"/>
    <path d="M71.6774 56.807L73.7194 59.819C73.8894 60.062 73.5034 60.326 73.3394 60.076C73.3334 60.07 71.4994 56.932 71.4934 56.923C71.4224 56.807 71.6024 56.692 71.6774 56.807Z"
          fill="#B3002D"/>
    <path d="M75.3644 59.4681L73.7214 63.1181C73.6794 63.2121 73.5684 63.2541 73.4744 63.2121C73.3754 63.1681 73.3344 63.0461 73.3874 62.9511C73.4174 62.9651 75.3274 59.3261 75.3634 59.4691L75.3644 59.4681Z"
          fill="#B3002D"/>
    <path d="M82.0585 60.718C80.6175 61.018 78.8795 61.362 77.9115 62.535C77.8695 62.598 77.7825 62.615 77.7205 62.569C77.6605 62.525 77.6485 62.442 77.6915 62.382C78.2045 61.723 78.9796 61.4 79.7356 61.133C80.4876 60.932 81.3745 60.579 82.1095 60.65C82.1135 60.682 82.0905 60.712 82.0585 60.717V60.718Z"
          fill="#B3002D"/>
    <path d="M67.5346 65.2831C68.2296 64.6941 69.0486 63.9511 70.0546 64.2101C70.1216 64.2321 70.1576 64.3041 70.1346 64.3701C70.1116 64.4391 70.0336 64.4751 69.9666 64.4481C69.5956 64.2921 69.1296 64.4261 68.7336 64.6191C68.3106 64.7611 67.8066 65.3041 67.5306 65.3631C67.5096 65.3411 67.5126 65.3041 67.5336 65.2831H67.5346Z"
          fill="#B3002D"/>
    <path d="M67.6634 59.3741C67.6664 60.5681 67.6894 62.2491 68.7534 62.9631C68.8474 63.0121 68.8834 63.1301 68.8304 63.2231C68.7794 63.3141 68.6645 63.3461 68.5735 63.2951C67.3595 62.4181 67.4384 60.6961 67.4944 59.3611C67.5034 59.2531 67.6684 59.2661 67.6624 59.3751L67.6634 59.3741Z"
          fill="#B3002D"/>
    <g style="mix-blend-mode:multiply">
        <path d="M88.7264 70.4901C92.5924 70.4901 95.7264 69.2544 95.7264 67.7301C95.7264 66.2058 92.5924 64.9701 88.7264 64.9701C84.8604 64.9701 81.7264 66.2058 81.7264 67.7301C81.7264 69.2544 84.8604 70.4901 88.7264 70.4901Z"
              fill="#BFD600"/>
    </g>
    <path d="M93.2355 58.355C99.0825 56.7 97.3235 54.219 97.3235 54.219C100.238 53.103 98.6055 50.501 98.6055 50.501C98.6055 50.501 100.649 48.833 98.6474 47.535C96.6044 46.209 94.7365 49.016 94.7365 49.016C91.4885 48.972 92.3775 52.793 92.3775 52.793C91.2605 53.011 90.6524 53.617 90.3504 54.36C90.2614 54.572 90.2015 54.794 90.1595 55.021C90.1565 55.04 90.1525 55.057 90.1505 55.074C90.0665 55.569 90.0745 56.089 90.1265 56.57C90.1385 56.682 90.1635 56.793 90.1985 56.903C90.5885 58.13 91.9955 58.706 93.2345 58.356L93.2355 58.355Z"
          fill="#00CF24"/>
    <path d="M86.7294 58.6751C80.6784 59.2251 81.4314 56.2781 81.4314 56.2781C78.3094 56.2811 78.9024 53.2661 78.9024 53.2661C78.9024 53.2661 76.3964 52.4421 77.8004 50.5121C79.2334 48.5421 81.9824 50.4931 81.9824 50.4931C84.9984 49.2891 85.5384 53.1731 85.5384 53.1731C86.6594 52.9761 87.4444 53.3251 87.9924 53.9101C88.1514 54.0761 88.2874 54.2621 88.4074 54.4591C88.4174 54.4751 88.4264 54.4901 88.4344 54.5051C88.6904 54.9371 88.8694 55.4251 88.9924 55.8931C89.0214 56.0021 89.0384 56.1151 89.0444 56.2291C89.1204 57.5141 88.0124 58.5571 86.7304 58.6731L86.7294 58.6751Z"
          fill="#00CF24"/>
    <path d="M90.9045 55.4041C94.7465 50.6961 91.8825 49.6721 91.8825 49.6721C93.6315 47.0861 90.8015 45.8911 90.8015 45.8911C90.8015 45.8911 91.5205 43.3531 89.1355 43.4371C86.7015 43.5221 86.7805 46.8921 86.7805 46.8921C84.0945 48.7181 87.0125 51.3391 87.0125 51.3391C86.2225 52.1581 86.0715 53.0031 86.2505 53.7851C86.2995 54.0101 86.3775 54.2261 86.4735 54.4361C86.4815 54.4531 86.4885 54.4691 86.4965 54.4841C86.7115 54.9381 87.0155 55.3591 87.3345 55.7231C87.4085 55.8081 87.4925 55.8851 87.5845 55.9551C88.6075 56.7371 90.0905 56.4021 90.9055 55.4051L90.9045 55.4041Z"
          fill="#00A000"/>
    <path d="M88.5975 67.0891C88.8975 60.3751 92.5385 54.3231 96.6625 49.2331C96.7605 49.1151 96.9575 49.2681 96.8495 49.3921C92.9875 54.5011 89.5855 60.545 89.4965 67.09C89.5135 67.6931 88.5805 67.7021 88.5975 67.0891Z"
          fill="#B3002D"/>
    <path d="M89.5125 47.182L89.4965 68.482C89.4935 69.07 88.5885 69.071 88.5975 68.472L89.0395 47.177C89.0405 46.879 89.5175 46.873 89.5125 47.182Z"
          fill="#B3002D"/>
    <path d="M80.0224 51.747C84.0094 53.941 88.6054 56.9841 89.2994 61.8521C89.3134 61.9911 89.2114 62.115 89.0724 62.129C88.9334 62.143 88.8094 62.041 88.7954 61.902C88.1554 57.225 83.6694 54.24 79.8534 52.09C79.6284 51.988 79.7984 51.629 80.0224 51.747Z"
          fill="#B3002D"/>
    <path d="M87.3134 48.3771L89.3554 51.3891C89.5254 51.6321 89.1394 51.8961 88.9754 51.6461C88.9684 51.6401 87.1354 48.5021 87.1294 48.4931C87.0584 48.3771 87.2384 48.2621 87.3134 48.3771Z"
          fill="#B3002D"/>
    <path d="M91.0004 51.0391L89.3574 54.6891C89.3154 54.7831 89.2044 54.8251 89.1104 54.7831C89.0114 54.7391 88.9704 54.6171 89.0234 54.5221C89.0534 54.5361 90.9634 50.8971 90.9994 51.0401L91.0004 51.0391Z"
          fill="#B3002D"/>
    <path d="M97.6955 52.2891C96.2545 52.5891 94.5165 52.9331 93.5485 54.1061C93.5065 54.1701 93.4195 54.1861 93.3575 54.1401C93.2975 54.0961 93.2855 54.0131 93.3285 53.9531C93.8415 53.2941 94.6165 52.9711 95.3725 52.7041C96.1245 52.5031 97.0115 52.1501 97.7465 52.2211C97.7505 52.2531 97.7275 52.2841 97.6955 52.2891Z"
          fill="#B3002D"/>
    <path d="M83.1715 56.8541C83.8665 56.2651 84.6855 55.5221 85.6915 55.7811C85.7585 55.8031 85.7945 55.8751 85.7715 55.9411C85.7485 56.0101 85.6705 56.0461 85.6035 56.0191C85.2325 55.8631 84.7665 55.9971 84.3705 56.1901C83.9475 56.3321 83.4435 56.8751 83.1675 56.9341C83.1465 56.9121 83.1495 56.8751 83.1705 56.8541H83.1715Z"
          fill="#B3002D"/>
    <path d="M83.3004 50.944C83.3034 52.138 83.3264 53.819 84.3904 54.533C84.4844 54.582 84.5204 54.7 84.4674 54.793C84.4164 54.884 84.3014 54.916 84.2104 54.865C82.9964 53.988 83.0754 52.266 83.1314 50.931C83.1404 50.823 83.3054 50.836 83.3004 50.945V50.944Z"
          fill="#B3002D"/>
    <g style="mix-blend-mode:multiply">
        <path d="M43.1696 95.695C47.0355 95.695 50.1696 94.4593 50.1696 92.935C50.1696 91.4107 47.0355 90.175 43.1696 90.175C39.3036 90.175 36.1696 91.4107 36.1696 92.935C36.1696 94.4593 39.3036 95.695 43.1696 95.695Z"
              fill="#BFD600"/>
    </g>
    <path d="M47.2955 83.4471C53.1425 81.7921 51.3835 79.3111 51.3835 79.3111C54.2985 78.1951 52.6655 75.5931 52.6655 75.5931C52.6655 75.5931 54.7095 73.9251 52.7075 72.6271C50.6645 71.3011 48.7965 74.1081 48.7965 74.1081C45.5485 74.0641 46.4375 77.8851 46.4375 77.8851C45.3205 78.1031 44.7125 78.7091 44.4105 79.4521C44.3215 79.6641 44.2615 79.8861 44.2195 80.1131C44.2165 80.1321 44.2125 80.1491 44.2105 80.1661C44.1265 80.6611 44.1345 81.1811 44.1865 81.6621C44.1985 81.7741 44.2235 81.885 44.2585 81.995C44.6485 83.222 46.0555 83.7981 47.2945 83.4481L47.2955 83.4471Z"
          fill="#00CF24"/>
    <path d="M40.7895 83.767C34.7385 84.317 35.4915 81.37 35.4915 81.37C32.3695 81.373 32.9625 78.358 32.9625 78.358C32.9625 78.358 30.4565 77.534 31.8605 75.604C33.2935 73.634 36.0425 75.585 36.0425 75.585C39.0585 74.381 39.5985 78.265 39.5985 78.265C40.7195 78.068 41.5045 78.417 42.0525 79.002C42.2115 79.168 42.3475 79.354 42.4675 79.551C42.4775 79.567 42.4865 79.582 42.4945 79.597C42.7505 80.029 42.9295 80.517 43.0525 80.985C43.0815 81.094 43.0985 81.207 43.1045 81.321C43.1805 82.606 42.0725 83.649 40.7905 83.765L40.7895 83.767Z"
          fill="#00CF24"/>
    <path d="M44.9635 80.497C48.8055 75.789 45.9415 74.765 45.9415 74.765C47.6905 72.179 44.8605 70.984 44.8605 70.984C44.8605 70.984 45.5794 68.446 43.1944 68.53C40.7604 68.615 40.8395 71.985 40.8395 71.985C38.1535 73.811 41.0715 76.432 41.0715 76.432C40.2815 77.251 40.1305 78.096 40.3095 78.878C40.3585 79.103 40.4365 79.319 40.5325 79.529C40.5405 79.546 40.5475 79.562 40.5555 79.577C40.7705 80.031 41.0745 80.452 41.3935 80.816C41.4675 80.901 41.5515 80.978 41.6435 81.048C42.6665 81.83 44.1495 81.495 44.9645 80.498L44.9635 80.497Z"
          fill="#00A000"/>
    <path d="M42.6575 92.1821C42.9575 85.4681 46.5985 79.4161 50.7225 74.3261C50.8205 74.2081 51.0175 74.3611 50.9095 74.4851C47.0475 79.5941 43.6454 85.6381 43.5564 92.1831C43.5744 92.7861 42.6405 92.7961 42.6575 92.1831V92.1821Z"
          fill="#B3002D"/>
    <path d="M43.5724 72.2741L43.5564 93.5741C43.5534 94.1611 42.6484 94.1631 42.6574 93.5641L43.0994 72.2691C43.1004 71.9711 43.5784 71.9651 43.5734 72.2741H43.5724Z"
          fill="#B3002D"/>
    <path d="M34.0815 76.84C38.0685 79.034 42.6645 82.077 43.3585 86.945C43.3725 87.084 43.2705 87.208 43.1315 87.222C42.9925 87.236 42.8685 87.134 42.8545 86.996C42.2145 82.319 37.7285 79.3341 33.9125 77.1841C33.6875 77.0821 33.8565 76.723 34.0805 76.841L34.0815 76.84Z"
          fill="#B3002D"/>
    <path d="M41.3735 73.4701L43.4155 76.4821C43.5855 76.7251 43.1995 76.9891 43.0355 76.7391C43.0285 76.7331 41.1955 73.5951 41.1895 73.5861C41.1185 73.4701 41.2985 73.3551 41.3735 73.4701Z"
          fill="#B3002D"/>
    <path d="M45.0605 76.131L43.4175 79.781C43.3755 79.875 43.2645 79.917 43.1705 79.875C43.0715 79.831 43.0305 79.709 43.0835 79.614C43.1135 79.628 45.0235 75.989 45.0595 76.132L45.0605 76.131Z"
          fill="#B3002D"/>
    <path d="M51.7545 77.3811C50.3135 77.6811 48.5755 78.0251 47.6075 79.1981C47.5655 79.2611 47.4785 79.2781 47.4165 79.2321C47.3565 79.1881 47.3445 79.1051 47.3875 79.0451C47.9005 78.3861 48.6754 78.0631 49.4314 77.7961C50.1834 77.5951 51.0705 77.2421 51.8055 77.3131C51.8095 77.3451 51.7865 77.3751 51.7545 77.3801V77.3811Z"
          fill="#B3002D"/>
    <path d="M37.2315 81.9461C37.9265 81.3571 38.7455 80.6141 39.7515 80.8731C39.8185 80.8951 39.8545 80.9671 39.8315 81.0331C39.8085 81.1021 39.7305 81.1381 39.6635 81.1111C39.2925 80.9551 38.8265 81.0891 38.4305 81.2821C38.0075 81.4241 37.5035 81.9671 37.2275 82.0261C37.2065 82.0041 37.2095 81.9671 37.2305 81.9461H37.2315Z"
          fill="#B3002D"/>
    <path d="M37.3595 76.037C37.3625 77.231 37.3855 78.912 38.4495 79.626C38.5435 79.675 38.5795 79.793 38.5265 79.886C38.4755 79.977 38.3605 80.009 38.2695 79.958C37.0555 79.081 37.1345 77.359 37.1905 76.024C37.1995 75.916 37.3645 75.929 37.3595 76.038V76.037Z"
          fill="#B3002D"/>
    <g style="mix-blend-mode:multiply">
        <path d="M73.1355 96.0401C77.0015 96.0401 80.1355 94.8044 80.1355 93.2801C80.1355 91.7558 77.0015 90.5201 73.1355 90.5201C69.2695 90.5201 66.1355 91.7558 66.1355 93.2801C66.1355 94.8044 69.2695 96.0401 73.1355 96.0401Z"
              fill="#BFD600"/>
    </g>
    <path d="M77.3976 83.5441C83.2446 81.8891 81.4856 79.4081 81.4856 79.4081C84.4006 78.2921 82.7676 75.6901 82.7676 75.6901C82.7676 75.6901 84.8116 74.0221 82.8096 72.7241C80.7666 71.3981 78.8986 74.2051 78.8986 74.2051C75.6506 74.1611 76.5395 77.9821 76.5395 77.9821C75.4225 78.2001 74.8146 78.8061 74.5126 79.5491C74.4236 79.7611 74.3636 79.9831 74.3216 80.2101C74.3186 80.2291 74.3146 80.2461 74.3126 80.2631C74.2286 80.7581 74.2366 81.2781 74.2886 81.7591C74.3006 81.8711 74.3256 81.9821 74.3606 82.0921C74.7506 83.3191 76.1576 83.8951 77.3966 83.5451L77.3976 83.5441Z"
          fill="#00CF24"/>
    <path d="M70.8915 83.8641C64.8405 84.4141 65.5935 81.4671 65.5935 81.4671C62.4715 81.4701 63.0645 78.4551 63.0645 78.4551C63.0645 78.4551 60.5585 77.6311 61.9625 75.7011C63.3955 73.7311 66.1445 75.6821 66.1445 75.6821C69.1605 74.4781 69.7005 78.362 69.7005 78.362C70.8215 78.165 71.6065 78.514 72.1545 79.099C72.3135 79.265 72.4495 79.4511 72.5695 79.6481C72.5795 79.6641 72.5885 79.679 72.5965 79.694C72.8525 80.126 73.0315 80.6141 73.1545 81.0821C73.1835 81.1911 73.2005 81.304 73.2065 81.418C73.2825 82.703 72.1745 83.746 70.8925 83.862L70.8915 83.8641Z"
          fill="#00CF24"/>
    <path d="M75.0655 80.5931C78.9075 75.8851 76.0435 74.8611 76.0435 74.8611C77.7925 72.2751 74.9625 71.0801 74.9625 71.0801C74.9625 71.0801 75.6815 68.5421 73.2965 68.6261C70.8625 68.7111 70.9415 72.0811 70.9415 72.0811C68.2555 73.9071 71.1735 76.5281 71.1735 76.5281C70.3835 77.3471 70.2325 78.1921 70.4115 78.9741C70.4605 79.1991 70.5385 79.4151 70.6345 79.6251C70.6425 79.6421 70.6495 79.6581 70.6575 79.6731C70.8725 80.1271 71.1765 80.5481 71.4955 80.9121C71.5695 80.9971 71.6535 81.0741 71.7455 81.1441C72.7685 81.9261 74.2515 81.5911 75.0665 80.5941L75.0655 80.5931Z"
          fill="#00A000"/>
    <path d="M72.7594 92.278C73.0594 85.564 76.7004 79.512 80.8244 74.422C80.9224 74.304 81.1194 74.457 81.0114 74.581C77.1494 79.69 73.7474 85.734 73.6584 92.278C73.6764 92.881 72.7424 92.891 72.7594 92.278Z"
          fill="#B3002D"/>
    <path d="M73.6745 72.3711L73.6585 93.6711C73.6555 94.2591 72.7505 94.2601 72.7595 93.6611L73.2015 72.3661C73.2025 72.0681 73.6805 72.0621 73.6755 72.3711H73.6745Z"
          fill="#B3002D"/>
    <path d="M64.1836 76.9361C68.1706 79.1301 72.7666 82.1731 73.4606 87.0411C73.4746 87.1801 73.3725 87.3041 73.2335 87.3181C73.0945 87.3321 72.9706 87.2301 72.9566 87.0921C72.3166 82.4151 67.8305 79.4301 64.0145 77.2801C63.7895 77.1781 63.9585 76.8191 64.1825 76.9371L64.1836 76.9361Z"
          fill="#B3002D"/>
    <path d="M71.4755 73.566L73.5175 76.578C73.6875 76.821 73.3015 77.0851 73.1375 76.8351C73.1305 76.8291 71.2975 73.691 71.2915 73.682C71.2205 73.566 71.4005 73.451 71.4755 73.566Z"
          fill="#B3002D"/>
    <path d="M75.1625 76.2281L73.5195 79.8781C73.4775 79.9721 73.3665 80.0141 73.2725 79.9721C73.1735 79.9281 73.1325 79.8061 73.1855 79.7111C73.2155 79.7251 75.1255 76.0861 75.1615 76.2291L75.1625 76.2281Z"
          fill="#B3002D"/>
    <path d="M81.8564 77.478C80.4154 77.778 78.6774 78.1221 77.7094 79.2951C77.6674 79.3581 77.5804 79.3751 77.5184 79.3291C77.4584 79.2851 77.4464 79.202 77.4894 79.142C78.0024 78.483 78.7774 78.16 79.5334 77.893C80.2854 77.692 81.1724 77.339 81.9074 77.41C81.9114 77.442 81.8884 77.473 81.8564 77.478Z"
          fill="#B3002D"/>
    <path d="M67.3334 82.043C68.0284 81.454 68.8474 80.711 69.8534 80.97C69.9204 80.992 69.9564 81.064 69.9334 81.13C69.9104 81.199 69.8324 81.235 69.7654 81.208C69.3944 81.052 68.9284 81.186 68.5324 81.379C68.1094 81.521 67.6054 82.064 67.3294 82.123C67.3084 82.101 67.3114 82.064 67.3324 82.043H67.3334Z"
          fill="#B3002D"/>
    <path d="M67.4615 76.1331C67.4645 77.3271 67.4875 79.0081 68.5515 79.7221C68.6455 79.7711 68.6815 79.8891 68.6285 79.9821C68.5775 80.0731 68.4625 80.1051 68.3715 80.0541C67.1575 79.1771 67.2365 77.4551 67.2925 76.1201C67.3015 76.0121 67.4665 76.0251 67.4615 76.1341V76.1331Z"
          fill="#B3002D"/>
    <g style="mix-blend-mode:multiply">
        <path d="M88.4554 88.0271C92.3214 88.0271 95.4554 86.7914 95.4554 85.2671C95.4554 83.7428 92.3214 82.5071 88.4554 82.5071C84.5895 82.5071 81.4554 83.7428 81.4554 85.2671C81.4554 86.7914 84.5895 88.0271 88.4554 88.0271Z"
              fill="#BFD600"/>
    </g>
    <path d="M92.6476 75.6891C98.4946 74.0341 96.7356 71.5531 96.7356 71.5531C99.6506 70.4371 98.0176 67.8351 98.0176 67.8351C98.0176 67.8351 100.062 66.1671 98.0596 64.8691C96.0166 63.5431 94.1486 66.3501 94.1486 66.3501C90.9006 66.3061 91.7895 70.1271 91.7895 70.1271C90.6725 70.3451 90.0646 70.9511 89.7626 71.6941C89.6736 71.9061 89.6136 72.1281 89.5716 72.3551C89.5686 72.3741 89.5646 72.3911 89.5626 72.4081C89.4786 72.9031 89.4866 73.4231 89.5386 73.9041C89.5506 74.0161 89.5756 74.1271 89.6106 74.2371C90.0006 75.4641 91.4076 76.0401 92.6466 75.6901L92.6476 75.6891Z"
          fill="#00CF24"/>
    <path d="M86.1415 76.0091C80.0905 76.5591 80.8435 73.6121 80.8435 73.6121C77.7215 73.6151 78.3145 70.6001 78.3145 70.6001C78.3145 70.6001 75.8085 69.7761 77.2125 67.8461C78.6455 65.8761 81.3945 67.8271 81.3945 67.8271C84.4105 66.6231 84.9505 70.5071 84.9505 70.5071C86.0715 70.3101 86.8565 70.6591 87.4045 71.2441C87.5635 71.4101 87.6995 71.5961 87.8195 71.7931C87.8295 71.8091 87.8385 71.8241 87.8465 71.8391C88.1025 72.2711 88.2815 72.7591 88.4045 73.2271C88.4335 73.3361 88.4505 73.4491 88.4565 73.5631C88.5325 74.8481 87.4245 75.8911 86.1425 76.0071L86.1415 76.0091Z"
          fill="#00CF24"/>
    <path d="M90.3155 72.7381C94.1575 68.0301 91.2935 67.0061 91.2935 67.0061C93.0425 64.4201 90.2125 63.2251 90.2125 63.2251C90.2125 63.2251 90.9315 60.6871 88.5465 60.7711C86.1125 60.8561 86.1915 64.2261 86.1915 64.2261C83.5055 66.0521 86.4235 68.6731 86.4235 68.6731C85.6335 69.4921 85.4825 70.3371 85.6615 71.1191C85.7105 71.3441 85.7885 71.5601 85.8845 71.7701C85.8925 71.7871 85.8995 71.8031 85.9075 71.8181C86.1225 72.2721 86.4265 72.6931 86.7455 73.0571C86.8195 73.1421 86.9035 73.2191 86.9955 73.2891C88.0185 74.0711 89.5015 73.7361 90.3165 72.7391L90.3155 72.7381Z"
          fill="#00A000"/>
    <path d="M88.0094 84.4241C88.3094 77.7101 91.9504 71.6581 96.0744 66.5681C96.1724 66.4501 96.3694 66.6031 96.2614 66.7271C92.3994 71.8361 88.9974 77.8801 88.9084 84.4251C88.9264 85.0281 87.9924 85.0381 88.0094 84.4251V84.4241Z"
          fill="#B3002D"/>
    <path d="M88.9245 64.5161L88.9085 85.8161C88.9055 86.4041 88.0005 86.4051 88.0095 85.8061L88.4515 64.5111C88.4525 64.2131 88.9305 64.2071 88.9255 64.5161H88.9245Z"
          fill="#B3002D"/>
    <path d="M79.4345 69.082C83.4215 71.276 88.0175 74.319 88.7115 79.187C88.7255 79.326 88.6235 79.45 88.4845 79.464C88.3455 79.478 88.2215 79.376 88.2075 79.237C87.5675 74.56 83.0815 71.575 79.2655 69.425C79.0405 69.323 79.2095 68.964 79.4335 69.082H79.4345Z"
          fill="#B3002D"/>
    <path d="M86.7255 65.712L88.7675 68.724C88.9375 68.967 88.5515 69.2311 88.3875 68.9811C88.3805 68.9751 86.5475 65.837 86.5415 65.828C86.4705 65.712 86.6505 65.597 86.7255 65.712Z"
          fill="#B3002D"/>
    <path d="M90.4125 68.3731L88.7695 72.0231C88.7275 72.1171 88.6165 72.1591 88.5225 72.1171C88.4235 72.0731 88.3825 71.9511 88.4355 71.8561C88.4655 71.8701 90.3755 68.2311 90.4115 68.3741L90.4125 68.3731Z"
          fill="#B3002D"/>
    <path d="M97.1064 69.6231C95.6654 69.9231 93.9274 70.267 92.9594 71.44C92.9174 71.503 92.8304 71.52 92.7684 71.474C92.7084 71.43 92.6964 71.3471 92.7394 71.2871C93.2524 70.6281 94.0274 70.3051 94.7834 70.0381C95.5354 69.8371 96.4224 69.4841 97.1574 69.5551C97.1614 69.5871 97.1384 69.617 97.1064 69.622V69.6231Z"
          fill="#B3002D"/>
    <path d="M82.5834 74.188C83.2784 73.599 84.0974 72.856 85.1034 73.115C85.1704 73.137 85.2054 73.2091 85.1834 73.2751C85.1604 73.3441 85.0824 73.38 85.0154 73.353C84.6444 73.197 84.1784 73.331 83.7824 73.524C83.3594 73.666 82.8554 74.209 82.5794 74.268C82.5584 74.246 82.5614 74.209 82.5824 74.188H82.5834Z"
          fill="#B3002D"/>
    <path d="M82.7125 68.2791C82.7155 69.4731 82.7385 71.1541 83.8025 71.8681C83.8965 71.9171 83.9315 72.0351 83.8795 72.1281C83.8285 72.2191 83.7135 72.2511 83.6225 72.2001C82.4085 71.3231 82.4875 69.6011 82.5435 68.2661C82.5525 68.1581 82.7175 68.1711 82.7115 68.2801L82.7125 68.2791Z"
          fill="#B3002D"/>
    <g style="mix-blend-mode:multiply">
        <path d="M103.776 79.3961C107.642 79.3961 110.776 78.1604 110.776 76.6361C110.776 75.1118 107.642 73.8761 103.776 73.8761C99.9095 73.8761 96.7755 75.1118 96.7755 76.6361C96.7755 78.1604 99.9095 79.3961 103.776 79.3961Z"
              fill="#BFD600"/>
    </g>
    <path d="M108.284 67.2601C114.131 65.6051 112.372 63.1241 112.372 63.1241C115.287 62.0081 113.654 59.4061 113.654 59.4061C113.654 59.4061 115.698 57.7381 113.696 56.4401C111.653 55.1141 109.785 57.9211 109.785 57.9211C106.537 57.8771 107.426 61.698 107.426 61.698C106.309 61.916 105.701 62.5221 105.399 63.2651C105.31 63.4771 105.25 63.6991 105.208 63.9261C105.205 63.9451 105.201 63.9621 105.199 63.9791C105.115 64.4741 105.123 64.9941 105.175 65.4751C105.187 65.5871 105.212 65.6981 105.247 65.8081C105.637 67.0351 107.044 67.6111 108.283 67.2611L108.284 67.2601Z"
          fill="#00CF24"/>
    <path d="M101.778 67.58C95.7275 68.13 96.4805 65.183 96.4805 65.183C93.3585 65.186 93.9515 62.171 93.9515 62.171C93.9515 62.171 91.4455 61.347 92.8495 59.417C94.2825 57.447 97.0315 59.398 97.0315 59.398C100.047 58.194 100.587 62.078 100.587 62.078C101.708 61.881 102.493 62.23 103.041 62.815C103.2 62.981 103.337 63.167 103.457 63.364C103.467 63.38 103.475 63.395 103.483 63.41C103.739 63.842 103.918 64.33 104.041 64.798C104.07 64.907 104.087 65.02 104.093 65.134C104.169 66.419 103.061 67.462 101.779 67.578L101.778 67.58Z"
          fill="#00CF24"/>
    <path d="M105.952 64.309C109.794 59.601 106.93 58.577 106.93 58.577C108.679 55.991 105.849 54.796 105.849 54.796C105.849 54.796 106.568 52.258 104.183 52.342C101.749 52.427 101.828 55.797 101.828 55.797C99.1425 57.623 102.06 60.244 102.06 60.244C101.27 61.063 101.119 61.908 101.298 62.69C101.347 62.915 101.425 63.131 101.521 63.341C101.529 63.358 101.536 63.374 101.544 63.389C101.759 63.843 102.063 64.264 102.382 64.628C102.456 64.713 102.54 64.79 102.632 64.86C103.655 65.642 105.138 65.307 105.953 64.31L105.952 64.309Z"
          fill="#00A000"/>
    <path d="M103.646 75.9941C103.946 69.2801 107.587 63.2281 111.711 58.1381C111.809 58.0201 112.006 58.1731 111.898 58.2971C108.036 63.4061 104.634 69.4501 104.545 75.9941C104.563 76.5971 103.629 76.6071 103.646 75.9941Z"
          fill="#B3002D"/>
    <path d="M104.561 56.0871L104.545 77.3871C104.542 77.9741 103.637 77.9761 103.646 77.3771L104.088 56.0821C104.089 55.7841 104.567 55.7781 104.562 56.0871H104.561Z"
          fill="#B3002D"/>
    <path d="M95.0705 60.652C99.0575 62.846 103.654 65.8891 104.348 70.7571C104.362 70.8961 104.26 71.02 104.121 71.034C103.982 71.048 103.858 70.946 103.844 70.808C103.204 66.131 98.7175 63.146 94.9015 60.996C94.6765 60.894 94.8455 60.535 95.0695 60.653L95.0705 60.652Z"
          fill="#B3002D"/>
    <path d="M102.362 57.2821L104.405 60.2941C104.575 60.5371 104.189 60.8011 104.025 60.5511C104.019 60.5451 102.184 57.4071 102.178 57.3981C102.107 57.2821 102.287 57.1671 102.362 57.2821Z"
          fill="#B3002D"/>
    <path d="M106.049 59.944L104.406 63.594C104.364 63.688 104.253 63.73 104.159 63.688C104.06 63.644 104.019 63.522 104.072 63.427C104.102 63.441 106.012 59.802 106.048 59.945L106.049 59.944Z"
          fill="#B3002D"/>
    <path d="M112.743 61.1941C111.302 61.4941 109.564 61.8381 108.596 63.0111C108.554 63.0741 108.467 63.0911 108.405 63.0451C108.345 63.0011 108.333 62.9181 108.376 62.8581C108.889 62.1991 109.664 61.8761 110.42 61.6091C111.172 61.4081 112.059 61.0551 112.794 61.1261C112.798 61.1581 112.775 61.1891 112.743 61.1941Z"
          fill="#B3002D"/>
    <path d="M98.2195 65.759C98.9145 65.17 99.7335 64.426 100.739 64.686C100.806 64.708 100.842 64.78 100.819 64.846C100.796 64.915 100.718 64.951 100.651 64.924C100.28 64.768 99.8145 64.902 99.4185 65.095C98.9955 65.237 98.4915 65.7801 98.2155 65.8391C98.1945 65.8171 98.1975 65.78 98.2185 65.759H98.2195Z"
          fill="#B3002D"/>
    <path d="M98.3485 59.849C98.3515 61.043 98.3745 62.7241 99.4385 63.4381C99.5325 63.4871 99.5685 63.605 99.5155 63.698C99.4645 63.789 99.3495 63.8211 99.2585 63.7701C98.0445 62.8931 98.1235 61.171 98.1795 59.836C98.1885 59.728 98.3535 59.741 98.3475 59.85L98.3485 59.849Z"
          fill="#B3002D"/>
    <g style="mix-blend-mode:multiply">
        <path d="M58.2174 104.6C62.0834 104.6 65.2174 103.364 65.2174 101.84C65.2174 100.316 62.0834 99.0801 58.2174 99.0801C54.3514 99.0801 51.2174 100.316 51.2174 101.84C51.2174 103.364 54.3514 104.6 58.2174 104.6Z"
              fill="#BFD600"/>
    </g>
    <path d="M62.3435 92.3521C68.1905 90.6971 66.4315 88.2161 66.4315 88.2161C69.3465 87.1001 67.7135 84.4981 67.7135 84.4981C67.7135 84.4981 69.7575 82.8301 67.7555 81.5321C65.7125 80.2061 63.8445 83.0131 63.8445 83.0131C60.5965 82.9691 61.4855 86.7901 61.4855 86.7901C60.3685 87.0081 59.7605 87.6141 59.4585 88.3571C59.3695 88.5691 59.3095 88.7911 59.2675 89.0181C59.2645 89.0371 59.2605 89.0541 59.2585 89.0711C59.1745 89.5661 59.1825 90.0861 59.2345 90.5671C59.2465 90.6791 59.2715 90.7901 59.3065 90.9001C59.6965 92.1271 61.1035 92.7031 62.3425 92.3531L62.3435 92.3521Z"
          fill="#00CF24"/>
    <path d="M55.8375 92.672C49.7865 93.222 50.5395 90.2751 50.5395 90.2751C47.4175 90.2781 48.0106 87.263 48.0106 87.263C48.0106 87.263 45.5046 86.439 46.9086 84.509C48.3416 82.539 51.0906 84.4901 51.0906 84.4901C54.1066 83.2861 54.6466 87.1701 54.6466 87.1701C55.7676 86.9731 56.5525 87.3221 57.1005 87.9071C57.2595 88.0731 57.3956 88.2591 57.5156 88.4561C57.5256 88.4721 57.5346 88.4871 57.5426 88.5021C57.7986 88.9341 57.9775 89.4221 58.1005 89.8901C58.1295 89.9991 58.1465 90.1121 58.1525 90.2261C58.2285 91.5111 57.1206 92.5541 55.8386 92.6701L55.8375 92.672Z"
          fill="#00CF24"/>
    <path d="M60.0126 89.402C63.8546 84.694 60.9906 83.67 60.9906 83.67C62.7396 81.084 59.9096 79.889 59.9096 79.889C59.9096 79.889 60.6285 77.351 58.2435 77.435C55.8095 77.52 55.8885 80.89 55.8885 80.89C53.2025 82.716 56.1206 85.337 56.1206 85.337C55.3306 86.156 55.1795 87.001 55.3585 87.783C55.4075 88.008 55.4856 88.224 55.5816 88.434C55.5896 88.451 55.5965 88.4671 55.6045 88.4821C55.8195 88.9361 56.1235 89.357 56.4425 89.721C56.5165 89.806 56.6005 89.883 56.6925 89.953C57.7155 90.735 59.1985 90.4 60.0135 89.403L60.0126 89.402Z"
          fill="#00A000"/>
    <path d="M57.7054 101.087C58.0054 94.3731 61.6464 88.3211 65.7704 83.2311C65.8684 83.1131 66.0654 83.2661 65.9574 83.3901C62.0954 88.4991 58.6934 94.5431 58.6044 101.088C58.6224 101.691 57.6884 101.701 57.7054 101.088V101.087Z"
          fill="#B3002D"/>
    <path d="M58.6215 81.1791L58.6055 102.479C58.6025 103.067 57.6975 103.068 57.7065 102.469L58.1485 81.1741C58.1495 80.8761 58.6275 80.8701 58.6225 81.1791H58.6215Z"
          fill="#B3002D"/>
    <path d="M49.1305 85.7451C53.1175 87.9391 57.7136 90.9821 58.4076 95.8501C58.4216 95.9891 58.3196 96.1131 58.1806 96.1271C58.0416 96.1411 57.9176 96.0391 57.9036 95.9001C57.2636 91.2231 52.7776 88.2371 48.9616 86.0881C48.7366 85.9861 48.9065 85.6271 49.1305 85.7451Z"
          fill="#B3002D"/>
    <path d="M56.4215 82.3751L58.4635 85.3871C58.6335 85.6301 58.2475 85.8941 58.0835 85.6441C58.0765 85.6381 56.2435 82.5001 56.2375 82.4911C56.1665 82.3751 56.3465 82.2601 56.4215 82.3751Z"
          fill="#B3002D"/>
    <path d="M60.1086 85.0361L58.4656 88.6861C58.4236 88.7801 58.3126 88.822 58.2186 88.78C58.1196 88.736 58.0786 88.6141 58.1316 88.5191C58.1616 88.5331 60.0716 84.8941 60.1076 85.0371L60.1086 85.0361Z"
          fill="#B3002D"/>
    <path d="M66.8034 86.2861C65.3624 86.5861 63.6244 86.9301 62.6564 88.1031C62.6144 88.1661 62.5274 88.1832 62.4654 88.1372C62.4054 88.0932 62.3934 88.0101 62.4364 87.9501C62.9494 87.2911 63.7244 86.9682 64.4804 86.7012C65.2324 86.5002 66.1194 86.1471 66.8544 86.2181C66.8584 86.2501 66.8354 86.2801 66.8034 86.2851V86.2861Z"
          fill="#B3002D"/>
    <path d="M52.2794 90.851C52.9744 90.262 53.7934 89.519 54.7994 89.778C54.8664 89.8 54.9024 89.872 54.8794 89.938C54.8564 90.007 54.7784 90.043 54.7114 90.016C54.3404 89.86 53.8744 89.994 53.4784 90.187C53.0554 90.329 52.5514 90.872 52.2754 90.931C52.2544 90.909 52.2574 90.872 52.2784 90.851H52.2794Z"
          fill="#B3002D"/>
    <path d="M52.4086 84.9421C52.4116 86.1361 52.4346 87.817 53.4986 88.531C53.5926 88.58 53.6286 88.6981 53.5756 88.7911C53.5246 88.8821 53.4096 88.914 53.3186 88.863C52.1046 87.986 52.1836 86.2631 52.2396 84.9291C52.2486 84.8211 52.4136 84.8341 52.4076 84.9431L52.4086 84.9421Z"
          fill="#B3002D"/>
</svg>
