<svg width="116" height="133" viewBox="0 0 116 133" fill="none" xmlns="http://www.w3.org/2000/svg">
    <path d="M115.564 97.8989V80.8899L113.137 80.2229L113.005 81.0779L62.367 55.3079C59.835 53.8459 55.73 53.8459 53.198 55.3079L3.02798 80.3389L0 81.0059V97.9099C0 98.8679 0.632987 99.8259 1.89899 100.557L53.198 130.175C55.73 131.637 59.835 131.637 62.367 130.175L113.666 100.558C114.937 99.8239 115.569 98.8609 115.564 97.8989Z"
          fill="#A8522A"/>
    <path d="M115.564 82.2019V78.7989H113.137L113.005 79.1859L62.367 49.9499C59.835 48.4879 55.73 48.4879 53.198 49.9499L3.02798 78.9159H0V82.2139C0 83.1719 0.632987 84.1299 1.89899 84.8619L53.198 114.479C55.73 115.941 59.835 115.941 62.367 114.479L113.666 84.8619C114.937 84.1279 115.57 83.1649 115.565 82.2029L115.564 82.2019Z"
          fill="#C16037"/>
    <path d="M115.564 79.2279V75.8249H113.137L113.005 76.2119L62.367 46.9759C59.835 45.5139 55.73 45.5139 53.198 46.9759L3.02798 75.9419H0V79.2399C0 80.1979 0.632987 81.1559 1.89899 81.8869L53.198 111.505C55.73 112.966 59.835 112.966 62.367 111.505L113.666 81.8879C114.937 81.1539 115.57 80.1909 115.565 79.2289L115.564 79.2279Z"
          fill="#C16037"/>
    <path d="M57.798 54.2129C56.134 54.2109 54.468 54.5759 53.198 55.3089L3.02798 80.3399L0 81.0069V97.9109C0 98.8689 0.632987 99.8269 1.89899 100.558L53.198 130.176C54.468 130.909 56.134 131.274 57.798 131.272V54.2139V54.2129Z"
          fill="#C96A3E"/>
    <path d="M57.798 48.8539C56.134 48.8519 54.468 49.2169 53.198 49.9499L3.02798 78.9159H0V82.2139C0 83.1719 0.632987 84.1299 1.89899 84.8619L53.198 114.479C54.468 115.212 56.134 115.577 57.798 115.575V48.8549V48.8539Z"
          fill="#EA8F67"/>
    <path d="M57.798 45.8799C56.134 45.8779 54.468 46.2429 53.198 46.9759L3.02798 75.9419H0V79.2399C0 80.1979 0.632987 81.1559 1.89899 81.8869L53.198 111.505C54.468 112.238 56.134 112.603 57.798 112.601V45.8809V45.8799Z"
          fill="#EA8F67"/>
    <path d="M62.366 108.206C59.834 109.668 55.729 109.668 53.198 108.206L1.899 78.5888C-0.633 77.1268 -0.633 74.7568 1.899 73.2948L53.198 43.6778C55.73 42.2158 59.835 42.2158 62.366 43.6778L113.665 73.2948C116.197 74.7568 116.197 77.1268 113.665 78.5888L62.366 108.206Z"
          fill="#D2704A"/>
    <path d="M49.6769 35.5028C60.5079 22.4108 52.5199 19.4918 52.5199 19.4918C57.4589 12.2948 49.5689 8.89781 49.5689 8.89781C49.5689 8.89781 51.6269 1.81279 44.9559 2.00379C38.1469 2.19579 38.3049 11.6208 38.3049 11.6208C30.7599 16.6768 38.8709 24.0598 38.8709 24.0598C36.6459 26.3338 36.2099 28.6958 36.6949 30.8858C36.8269 31.5148 37.0409 32.1218 37.3059 32.7108C37.3279 32.7588 37.3469 32.8038 37.3679 32.8458C37.9619 34.1198 38.8039 35.3018 39.6889 36.3268C39.8939 36.5648 40.1279 36.7818 40.3819 36.9788C43.2279 39.1848 47.3819 38.2758 49.6769 35.5018V35.5028Z"
          fill="#00CF24"/>
    <path d="M35.209 46.5689C22.153 57.4429 19.208 49.4649 19.208 49.4649C12.027 54.4279 8.60497 46.5489 8.60497 46.5489C8.60497 46.5489 1.52697 48.6299 1.69597 41.9579C1.86597 35.1489 11.291 35.2749 11.291 35.2749C16.322 27.7139 23.732 35.7999 23.732 35.7999C25.999 33.5669 28.359 33.1229 30.551 33.6009C31.181 33.7309 31.788 33.9429 32.378 34.2059C32.426 34.2279 32.472 34.2469 32.514 34.2679C33.789 34.8569 34.975 35.6959 36.003 36.5779C36.242 36.7829 36.46 37.0159 36.658 37.2689C38.873 40.1079 37.978 44.2649 35.212 46.5689H35.209Z"
          fill="#00CF24"/>
    <path d="M39.6249 32.4119C40.9939 15.4759 32.7759 17.6638 32.7759 17.6638C32.6969 8.93484 24.285 10.6758 24.285 10.6758C24.285 10.6758 21.91 3.69084 16.553 7.67184C11.084 11.7328 16.617 19.3649 16.617 19.3649C13.333 27.8329 24.211 29.2328 24.211 29.2328C23.692 32.3718 24.688 34.5568 26.341 36.0738C26.81 36.5138 27.3329 36.8879 27.8879 37.2189C27.9339 37.2459 27.975 37.2718 28.017 37.2938C29.233 37.9968 30.6019 38.4828 31.9139 38.8148C32.2189 38.8928 32.535 38.9358 32.856 38.9518C36.452 39.1278 39.336 36.0019 39.626 32.4129L39.6249 32.4119Z"
          fill="#00A000"/>
    <path d="M52.8689 62.9728C42.9179 47.0888 41.657 27.3008 43.082 9.06382C43.13 8.64582 43.8049 8.66382 43.7649 9.13282C43.0199 22.7368 44.261 36.7018 48.787 49.5988C50.399 53.8418 52.4289 57.8928 54.9659 61.5828C55.8869 62.9648 53.8069 64.3818 52.8689 62.9718V62.9728Z"
          fill="#B3002D"/>
    <path d="M23.3679 15.6939L57.15 64.7489C57.544 65.3209 57.4 66.1039 56.827 66.4979C56.248 66.8979 55.45 66.7419 55.064 66.1549L22.2689 16.4349C21.8119 15.7439 22.866 14.9719 23.367 15.6949L23.3679 15.6939Z"
          fill="#B3002D"/>
    <path d="M8.77006 41.2729C20.8661 39.9059 37.5241 39.8649 46.1701 49.8029C46.7561 50.5229 45.663 51.4299 45.07 50.6929C36.857 41.1419 20.5461 41.1269 8.92808 42.3299C8.24608 42.4419 8.05806 41.3719 8.77006 41.2729Z"
          fill="#B3002D"/>
    <path d="M20.204 21.9378L29.6869 25.6298C30.4649 25.9358 30.006 27.1268 29.222 26.8248C29.202 26.8218 19.992 22.5078 19.965 22.4978C19.618 22.3428 19.849 21.7918 20.204 21.9378Z"
          fill="#B3002D"/>
    <path d="M32.917 22.2108L34.93 33.2198C34.982 33.5038 34.794 33.7758 34.51 33.8278C34.211 33.8838 33.924 33.6668 33.896 33.3648L32.817 22.2258C32.81 22.1668 32.907 22.1478 32.917 22.2118V22.2108Z"
          fill="#B3002D"/>
    <path d="M50.3109 14.4588C47.4599 17.4708 44.0339 20.9218 43.6499 25.2338C43.6599 25.7158 42.8949 25.7228 42.9019 25.2358C43.4019 20.6828 47.0069 17.2738 50.0869 14.2148C50.2409 14.0708 50.4729 14.3138 50.3109 14.4588Z"
          fill="#B3002D"/>
    <path d="M24.1269 48.0269C24.7619 45.6009 25.568 42.4719 28.225 41.5559C28.415 41.5079 28.6079 41.6219 28.6559 41.8119C28.7039 42.0019 28.59 42.1949 28.4 42.2429C26.072 42.9229 25.102 45.9509 24.435 48.1019C24.387 48.2949 24.0799 48.2229 24.1269 48.0269Z"
          fill="#B3002D"/>
    <path d="M15.041 34.2199C16.998 36.9869 19.537 40.7349 23.25 40.7509C23.542 40.7149 23.808 40.9249 23.839 41.2169C23.872 41.5159 23.644 41.7849 23.344 41.8009C21.194 41.8779 19.455 40.5229 18.06 39.1059C16.705 37.7019 15.592 36.1299 14.632 34.4549C14.479 34.1939 14.89 33.9519 15.041 34.2199Z"
          fill="#B3002D"/>
    <g style="mix-blend-mode:multiply" opacity="0.3">
        <path d="M58 95.0001C70.1503 95.0001 80 90.7468 80 85.5001C80 80.2534 70.1503 76.0001 58 76.0001C45.8497 76.0001 36 80.2534 36 85.5001C36 90.7468 45.8497 95.0001 58 95.0001Z"
              fill="#B85B3E"/>
    </g>
    <path d="M77.594 67.2349C77.5906 67.2389 77.589 67.2422 77.589 67.2449L77.594 67.2399C77.594 70.2589 70.5949 77.4769 73.1509 85.8169C74.2429 89.3819 69.3209 89.6409 67.9549 87.8329C66.1059 85.3909 58.3619 83.9359 54.7459 83.3649C53.6809 83.1939 52.9739 83.1059 52.8849 83.0849C52.8589 83.0789 52.844 83.0789 52.844 83.0789C50.095 82.6789 47.3769 81.7589 44.8249 80.2829C34.1109 74.0629 30.463 60.3349 36.683 49.6199C41.953 40.5369 52.6149 36.5299 62.2699 39.3049C63.6629 39.7049 65.0349 40.2459 66.3709 40.9429C66.6979 41.1089 67.02 41.2859 67.342 41.4719C76.478 46.7729 80.474 57.5449 77.594 67.2349Z"
          fill="#D8006C"/>
    <path d="M36.8861 53.5878C36.5281 54.4298 36.2011 55.3448 36.3811 56.2418C36.5601 57.1398 37.4441 57.9548 38.3311 57.7298C39.0231 57.5558 39.4341 56.8658 39.7871 56.2458C42.8231 50.9228 45.6011 51.5808 50.4731 49.6338C52.3051 48.9008 56.097 46.6798 55.354 44.0878C52.701 34.8348 38.318 50.2248 36.885 53.5888L36.8861 53.5878Z"
          fill="url(#paint0_linear_918_41351)"/>
    <g style="mix-blend-mode:multiply" opacity="0.4">
        <path d="M77.594 67.2349V67.2408C77.594 70.2598 70.5949 77.4779 73.1509 85.8179C74.2429 89.3829 69.321 89.6419 67.955 87.8339C66.106 85.3919 58.362 83.9368 54.746 83.3658C55.229 80.7678 56.492 78.2478 57.77 75.8828C58.747 74.0698 59.755 72.2609 61.075 70.6819C62.997 68.3789 65.512 66.6328 67.455 64.3528C70.708 60.5338 72.169 55.2529 71.331 50.3069C70.941 48.0099 70.059 45.8009 68.791 43.8429C68.136 42.8349 67.159 41.9308 66.37 40.9438C66.697 41.1098 67.0189 41.2869 67.3409 41.4729C76.4769 46.7739 80.473 57.5459 77.593 67.2359L77.594 67.2349Z"
              fill="#D8006C"/>
    </g>
    <g filter="url(#filter0_f_918_41351)">
        <path d="M70.8524 16.617C71.3478 14.9894 73.6522 14.9894 74.1476 16.617L75.8494 22.2083C76.0166 22.7575 76.4463 23.1873 76.9955 23.3544L82.5868 25.0563C84.2145 25.5517 84.2145 27.856 82.5868 28.3514L76.9955 30.0533C76.4463 30.2204 76.0166 30.6502 75.8494 31.1994L74.1476 36.7907C73.6522 38.4183 71.3478 38.4183 70.8524 36.7907L69.1506 31.1994C68.9834 30.6502 68.5536 30.2204 68.0045 30.0533L62.4132 28.3514C60.7855 27.856 60.7855 25.5517 62.4132 25.0563L68.0045 23.3544C68.5536 23.1873 68.9834 22.7575 69.1506 22.2083L70.8524 16.617Z"
              fill="#FDCB1B"/>
    </g>
    <g filter="url(#filter1_f_918_41351)">
        <path d="M24.1713 71.5693C24.5708 70.2567 26.4292 70.2567 26.8287 71.5693L28.2011 76.0784C28.3359 76.5213 28.6825 76.8679 29.1254 77.0027L33.6345 78.3752C34.9472 78.7747 34.9472 80.633 33.6345 81.0326L29.1254 82.405C28.6825 82.5398 28.3359 82.8864 28.2011 83.3293L26.8287 87.8384C26.4292 89.151 24.5708 89.151 24.1713 87.8384L22.7989 83.3293C22.6641 82.8864 22.3175 82.5398 21.8746 82.405L17.3655 81.0326C16.0528 80.633 16.0528 78.7747 17.3655 78.3752L21.8746 77.0027C22.3175 76.8679 22.6641 76.5213 22.7989 76.0784L24.1713 71.5693Z"
              fill="#FDCB1B"/>
    </g>
    <path d="M70.8524 16.617C71.3478 14.9894 73.6522 14.9894 74.1476 16.617L75.8494 22.2083C76.0166 22.7575 76.4463 23.1873 76.9955 23.3544L82.5868 25.0563C84.2145 25.5517 84.2145 27.856 82.5868 28.3514L76.9955 30.0533C76.4463 30.2204 76.0166 30.6502 75.8494 31.1994L74.1476 36.7907C73.6522 38.4183 71.3478 38.4183 70.8524 36.7907L69.1506 31.1994C68.9834 30.6502 68.5536 30.2204 68.0045 30.0533L62.4132 28.3514C60.7855 27.856 60.7855 25.5517 62.4132 25.0563L68.0045 23.3544C68.5536 23.1873 68.9834 22.7575 69.1506 22.2083L70.8524 16.617Z"
          fill="#FDCB1B"/>
    <path d="M24.1713 71.5693C24.5708 70.2567 26.4292 70.2567 26.8287 71.5693L28.2011 76.0784C28.3359 76.5213 28.6825 76.8679 29.1254 77.0027L33.6345 78.3752C34.9472 78.7747 34.9472 80.633 33.6345 81.0326L29.1254 82.405C28.6825 82.5398 28.3359 82.8864 28.2011 83.3293L26.8287 87.8384C26.4292 89.151 24.5708 89.151 24.1713 87.8384L22.7989 83.3293C22.6641 82.8864 22.3175 82.5398 21.8746 82.405L17.3655 81.0326C16.0528 80.633 16.0528 78.7747 17.3655 78.3752L21.8746 77.0027C22.3175 76.8679 22.6641 76.5213 22.7989 76.0784L24.1713 71.5693Z"
          fill="#FDCB1B"/>
    <defs>
        <filter id="filter0_f_918_41351" x="57.1924" y="11.3963" width="30.6151" height="30.6151"
                filterUnits="userSpaceOnUse" color-interpolation-filters="sRGB">
            <feFlood flood-opacity="0" result="BackgroundImageFix"/>
            <feBlend mode="normal" in="SourceGraphic" in2="BackgroundImageFix" result="shape"/>
            <feGaussianBlur stdDeviation="2" result="effect1_foregroundBlur_918_41351"/>
        </filter>
        <filter id="filter1_f_918_41351" x="12.381" y="66.5848" width="26.238" height="26.238"
                filterUnits="userSpaceOnUse" color-interpolation-filters="sRGB">
            <feFlood flood-opacity="0" result="BackgroundImageFix"/>
            <feBlend mode="normal" in="SourceGraphic" in2="BackgroundImageFix" result="shape"/>
            <feGaussianBlur stdDeviation="2" result="effect1_foregroundBlur_918_41351"/>
        </filter>
        <linearGradient id="paint0_linear_918_41351" x1="20.5671" y1="43.2598" x2="50.795" y2="50.8808"
                        gradientUnits="userSpaceOnUse">
            <stop stop-color="white"/>
            <stop offset="1" stop-color="white" stop-opacity="0"/>
        </linearGradient>
    </defs>
</svg>
