<svg width="116" height="133" viewBox="0 0 116 133" fill="none" xmlns="http://www.w3.org/2000/svg">
    <path d="M115.564 99.6119V82.6029L113.137 81.9359L113.005 82.791L62.367 57.0209C59.835 55.5589 55.73 55.5589 53.198 57.0209L3.028 82.0519L0 82.7189V99.6229C0 100.581 0.633002 101.539 1.899 102.27L53.198 131.888C55.73 133.35 59.835 133.35 62.367 131.888L113.666 102.271C114.937 101.537 115.569 100.574 115.564 99.6119Z"
          fill="#A8522A"/>
    <path d="M115.564 83.915V80.512H113.137L113.005 80.899L62.367 51.663C59.835 50.201 55.73 50.201 53.198 51.663L3.028 80.629H0V83.927C0 84.885 0.633002 85.843 1.899 86.575L53.198 116.192C55.73 117.654 59.835 117.654 62.367 116.192L113.666 86.575C114.937 85.841 115.57 84.8781 115.565 83.916L115.564 83.915Z"
          fill="#C16037"/>
    <path d="M115.564 80.941V77.538H113.137L113.005 77.925L62.367 48.689C59.835 47.227 55.73 47.227 53.198 48.689L3.028 77.655H0V80.953C0 81.911 0.633002 82.869 1.899 83.6L53.198 113.218C55.73 114.679 59.835 114.679 62.367 113.218L113.666 83.601C114.937 82.867 115.57 81.904 115.565 80.942L115.564 80.941Z"
          fill="#C16037"/>
    <path d="M57.798 55.926C56.134 55.924 54.468 56.289 53.198 57.022L3.028 82.053L0 82.72V99.624C0 100.582 0.633002 101.54 1.899 102.271L53.198 131.889C54.468 132.622 56.134 132.987 57.798 132.985V55.927V55.926Z"
          fill="#C96A3E"/>
    <path d="M57.798 50.567C56.134 50.565 54.468 50.93 53.198 51.663L3.028 80.629H0V83.927C0 84.885 0.633002 85.8431 1.899 86.5751L53.198 116.192C54.468 116.925 56.134 117.29 57.798 117.288V50.568V50.567Z"
          fill="#EA8F67"/>
    <path d="M57.798 47.593C56.134 47.591 54.468 47.956 53.198 48.689L3.028 77.655H0V80.953C0 81.911 0.633002 82.869 1.899 83.6L53.198 113.218C54.468 113.951 56.134 114.316 57.798 114.314V47.594V47.593Z"
          fill="#EA8F67"/>
    <path d="M62.366 109.919C59.834 111.381 55.729 111.381 53.198 109.919L1.899 80.3021C-0.633 78.8401 -0.633 76.4701 1.899 75.0081L53.198 45.3911C55.73 43.9291 59.835 43.9291 62.366 45.3911L113.665 75.0081C116.197 76.4701 116.197 78.8401 113.665 80.3021L62.366 109.919Z"
          fill="#D2704A"/>
    <path d="M27.9729 74.959L27.9459 75.0389L17.4919 69.0039C16.9689 68.7019 16.1219 68.7019 15.5989 69.0039L5.24194 74.9839H4.61694V77.0349C4.61694 77.2329 4.74794 76.6749 5.00894 76.8259L15.5989 83.696C16.1219 83.998 16.9689 83.998 17.4919 83.696L68.0889 54.4419C68.3509 54.2899 68.4819 54.0919 68.4809 53.8929V51.8199L27.9729 74.959Z"
          fill="#8E331D"/>
    <path d="M15.5989 69.0039L5.24194 74.9839H4.61694V77.0349C4.61694 77.2329 4.74794 77.4309 5.00894 77.5819L15.5989 83.696C15.8609 83.847 16.2049 83.9229 16.5489 83.9219V68.778C16.2049 68.778 15.8619 68.8529 15.5989 69.0039Z"
          fill="#A54C33"/>
    <path d="M17.492 81.6441C16.969 81.9461 16.1219 81.9461 15.5989 81.6441L5.00895 75.5301C4.48595 75.2281 4.48595 74.7391 5.00895 74.4371L55.6179 45.2711C56.1409 44.9691 56.9879 44.9691 57.5109 45.2711L68.1009 51.3851C68.6239 51.6871 68.6239 52.1761 68.1009 52.4781L17.492 81.6431V81.6441Z"
          fill="#B85B3E"/>
    <path d="M42.0199 83.245L41.9929 83.325L31.5389 77.29C31.0159 76.988 30.169 76.988 29.646 77.29L19.2889 83.27H18.6639V85.321C18.6639 85.519 18.7949 84.961 19.0559 85.112L29.646 91.982C30.169 92.284 31.0159 92.284 31.5389 91.982L82.1359 62.728C82.3979 62.576 82.5289 62.378 82.5279 62.179V60.106L42.0199 83.245Z"
          fill="#8E331D"/>
    <path d="M29.646 77.289L19.2889 83.269H18.6639V85.32C18.6639 85.518 18.7949 85.716 19.0559 85.867L29.646 91.981C29.908 92.132 30.2519 92.208 30.5959 92.207V77.063C30.2519 77.063 29.909 77.138 29.646 77.289Z"
          fill="#A54C33"/>
    <path d="M31.5389 89.9299C31.0159 90.2319 30.169 90.2319 29.646 89.9299L19.0559 83.8159C18.5329 83.5139 18.5329 83.0249 19.0559 82.7229L69.6649 53.5569C70.1879 53.2549 71.0349 53.2549 71.5579 53.5569L82.1479 59.6709C82.6709 59.9729 82.6709 60.4619 82.1479 60.7639L31.5389 89.9299Z"
          fill="#B85B3E"/>
    <path d="M56.131 91.3391L56.104 91.4191L45.65 85.3841C45.127 85.0821 44.28 85.0821 43.757 85.3841L33.4 91.3641H32.775V93.4151C32.775 93.6131 32.906 93.0551 33.167 93.2061L43.757 100.076C44.28 100.378 45.127 100.378 45.65 100.076L96.247 70.8221C96.509 70.6701 96.64 70.4721 96.639 70.2731V68.2001L56.131 91.3391Z"
          fill="#8E331D"/>
    <path d="M43.758 85.383L33.401 91.363H32.776V93.414C32.776 93.612 32.907 93.81 33.168 93.961L43.758 100.075C44.02 100.226 44.364 100.302 44.708 100.301V85.157C44.364 85.157 44.021 85.232 43.758 85.383Z"
          fill="#A54C33"/>
    <path d="M45.65 98.0239C45.127 98.3259 44.28 98.3259 43.757 98.0239L33.167 91.9099C32.644 91.6079 32.644 91.1189 33.167 90.8169L83.776 61.6509C84.299 61.3489 85.146 61.3489 85.669 61.6509L96.259 67.765C96.782 68.067 96.782 68.5559 96.259 68.8579L45.65 98.0239Z"
          fill="#B85B3E"/>
    <path d="M70.4269 99.583L70.3999 99.663L59.9459 93.628C59.4229 93.326 58.5759 93.326 58.0529 93.628L47.6959 99.608H47.0709V101.659C47.0709 101.857 47.2019 101.299 47.4629 101.45L58.0529 108.32C58.5759 108.622 59.4229 108.622 59.9459 108.32L110.543 79.066C110.805 78.914 110.936 78.716 110.935 78.517V76.444L70.4269 99.583Z"
          fill="#8E331D"/>
    <path d="M58.054 93.628L47.697 99.608H47.072V101.659C47.072 101.857 47.203 102.055 47.464 102.206L58.054 108.32C58.316 108.471 58.66 108.547 59.004 108.546V93.402C58.66 93.402 58.317 93.477 58.054 93.628Z"
          fill="#A54C33"/>
    <path d="M59.9459 106.268C59.4229 106.57 58.5759 106.57 58.0529 106.268L47.4629 100.154C46.9399 99.852 46.9399 99.363 47.4629 99.061L98.0719 69.895C98.5949 69.593 99.4419 69.593 99.9649 69.895L110.555 76.009C111.078 76.311 111.078 76.8 110.555 77.102L59.9459 106.267V106.268Z"
          fill="#B85B3E"/>
    <g style="mix-blend-mode:multiply" opacity="0.4">
        <path d="M28.901 69.7001C32.767 69.7001 35.901 68.4644 35.901 66.9401C35.901 65.4158 32.767 64.1801 28.901 64.1801C25.035 64.1801 21.901 65.4158 21.901 66.9401C21.901 68.4644 25.035 69.7001 28.901 69.7001Z"
              fill="#B85B3E"/>
    </g>
    <path d="M33.162 57.204C39.009 55.549 37.25 53.068 37.25 53.068C40.165 51.952 38.532 49.35 38.532 49.35C38.532 49.35 40.576 47.682 38.574 46.384C36.531 45.058 34.663 47.865 34.663 47.865C31.415 47.821 32.304 51.642 32.304 51.642C31.187 51.86 30.579 52.466 30.277 53.209C30.188 53.421 30.128 53.643 30.086 53.87C30.083 53.889 30.079 53.906 30.077 53.923C29.993 54.418 30.001 54.938 30.053 55.419C30.065 55.531 30.09 55.642 30.125 55.752C30.515 56.979 31.922 57.555 33.161 57.205L33.162 57.204Z"
          fill="#00CF24"/>
    <path d="M26.657 57.524C20.606 58.074 21.359 55.127 21.359 55.127C18.237 55.13 18.83 52.115 18.83 52.115C18.83 52.115 16.324 51.291 17.728 49.361C19.161 47.391 21.91 49.342 21.91 49.342C24.926 48.138 25.466 52.022 25.466 52.022C26.587 51.825 27.372 52.174 27.92 52.759C28.079 52.925 28.215 53.111 28.335 53.308C28.345 53.324 28.354 53.339 28.362 53.354C28.618 53.786 28.797 54.274 28.92 54.742C28.949 54.851 28.966 54.964 28.972 55.078C29.048 56.363 27.94 57.406 26.658 57.522L26.657 57.524Z"
          fill="#00CF24"/>
    <path d="M30.831 54.253C34.673 49.545 31.809 48.521 31.809 48.521C33.558 45.935 30.728 44.74 30.728 44.74C30.728 44.74 31.447 42.202 29.062 42.286C26.628 42.371 26.707 45.741 26.707 45.741C24.021 47.567 26.939 50.188 26.939 50.188C26.149 51.007 25.998 51.852 26.177 52.634C26.226 52.859 26.304 53.075 26.4 53.285C26.408 53.302 26.415 53.318 26.423 53.333C26.638 53.787 26.942 54.208 27.261 54.572C27.335 54.657 27.419 54.734 27.511 54.804C28.534 55.586 30.017 55.251 30.832 54.254L30.831 54.253Z"
          fill="#00A000"/>
    <path d="M28.525 65.938C28.825 59.224 32.466 53.1721 36.59 48.0821C36.688 47.9641 36.885 48.1171 36.777 48.2411C32.915 53.3501 29.513 59.394 29.424 65.938C29.442 66.541 28.508 66.551 28.525 65.938Z"
          fill="#B3002D"/>
    <path d="M29.4399 46.031L29.424 67.331C29.421 67.919 28.516 67.92 28.525 67.321L28.967 46.026C28.968 45.728 29.446 45.722 29.441 46.031H29.4399Z"
          fill="#B3002D"/>
    <path d="M19.9489 50.596C23.9359 52.79 28.5319 55.833 29.2259 60.701C29.2399 60.84 29.1379 60.964 28.9989 60.978C28.8599 60.992 28.7359 60.89 28.7219 60.752C28.0819 56.075 23.5959 53.09 19.7799 50.94C19.5549 50.838 19.7239 50.479 19.9479 50.597L19.9489 50.596Z"
          fill="#B3002D"/>
    <path d="M27.2409 47.226L29.2829 50.2379C29.4529 50.4809 29.0669 50.7449 28.9029 50.4949C28.8959 50.4889 27.0629 47.351 27.0569 47.342C26.9859 47.226 27.1659 47.111 27.2409 47.226Z"
          fill="#B3002D"/>
    <path d="M30.928 49.888L29.285 53.538C29.243 53.632 29.132 53.674 29.038 53.632C28.939 53.588 28.898 53.466 28.951 53.371C28.981 53.385 30.891 49.746 30.927 49.889L30.928 49.888Z"
          fill="#B3002D"/>
    <path d="M37.622 51.1379C36.181 51.4379 34.443 51.7819 33.475 52.9549C33.433 53.0179 33.346 53.035 33.284 52.989C33.224 52.945 33.212 52.862 33.255 52.802C33.768 52.143 34.543 51.82 35.299 51.553C36.051 51.352 36.938 50.999 37.673 51.07C37.677 51.102 37.654 51.1319 37.622 51.1369V51.1379Z"
          fill="#B3002D"/>
    <path d="M23.0979 55.7031C23.7929 55.1141 24.6119 54.3711 25.6179 54.6301C25.6849 54.6521 25.7209 54.7241 25.6979 54.7901C25.6749 54.8591 25.5969 54.8951 25.5299 54.8681C25.1589 54.7121 24.6929 54.8461 24.2969 55.0391C23.8739 55.1811 23.3699 55.724 23.0939 55.783C23.0729 55.761 23.0759 55.7241 23.0969 55.7031H23.0979Z"
          fill="#B3002D"/>
    <path d="M23.2269 49.793C23.2299 50.987 23.2529 52.668 24.3169 53.382C24.4109 53.431 24.4469 53.549 24.3939 53.642C24.3429 53.733 24.2279 53.765 24.1369 53.714C22.9229 52.837 23.0019 51.115 23.0579 49.78C23.0669 49.672 23.2319 49.685 23.2259 49.794L23.2269 49.793Z"
          fill="#B3002D"/>
    <g style="mix-blend-mode:multiply" opacity="0.4">
        <path d="M44.2209 61.687C48.0869 61.687 51.2209 60.4513 51.2209 58.927C51.2209 57.4027 48.0869 56.167 44.2209 56.167C40.355 56.167 37.2209 57.4027 37.2209 58.927C37.2209 60.4513 40.355 61.687 44.2209 61.687Z"
              fill="#B85B3E"/>
    </g>
    <path d="M48.413 49.3491C54.26 47.6941 52.5009 45.2131 52.5009 45.2131C55.4159 44.0971 53.783 41.495 53.783 41.495C53.783 41.495 55.827 39.827 53.825 38.529C51.7819 37.203 49.9139 40.0101 49.9139 40.0101C46.6659 39.9661 47.555 43.787 47.555 43.787C46.438 44.005 45.83 44.6111 45.528 45.3541C45.439 45.5661 45.3789 45.7881 45.3369 46.0151C45.3339 46.0341 45.3299 46.051 45.3279 46.068C45.2439 46.563 45.252 47.083 45.304 47.564C45.316 47.676 45.3409 47.7871 45.3759 47.8971C45.7659 49.1241 47.173 49.7001 48.412 49.3501L48.413 49.3491Z"
          fill="#00CF24"/>
    <path d="M41.907 49.669C35.856 50.219 36.609 47.272 36.609 47.272C33.487 47.275 34.08 44.26 34.08 44.26C34.08 44.26 31.574 43.436 32.978 41.506C34.411 39.536 37.16 41.487 37.16 41.487C40.176 40.283 40.716 44.167 40.716 44.167C41.837 43.97 42.622 44.319 43.17 44.904C43.329 45.07 43.465 45.256 43.585 45.453C43.595 45.469 43.604 45.484 43.612 45.499C43.868 45.931 44.047 46.419 44.17 46.887C44.199 46.996 44.216 47.109 44.222 47.223C44.298 48.508 43.19 49.551 41.908 49.667L41.907 49.669Z"
          fill="#00CF24"/>
    <path d="M46.081 46.398C49.923 41.69 47.059 40.666 47.059 40.666C48.808 38.08 45.978 36.885 45.978 36.885C45.978 36.885 46.697 34.347 44.312 34.431C41.878 34.516 41.957 37.886 41.957 37.886C39.271 39.712 42.189 42.333 42.189 42.333C41.399 43.152 41.248 43.997 41.427 44.779C41.476 45.004 41.554 45.22 41.65 45.43C41.658 45.447 41.665 45.463 41.673 45.478C41.888 45.932 42.192 46.353 42.511 46.717C42.585 46.802 42.669 46.879 42.761 46.949C43.784 47.731 45.267 47.396 46.082 46.399L46.081 46.398Z"
          fill="#00A000"/>
    <path d="M43.775 58.0841C44.075 51.3701 47.716 45.3181 51.84 40.2281C51.938 40.1101 52.135 40.263 52.027 40.387C48.165 45.496 44.763 51.54 44.674 58.085C44.692 58.688 43.758 58.6971 43.775 58.0841Z"
          fill="#B3002D"/>
    <path d="M44.6899 38.1761L44.674 59.4761C44.671 60.0641 43.766 60.0651 43.775 59.4661L44.217 38.171C44.218 37.873 44.696 37.8671 44.691 38.1761H44.6899Z"
          fill="#B3002D"/>
    <path d="M35.1989 42.742C39.1859 44.936 43.7819 47.979 44.4759 52.847C44.4899 52.986 44.3879 53.11 44.2489 53.124C44.1099 53.138 43.9859 53.036 43.9719 52.897C43.3319 48.22 38.8459 45.235 35.0299 43.085C34.8049 42.983 34.9749 42.624 35.1989 42.742Z"
          fill="#B3002D"/>
    <path d="M42.4909 39.372L44.5329 42.3839C44.7029 42.6269 44.3169 42.8909 44.1529 42.6409C44.1459 42.6349 42.3129 39.4969 42.3069 39.4879C42.2359 39.3719 42.4159 39.257 42.4909 39.372Z"
          fill="#B3002D"/>
    <path d="M46.178 42.033L44.535 45.683C44.493 45.777 44.382 45.819 44.288 45.777C44.189 45.733 44.148 45.611 44.201 45.516C44.231 45.53 46.141 41.891 46.177 42.034L46.178 42.033Z"
          fill="#B3002D"/>
    <path d="M52.872 43.283C51.431 43.583 49.693 43.927 48.725 45.1C48.683 45.163 48.596 45.18 48.534 45.134C48.474 45.09 48.462 45.007 48.505 44.947C49.018 44.288 49.793 43.965 50.549 43.698C51.301 43.497 52.188 43.144 52.923 43.215C52.927 43.247 52.904 43.278 52.872 43.283Z"
          fill="#B3002D"/>
    <path d="M38.349 47.848C39.044 47.259 39.863 46.516 40.869 46.775C40.936 46.797 40.971 46.869 40.949 46.935C40.926 47.004 40.848 47.04 40.781 47.013C40.41 46.857 39.944 46.991 39.548 47.184C39.125 47.326 38.621 47.869 38.345 47.928C38.324 47.906 38.327 47.869 38.348 47.848H38.349Z"
          fill="#B3002D"/>
    <path d="M38.4769 41.939C38.4799 43.133 38.5029 44.814 39.5669 45.528C39.6609 45.577 39.6969 45.695 39.6439 45.788C39.5929 45.879 39.4779 45.911 39.3869 45.86C38.1729 44.983 38.2519 43.261 38.3079 41.926C38.3169 41.818 38.4819 41.831 38.4759 41.94L38.4769 41.939Z"
          fill="#B3002D"/>
    <g style="mix-blend-mode:multiply" opacity="0.4">
        <path d="M59.5399 53.056C63.4059 53.056 66.5399 51.8203 66.5399 50.296C66.5399 48.7717 63.4059 47.536 59.5399 47.536C55.6739 47.536 52.5399 48.7717 52.5399 50.296C52.5399 51.8203 55.6739 53.056 59.5399 53.056Z"
              fill="#B85B3E"/>
    </g>
    <path d="M64.0489 40.92C69.8959 39.265 68.1369 36.784 68.1369 36.784C71.0519 35.668 69.4189 33.066 69.4189 33.066C69.4189 33.066 71.463 31.398 69.461 30.1C67.418 28.774 65.5499 31.581 65.5499 31.581C62.3019 31.537 63.1909 35.358 63.1909 35.358C62.0739 35.576 61.4659 36.182 61.1639 36.925C61.0749 37.137 61.0149 37.359 60.9729 37.586C60.9699 37.605 60.9659 37.622 60.9639 37.639C60.8799 38.134 60.8879 38.654 60.9399 39.135C60.9519 39.247 60.9769 39.358 61.0119 39.4679C61.4019 40.695 62.8089 41.271 64.0479 40.921L64.0489 40.92Z"
          fill="#00CF24"/>
    <path d="M57.543 41.24C51.492 41.79 52.245 38.843 52.245 38.843C49.123 38.846 49.716 35.831 49.716 35.831C49.716 35.831 47.21 35.007 48.614 33.077C50.047 31.107 52.796 33.0581 52.796 33.0581C55.812 31.8541 56.352 35.738 56.352 35.738C57.473 35.541 58.258 35.89 58.806 36.475C58.965 36.641 59.101 36.827 59.221 37.024C59.231 37.04 59.24 37.055 59.248 37.07C59.504 37.502 59.683 37.99 59.806 38.458C59.835 38.567 59.852 38.68 59.858 38.794C59.934 40.079 58.826 41.122 57.544 41.238L57.543 41.24Z"
          fill="#00CF24"/>
    <path d="M61.718 37.969C65.56 33.261 62.696 32.237 62.696 32.237C64.445 29.651 61.615 28.456 61.615 28.456C61.615 28.456 62.334 25.918 59.949 26.002C57.515 26.087 57.594 29.457 57.594 29.457C54.908 31.283 57.826 33.904 57.826 33.904C57.036 34.723 56.885 35.568 57.064 36.35C57.113 36.575 57.191 36.791 57.287 37.001C57.295 37.018 57.302 37.034 57.31 37.049C57.525 37.503 57.829 37.924 58.148 38.288C58.222 38.373 58.306 38.45 58.398 38.52C59.421 39.302 60.904 38.967 61.719 37.97L61.718 37.969Z"
          fill="#00A000"/>
    <path d="M59.411 49.654C59.711 42.94 63.352 36.888 67.476 31.798C67.574 31.68 67.771 31.833 67.663 31.957C63.801 37.066 60.399 43.11 60.31 49.654C60.328 50.257 59.394 50.267 59.411 49.654Z"
          fill="#B3002D"/>
    <path d="M60.3269 29.747L60.3109 51.047C60.3079 51.634 59.4029 51.636 59.4119 51.037L59.8539 29.742C59.8549 29.444 60.3319 29.438 60.3269 29.747Z"
          fill="#B3002D"/>
    <path d="M50.836 34.312C54.823 36.506 59.419 39.549 60.113 44.417C60.127 44.556 60.025 44.68 59.886 44.694C59.747 44.708 59.623 44.606 59.609 44.468C58.969 39.791 54.483 36.806 50.667 34.656C50.442 34.554 50.611 34.195 50.835 34.313L50.836 34.312Z"
          fill="#B3002D"/>
    <path d="M58.128 30.942L60.17 33.954C60.34 34.197 59.954 34.461 59.79 34.211C59.784 34.205 57.95 31.067 57.944 31.058C57.873 30.942 58.053 30.827 58.128 30.942Z"
          fill="#B3002D"/>
    <path d="M61.815 33.6041L60.172 37.254C60.13 37.348 60.019 37.39 59.925 37.348C59.826 37.304 59.785 37.1821 59.838 37.0871C59.868 37.1011 61.778 33.4621 61.814 33.6051L61.815 33.6041Z"
          fill="#B3002D"/>
    <path d="M68.509 34.854C67.068 35.154 65.33 35.498 64.362 36.671C64.32 36.734 64.233 36.751 64.171 36.705C64.111 36.661 64.099 36.578 64.142 36.518C64.655 35.859 65.43 35.536 66.186 35.269C66.938 35.068 67.825 34.715 68.56 34.786C68.564 34.818 68.541 34.848 68.509 34.853V34.854Z"
          fill="#B3002D"/>
    <path d="M53.985 39.419C54.68 38.83 55.499 38.087 56.505 38.346C56.572 38.368 56.608 38.44 56.585 38.506C56.562 38.575 56.484 38.611 56.417 38.584C56.046 38.428 55.58 38.562 55.184 38.755C54.761 38.897 54.257 39.44 53.981 39.499C53.96 39.477 53.963 39.44 53.984 39.419H53.985Z"
          fill="#B3002D"/>
    <path d="M54.114 33.509C54.117 34.703 54.14 36.3839 55.204 37.0979C55.298 37.1469 55.334 37.265 55.281 37.3579C55.23 37.4489 55.115 37.4809 55.024 37.4299C53.81 36.5529 53.889 34.831 53.945 33.496C53.954 33.388 54.119 33.401 54.113 33.51L54.114 33.509Z"
          fill="#B3002D"/>
    <g style="mix-blend-mode:multiply" opacity="0.4">
        <path d="M13.983 78.26C17.849 78.26 20.983 77.0243 20.983 75.5C20.983 73.9757 17.849 72.74 13.983 72.74C10.117 72.74 6.98303 73.9757 6.98303 75.5C6.98303 77.0243 10.117 78.26 13.983 78.26Z"
              fill="#B85B3E"/>
    </g>
    <path d="M18.109 66.012C23.956 64.357 22.197 61.876 22.197 61.876C25.112 60.76 23.479 58.158 23.479 58.158C23.479 58.158 25.523 56.49 23.521 55.192C21.478 53.866 19.61 56.673 19.61 56.673C16.362 56.629 17.251 60.45 17.251 60.45C16.134 60.668 15.526 61.274 15.224 62.017C15.135 62.229 15.075 62.451 15.033 62.678C15.03 62.697 15.026 62.714 15.024 62.731C14.94 63.226 14.948 63.746 15 64.227C15.012 64.339 15.037 64.45 15.072 64.56C15.462 65.787 16.869 66.363 18.108 66.013L18.109 66.012Z"
          fill="#00CF24"/>
    <path d="M11.6029 66.332C5.55194 66.882 6.30494 63.935 6.30494 63.935C3.18294 63.938 3.77594 60.923 3.77594 60.923C3.77594 60.923 1.26994 60.099 2.67394 58.169C4.10694 56.199 6.85595 58.15 6.85595 58.15C9.87195 56.946 10.4119 60.8299 10.4119 60.8299C11.5329 60.6329 12.3179 60.9819 12.8659 61.5669C13.0249 61.7329 13.1609 61.919 13.2809 62.116C13.2909 62.132 13.2999 62.1469 13.3079 62.1619C13.5639 62.5939 13.7429 63.0819 13.8659 63.5499C13.8949 63.6589 13.9119 63.7719 13.9179 63.8859C13.9939 65.1709 12.8859 66.2139 11.6039 66.3299L11.6029 66.332Z"
          fill="#00CF24"/>
    <path d="M15.7779 63.0619C19.6199 58.3539 16.7559 57.3299 16.7559 57.3299C18.5049 54.7439 15.6749 53.5489 15.6749 53.5489C15.6749 53.5489 16.3939 51.0109 14.0089 51.0949C11.5749 51.1799 11.6539 54.5499 11.6539 54.5499C8.96792 56.3759 11.8859 58.9969 11.8859 58.9969C11.0959 59.8159 10.9449 60.6609 11.1239 61.4429C11.1729 61.6679 11.2509 61.8839 11.3469 62.0939C11.3549 62.1109 11.3619 62.1269 11.3699 62.1419C11.5849 62.5959 11.8889 63.0169 12.2079 63.3809C12.2819 63.4659 12.3659 63.5429 12.4579 63.6129C13.4809 64.3949 14.9639 64.0599 15.7789 63.0629L15.7779 63.0619Z"
          fill="#00A000"/>
    <path d="M13.4709 74.747C13.7709 68.033 17.4119 61.981 21.5359 56.891C21.6339 56.773 21.8309 56.926 21.7229 57.05C17.8609 62.159 14.4589 68.203 14.3699 74.748C14.3879 75.351 13.4539 75.36 13.4709 74.747Z"
          fill="#B3002D"/>
    <path d="M14.386 54.839L14.37 76.139C14.367 76.727 13.462 76.728 13.471 76.129L13.913 54.834C13.914 54.536 14.391 54.53 14.386 54.839Z"
          fill="#B3002D"/>
    <path d="M4.89594 59.405C8.88294 61.599 13.4789 64.642 14.1729 69.51C14.1869 69.649 14.0849 69.773 13.9459 69.787C13.8069 69.801 13.683 69.699 13.669 69.56C13.029 64.883 8.54295 61.898 4.72695 59.748C4.50195 59.646 4.67194 59.287 4.89594 59.405Z"
          fill="#B3002D"/>
    <path d="M12.1869 56.035L14.229 59.047C14.399 59.29 14.0129 59.554 13.8489 59.304C13.8419 59.298 12.009 56.16 12.003 56.151C11.932 56.035 12.1119 55.92 12.1869 56.035Z"
          fill="#B3002D"/>
    <path d="M15.8739 58.696L14.231 62.346C14.189 62.44 14.0779 62.482 13.9839 62.44C13.8849 62.396 13.844 62.274 13.897 62.179C13.927 62.193 15.8369 58.554 15.8729 58.697L15.8739 58.696Z"
          fill="#B3002D"/>
    <path d="M22.5679 59.947C21.1269 60.247 19.3889 60.591 18.4209 61.764C18.3789 61.827 18.2919 61.844 18.2299 61.798C18.1699 61.754 18.1579 61.671 18.2009 61.611C18.7139 60.952 19.4889 60.629 20.2449 60.362C20.9969 60.161 21.8839 59.808 22.6189 59.879C22.6229 59.911 22.5999 59.942 22.5679 59.947Z"
          fill="#B3002D"/>
    <path d="M8.04494 64.5109C8.73994 63.9219 9.55894 63.1789 10.5649 63.4379C10.6319 63.4599 10.6679 63.5319 10.6449 63.5979C10.6219 63.6669 10.5439 63.7029 10.4769 63.6759C10.1059 63.5199 9.63994 63.654 9.24394 63.847C8.82094 63.989 8.31694 64.5319 8.04094 64.5909C8.01994 64.5689 8.02394 64.5319 8.04494 64.5109Z"
          fill="#B3002D"/>
    <path d="M8.17393 58.602C8.17693 59.796 8.19993 61.477 9.26393 62.191C9.35793 62.24 9.39394 62.358 9.34094 62.451C9.28994 62.542 9.17494 62.574 9.08394 62.523C7.86994 61.646 7.94894 59.924 8.00494 58.589C8.01394 58.481 8.17894 58.494 8.17294 58.603L8.17393 58.602Z"
          fill="#B3002D"/>
    <g style="mix-blend-mode:multiply" opacity="0.4">
        <path d="M43.293 77.7941C47.159 77.7941 50.293 76.5584 50.293 75.0341C50.293 73.5098 47.159 72.274 43.293 72.274C39.427 72.274 36.293 73.5098 36.293 75.0341C36.293 76.5584 39.427 77.7941 43.293 77.7941Z"
              fill="#B85B3E"/>
    </g>
    <path d="M47.5549 65.298C53.4019 63.643 51.6429 61.162 51.6429 61.162C54.5579 60.046 52.9249 57.444 52.9249 57.444C52.9249 57.444 54.9689 55.776 52.9669 54.478C50.9239 53.152 49.0559 55.959 49.0559 55.959C45.8079 55.915 46.6969 59.736 46.6969 59.736C45.5799 59.954 44.9719 60.56 44.6699 61.303C44.5809 61.515 44.5209 61.737 44.4789 61.964C44.4759 61.983 44.4719 62 44.4699 62.017C44.3859 62.512 44.3939 63.032 44.4459 63.513C44.4579 63.625 44.4829 63.736 44.5179 63.846C44.9079 65.073 46.3149 65.649 47.5539 65.299L47.5549 65.298Z"
          fill="#00CF24"/>
    <path d="M41.049 65.618C34.998 66.168 35.751 63.221 35.751 63.221C32.629 63.224 33.222 60.209 33.222 60.209C33.222 60.209 30.716 59.385 32.12 57.455C33.553 55.485 36.302 57.436 36.302 57.436C39.318 56.232 39.858 60.116 39.858 60.116C40.979 59.919 41.764 60.268 42.312 60.853C42.471 61.019 42.607 61.205 42.727 61.402C42.737 61.418 42.746 61.433 42.754 61.448C43.01 61.88 43.189 62.368 43.312 62.836C43.341 62.945 43.358 63.058 43.364 63.172C43.44 64.457 42.332 65.5 41.05 65.616L41.049 65.618Z"
          fill="#00CF24"/>
    <path d="M45.224 62.347C49.066 57.639 46.202 56.615 46.202 56.615C47.951 54.029 45.121 52.834 45.121 52.834C45.121 52.834 45.84 50.296 43.455 50.38C41.021 50.465 41.1 53.835 41.1 53.835C38.414 55.661 41.332 58.282 41.332 58.282C40.542 59.101 40.391 59.946 40.57 60.728C40.619 60.953 40.697 61.169 40.793 61.379C40.801 61.396 40.808 61.412 40.816 61.427C41.031 61.881 41.335 62.302 41.654 62.666C41.728 62.751 41.812 62.828 41.904 62.898C42.927 63.68 44.41 63.345 45.225 62.348L45.224 62.347Z"
          fill="#00A000"/>
    <path d="M42.917 74.033C43.217 67.319 46.858 61.267 50.982 56.177C51.08 56.059 51.277 56.212 51.169 56.336C47.307 61.445 43.905 67.489 43.816 74.034C43.833 74.637 42.9 74.647 42.917 74.034V74.033Z"
          fill="#B3002D"/>
    <path d="M43.833 54.125L43.817 75.425C43.814 76.013 42.909 76.014 42.918 75.415L43.36 54.12C43.361 53.822 43.839 53.816 43.834 54.125H43.833Z"
          fill="#B3002D"/>
    <path d="M34.342 58.691C38.329 60.885 42.925 63.928 43.619 68.796C43.633 68.935 43.531 69.059 43.392 69.073C43.253 69.087 43.129 68.985 43.115 68.846C42.475 64.169 37.989 61.184 34.173 59.034C33.948 58.932 34.117 58.573 34.341 58.691H34.342Z"
          fill="#B3002D"/>
    <path d="M41.633 55.321L43.675 58.333C43.845 58.576 43.459 58.84 43.295 58.59C43.288 58.584 41.455 55.446 41.449 55.437C41.378 55.321 41.558 55.206 41.633 55.321Z"
          fill="#B3002D"/>
    <path d="M45.321 57.982L43.678 61.632C43.636 61.726 43.525 61.768 43.431 61.726C43.332 61.682 43.291 61.56 43.344 61.465C43.374 61.479 45.284 57.84 45.32 57.983L45.321 57.982Z"
          fill="#B3002D"/>
    <path d="M52.015 59.2319C50.574 59.5319 48.836 59.876 47.868 61.049C47.826 61.113 47.739 61.129 47.677 61.083C47.617 61.039 47.605 60.9559 47.648 60.8959C48.161 60.2369 48.936 59.914 49.692 59.647C50.444 59.446 51.331 59.093 52.066 59.164C52.07 59.196 52.047 59.2259 52.015 59.2309V59.2319Z"
          fill="#B3002D"/>
    <path d="M37.491 63.7971C38.186 63.2081 39.005 62.4651 40.011 62.7241C40.078 62.7461 40.113 62.8181 40.091 62.8841C40.068 62.9531 39.99 62.9891 39.923 62.9621C39.552 62.8061 39.086 62.9401 38.69 63.1331C38.267 63.2751 37.763 63.8181 37.487 63.8771C37.466 63.8551 37.469 63.8181 37.49 63.7971H37.491Z"
          fill="#B3002D"/>
    <path d="M37.62 57.888C37.623 59.082 37.646 60.763 38.71 61.477C38.804 61.526 38.84 61.644 38.787 61.737C38.736 61.828 38.621 61.86 38.53 61.809C37.316 60.932 37.395 59.21 37.451 57.875C37.46 57.767 37.625 57.78 37.62 57.889V57.888Z"
          fill="#B3002D"/>
    <g style="mix-blend-mode:multiply" opacity="0.4">
        <path d="M58.6129 69.782C62.4789 69.782 65.6129 68.5463 65.6129 67.022C65.6129 65.4977 62.4789 64.262 58.6129 64.262C54.7469 64.262 51.6129 65.4977 51.6129 67.022C51.6129 68.5463 54.7469 69.782 58.6129 69.782Z"
              fill="#B85B3E"/>
    </g>
    <path d="M62.8049 57.443C68.6519 55.788 66.8929 53.3071 66.8929 53.3071C69.8079 52.1911 68.1749 49.589 68.1749 49.589C68.1749 49.589 70.2189 47.921 68.2169 46.623C66.1739 45.297 64.3059 48.1041 64.3059 48.1041C61.0579 48.0601 61.9469 51.8811 61.9469 51.8811C60.8299 52.0991 60.2219 52.705 59.9199 53.448C59.8309 53.66 59.7709 53.8821 59.7289 54.1091C59.7259 54.1281 59.7219 54.145 59.7199 54.162C59.6359 54.657 59.6439 55.177 59.6959 55.658C59.7079 55.77 59.7329 55.881 59.7679 55.991C60.1579 57.218 61.5649 57.7941 62.8039 57.4441L62.8049 57.443Z"
          fill="#00CF24"/>
    <path d="M56.299 57.763C50.248 58.313 51.001 55.366 51.001 55.366C47.879 55.369 48.472 52.354 48.472 52.354C48.472 52.354 45.966 51.53 47.37 49.6C48.803 47.63 51.552 49.581 51.552 49.581C54.568 48.377 55.108 52.261 55.108 52.261C56.229 52.064 57.014 52.413 57.562 52.998C57.721 53.164 57.857 53.35 57.977 53.547C57.987 53.563 57.996 53.578 58.004 53.593C58.26 54.025 58.439 54.513 58.562 54.981C58.591 55.09 58.608 55.203 58.614 55.317C58.69 56.602 57.582 57.645 56.3 57.761L56.299 57.763Z"
          fill="#00CF24"/>
    <path d="M60.474 54.493C64.316 49.785 61.452 48.761 61.452 48.761C63.201 46.175 60.371 44.98 60.371 44.98C60.371 44.98 61.09 42.442 58.705 42.526C56.271 42.611 56.35 45.981 56.35 45.981C53.664 47.807 56.582 50.428 56.582 50.428C55.792 51.247 55.641 52.092 55.82 52.874C55.869 53.099 55.947 53.315 56.043 53.525C56.051 53.542 56.058 53.558 56.066 53.573C56.281 54.027 56.585 54.448 56.904 54.812C56.978 54.897 57.062 54.974 57.154 55.044C58.177 55.826 59.66 55.491 60.475 54.494L60.474 54.493Z"
          fill="#00A000"/>
    <path d="M58.167 66.1781C58.467 59.4641 62.108 53.412 66.232 48.322C66.331 48.204 66.527 48.357 66.419 48.481C62.557 53.59 59.155 59.6341 59.066 66.1781C59.084 66.7811 58.15 66.7911 58.167 66.1781Z"
          fill="#B3002D"/>
    <path d="M59.083 46.27L59.067 67.57C59.064 68.157 58.159 68.159 58.168 67.56L58.61 46.2651C58.611 45.9671 59.089 45.961 59.084 46.27H59.083Z"
          fill="#B3002D"/>
    <path d="M49.592 50.836C53.579 53.03 58.175 56.073 58.869 60.941C58.883 61.08 58.781 61.204 58.642 61.218C58.503 61.232 58.379 61.13 58.365 60.992C57.725 56.315 53.239 53.33 49.423 51.18C49.198 51.078 49.367 50.719 49.591 50.837L49.592 50.836Z"
          fill="#B3002D"/>
    <path d="M56.884 47.4659L58.926 50.4779C59.096 50.7209 58.71 50.985 58.546 50.735C58.54 50.729 56.706 47.5909 56.7 47.5819C56.629 47.4659 56.809 47.3509 56.884 47.4659Z"
          fill="#B3002D"/>
    <path d="M60.571 50.127L58.928 53.777C58.886 53.871 58.775 53.913 58.681 53.871C58.582 53.827 58.541 53.705 58.594 53.61C58.624 53.624 60.534 49.985 60.57 50.128L60.571 50.127Z"
          fill="#B3002D"/>
    <path d="M67.265 51.3779C65.824 51.6779 64.086 52.022 63.118 53.195C63.076 53.258 62.989 53.275 62.927 53.229C62.867 53.185 62.855 53.1019 62.898 53.0419C63.411 52.3829 64.186 52.0599 64.942 51.7929C65.694 51.5919 66.581 51.2389 67.316 51.3099C67.32 51.3419 67.297 51.3729 67.265 51.3779Z"
          fill="#B3002D"/>
    <path d="M52.741 55.942C53.436 55.353 54.255 54.609 55.261 54.869C55.328 54.891 55.364 54.963 55.341 55.029C55.318 55.098 55.24 55.134 55.173 55.107C54.802 54.951 54.336 55.085 53.94 55.278C53.517 55.42 53.013 55.963 52.737 56.022C52.716 56 52.719 55.963 52.74 55.942H52.741Z"
          fill="#B3002D"/>
    <path d="M52.87 50.033C52.873 51.227 52.896 52.908 53.96 53.622C54.054 53.671 54.09 53.789 54.037 53.882C53.986 53.973 53.871 54.005 53.78 53.954C52.566 53.077 52.645 51.355 52.701 50.02C52.71 49.912 52.875 49.925 52.869 50.034L52.87 50.033Z"
          fill="#B3002D"/>
    <g style="mix-blend-mode:multiply" opacity="0.4">
        <path d="M73.933 61.15C77.799 61.15 80.933 59.9143 80.933 58.39C80.933 56.8657 77.799 55.63 73.933 55.63C70.067 55.63 66.933 56.8657 66.933 58.39C66.933 59.9143 70.067 61.15 73.933 61.15Z"
              fill="#B85B3E"/>
    </g>
    <path d="M78.442 49.014C84.289 47.359 82.53 44.878 82.53 44.878C85.445 43.762 83.812 41.16 83.812 41.16C83.812 41.16 85.856 39.492 83.854 38.194C81.811 36.868 79.943 39.675 79.943 39.675C76.695 39.631 77.584 43.452 77.584 43.452C76.467 43.67 75.859 44.276 75.557 45.019C75.468 45.231 75.408 45.453 75.366 45.68C75.363 45.699 75.359 45.716 75.357 45.733C75.273 46.228 75.281 46.748 75.333 47.229C75.345 47.341 75.37 47.452 75.405 47.562C75.795 48.789 77.202 49.365 78.441 49.015L78.442 49.014Z"
          fill="#00CF24"/>
    <path d="M71.9359 49.3341C65.8849 49.8841 66.6379 46.9371 66.6379 46.9371C63.5159 46.9401 64.1089 43.925 64.1089 43.925C64.1089 43.925 61.6029 43.101 63.0069 41.171C64.4399 39.201 67.189 41.152 67.189 41.152C70.205 39.948 70.745 43.832 70.745 43.832C71.866 43.635 72.6509 43.984 73.1989 44.569C73.3579 44.735 73.4939 44.9211 73.6139 45.1181C73.6239 45.1341 73.633 45.149 73.641 45.164C73.897 45.596 74.0759 46.084 74.1989 46.552C74.2279 46.661 74.2449 46.774 74.2509 46.888C74.3269 48.173 73.2189 49.216 71.9369 49.332L71.9359 49.3341Z"
          fill="#00CF24"/>
    <path d="M76.1109 46.063C79.9529 41.355 77.0889 40.331 77.0889 40.331C78.8379 37.745 76.0079 36.55 76.0079 36.55C76.0079 36.55 76.7269 34.012 74.3419 34.096C71.9079 34.181 71.9869 37.551 71.9869 37.551C69.3009 39.377 72.2189 41.998 72.2189 41.998C71.4289 42.817 71.2779 43.662 71.4569 44.444C71.5059 44.669 71.5839 44.885 71.6799 45.095C71.6879 45.112 71.6949 45.128 71.7029 45.143C71.9179 45.597 72.2219 46.018 72.5409 46.382C72.6149 46.467 72.6989 46.544 72.7909 46.614C73.8139 47.396 75.2969 47.061 76.1119 46.064L76.1109 46.063Z"
          fill="#00A000"/>
    <path d="M73.8039 57.749C74.1039 51.035 77.7449 44.983 81.8689 39.893C81.9669 39.775 82.164 39.928 82.056 40.052C78.194 45.161 74.7919 51.205 74.7029 57.75C74.7199 58.353 73.7869 58.363 73.8039 57.75V57.749Z"
          fill="#B3002D"/>
    <path d="M74.719 37.841L74.703 59.141C74.7 59.729 73.795 59.73 73.804 59.131L74.246 37.836C74.247 37.538 74.724 37.532 74.719 37.841Z"
          fill="#B3002D"/>
    <path d="M65.2289 42.4059C69.2159 44.5999 73.8119 47.6429 74.5059 52.5109C74.5199 52.6499 74.418 52.7739 74.279 52.7879C74.14 52.8019 74.0159 52.7 74.0019 52.562C73.3619 47.885 68.876 44.8989 65.06 42.7499C64.835 42.6479 65.004 42.289 65.228 42.407L65.2289 42.4059Z"
          fill="#B3002D"/>
    <path d="M72.52 39.037L74.5619 42.049C74.7319 42.292 74.3459 42.556 74.1819 42.306C74.1749 42.3 72.342 39.162 72.336 39.153C72.265 39.037 72.445 38.922 72.52 39.037Z"
          fill="#B3002D"/>
    <path d="M76.2069 41.698L74.564 45.348C74.522 45.442 74.411 45.484 74.317 45.442C74.218 45.398 74.177 45.276 74.23 45.181C74.26 45.195 76.17 41.5561 76.206 41.6991L76.2069 41.698Z"
          fill="#B3002D"/>
    <path d="M82.9019 42.948C81.4609 43.248 79.7229 43.592 78.7549 44.765C78.7129 44.828 78.6259 44.845 78.5639 44.799C78.5039 44.755 78.4919 44.672 78.5349 44.612C79.0479 43.953 79.8229 43.63 80.5789 43.363C81.3309 43.162 82.2179 42.809 82.9529 42.88C82.9569 42.912 82.9339 42.942 82.9019 42.947V42.948Z"
          fill="#B3002D"/>
    <path d="M68.378 47.513C69.073 46.924 69.8919 46.181 70.8979 46.44C70.9649 46.462 71.001 46.534 70.978 46.6C70.955 46.669 70.877 46.705 70.81 46.678C70.439 46.522 69.973 46.656 69.577 46.849C69.154 46.991 68.65 47.534 68.374 47.593C68.353 47.571 68.3559 47.534 68.3769 47.513H68.378Z"
          fill="#B3002D"/>
    <path d="M68.507 41.604C68.51 42.798 68.533 44.479 69.597 45.193C69.691 45.242 69.7269 45.36 69.6739 45.453C69.6229 45.544 69.508 45.576 69.417 45.525C68.203 44.648 68.2819 42.926 68.3379 41.591C68.3469 41.483 68.512 41.4961 68.507 41.6051V41.604Z"
          fill="#B3002D"/>
    <g style="mix-blend-mode:multiply" opacity="0.4">
        <path d="M28.376 86.354C32.242 86.354 35.376 85.1183 35.376 83.594C35.376 82.0697 32.242 80.834 28.376 80.834C24.51 80.834 21.376 82.0697 21.376 83.594C21.376 85.1183 24.51 86.354 28.376 86.354Z"
              fill="#B85B3E"/>
    </g>
    <path d="M32.5019 74.107C38.3489 72.452 36.59 69.971 36.59 69.971C39.505 68.855 37.8719 66.253 37.8719 66.253C37.8719 66.253 39.9159 64.585 37.9139 63.287C35.8709 61.961 34.0029 64.768 34.0029 64.768C30.7549 64.724 31.6439 68.545 31.6439 68.545C30.5269 68.763 29.9189 69.369 29.6169 70.112C29.5279 70.324 29.4679 70.546 29.4259 70.773C29.4229 70.792 29.4189 70.809 29.4169 70.826C29.3329 71.321 29.3409 71.841 29.3929 72.322C29.4049 72.434 29.43 72.545 29.465 72.655C29.855 73.882 31.2619 74.458 32.5009 74.108L32.5019 74.107Z"
          fill="#00CF24"/>
    <path d="M25.996 74.4269C19.945 74.9769 20.698 72.0299 20.698 72.0299C17.576 72.0329 18.169 69.0179 18.169 69.0179C18.169 69.0179 15.663 68.1939 17.067 66.2639C18.5 64.2939 21.249 66.2449 21.249 66.2449C24.265 65.0409 24.805 68.9249 24.805 68.9249C25.926 68.7279 26.711 69.0769 27.259 69.6619C27.418 69.8279 27.554 70.0139 27.674 70.2109C27.684 70.2269 27.693 70.2419 27.701 70.2569C27.957 70.6889 28.136 71.1769 28.259 71.6449C28.288 71.7539 28.305 71.8669 28.311 71.9809C28.387 73.2659 27.279 74.3089 25.997 74.4249L25.996 74.4269Z"
          fill="#00CF24"/>
    <path d="M30.17 71.1559C34.012 66.4479 31.148 65.4239 31.148 65.4239C32.897 62.8379 30.067 61.6429 30.067 61.6429C30.067 61.6429 30.786 59.1049 28.401 59.1889C25.967 59.2739 26.046 62.6439 26.046 62.6439C23.36 64.4699 26.278 67.0909 26.278 67.0909C25.488 67.9099 25.337 68.7549 25.516 69.5369C25.565 69.7619 25.643 69.9779 25.739 70.1879C25.747 70.2049 25.754 70.2209 25.762 70.2359C25.977 70.6899 26.281 71.1109 26.6 71.4749C26.674 71.5599 26.758 71.6369 26.85 71.7069C27.873 72.4889 29.356 72.1539 30.171 71.1569L30.17 71.1559Z"
          fill="#00A000"/>
    <path d="M27.864 82.841C28.164 76.127 31.805 70.075 35.929 64.985C36.027 64.867 36.224 65.02 36.116 65.144C32.254 70.253 28.852 76.297 28.763 82.842C28.781 83.445 27.847 83.455 27.864 82.842V82.841Z"
          fill="#B3002D"/>
    <path d="M28.779 62.934L28.7629 84.234C28.7599 84.821 27.855 84.823 27.864 84.224L28.306 62.929C28.307 62.631 28.785 62.625 28.78 62.934H28.779Z"
          fill="#B3002D"/>
    <path d="M19.288 67.499C23.275 69.693 27.871 72.736 28.565 77.604C28.579 77.743 28.477 77.867 28.338 77.881C28.199 77.895 28.075 77.793 28.061 77.654C27.421 72.977 22.935 69.992 19.119 67.842C18.894 67.74 19.064 67.381 19.288 67.499Z"
          fill="#B3002D"/>
    <path d="M26.58 64.129L28.622 67.141C28.792 67.384 28.406 67.648 28.242 67.398C28.236 67.392 26.402 64.254 26.396 64.245C26.325 64.129 26.505 64.014 26.58 64.129Z"
          fill="#B3002D"/>
    <path d="M30.267 66.791L28.624 70.441C28.582 70.535 28.471 70.577 28.377 70.535C28.278 70.491 28.237 70.3689 28.29 70.2739C28.32 70.2879 30.23 66.6489 30.266 66.7919L30.267 66.791Z"
          fill="#B3002D"/>
    <path d="M36.961 68.0411C35.52 68.3411 33.782 68.685 32.814 69.858C32.772 69.921 32.685 69.938 32.623 69.892C32.563 69.848 32.551 69.765 32.594 69.705C33.107 69.046 33.882 68.723 34.638 68.456C35.39 68.255 36.277 67.902 37.012 67.973C37.016 68.005 36.993 68.035 36.961 68.04V68.0411Z"
          fill="#B3002D"/>
    <path d="M22.438 72.606C23.133 72.017 23.952 71.274 24.958 71.533C25.025 71.555 25.061 71.627 25.038 71.693C25.015 71.762 24.937 71.798 24.87 71.771C24.499 71.615 24.033 71.749 23.637 71.942C23.214 72.084 22.71 72.627 22.434 72.686C22.413 72.664 22.416 72.627 22.437 72.606H22.438Z"
          fill="#B3002D"/>
    <path d="M22.566 66.696C22.569 67.89 22.592 69.571 23.656 70.285C23.75 70.334 23.786 70.452 23.733 70.545C23.682 70.636 23.567 70.668 23.476 70.617C22.262 69.74 22.341 68.018 22.397 66.683C22.406 66.575 22.571 66.588 22.565 66.697L22.566 66.696Z"
          fill="#B3002D"/>
    <g style="mix-blend-mode:multiply" opacity="0.4">
        <path d="M57.7739 86.134C61.6399 86.134 64.7739 84.8983 64.7739 83.374C64.7739 81.8497 61.6399 80.614 57.7739 80.614C53.9079 80.614 50.7739 81.8497 50.7739 83.374C50.7739 84.8983 53.9079 86.134 57.7739 86.134Z"
              fill="#B85B3E"/>
    </g>
    <path d="M62.035 73.639C67.882 71.984 66.123 69.503 66.123 69.503C69.038 68.387 67.405 65.785 67.405 65.785C67.405 65.785 69.449 64.117 67.447 62.819C65.404 61.493 63.536 64.3 63.536 64.3C60.288 64.256 61.177 68.077 61.177 68.077C60.06 68.295 59.452 68.901 59.15 69.644C59.061 69.856 59.001 70.078 58.959 70.305C58.956 70.324 58.952 70.341 58.95 70.358C58.866 70.853 58.874 71.373 58.926 71.854C58.938 71.966 58.963 72.077 58.998 72.187C59.388 73.414 60.795 73.99 62.034 73.64L62.035 73.639Z"
          fill="#00CF24"/>
    <path d="M55.53 73.9579C49.479 74.5079 50.232 71.5609 50.232 71.5609C47.11 71.5639 47.7029 68.5489 47.7029 68.5489C47.7029 68.5489 45.1969 67.7249 46.6009 65.7949C48.0339 63.8249 50.7829 65.7759 50.7829 65.7759C53.799 64.5719 54.339 68.4559 54.339 68.4559C55.46 68.2589 56.245 68.6079 56.793 69.1929C56.952 69.3589 57.0879 69.5449 57.2079 69.7419C57.2179 69.7579 57.2269 69.7729 57.2349 69.7879C57.4909 70.2199 57.67 70.7079 57.793 71.1759C57.822 71.2849 57.8389 71.3979 57.8449 71.5119C57.9209 72.7969 56.8129 73.8399 55.5309 73.9559L55.53 73.9579Z"
          fill="#00CF24"/>
    <path d="M59.7039 70.688C63.5459 65.98 60.6819 64.956 60.6819 64.956C62.4309 62.37 59.6009 61.175 59.6009 61.175C59.6009 61.175 60.32 58.637 57.935 58.721C55.501 58.806 55.5799 62.176 55.5799 62.176C52.8939 64.002 55.8119 66.623 55.8119 66.623C55.0219 67.442 54.8709 68.287 55.0499 69.069C55.0989 69.294 55.1769 69.51 55.2729 69.72C55.2809 69.737 55.2879 69.753 55.2959 69.768C55.5109 70.222 55.8149 70.643 56.1339 71.007C56.2079 71.092 56.2919 71.169 56.3839 71.239C57.4069 72.021 58.8899 71.686 59.7049 70.689L59.7039 70.688Z"
          fill="#00A000"/>
    <path d="M57.3979 82.373C57.6979 75.659 61.3389 69.607 65.4629 64.517C65.5609 64.399 65.7579 64.552 65.6499 64.676C61.7879 69.785 58.386 75.829 58.297 82.374C58.314 82.977 57.3809 82.987 57.3979 82.374V82.373Z"
          fill="#B3002D"/>
    <path d="M58.313 62.465L58.297 83.765C58.294 84.353 57.389 84.354 57.398 83.755L57.84 62.46C57.841 62.162 58.319 62.156 58.314 62.465H58.313Z"
          fill="#B3002D"/>
    <path d="M48.822 67.0309C52.809 69.2249 57.405 72.2679 58.099 77.1359C58.113 77.2749 58.011 77.3989 57.872 77.4129C57.733 77.4269 57.609 77.325 57.595 77.187C56.955 72.51 52.469 69.5249 48.653 67.3749C48.428 67.2729 48.597 66.914 48.821 67.032L48.822 67.0309Z"
          fill="#B3002D"/>
    <path d="M56.1139 63.661L58.1559 66.673C58.3259 66.916 57.9399 67.18 57.7759 66.93C57.7689 66.924 55.936 63.786 55.93 63.777C55.859 63.661 56.0389 63.546 56.1139 63.661Z"
          fill="#B3002D"/>
    <path d="M59.801 66.323L58.158 69.973C58.116 70.067 58.005 70.109 57.911 70.067C57.812 70.023 57.771 69.901 57.824 69.806C57.854 69.82 59.764 66.1811 59.8 66.3241L59.801 66.323Z"
          fill="#B3002D"/>
    <path d="M66.495 67.573C65.054 67.873 63.3159 68.217 62.3479 69.39C62.3059 69.454 62.2189 69.47 62.1569 69.424C62.0969 69.38 62.0849 69.297 62.1279 69.237C62.6409 68.578 63.416 68.255 64.172 67.988C64.924 67.787 65.8109 67.434 66.5459 67.505C66.5499 67.537 66.527 67.567 66.495 67.572V67.573Z"
          fill="#B3002D"/>
    <path d="M51.9719 72.137C52.6669 71.548 53.4859 70.805 54.4919 71.064C54.5589 71.086 54.594 71.158 54.572 71.224C54.549 71.293 54.471 71.329 54.404 71.302C54.033 71.146 53.567 71.28 53.171 71.473C52.748 71.615 52.2439 72.158 51.9679 72.217C51.9469 72.195 51.9499 72.158 51.9709 72.137H51.9719Z"
          fill="#B3002D"/>
    <path d="M52.0999 66.2279C52.1029 67.4219 52.1259 69.1029 53.1899 69.8169C53.2839 69.8659 53.32 69.9839 53.267 70.0769C53.216 70.1679 53.1009 70.1999 53.0099 70.1489C51.7959 69.2719 51.875 67.5499 51.931 66.2149C51.94 66.1069 52.1049 66.12 52.0999 66.229V66.2279Z"
          fill="#B3002D"/>
    <g style="mix-blend-mode:multiply" opacity="0.4">
        <path d="M73.094 78.1219C76.96 78.1219 80.094 76.8862 80.094 75.3619C80.094 73.8376 76.96 72.6019 73.094 72.6019C69.228 72.6019 66.094 73.8376 66.094 75.3619C66.094 76.8862 69.228 78.1219 73.094 78.1219Z"
              fill="#B85B3E"/>
    </g>
    <path d="M77.286 65.784C83.133 64.129 81.374 61.648 81.374 61.648C84.289 60.532 82.656 57.93 82.656 57.93C82.656 57.93 84.7 56.262 82.698 54.964C80.655 53.638 78.787 56.445 78.787 56.445C75.539 56.401 76.428 60.222 76.428 60.222C75.311 60.44 74.703 61.046 74.401 61.789C74.312 62.001 74.252 62.223 74.21 62.45C74.207 62.469 74.203 62.486 74.201 62.503C74.117 62.998 74.125 63.518 74.177 63.999C74.189 64.111 74.214 64.222 74.249 64.332C74.639 65.559 76.046 66.135 77.285 65.785L77.286 65.784Z"
          fill="#00CF24"/>
    <path d="M70.78 66.1039C64.729 66.6539 65.482 63.7069 65.482 63.7069C62.36 63.7099 62.9529 60.6949 62.9529 60.6949C62.9529 60.6949 60.4469 59.8709 61.8509 57.9409C63.2839 55.9709 66.0329 57.9219 66.0329 57.9219C69.049 56.7179 69.589 60.6019 69.589 60.6019C70.71 60.4049 71.495 60.7539 72.043 61.3389C72.202 61.5049 72.3379 61.6909 72.4579 61.8879C72.4679 61.9039 72.4769 61.9189 72.4849 61.9339C72.7409 62.3659 72.92 62.8539 73.043 63.3219C73.072 63.4309 73.0889 63.5439 73.0949 63.6579C73.1709 64.9429 72.0629 65.9859 70.7809 66.1019L70.78 66.1039Z"
          fill="#00CF24"/>
    <path d="M74.9539 62.8329C78.7959 58.1249 75.9319 57.1009 75.9319 57.1009C77.6809 54.5149 74.8509 53.3199 74.8509 53.3199C74.8509 53.3199 75.57 50.7819 73.185 50.8659C70.751 50.9509 70.8299 54.3209 70.8299 54.3209C68.1439 56.1469 71.0619 58.7679 71.0619 58.7679C70.2719 59.5869 70.1209 60.4319 70.2999 61.2139C70.3489 61.4389 70.4269 61.6549 70.5229 61.8649C70.5309 61.8819 70.5379 61.8979 70.5459 61.9129C70.7609 62.3669 71.0649 62.7879 71.3839 63.1519C71.4579 63.2369 71.5419 63.3139 71.6339 63.3839C72.6569 64.1659 74.1399 63.8309 74.9549 62.8339L74.9539 62.8329Z"
          fill="#00A000"/>
    <path d="M72.6479 74.518C72.9479 67.804 76.5889 61.752 80.7129 56.662C80.8109 56.544 81.0079 56.697 80.8999 56.821C77.0379 61.93 73.636 67.974 73.547 74.519C73.565 75.122 72.6309 75.132 72.6479 74.519V74.518Z"
          fill="#B3002D"/>
    <path d="M73.563 54.611L73.547 75.911C73.544 76.499 72.639 76.5 72.648 75.901L73.09 54.606C73.091 54.308 73.569 54.302 73.564 54.611H73.563Z"
          fill="#B3002D"/>
    <path d="M64.072 59.176C68.059 61.37 72.655 64.413 73.349 69.281C73.363 69.42 73.261 69.544 73.122 69.558C72.983 69.572 72.859 69.47 72.845 69.331C72.205 64.654 67.719 61.669 63.903 59.519C63.678 59.417 63.847 59.058 64.071 59.176H64.072Z"
          fill="#B3002D"/>
    <path d="M71.3639 55.806L73.4059 58.818C73.5759 59.061 73.1899 59.325 73.0259 59.075C73.0199 59.069 71.186 55.931 71.18 55.922C71.109 55.806 71.2889 55.691 71.3639 55.806Z"
          fill="#B3002D"/>
    <path d="M75.051 58.4679L73.408 62.118C73.366 62.212 73.255 62.254 73.161 62.212C73.062 62.168 73.021 62.0459 73.074 61.9509C73.104 61.9649 75.014 58.326 75.05 58.469L75.051 58.4679Z"
          fill="#B3002D"/>
    <path d="M81.745 59.718C80.304 60.018 78.5659 60.362 77.5979 61.535C77.5559 61.598 77.4689 61.615 77.4069 61.569C77.3469 61.525 77.3349 61.442 77.3779 61.382C77.8909 60.723 78.666 60.4 79.422 60.133C80.174 59.932 81.0609 59.579 81.7959 59.65C81.7999 59.682 81.777 59.713 81.745 59.718Z"
          fill="#B3002D"/>
    <path d="M67.2219 64.283C67.9169 63.694 68.7359 62.951 69.7419 63.21C69.8089 63.232 69.845 63.304 69.822 63.37C69.799 63.439 69.721 63.475 69.654 63.448C69.283 63.292 68.817 63.426 68.421 63.619C67.998 63.761 67.4939 64.304 67.2179 64.363C67.1969 64.341 67.1999 64.304 67.2209 64.283H67.2219Z"
          fill="#B3002D"/>
    <path d="M67.3499 58.3739C67.3529 59.5679 67.3759 61.249 68.4399 61.963C68.5339 62.012 68.57 62.1299 68.517 62.2229C68.466 62.3139 68.3509 62.346 68.2599 62.295C67.0459 61.418 67.125 59.6959 67.181 58.3609C67.19 58.2529 67.355 58.2659 67.349 58.3749L67.3499 58.3739Z"
          fill="#B3002D"/>
    <g style="mix-blend-mode:multiply" opacity="0.4">
        <path d="M88.413 69.49C92.279 69.49 95.413 68.2543 95.413 66.73C95.413 65.2057 92.279 63.97 88.413 63.97C84.547 63.97 81.413 65.2057 81.413 66.73C81.413 68.2543 84.547 69.49 88.413 69.49Z"
              fill="#B85B3E"/>
    </g>
    <path d="M92.922 57.355C98.769 55.7 97.01 53.219 97.01 53.219C99.925 52.103 98.292 49.501 98.292 49.501C98.292 49.501 100.336 47.833 98.334 46.535C96.291 45.209 94.423 48.016 94.423 48.016C91.175 47.972 92.064 51.793 92.064 51.793C90.947 52.011 90.339 52.617 90.037 53.36C89.948 53.572 89.888 53.794 89.846 54.021C89.843 54.04 89.839 54.057 89.837 54.074C89.753 54.569 89.761 55.089 89.813 55.57C89.825 55.682 89.85 55.793 89.885 55.903C90.275 57.13 91.682 57.706 92.921 57.356L92.922 57.355Z"
          fill="#00CF24"/>
    <path d="M86.4159 57.674C80.3649 58.224 81.1179 55.277 81.1179 55.277C77.9959 55.28 78.5889 52.265 78.5889 52.265C78.5889 52.265 76.0829 51.441 77.4869 49.511C78.9199 47.541 81.6689 49.492 81.6689 49.492C84.6849 48.288 85.2249 52.172 85.2249 52.172C86.3459 51.975 87.1309 52.324 87.6789 52.909C87.8379 53.075 87.9739 53.261 88.0939 53.458C88.1039 53.474 88.1129 53.489 88.1209 53.504C88.3769 53.936 88.5559 54.424 88.6789 54.892C88.7079 55.001 88.7249 55.114 88.7309 55.228C88.8069 56.513 87.6989 57.556 86.4169 57.672L86.4159 57.674Z"
          fill="#00CF24"/>
    <path d="M90.5909 54.404C94.4329 49.696 91.5689 48.672 91.5689 48.672C93.3179 46.086 90.4879 44.891 90.4879 44.891C90.4879 44.891 91.2069 42.353 88.8219 42.437C86.3879 42.522 86.4669 45.892 86.4669 45.892C83.7809 47.718 86.6989 50.339 86.6989 50.339C85.9089 51.158 85.7579 52.003 85.9369 52.785C85.9859 53.01 86.0639 53.226 86.1599 53.436C86.1679 53.453 86.1749 53.469 86.1829 53.484C86.3979 53.938 86.7019 54.359 87.0209 54.723C87.0949 54.808 87.1789 54.885 87.2709 54.955C88.2939 55.737 89.7769 55.402 90.5919 54.405L90.5909 54.404Z"
          fill="#00A000"/>
    <path d="M88.2839 66.0889C88.5839 59.3749 92.2249 53.3229 96.3489 48.2329C96.4469 48.1149 96.6439 48.2679 96.5359 48.3919C92.6739 53.5009 89.2719 59.5449 89.1829 66.0899C89.2009 66.6929 88.2669 66.7029 88.2839 66.0899V66.0889Z"
          fill="#B3002D"/>
    <path d="M89.2 46.1809L89.184 67.4809C89.181 68.0679 88.276 68.0699 88.285 67.4709L88.727 46.1759C88.728 45.8779 89.206 45.8719 89.201 46.1809H89.2Z"
          fill="#B3002D"/>
    <path d="M79.7089 50.747C83.6959 52.941 88.292 55.984 88.986 60.852C89 60.991 88.8979 61.115 88.7589 61.129C88.6199 61.143 88.496 61.041 88.482 60.902C87.842 56.225 83.3559 53.24 79.5399 51.09C79.3149 50.988 79.4839 50.629 79.7079 50.747H79.7089Z"
          fill="#B3002D"/>
    <path d="M87.0009 47.3771L89.0429 50.3891C89.2129 50.6321 88.8269 50.8961 88.6629 50.6461C88.6559 50.6401 86.8229 47.5021 86.8169 47.4931C86.7459 47.3771 86.9259 47.2621 87.0009 47.3771Z"
          fill="#B3002D"/>
    <path d="M90.688 50.039L89.045 53.689C89.003 53.783 88.892 53.825 88.798 53.783C88.699 53.739 88.658 53.617 88.711 53.522C88.741 53.536 90.651 49.897 90.687 50.04L90.688 50.039Z"
          fill="#B3002D"/>
    <path d="M97.3819 51.2891C95.9409 51.5891 94.2029 51.9331 93.2349 53.1061C93.1929 53.1691 93.1059 53.1861 93.0439 53.1401C92.9839 53.0961 92.9719 53.0131 93.0149 52.9531C93.5279 52.2941 94.3029 51.9711 95.0589 51.7041C95.8109 51.5031 96.6979 51.1501 97.4329 51.2211C97.4369 51.2531 97.4139 51.2831 97.3819 51.2881V51.2891Z"
          fill="#B3002D"/>
    <path d="M82.8579 55.853C83.5529 55.264 84.3719 54.52 85.3779 54.78C85.4449 54.802 85.4809 54.874 85.4579 54.94C85.4349 55.009 85.3569 55.045 85.2899 55.018C84.9189 54.862 84.4529 54.996 84.0569 55.189C83.6339 55.331 83.1299 55.874 82.8539 55.933C82.8329 55.911 82.8369 55.874 82.8579 55.853Z"
          fill="#B3002D"/>
    <path d="M82.9869 49.944C82.9899 51.138 83.0129 52.819 84.0769 53.533C84.1709 53.582 84.2069 53.7 84.1539 53.793C84.1029 53.884 83.9879 53.916 83.8969 53.865C82.6829 52.988 82.7619 51.266 82.8179 49.931C82.8269 49.823 82.9919 49.836 82.9869 49.945V49.944Z"
          fill="#B3002D"/>
    <g style="mix-blend-mode:multiply" opacity="0.4">
        <path d="M42.856 94.6949C46.722 94.6949 49.856 93.4592 49.856 91.9349C49.856 90.4106 46.722 89.1749 42.856 89.1749C38.99 89.1749 35.856 90.4106 35.856 91.9349C35.856 93.4592 38.99 94.6949 42.856 94.6949Z"
              fill="#B85B3E"/>
    </g>
    <path d="M46.9819 82.4469C52.8289 80.7919 51.0699 78.3109 51.0699 78.3109C53.9849 77.1949 52.3519 74.5929 52.3519 74.5929C52.3519 74.5929 54.3959 72.9249 52.3939 71.6269C50.3509 70.3009 48.4829 73.1079 48.4829 73.1079C45.2349 73.0639 46.1239 76.8849 46.1239 76.8849C45.0069 77.1029 44.3989 77.7089 44.0969 78.4519C44.0079 78.6639 43.9479 78.8859 43.9059 79.1129C43.9029 79.1319 43.8989 79.1489 43.8969 79.1659C43.8129 79.6609 43.8209 80.1809 43.8729 80.6619C43.8849 80.7739 43.9099 80.8849 43.9449 80.9949C44.3349 82.2219 45.7419 82.7979 46.9809 82.4479L46.9819 82.4469Z"
          fill="#00CF24"/>
    <path d="M40.476 82.767C34.425 83.317 35.178 80.37 35.178 80.37C32.056 80.373 32.649 77.358 32.649 77.358C32.649 77.358 30.143 76.534 31.547 74.604C32.98 72.634 35.729 74.585 35.729 74.585C38.745 73.381 39.285 77.265 39.285 77.265C40.406 77.068 41.191 77.417 41.739 78.002C41.898 78.168 42.034 78.354 42.154 78.551C42.164 78.567 42.173 78.582 42.181 78.597C42.437 79.029 42.616 79.517 42.739 79.985C42.768 80.094 42.785 80.207 42.791 80.321C42.867 81.606 41.759 82.649 40.477 82.765L40.476 82.767Z"
          fill="#00CF24"/>
    <path d="M44.651 79.496C48.493 74.788 45.629 73.764 45.629 73.764C47.378 71.178 44.548 69.983 44.548 69.983C44.548 69.983 45.267 67.445 42.882 67.529C40.448 67.614 40.527 70.984 40.527 70.984C37.841 72.81 40.759 75.431 40.759 75.431C39.969 76.25 39.818 77.095 39.997 77.877C40.046 78.102 40.124 78.318 40.22 78.528C40.228 78.545 40.235 78.561 40.243 78.576C40.458 79.03 40.762 79.451 41.081 79.815C41.155 79.9 41.239 79.977 41.331 80.047C42.354 80.829 43.837 80.494 44.652 79.497L44.651 79.496Z"
          fill="#00A000"/>
    <path d="M42.344 91.182C42.644 84.468 46.285 78.4159 50.409 73.3259C50.508 73.2079 50.704 73.361 50.596 73.485C46.734 78.594 43.332 84.638 43.243 91.182C43.261 91.785 42.327 91.795 42.344 91.182Z"
          fill="#B3002D"/>
    <path d="M43.2589 71.2739L43.2429 92.574C43.2399 93.161 42.3349 93.1629 42.3439 92.5639L42.7859 71.269C42.7869 70.971 43.2649 70.9649 43.2599 71.2739H43.2589Z"
          fill="#B3002D"/>
    <path d="M33.769 75.84C37.756 78.034 42.352 81.077 43.046 85.945C43.06 86.084 42.958 86.208 42.819 86.222C42.68 86.236 42.556 86.134 42.542 85.996C41.902 81.319 37.416 78.334 33.6 76.184C33.375 76.082 33.544 75.723 33.768 75.841L33.769 75.84Z"
          fill="#B3002D"/>
    <path d="M41.06 72.47L43.102 75.482C43.272 75.725 42.886 75.989 42.722 75.739C42.716 75.733 40.882 72.595 40.876 72.586C40.805 72.47 40.985 72.355 41.06 72.47Z"
          fill="#B3002D"/>
    <path d="M44.747 75.1309L43.104 78.7809C43.062 78.8749 42.951 78.9169 42.857 78.8749C42.758 78.8309 42.717 78.7089 42.77 78.6139C42.8 78.6279 44.71 74.9889 44.746 75.1319L44.747 75.1309Z"
          fill="#B3002D"/>
    <path d="M51.442 76.381C50.001 76.681 48.263 77.025 47.295 78.198C47.253 78.261 47.166 78.278 47.104 78.232C47.044 78.188 47.032 78.105 47.075 78.045C47.588 77.386 48.363 77.063 49.119 76.796C49.871 76.595 50.758 76.242 51.493 76.313C51.497 76.345 51.474 76.375 51.442 76.38V76.381Z"
          fill="#B3002D"/>
    <path d="M36.918 80.946C37.613 80.357 38.432 79.614 39.438 79.873C39.505 79.895 39.541 79.967 39.518 80.033C39.495 80.102 39.417 80.138 39.35 80.111C38.979 79.955 38.513 80.089 38.117 80.282C37.694 80.424 37.19 80.967 36.914 81.026C36.893 81.004 36.896 80.967 36.917 80.946H36.918Z"
          fill="#B3002D"/>
    <path d="M37.047 75.037C37.05 76.231 37.073 77.912 38.137 78.626C38.231 78.675 38.267 78.793 38.214 78.886C38.163 78.977 38.048 79.009 37.957 78.958C36.743 78.081 36.822 76.359 36.878 75.024C36.887 74.916 37.052 74.929 37.046 75.038L37.047 75.037Z"
          fill="#B3002D"/>
    <g style="mix-blend-mode:multiply" opacity="0.4">
        <path d="M72.822 95.039C76.688 95.039 79.822 93.8033 79.822 92.279C79.822 90.7547 76.688 89.519 72.822 89.519C68.956 89.519 65.822 90.7547 65.822 92.279C65.822 93.8033 68.956 95.039 72.822 95.039Z"
              fill="#B85B3E"/>
    </g>
    <path d="M77.084 82.544C82.931 80.889 81.172 78.408 81.172 78.408C84.087 77.292 82.454 74.69 82.454 74.69C82.454 74.69 84.498 73.022 82.496 71.724C80.453 70.398 78.585 73.205 78.585 73.205C75.337 73.161 76.226 76.982 76.226 76.982C75.109 77.2 74.501 77.806 74.199 78.549C74.11 78.761 74.05 78.983 74.008 79.21C74.005 79.229 74.001 79.246 73.999 79.263C73.915 79.758 73.923 80.278 73.975 80.759C73.987 80.871 74.012 80.982 74.047 81.092C74.437 82.319 75.844 82.895 77.083 82.545L77.084 82.544Z"
          fill="#00CF24"/>
    <path d="M70.5779 82.864C64.5269 83.414 65.2799 80.467 65.2799 80.467C62.1579 80.47 62.7509 77.4549 62.7509 77.4549C62.7509 77.4549 60.2449 76.6309 61.6489 74.7009C63.0819 72.7309 65.8309 74.682 65.8309 74.682C68.8469 73.478 69.3869 77.3619 69.3869 77.3619C70.5079 77.1649 71.2929 77.5139 71.8409 78.0989C71.9999 78.2649 72.1359 78.451 72.2559 78.648C72.2659 78.664 72.2749 78.679 72.2829 78.694C72.5389 79.126 72.7179 79.614 72.8409 80.082C72.8699 80.191 72.8869 80.3039 72.8929 80.4179C72.9689 81.7029 71.8609 82.7459 70.5789 82.8619L70.5779 82.864Z"
          fill="#00CF24"/>
    <path d="M74.753 79.5929C78.595 74.8849 75.731 73.8609 75.731 73.8609C77.48 71.2749 74.65 70.0799 74.65 70.0799C74.65 70.0799 75.369 67.5419 72.984 67.6259C70.55 67.7109 70.629 71.0809 70.629 71.0809C67.943 72.9069 70.861 75.5279 70.861 75.5279C70.071 76.3469 69.92 77.1919 70.099 77.9739C70.148 78.1989 70.226 78.4149 70.322 78.6249C70.33 78.6419 70.337 78.6579 70.345 78.6729C70.56 79.1269 70.864 79.5479 71.183 79.9119C71.257 79.9969 71.341 80.0739 71.433 80.1439C72.456 80.9259 73.939 80.5909 74.754 79.5939L74.753 79.5929Z"
          fill="#00A000"/>
    <path d="M72.4459 91.278C72.7459 84.564 76.3869 78.512 80.5109 73.422C80.6089 73.304 80.8059 73.457 80.6979 73.581C76.8359 78.69 73.4339 84.734 73.3449 91.279C73.3629 91.882 72.4289 91.891 72.4459 91.278Z"
          fill="#B3002D"/>
    <path d="M73.361 71.371L73.345 92.671C73.342 93.259 72.437 93.26 72.446 92.661L72.888 71.366C72.889 71.068 73.367 71.062 73.362 71.371H73.361Z"
          fill="#B3002D"/>
    <path d="M63.8709 75.936C67.8579 78.13 72.4539 81.173 73.1479 86.041C73.1619 86.18 73.0599 86.304 72.9209 86.318C72.7819 86.332 72.6579 86.23 72.6439 86.091C72.0039 81.414 67.5179 78.429 63.7019 76.279C63.4769 76.177 63.6469 75.818 63.8709 75.936Z"
          fill="#B3002D"/>
    <path d="M71.1619 72.566L73.2039 75.578C73.3739 75.821 72.9879 76.085 72.8239 75.835C72.8169 75.829 70.9839 72.691 70.9779 72.682C70.9069 72.566 71.0869 72.451 71.1619 72.566Z"
          fill="#B3002D"/>
    <path d="M74.8489 75.228L73.2059 78.8779C73.1639 78.9719 73.0529 79.014 72.9589 78.972C72.8599 78.928 72.8189 78.806 72.8719 78.711C72.9019 78.725 74.8119 75.086 74.8479 75.229L74.8489 75.228Z"
          fill="#B3002D"/>
    <path d="M81.544 76.478C80.103 76.778 78.365 77.1221 77.397 78.2951C77.355 78.3581 77.268 78.3751 77.206 78.3291C77.146 78.2851 77.134 78.202 77.177 78.142C77.69 77.483 78.465 77.16 79.221 76.893C79.973 76.692 80.86 76.339 81.595 76.41C81.599 76.442 81.576 76.472 81.544 76.477V76.478Z"
          fill="#B3002D"/>
    <path d="M67.0199 81.043C67.7149 80.454 68.5339 79.711 69.5399 79.97C69.6069 79.992 69.6429 80.064 69.6199 80.13C69.5969 80.199 69.5189 80.235 69.4519 80.208C69.0809 80.052 68.6149 80.186 68.2189 80.379C67.7959 80.521 67.2919 81.064 67.0159 81.123C66.9949 81.101 66.9979 81.064 67.0189 81.043H67.0199Z"
          fill="#B3002D"/>
    <path d="M67.1489 75.133C67.1519 76.327 67.1749 78.008 68.2389 78.722C68.3329 78.771 68.3689 78.889 68.3159 78.982C68.2649 79.073 68.1499 79.105 68.0589 79.054C66.8449 78.177 66.9239 76.455 66.9799 75.12C66.9889 75.012 67.1539 75.025 67.1489 75.134V75.133Z"
          fill="#B3002D"/>
    <g style="mix-blend-mode:multiply" opacity="0.4">
        <path d="M88.142 87.027C92.008 87.027 95.142 85.7913 95.142 84.267C95.142 82.7427 92.008 81.507 88.142 81.507C84.276 81.507 81.142 82.7427 81.142 84.267C81.142 85.7913 84.276 87.027 88.142 87.027Z"
              fill="#B85B3E"/>
    </g>
    <path d="M92.334 74.689C98.181 73.034 96.422 70.553 96.422 70.553C99.337 69.437 97.704 66.835 97.704 66.835C97.704 66.835 99.748 65.167 97.746 63.869C95.703 62.543 93.835 65.35 93.835 65.35C90.587 65.306 91.476 69.127 91.476 69.127C90.359 69.345 89.751 69.951 89.449 70.694C89.36 70.906 89.3 71.128 89.258 71.355C89.255 71.374 89.251 71.391 89.249 71.408C89.165 71.903 89.173 72.423 89.225 72.904C89.237 73.016 89.262 73.127 89.297 73.237C89.687 74.464 91.094 75.04 92.333 74.69L92.334 74.689Z"
          fill="#00CF24"/>
    <path d="M85.8279 75.009C79.7769 75.559 80.5299 72.612 80.5299 72.612C77.4079 72.615 78.0009 69.6 78.0009 69.6C78.0009 69.6 75.4949 68.776 76.8989 66.846C78.3319 64.876 81.0809 66.827 81.0809 66.827C84.0969 65.623 84.6369 69.5069 84.6369 69.5069C85.7579 69.3099 86.5429 69.6589 87.0909 70.2439C87.2499 70.4099 87.3859 70.596 87.5059 70.793C87.5159 70.809 87.5249 70.8239 87.5329 70.8389C87.7889 71.2709 87.9679 71.7589 88.0909 72.2269C88.1199 72.3359 88.1369 72.4489 88.1429 72.5629C88.2189 73.8479 87.1109 74.8909 85.8289 75.0069L85.8279 75.009Z"
          fill="#00CF24"/>
    <path d="M90.003 71.738C93.845 67.03 90.981 66.006 90.981 66.006C92.73 63.42 89.9 62.225 89.9 62.225C89.9 62.225 90.619 59.687 88.234 59.771C85.8 59.856 85.879 63.226 85.879 63.226C83.193 65.052 86.111 67.673 86.111 67.673C85.321 68.492 85.17 69.337 85.349 70.119C85.398 70.344 85.476 70.56 85.572 70.77C85.58 70.787 85.587 70.803 85.595 70.818C85.81 71.272 86.114 71.693 86.433 72.057C86.507 72.142 86.591 72.219 86.683 72.289C87.706 73.071 89.189 72.736 90.004 71.739L90.003 71.738Z"
          fill="#00A000"/>
    <path d="M87.6959 83.424C87.9959 76.71 91.6369 70.658 95.7609 65.568C95.8589 65.45 96.0559 65.603 95.9479 65.727C92.0859 70.836 88.6839 76.88 88.5949 83.425C88.6119 84.028 87.6789 84.037 87.6959 83.424Z"
          fill="#B3002D"/>
    <path d="M88.612 63.516L88.596 84.816C88.593 85.404 87.688 85.405 87.697 84.806L88.139 63.511C88.14 63.213 88.617 63.207 88.612 63.516Z"
          fill="#B3002D"/>
    <path d="M79.1209 68.082C83.1079 70.276 87.7039 73.319 88.3979 78.187C88.4119 78.326 88.3099 78.45 88.1709 78.464C88.0319 78.478 87.9079 78.376 87.8939 78.238C87.2539 73.561 82.7679 70.576 78.9519 68.426C78.7269 68.324 78.8959 67.965 79.1199 68.083L79.1209 68.082Z"
          fill="#B3002D"/>
    <path d="M86.4119 64.712L88.4539 67.724C88.6239 67.967 88.2379 68.231 88.0739 67.981C88.0669 67.975 86.2339 64.837 86.2279 64.828C86.1569 64.712 86.3369 64.597 86.4119 64.712Z"
          fill="#B3002D"/>
    <path d="M90.1 67.373L88.457 71.023C88.415 71.117 88.304 71.159 88.21 71.117C88.111 71.073 88.07 70.951 88.123 70.856C88.153 70.87 90.063 67.231 90.099 67.374L90.1 67.373Z"
          fill="#B3002D"/>
    <path d="M96.794 68.6231C95.353 68.9231 93.615 69.2671 92.647 70.4401C92.605 70.5041 92.518 70.5201 92.456 70.4741C92.396 70.4301 92.384 70.3471 92.427 70.2871C92.94 69.6281 93.715 69.3051 94.471 69.0381C95.223 68.8371 96.11 68.4841 96.845 68.5551C96.849 68.5871 96.826 68.6181 96.794 68.6231Z"
          fill="#B3002D"/>
    <path d="M82.2699 73.1879C82.9649 72.5989 83.7839 71.8559 84.7899 72.1149C84.8569 72.1369 84.8919 72.2089 84.8699 72.2749C84.8469 72.3439 84.7689 72.3799 84.7019 72.3529C84.3309 72.1969 83.8649 72.3309 83.4689 72.5239C83.0459 72.6659 82.5419 73.2089 82.2659 73.2679C82.2449 73.2459 82.2479 73.2089 82.2689 73.1879H82.2699Z"
          fill="#B3002D"/>
    <path d="M82.3989 67.279C82.4019 68.473 82.4249 70.154 83.4889 70.868C83.5829 70.917 83.6179 71.035 83.5659 71.128C83.5149 71.219 83.3999 71.251 83.3089 71.2C82.0949 70.323 82.1739 68.601 82.2299 67.266C82.2389 67.158 82.4039 67.171 82.3979 67.28L82.3989 67.279Z"
          fill="#B3002D"/>
    <g style="mix-blend-mode:multiply" opacity="0.4">
        <path d="M103.462 78.395C107.328 78.395 110.462 77.1593 110.462 75.635C110.462 74.1107 107.328 72.875 103.462 72.875C99.5959 72.875 96.4619 74.1107 96.4619 75.635C96.4619 77.1593 99.5959 78.395 103.462 78.395Z"
              fill="#B85B3E"/>
    </g>
    <path d="M107.971 66.2599C113.818 64.6049 112.059 62.1239 112.059 62.1239C114.974 61.0079 113.341 58.4059 113.341 58.4059C113.341 58.4059 115.385 56.7379 113.383 55.4399C111.34 54.1139 109.472 56.9209 109.472 56.9209C106.224 56.8769 107.113 60.6979 107.113 60.6979C105.996 60.9159 105.388 61.5219 105.086 62.2649C104.997 62.4769 104.937 62.6989 104.895 62.9259C104.892 62.9449 104.888 62.9619 104.886 62.9789C104.802 63.4739 104.81 63.9939 104.862 64.4749C104.874 64.5869 104.899 64.6979 104.934 64.8079C105.324 66.0349 106.731 66.6109 107.97 66.2609L107.971 66.2599Z"
          fill="#00CF24"/>
    <path d="M101.465 66.58C95.414 67.13 96.167 64.183 96.167 64.183C93.045 64.186 93.638 61.171 93.638 61.171C93.638 61.171 91.132 60.347 92.536 58.417C93.969 56.447 96.718 58.398 96.718 58.398C99.734 57.194 100.274 61.078 100.274 61.078C101.395 60.881 102.18 61.23 102.728 61.815C102.887 61.981 103.023 62.167 103.143 62.364C103.153 62.38 103.162 62.395 103.17 62.41C103.426 62.842 103.605 63.33 103.728 63.798C103.757 63.907 103.774 64.02 103.78 64.134C103.856 65.419 102.748 66.462 101.466 66.578L101.465 66.58Z"
          fill="#00CF24"/>
    <path d="M105.64 63.309C109.482 58.601 106.618 57.577 106.618 57.577C108.367 54.991 105.537 53.796 105.537 53.796C105.537 53.796 106.256 51.258 103.871 51.342C101.437 51.427 101.516 54.797 101.516 54.797C98.83 56.623 101.748 59.244 101.748 59.244C100.958 60.063 100.807 60.908 100.986 61.69C101.035 61.915 101.113 62.131 101.209 62.341C101.217 62.358 101.224 62.374 101.232 62.389C101.447 62.843 101.751 63.264 102.07 63.628C102.144 63.713 102.228 63.79 102.32 63.86C103.343 64.642 104.826 64.307 105.641 63.31L105.64 63.309Z"
          fill="#00A000"/>
    <path d="M103.333 74.9939C103.633 68.2799 107.274 62.228 111.398 57.138C111.497 57.02 111.693 57.173 111.585 57.297C107.723 62.406 104.321 68.4499 104.232 74.9939C104.25 75.597 103.316 75.607 103.333 74.9939Z"
          fill="#B3002D"/>
    <path d="M104.248 55.0869L104.232 76.3869C104.229 76.9739 103.324 76.9759 103.333 76.3769L103.775 55.0819C103.776 54.7839 104.254 54.7779 104.249 55.0869H104.248Z"
          fill="#B3002D"/>
    <path d="M94.758 59.652C98.745 61.846 103.341 64.889 104.035 69.757C104.049 69.896 103.947 70.02 103.808 70.034C103.669 70.048 103.545 69.946 103.531 69.808C102.891 65.131 98.405 62.146 94.589 59.996C94.364 59.894 94.533 59.535 94.757 59.653L94.758 59.652Z"
          fill="#B3002D"/>
    <path d="M102.049 56.282L104.091 59.294C104.261 59.537 103.875 59.801 103.711 59.551C103.704 59.545 101.871 56.407 101.865 56.398C101.794 56.282 101.974 56.167 102.049 56.282Z"
          fill="#B3002D"/>
    <path d="M105.736 58.944L104.093 62.594C104.051 62.688 103.94 62.73 103.846 62.688C103.747 62.644 103.706 62.522 103.759 62.427C103.789 62.441 105.699 58.802 105.735 58.945L105.736 58.944Z"
          fill="#B3002D"/>
    <path d="M112.43 60.194C110.989 60.494 109.251 60.838 108.283 62.011C108.241 62.074 108.154 62.091 108.092 62.045C108.032 62.001 108.02 61.918 108.063 61.858C108.576 61.199 109.351 60.876 110.107 60.609C110.859 60.408 111.746 60.055 112.481 60.126C112.485 60.158 112.462 60.188 112.43 60.193V60.194Z"
          fill="#B3002D"/>
    <path d="M97.907 64.759C98.602 64.17 99.421 63.426 100.427 63.686C100.494 63.708 100.53 63.78 100.507 63.846C100.484 63.915 100.406 63.951 100.339 63.924C99.968 63.768 99.502 63.902 99.106 64.095C98.683 64.237 98.179 64.78 97.903 64.839C97.882 64.817 97.885 64.78 97.906 64.759H97.907Z"
          fill="#B3002D"/>
    <path d="M98.036 58.849C98.039 60.043 98.062 61.724 99.126 62.438C99.22 62.487 99.256 62.605 99.203 62.698C99.152 62.789 99.037 62.821 98.946 62.77C97.732 61.893 97.811 60.171 97.867 58.836C97.876 58.728 98.041 58.741 98.035 58.85L98.036 58.849Z"
          fill="#B3002D"/>
    <g style="mix-blend-mode:multiply" opacity="0.4">
        <path d="M57.905 103.6C61.771 103.6 64.905 102.364 64.905 100.84C64.905 99.3157 61.771 98.08 57.905 98.08C54.039 98.08 50.905 99.3157 50.905 100.84C50.905 102.364 54.039 103.6 57.905 103.6Z"
              fill="#B85B3E"/>
    </g>
    <path d="M62.03 91.352C67.877 89.697 66.118 87.216 66.118 87.216C69.033 86.1 67.4 83.4979 67.4 83.4979C67.4 83.4979 69.444 81.83 67.442 80.532C65.399 79.206 63.531 82.013 63.531 82.013C60.283 81.969 61.172 85.79 61.172 85.79C60.055 86.008 59.447 86.614 59.145 87.357C59.056 87.569 58.996 87.791 58.954 88.018C58.951 88.037 58.947 88.054 58.945 88.071C58.861 88.566 58.869 89.0859 58.921 89.5669C58.933 89.6789 58.958 89.79 58.993 89.9C59.383 91.127 60.79 91.703 62.029 91.353L62.03 91.352Z"
          fill="#00CF24"/>
    <path d="M55.525 91.672C49.474 92.222 50.2269 89.275 50.2269 89.275C47.1049 89.278 47.698 86.263 47.698 86.263C47.698 86.263 45.1919 85.4391 46.5959 83.5091C48.0289 81.5391 50.7779 83.49 50.7779 83.49C53.7939 82.286 54.3339 86.1701 54.3339 86.1701C55.4549 85.9731 56.24 86.3221 56.788 86.9071C56.947 87.0731 57.0829 87.259 57.2029 87.456C57.2129 87.472 57.2219 87.4871 57.2299 87.5021C57.4859 87.9341 57.665 88.4221 57.788 88.8901C57.817 88.9991 57.834 89.1121 57.84 89.2261C57.916 90.5111 56.8079 91.5541 55.5259 91.6701L55.525 91.672Z"
          fill="#00CF24"/>
    <path d="M59.6989 88.402C63.5409 83.694 60.6769 82.67 60.6769 82.67C62.4259 80.084 59.5959 78.889 59.5959 78.889C59.5959 78.889 60.315 76.351 57.93 76.435C55.496 76.52 55.5749 79.89 55.5749 79.89C52.8889 81.716 55.8069 84.337 55.8069 84.337C55.0169 85.156 54.8659 86.001 55.0449 86.783C55.0939 87.008 55.1719 87.224 55.2679 87.434C55.2759 87.451 55.2829 87.467 55.2909 87.482C55.5059 87.936 55.81 88.357 56.129 88.721C56.203 88.806 56.287 88.883 56.379 88.953C57.402 89.735 58.8849 89.4 59.6999 88.403L59.6989 88.402Z"
          fill="#00A000"/>
    <path d="M57.3929 100.087C57.6929 93.373 61.3339 87.321 65.4579 82.231C65.5559 82.113 65.7529 82.266 65.6449 82.39C61.7829 87.499 58.3809 93.543 58.2919 100.088C58.3089 100.691 57.3759 100.701 57.3929 100.088V100.087Z"
          fill="#B3002D"/>
    <path d="M58.308 80.179L58.292 101.479C58.289 102.067 57.384 102.068 57.393 101.469L57.835 80.174C57.836 79.876 58.314 79.87 58.309 80.179H58.308Z"
          fill="#B3002D"/>
    <path d="M48.817 84.745C52.804 86.939 57.4 89.982 58.094 94.85C58.108 94.989 58.006 95.113 57.867 95.127C57.728 95.141 57.604 95.039 57.59 94.9C56.95 90.223 52.464 87.237 48.648 85.088C48.423 84.986 48.592 84.627 48.816 84.745H48.817Z"
          fill="#B3002D"/>
    <path d="M56.1089 81.375L58.1509 84.387C58.3209 84.63 57.935 84.894 57.771 84.644C57.764 84.638 55.931 81.5 55.925 81.491C55.854 81.375 56.0339 81.26 56.1089 81.375Z"
          fill="#B3002D"/>
    <path d="M59.796 84.036L58.153 87.686C58.111 87.78 58 87.822 57.906 87.78C57.807 87.736 57.7659 87.614 57.8189 87.519C57.8489 87.533 59.759 83.8939 59.795 84.0369L59.796 84.036Z"
          fill="#B3002D"/>
    <path d="M66.4899 85.2861C65.0489 85.5861 63.3109 85.93 62.3429 87.103C62.3009 87.166 62.2139 87.183 62.1519 87.137C62.0919 87.093 62.0799 87.0101 62.1229 86.9501C62.6359 86.2911 63.4109 85.968 64.1669 85.701C64.9189 85.5 65.8059 85.147 66.5409 85.218C66.5449 85.25 66.5219 85.28 66.4899 85.285V85.2861Z"
          fill="#B3002D"/>
    <path d="M51.966 89.851C52.661 89.262 53.48 88.519 54.486 88.778C54.553 88.8 54.588 88.872 54.566 88.938C54.543 89.007 54.465 89.043 54.398 89.016C54.027 88.86 53.561 88.994 53.165 89.187C52.742 89.329 52.238 89.872 51.962 89.931C51.941 89.909 51.945 89.872 51.966 89.851Z"
          fill="#B3002D"/>
    <path d="M52.0949 83.942C52.0979 85.136 52.121 86.8171 53.185 87.5311C53.279 87.5801 53.314 87.6981 53.262 87.7911C53.211 87.8821 53.0959 87.9141 53.0049 87.8631C51.7909 86.9861 51.87 85.2641 51.926 83.9291C51.935 83.8211 52.1 83.834 52.094 83.943L52.0949 83.942Z"
          fill="#B3002D"/>
</svg>
