<svg width="63" height="62" viewBox="0 0 63 62" fill="none" xmlns="http://www.w3.org/2000/svg">
    <path d="M61.9363 49.3974C61.8573 48.1175 61.785 46.8356 61.7188 45.5547C61.65 44.2047 61.5796 42.8547 61.5142 41.5047C61.4701 40.5824 61.4064 39.6029 61.3868 38.6575C61.3707 37.8633 61.6425 36.5604 61.2816 35.8494C61.066 35.4227 60.5998 35.2976 60.1855 35.2124C59.6413 35.1003 59.0971 34.9871 58.5528 34.8749C59.283 34.6766 60.0012 34.4213 60.7017 34.1108C60.8587 34.0417 61.0218 33.9626 61.1254 33.8063C61.2179 33.6671 61.2484 33.4859 61.2722 33.3116C61.515 31.555 61.3614 29.6893 61.3546 27.9146C61.3478 26.103 61.3419 24.2913 61.3351 22.4796C61.3249 20.756 61.3215 19.0315 61.3105 17.3069C61.3062 16.7361 61.5091 15.4963 61.2722 14.9925C61.0769 14.5769 60.6279 14.604 60.2687 14.5589C59.9087 14.5138 59.5453 14.5138 59.1844 14.5399C58.6444 14.5789 58.1087 14.675 57.5746 14.7732C58.2743 14.5429 58.9985 14.4337 59.7041 14.2324C60.1617 14.1022 60.6143 13.93 61.0311 13.6696C61.2825 13.5123 61.5643 13.3621 61.7087 13.0557C61.7689 12.9275 61.7961 12.7642 61.8233 12.622C61.8819 12.3045 61.9014 11.9781 61.9184 11.6546C61.9651 10.7613 61.9939 9.86694 62.0058 8.97262C62.0117 8.52095 62.0177 8.06828 62.0101 7.61661C62.005 7.32217 61.9108 7.04576 61.8887 6.75032C61.7961 5.53252 61.3801 4.3628 60.7119 3.42842C60.0471 2.49905 59.1454 1.81904 58.1478 1.50858C57.7785 1.39341 57.3972 1.32832 57.0152 1.31329C12.0243 -0.404246 50.2738 -0.464342 7.10667 1.29927C6.93856 1.30628 6.75009 1.28724 6.58877 1.33732C6.41302 1.3924 6.23887 1.47352 6.06651 1.54462C5.71161 1.69184 5.36016 1.85208 5.02054 2.04336C4.36084 2.41591 3.7385 2.91666 3.31313 3.63072C3.0686 4.04032 2.89964 4.50301 2.67209 4.92563C2.55747 5.13795 2.40462 5.30218 2.31038 5.52451C1.85359 6.60411 1.39256 7.69573 0.762574 8.65315C0.147017 9.58753 -0.0422919 11.0637 0.0273297 12.2074C0.122423 13.7637 0.153827 15.337 0.270995 16.8863C0.457784 19.362 0.286287 21.8407 0.51383 24.3313C0.546094 24.6879 0.59616 25.0784 0.824552 25.3158C0.981626 25.478 1.19474 25.5361 1.39936 25.5892C2.06331 25.7604 2.72815 25.9307 3.3921 26.102C2.57023 26.7299 1.34421 26.778 0.911198 27.8135C0.771955 28.147 0.747338 28.5285 0.725262 28.9001C0.64715 30.225 0.541823 31.548 0.466258 32.874C0.432296 33.4698 0.404263 34.0657 0.387282 34.6616C0.37115 35.2325 0.3304 35.7753 0.285401 36.3421C0.18012 37.657 -0.104316 39.3746 0.237 40.6615C0.567278 41.9053 1.88244 41.9574 2.79346 42.2589C2.3146 42.3229 1.94702 42.7826 1.66769 43.2463C1.52675 43.4796 1.4274 43.729 1.2924 43.9674C1.17438 44.1767 1.06657 44.393 0.968927 44.6163C0.772798 45.062 0.617425 45.5327 0.504503 46.0174C0.428938 46.3429 0.385611 46.5963 0.372876 46.9338C0.361838 47.2342 0.350811 47.5357 0.341472 47.8361C0.322793 48.438 0.307445 49.0399 0.295558 49.6428C0.272634 50.8466 0.265924 52.0513 0.274415 53.2561C0.282056 54.4218 0.0485724 55.5525 0.468849 56.7032C0.884032 57.8409 1.5997 58.8254 2.49714 59.4693C3.22393 59.9911 4.04416 60.2705 4.89151 60.3256C48.3074 62.5769 10.0689 62.5439 54.8908 60.3116C56.0744 60.2525 57.2164 59.6946 58.0875 58.7472C58.5069 58.2916 58.8704 57.891 59.1811 57.3211C59.5606 56.6271 59.9155 55.915 60.2457 55.187C61.0523 53.4113 62.0628 51.4505 61.9363 49.3974Z"
          fill="url(#paint0_linear_921_43834)"/>
    <path d="M56.4974 55.8119C11.673 58.0382 49.9148 58.0722 6.50144 55.8209C4.57071 55.8209 2.76986 54.1915 2.05411 52.1354C1.73572 51.2311 1.66353 50.2336 1.71447 49.2612C1.72211 49.0909 1.73657 48.9197 1.77987 48.7494C1.84525 48.485 1.94627 48.2547 1.97514 47.9813C1.98957 47.8361 2.00402 47.6999 2.01846 47.5546C2.09063 46.7785 2.11266 45.9853 2.1704 45.2092C2.20691 44.7745 2.25022 44.3139 2.35126 43.8952C2.46673 43.4095 2.65526 42.9659 2.99488 42.6664C4.42722 41.4035 7.21801 41.4206 9.30156 41.3695C9.70656 41.3525 10.0826 41.3435 10.4223 41.3184C11.3265 41.2503 12.2299 41.2243 13.1417 41.2333C10.9937 41.2243 8.84559 41.003 6.73401 40.5683C5.72874 40.372 4.73116 40.1166 3.74712 39.8172C3.50854 39.7491 3.25551 39.655 3.03136 39.5268C2.72061 39.3645 2.45315 39.1262 2.3156 38.7676C2.20013 38.4602 2.20691 38.1197 2.21455 37.7952C2.22219 37.4797 2.18571 37.1553 2.20014 36.8398C2.22222 36.1658 2.29435 35.5088 2.35209 34.8438C2.40982 34.306 2.46086 33.7602 2.48972 33.2144C2.56189 31.7643 2.64163 30.3222 2.73588 28.881C2.76474 28.4464 2.80802 27.9687 3.06867 27.6612C3.22745 27.4739 3.43042 27.3798 3.63249 27.2947C4.18182 27.0563 4.74647 26.8771 5.32467 26.7659C5.59212 26.7058 5.88166 26.7058 6.14231 26.6207C6.44627 26.5095 6.68475 26.4334 7.01758 26.3903C10.1854 25.9557 13.3456 25.5201 16.5134 25.0854C16.8895 25.0343 17.2724 24.9833 17.6486 24.9322C12.8752 24.2502 8.10181 23.5501 3.32934 22.8681C3.11962 22.8341 2.90994 22.808 2.70022 22.774C2.51258 22.7479 2.30963 22.7139 2.17973 22.5527C2.16529 22.5437 2.15771 22.5266 2.15091 22.5186C2.05667 22.3734 2.04222 22.1861 2.02779 21.9978C1.81128 18.9523 2.05667 15.8137 1.91233 12.7422C1.89789 12.5719 1.86142 11.7096 1.81812 10.7372C1.75274 9.33011 1.67377 7.7087 1.63726 7.7087C1.43434 4.33071 3.63331 1.41341 6.50392 1.30224C49.6651 -0.463371 11.4157 -0.404288 56.4065 1.31025C59.2924 1.42141 61.5127 4.35575 61.2885 7.75077C61.2087 8.91049 61.404 10.0201 61.1654 11.1889C61.1145 11.4623 61.0356 11.7437 60.8615 11.931C60.7028 12.0932 60.493 12.1523 60.2833 12.2124C59.7408 12.3656 59.1982 12.5278 58.6488 12.6821C57.9255 12.8864 57.2098 13.0746 56.4796 13.1678C52.1401 13.7136 47.8083 14.2594 43.4764 14.8142C43.361 14.8232 43.2447 14.8403 43.1292 14.8573C42.9917 14.8743 42.8473 14.8913 42.7098 14.9084C43.057 14.9004 43.3967 14.8913 43.7439 14.8913C49.1753 14.7802 54.621 14.678 60.0524 14.5669C60.2044 14.5669 60.3707 14.5668 60.4938 14.678C60.6313 14.7972 60.6671 15.0195 60.6892 15.2238C60.718 15.4972 60.7256 15.7616 60.718 16.017C60.7103 16.8272 60.5881 17.6124 60.5881 18.4396C60.5881 19.1737 60.74 19.8897 60.7324 20.6318C60.718 21.7064 60.6891 22.79 60.6526 23.8906C60.566 26.3563 60.4209 28.855 60.1899 31.3206C60.1534 31.6792 60.1101 32.0627 59.908 32.3271C59.7492 32.5314 59.5175 32.6426 59.2933 32.7277C59.1558 32.7878 59.0114 32.8389 58.8662 32.8729C55.6772 33.9475 52.1766 33.0943 48.9002 33.7602C48.6828 33.7943 48.4663 33.8454 48.2566 33.9055C48.1844 33.9225 48.1122 33.9485 48.04 33.9655C48.3075 33.9916 48.575 34.0086 48.8424 34.0427C52.4297 34.3501 56.0091 34.7768 59.5743 35.3135C59.9937 35.3736 60.4565 35.4668 60.7027 35.8684C60.8904 36.1758 60.898 36.5854 60.898 36.96V38.2058C60.898 39.4597 60.898 40.7225 60.9489 41.9764C61.0143 43.6399 61.1009 45.2943 61.1952 46.9578C61.2385 47.768 61.2817 48.5872 61.3327 49.3974C61.5424 52.7584 59.3587 55.6677 56.5017 55.8119H56.4974Z"
          fill="url(#paint1_linear_921_43834)"/>
    <path d="M60.3443 22.2893C60.3783 21.1877 60.4122 20.1061 60.4207 19.0345C60.4292 18.2934 60.2763 17.5723 60.2763 16.8413C60.2763 16.0801 60.3782 15.3691 60.4037 14.628C60.4376 14.638 60.4631 14.658 60.4886 14.6781C60.6244 14.7982 60.6584 15.0186 60.6838 15.2189C60.7093 15.4993 60.7178 15.7597 60.7093 16.02C60.7008 16.8312 60.582 17.6124 60.582 18.4436C60.582 19.1747 60.7348 19.8858 60.7263 20.6369C60.7093 21.7085 60.6839 22.7901 60.6499 23.8917C60.5565 26.3553 60.4122 28.859 60.1829 31.3227C60.149 31.6832 60.1066 32.0638 59.9028 32.3242C59.7415 32.5345 59.5122 32.6446 59.283 32.7248C59.1471 32.7848 59.0028 32.8349 58.8585 32.875C57.3472 33.7112 48.3073 33.9956 48.0356 33.9656C48.1121 33.9556 55.3688 32.3542 58.5612 31.2726C58.7056 31.2426 58.8499 31.1925 58.9857 31.1324C59.2065 31.0423 59.4358 30.9321 59.5971 30.7318C59.8009 30.4614 59.8433 30.0808 59.8773 29.7203C60.115 27.2567 60.2594 24.753 60.3443 22.2893Z"
          fill="#F98C3A"/>
    <path d="M42.7063 14.9084C42.8421 14.8984 54.8052 11.7868 56.1671 11.5735C56.904 11.4583 57.619 11.2831 58.3407 11.0828C58.8925 10.9325 59.4359 10.7723 59.9793 10.6121C60.183 10.552 60.3953 10.4919 60.5566 10.3317C60.7265 10.1414 60.8028 9.86096 60.8538 9.59056C61.1 8.41883 60.9048 7.31719 60.9812 6.15548C60.9981 5.835 60.9981 5.51453 60.9812 5.20407C61.2359 5.98523 61.3462 6.84649 61.2868 7.74783C61.2019 8.90955 61.3972 10.0212 61.1594 11.1929C61.1085 11.4633 61.0321 11.7437 60.8538 11.934C60.701 12.0943 60.4887 12.1544 60.2764 12.2144C59.733 12.3647 59.1897 12.5249 58.6463 12.6851C58.2048 12.8053 57.7717 12.9255 57.3302 13.0156C52.5909 13.6576 43.0544 14.8984 42.7063 14.9084Z"
          fill="#F98C3A"/>
    <path d="M56.4981 55.8089C11.6685 58.0422 49.9095 58.0722 6.49785 55.8189C4.57052 55.8189 2.77055 54.1865 2.04887 52.1335C1.85359 51.5826 1.75168 51.0018 1.70923 50.4009C1.71772 50.451 1.73474 50.491 1.75172 50.5411C2.46492 52.5941 4.26488 54.2265 6.19221 54.2265C49.6123 56.4699 11.3714 56.4398 56.1924 54.2165C59.0452 54.0663 61.2357 51.162 61.0235 47.797C60.9725 46.9858 60.9301 46.1646 60.8877 45.3634C60.7943 43.691 60.7093 42.0385 60.6414 40.3761C60.5905 39.1242 60.5904 37.8623 60.5904 36.6105V35.7192C60.6329 35.7693 60.6669 35.8193 60.7008 35.8694C60.8876 36.1698 60.8961 36.5804 60.8961 36.961V38.2028C60.8961 39.4547 60.8961 40.7166 60.9471 41.9784C61.0065 43.6409 61.0914 45.2933 61.1848 46.9558C61.2358 47.767 61.2782 48.5882 61.3291 49.3994C61.5329 52.7544 59.3509 55.6687 56.4981 55.8089Z"
          fill="#F98C3A"/>
    <path d="M17.6461 24.9312C17.264 24.9813 10.7196 27.2667 7.54419 27.6973C7.21307 27.7374 6.97531 27.8175 6.66965 27.9277C6.41494 28.0078 6.12619 28.0078 5.8545 28.0679C5.27715 28.188 4.71679 28.3583 4.16491 28.5987C3.96114 28.6888 3.75744 28.7789 3.59612 28.9692C3.3414 29.2797 3.29894 29.7504 3.26498 30.191C3.17158 31.6331 3.09513 33.0753 3.01872 34.5174C2.99325 35.0682 2.94228 35.609 2.88284 36.1498C2.82341 36.8208 2.75555 37.4718 2.73007 38.1428C2.71309 38.4632 2.75556 38.7837 2.74707 39.1042C2.74707 39.2244 2.73858 39.3445 2.74707 39.4647C2.47538 39.3145 2.23765 39.0942 2.11879 38.7637C1.99992 38.4632 2.00842 38.1227 2.01691 37.7922C2.0254 37.4818 1.99142 37.1513 1.99991 36.8408C2.02538 36.1698 2.10174 35.5089 2.15268 34.8479C2.21211 34.3071 2.26309 33.7563 2.29705 33.2155C2.36498 31.7633 2.44142 30.3212 2.54331 28.8791C2.56878 28.4484 2.61125 27.9677 2.87445 27.6573C3.02728 27.477 3.23097 27.3768 3.43474 27.2967C3.98662 27.0564 4.54698 26.8761 5.12433 26.7659C5.39603 26.7059 5.68478 26.7059 5.94799 26.6157C6.24515 26.5056 6.4913 26.4354 6.82242 26.3854C8.94503 26.0949 15.9735 24.6909 17.6461 24.9312Z"
          fill="#F98C3A"/>
    <path d="M60.6008 4.6933C59.7178 3.47149 58.4102 2.6703 56.9329 2.62022C11.942 0.907689 50.1915 0.847606 7.03454 2.61021C4.16477 2.72038 1.96576 5.63468 2.16953 9.01969C2.20349 9.01969 2.27987 10.6321 2.3478 12.0442C2.39025 13.0156 2.4243 13.8769 2.44128 14.0471C2.57713 16.9414 2.36485 19.8958 2.52617 22.77H2.50067C2.31388 22.75 2.11012 22.7099 1.98277 22.5497C1.96579 22.5397 1.95727 22.5297 1.95727 22.5196C1.85538 22.3694 1.84687 22.1892 1.82989 21.9989C1.61763 18.9544 1.85535 15.8097 1.71101 12.7452C1.70252 12.5749 1.66008 11.7137 1.61763 10.7322C1.5582 9.33015 1.47333 7.70775 1.43937 7.70775C1.23559 4.33276 3.4346 1.40844 6.30437 1.29827C49.4698 -0.464332 11.2204 -0.404249 56.2112 1.30828C58.164 1.37839 59.8197 2.76044 60.6008 4.6933Z"
          fill="#F98C3A"/>
    <defs>
        <linearGradient id="paint0_linear_921_43834" x1="57.7971" y1="-54.4302" x2="34.5959" y2="-1.49524"
                        gradientUnits="userSpaceOnUse">
            <stop stop-color="#DF5212"/>
            <stop offset="1" stop-color="#610F3F"/>
        </linearGradient>
        <linearGradient id="paint1_linear_921_43834" x1="6.01367" y1="-8.50003" x2="36.1381" y2="55.3291"
                        gradientUnits="userSpaceOnUse">
            <stop stop-color="#FF29C3"/>
            <stop offset="1" stop-color="#610F3F"/>
        </linearGradient>
    </defs>
</svg>
