<svg width="116" height="133" viewBox="0 0 116 133" fill="none" xmlns="http://www.w3.org/2000/svg">
    <path d="M115.564 99.3174V82.3084L113.137 81.6414L113.005 82.4964L62.367 56.7264C59.835 55.2644 55.73 55.2644 53.198 56.7264L3.028 81.7574L0 82.4244V99.3284C0 100.286 0.633002 101.244 1.899 101.975L53.198 131.593C55.73 133.055 59.835 133.055 62.367 131.593L113.666 101.976C114.937 101.242 115.57 100.279 115.565 99.3174H115.564Z"
          fill="#A8522A"/>
    <path d="M115.564 83.6195V80.2165H113.137L113.005 80.6035L62.367 51.3675C59.835 49.9055 55.73 49.9055 53.198 51.3675L3.028 80.3335H0V83.6315C0 84.5895 0.633002 85.5475 1.899 86.2795L53.198 115.896C55.73 117.358 59.835 117.358 62.367 115.896L113.666 86.2795C114.937 85.5455 115.57 84.5825 115.565 83.6205L115.564 83.6195Z"
          fill="#C16037"/>
    <path d="M115.564 80.6454V77.2424H113.137L113.005 77.6294L62.367 48.3934C59.835 46.9314 55.73 46.9314 53.198 48.3934L3.028 77.3594H0V80.6574C0 81.6154 0.633002 82.5734 1.899 83.3044L53.198 112.922C55.73 114.383 59.835 114.383 62.367 112.922L113.666 83.3054C114.937 82.5714 115.57 81.6084 115.565 80.6464L115.564 80.6454Z"
          fill="#C16037"/>
    <path d="M57.798 55.6314C56.134 55.6294 54.468 55.9943 53.198 56.7273L3.028 81.7584L0 82.4253V99.3294C0 100.287 0.633002 101.245 1.899 101.976L53.198 131.594C54.468 132.327 56.134 132.692 57.798 132.69V55.6314Z"
          fill="#C96A3E"/>
    <path d="M57.798 50.2715C56.134 50.2695 54.468 50.6345 53.198 51.3675L3.028 80.3335H0V83.6315C0 84.5895 0.633002 85.5475 1.899 86.2795L53.198 115.896C54.468 116.629 56.134 116.994 57.798 116.992V50.2715Z"
          fill="#EA8F67"/>
    <path d="M57.798 47.2974C56.134 47.2954 54.468 47.6604 53.198 48.3934L3.028 77.3594H0V80.6574C0 81.6154 0.633002 82.5734 1.899 83.3044L53.198 112.922C54.468 113.655 56.134 114.02 57.798 114.018V47.2974Z"
          fill="#EA8F67"/>
    <path d="M62.366 109.624C59.834 111.086 55.729 111.086 53.198 109.624L1.899 80.0075C-0.633 78.5455 -0.633 76.1755 1.899 74.7135L53.198 45.0965C55.73 43.6345 59.835 43.6345 62.366 45.0965L113.665 74.7135C116.197 76.1755 116.197 78.5455 113.665 80.0075L62.366 109.624Z"
          fill="#D2704A"/>
    <path d="M27.9729 74.6644L27.9459 74.7444L17.4919 68.7094C16.9689 68.4074 16.1219 68.4074 15.5989 68.7094L5.24194 74.6894H4.61694V76.7404C4.61694 76.9384 4.74794 76.3804 5.00894 76.5314L15.5989 83.4014C16.1219 83.7034 16.9689 83.7034 17.4919 83.4014L68.089 54.1474C68.351 53.9954 68.4819 53.7974 68.4809 53.5984V51.5254L27.9729 74.6644Z"
          fill="#8E331D"/>
    <path d="M15.5989 68.7084L5.24194 74.6884H4.61694V76.7394C4.61694 76.9374 4.74794 77.1354 5.00894 77.2864L15.5989 83.4004C15.8609 83.5514 16.2049 83.6274 16.5489 83.6264V68.4824C16.2049 68.4824 15.8619 68.5574 15.5989 68.7084Z"
          fill="#A54C33"/>
    <path d="M17.492 81.3485C16.969 81.6505 16.122 81.6505 15.599 81.3485L5.00895 75.2345C4.48595 74.9325 4.48595 74.4435 5.00895 74.1415L55.618 44.9755C56.1409 44.6735 56.988 44.6735 57.511 44.9755L68.101 51.0895C68.624 51.3915 68.624 51.8805 68.101 52.1825L17.492 81.3485Z"
          fill="#B85B3E"/>
    <path d="M42.0199 82.9495L41.9929 83.0295L31.5389 76.9945C31.0159 76.6925 30.1689 76.6925 29.6459 76.9945L19.2889 82.9745H18.6639V85.0255C18.6639 85.2235 18.7949 84.6655 19.0559 84.8165L29.6459 91.6865C30.1689 91.9885 31.0159 91.9885 31.5389 91.6865L82.1359 62.4325C82.3979 62.2805 82.5289 62.0825 82.5279 61.8835V59.8105L42.0199 82.9495Z"
          fill="#8E331D"/>
    <path d="M29.6459 76.9946L19.2889 82.9746H18.6639V85.0256C18.6639 85.2236 18.7949 85.4216 19.0559 85.5726L29.6459 91.6866C29.9079 91.8376 30.2519 91.9136 30.5959 91.9126V76.7686C30.2519 76.7686 29.9089 76.8436 29.6459 76.9946Z"
          fill="#A54C33"/>
    <path d="M31.5389 89.6344C31.0159 89.9364 30.1689 89.9364 29.6459 89.6344L19.0559 83.5204C18.5329 83.2184 18.5329 82.7294 19.0559 82.4274L69.6649 53.2614C70.1879 52.9594 71.0349 52.9594 71.5579 53.2614L82.1479 59.3754C82.6709 59.6774 82.6709 60.1664 82.1479 60.4684L31.5389 89.6344Z"
          fill="#B85B3E"/>
    <path d="M56.131 91.0435L56.104 91.1235L45.65 85.0885C45.127 84.7865 44.28 84.7865 43.757 85.0885L33.4 91.0685H32.775V93.1195C32.775 93.3175 32.906 92.7595 33.167 92.9105L43.757 99.7805C44.28 100.083 45.127 100.083 45.65 99.7805L96.247 70.5265C96.509 70.3745 96.64 70.1765 96.639 69.9775V67.9045L56.131 91.0435Z"
          fill="#8E331D"/>
    <path d="M43.758 85.0885L33.401 91.0685H32.776V93.1195C32.776 93.3175 32.907 93.5155 33.168 93.6665L43.758 99.7805C44.02 99.9315 44.364 100.008 44.708 100.007V84.8625C44.364 84.8625 44.021 84.9375 43.758 85.0885Z"
          fill="#A54C33"/>
    <path d="M45.65 97.7284C45.127 98.0304 44.28 98.0304 43.757 97.7284L33.167 91.6144C32.644 91.3124 32.644 90.8234 33.167 90.5214L83.776 61.3554C84.299 61.0534 85.146 61.0534 85.669 61.3554L96.259 67.4694C96.782 67.7714 96.782 68.2604 96.259 68.5624L45.65 97.7274V97.7284Z"
          fill="#B85B3E"/>
    <path d="M70.427 99.2884L70.4 99.3684L59.946 93.3334C59.423 93.0314 58.576 93.0314 58.053 93.3334L47.696 99.3134H47.071V101.364C47.071 101.562 47.202 101.004 47.463 101.155L58.053 108.025C58.576 108.327 59.423 108.327 59.946 108.025L110.543 78.7714C110.805 78.6194 110.936 78.4214 110.935 78.2224V76.1494L70.427 99.2884Z"
          fill="#8E331D"/>
    <path d="M58.054 93.3324L47.697 99.3125H47.072V101.363C47.072 101.561 47.203 101.759 47.464 101.91L58.054 108.024C58.316 108.175 58.66 108.251 59.004 108.25V93.1064C58.66 93.1064 58.317 93.1814 58.054 93.3324Z"
          fill="#A54C33"/>
    <path d="M59.9461 105.973C59.4231 106.275 58.576 106.275 58.053 105.973L47.4631 99.8585C46.9401 99.5565 46.9401 99.0675 47.4631 98.7655L98.0721 69.5995C98.5951 69.2975 99.4421 69.2975 99.965 69.5995L110.555 75.7135C111.078 76.0155 111.078 76.5045 110.555 76.8065L59.9461 105.972V105.973Z"
          fill="#B85B3E"/>
    <path d="M60.3211 53.5024C62.4358 53.5024 64.1501 52.6168 64.1501 51.5244C64.1501 50.432 62.4358 49.5464 60.3211 49.5464C58.2064 49.5464 56.4921 50.432 56.4921 51.5244C56.4921 52.6168 58.2064 53.5024 60.3211 53.5024Z"
          fill="#8E331D"/>
    <path d="M45.535 58.2045C47.4556 57.3197 48.6421 55.7981 48.185 54.8059C47.7279 53.8137 45.8004 53.7267 43.8797 54.6115C41.959 55.4963 40.7725 57.018 41.2296 58.0102C41.6867 59.0024 43.6143 59.0894 45.535 58.2045Z"
          fill="#D87664"/>
    <path d="M84.9571 69.372C86.8777 68.4872 88.0642 66.9655 87.6071 65.9734C87.15 64.9812 85.2225 64.8941 83.3018 65.779C81.3811 66.6638 80.1946 68.1854 80.6517 69.1776C81.1088 70.1698 83.0364 70.2568 84.9571 69.372Z"
          fill="#8E331D"/>
    <path d="M72.8963 62.9265C74.817 62.0416 76.0034 60.52 75.5463 59.5278C75.0892 58.5356 73.1617 58.4486 71.241 59.3334C69.3203 60.2182 68.1339 61.7399 68.5909 62.7321C69.048 63.7243 70.9756 63.8113 72.8963 62.9265Z"
          fill="#D87664"/>
    <path d="M19.4917 75.2507C21.4124 74.3658 22.5989 72.8442 22.1418 71.852C21.6847 70.8598 19.7571 70.7728 17.8365 71.6576C15.9158 72.5425 14.7293 74.0641 15.1864 75.0563C15.6435 76.0485 17.5711 76.1355 19.4917 75.2507Z"
          fill="#D87664"/>
    <path d="M47.8989 76.1569C49.8195 75.2721 51.006 73.7505 50.5489 72.7583C50.0918 71.7661 48.1643 71.679 46.2436 72.5639C44.3229 73.4487 43.1364 74.9704 43.5935 75.9626C44.0506 76.9547 45.9782 77.0418 47.8989 76.1569Z"
          fill="#D87664"/>
    <path d="M47.8995 91.6569C49.8202 90.7721 51.0066 89.2505 50.5495 88.2583C50.0924 87.2661 48.1649 87.179 46.2442 88.0639C44.3235 88.9487 43.137 90.4704 43.5941 91.4626C44.0512 92.4547 45.9788 92.5418 47.8995 91.6569Z"
          fill="#D87664"/>
    <path d="M37.3602 67.2113C37.4296 66.1211 35.7751 65.1284 33.6647 64.9939C31.5542 64.8595 29.7871 65.6343 29.7177 66.7245C29.6482 67.8147 31.3027 68.8075 33.4132 68.9419C35.5236 69.0764 37.2907 68.3016 37.3602 67.2113Z"
          fill="#8E331D"/>
    <path d="M75.8908 76.1056C75.9603 75.0154 74.3057 74.0226 72.1953 73.8882C70.0849 73.7538 68.3178 74.5286 68.2483 75.6188C68.1789 76.709 69.8334 77.7018 71.9438 77.8362C74.0542 77.9706 75.8214 77.1958 75.8908 76.1056Z"
          fill="#D87664"/>
    <path d="M62.7802 65.2233C62.8497 64.1331 61.1951 63.1403 59.0847 63.0059C56.9743 62.8714 55.2072 63.6462 55.1377 64.7365C55.0683 65.8267 56.7228 66.8194 58.8332 66.9539C60.9436 67.0883 62.7108 66.3135 62.7802 65.2233Z"
          fill="#8E331D"/>
    <path d="M64.1434 81.8202C64.2128 80.73 62.5583 79.7372 60.4479 79.6028C58.3375 79.4684 56.5703 80.2432 56.5009 81.3334C56.4314 82.4236 58.086 83.4164 60.1964 83.5508C62.3068 83.6852 64.0739 82.9104 64.1434 81.8202Z"
          fill="#8E331D"/>
    <path d="M34.4177 81.8029C34.4871 80.7127 32.8326 79.7199 30.7222 79.5855C28.6117 79.451 26.8446 80.2258 26.7752 81.316C26.7057 82.4063 28.3602 83.399 30.4707 83.5335C32.5811 83.6679 34.3482 82.8931 34.4177 81.8029Z"
          fill="#8E331D"/>
    <path d="M100.697 79.5783C102.618 78.6935 103.804 77.1718 103.347 76.1796C102.89 75.1875 100.963 75.1004 99.042 75.9853C97.1213 76.8701 95.9349 78.3917 96.392 79.3839C96.8491 80.3761 98.7766 80.4631 100.697 79.5783Z"
          fill="#D87664"/>
    <path d="M75.7007 92.8095C77.6214 91.9247 78.8079 90.403 78.3508 89.4108C77.8937 88.4187 75.9661 88.3316 74.0455 89.2165C72.1248 90.1013 70.9383 91.6229 71.3954 92.6151C71.8525 93.6073 73.7801 93.6943 75.7007 92.8095Z"
          fill="#D87664"/>
    <path d="M90.581 81.8739C90.6505 80.7837 88.9959 79.791 86.8855 79.6565C84.7751 79.5221 83.0079 80.2969 82.9385 81.3871C82.869 82.4773 84.5236 83.4701 86.634 83.6045C88.7444 83.739 90.5116 82.9642 90.581 81.8739Z"
          fill="#8E331D"/>
    <path d="M62.2194 98.4547C62.2889 97.3645 60.6343 96.3718 58.5239 96.2373C56.4135 96.1029 54.6464 96.8777 54.5769 97.9679C54.5075 99.0581 56.162 100.051 58.2724 100.185C60.3828 100.32 62.15 99.5449 62.2194 98.4547Z"
          fill="#8E331D"/>
</svg>
