<svg width="64" height="44" viewBox="0 0 64 44" fill="none" xmlns="http://www.w3.org/2000/svg">
    <path d="M63.9375 35.0579C63.8733 34.149 63.8147 33.2402 63.7617 32.3305C63.7055 31.3729 63.6486 30.4146 63.5964 29.457C63.5603 28.8024 63.5089 28.1079 63.4928 27.4362C63.4792 26.8725 63.6999 25.9475 63.4076 25.4431C63.2326 25.141 62.8554 25.0516 62.519 24.9907C62.0775 24.9111 61.6367 24.8307 61.196 24.7511C61.7877 24.6106 62.3697 24.4295 62.9381 24.2086C63.0649 24.159 63.1973 24.103 63.2816 23.9925C63.3563 23.8934 63.3812 23.7651 63.4013 23.6416C63.598 22.3949 63.4735 21.071 63.4679 19.8113C63.4623 18.5256 63.4575 17.24 63.4518 15.9542C63.4438 14.7311 63.4406 13.5071 63.4318 12.2839C63.4285 11.8786 63.5924 10.999 63.4005 10.6408C63.2423 10.346 62.8778 10.3647 62.5872 10.333C62.2958 10.3005 62.0012 10.3005 61.7082 10.3192C61.2707 10.3468 60.8364 10.4151 60.4037 10.4849C60.9705 10.3217 61.5573 10.2437 62.1297 10.1015C62.5006 10.0089 62.8674 9.8871 63.2046 9.70192C63.4077 9.59065 63.6365 9.48348 63.7537 9.26663C63.8026 9.17566 63.8251 9.05949 63.846 8.95878C63.8933 8.73299 63.9094 8.50232 63.9231 8.27166C63.9608 7.63815 63.9849 7.00302 63.9937 6.36788C63.9986 6.04706 64.0033 5.72625 63.9969 5.40543C63.9929 5.1967 63.9167 5.00013 63.8982 4.79058C63.8227 3.92641 63.4864 3.09638 62.9453 2.43282C62.4067 1.77332 61.6753 1.29084 60.8677 1.06992C60.5683 0.987893 60.2592 0.941612 59.9501 0.931866C23.4926 -0.287239 40.7272 -0.330305 5.74758 0.9221C5.61192 0.926973 5.45853 0.913182 5.32768 0.948918C5.18479 0.987904 5.04432 1.04559 4.90464 1.09595C4.61725 1.19991 4.33225 1.31441 4.0569 1.45005C3.52226 1.71401 3.0181 2.06977 2.67372 2.57658C2.47624 2.86735 2.33818 3.19546 2.15435 3.49516C2.06203 3.64541 1.93761 3.76236 1.86135 3.92074C1.49127 4.68664 1.1172 5.4615 0.606638 6.14049C0.107319 6.80405 -0.0451608 7.85175 0.0110327 8.66313C0.0880981 9.76691 0.113764 10.8845 0.20849 11.9842C0.360212 13.741 0.22133 15.5002 0.405163 17.2675C0.431654 17.5209 0.471764 17.7979 0.657203 17.966C0.78404 18.0814 0.9575 18.1228 1.12287 18.1593C1.66072 18.2803 2.19935 18.4022 2.738 18.5232C2.07171 18.9691 1.07868 19.0032 0.727072 19.7383C0.613883 19.9746 0.594607 20.2458 0.576946 20.5098C0.513528 21.4503 0.428465 22.3893 0.366652 23.3298C0.339358 23.7521 0.316015 24.1752 0.302368 24.5984C0.289524 25.0029 0.256686 25.3887 0.219759 25.7915C0.133863 26.7248 -0.0965879 27.9439 0.180366 28.8568C0.447686 29.7396 1.5138 29.7762 2.25234 29.9906C1.86381 30.0361 1.56672 30.3625 1.33953 30.6915C1.22554 30.8572 1.14452 31.0342 1.03614 31.2032C0.940616 31.3518 0.853093 31.5053 0.773619 31.6637C0.614672 31.9805 0.488643 32.3143 0.397128 32.6578C0.335315 32.8885 0.300751 33.0688 0.290315 33.3084C0.280682 33.522 0.272668 33.7356 0.26464 33.9492C0.249388 34.3764 0.236527 34.8036 0.227697 35.2308C0.209233 36.0853 0.203636 36.9405 0.210058 37.795C0.21648 38.6218 0.0270637 39.425 0.367436 40.2413C0.703794 41.0486 1.28417 41.7471 2.01148 42.2043C2.5999 42.5747 3.26539 42.7729 3.95175 42.8119C39.1329 44.4095 21.9072 44.3859 58.2283 42.8021C59.1876 42.7607 60.1123 42.3644 60.8188 41.6919C61.1591 41.3686 61.4529 41.0835 61.705 40.6799C62.0125 40.1877 62.2999 39.6817 62.568 39.1659C63.2215 37.9054 64.0403 36.5141 63.9375 35.057V35.0579Z"
          fill="url(#paint0_linear_920_39266)"/>
    <path d="M60.0224 39.6102C23.6998 41.19 40.9287 41.2143 5.74913 39.6159C4.18454 39.6159 2.72512 38.4593 2.14473 37.0006C1.88704 36.359 1.82842 35.6508 1.86936 34.9604C1.87498 34.8394 1.88706 34.7184 1.92238 34.5974C1.97536 34.4098 2.05726 34.2465 2.08054 34.0524C2.09258 33.9492 2.10378 33.8526 2.11582 33.7494C2.17442 33.1988 2.19204 32.6359 2.2386 32.0844C2.26831 31.7758 2.30291 31.4485 2.38559 31.152C2.47952 30.8069 2.63196 30.4925 2.90731 30.2806C4.06731 29.3847 6.32957 29.3969 8.01778 29.3603C8.34611 29.3482 8.65032 29.3425 8.92648 29.3238C9.6594 29.2751 10.3915 29.2572 11.1301 29.2637C9.38967 29.258 7.64926 29.1004 5.93777 28.7918C5.12296 28.6529 4.31457 28.471 3.51742 28.259C3.32395 28.2103 3.11923 28.1437 2.937 28.0535C2.68494 27.9382 2.46827 27.7692 2.35669 27.515C2.26276 27.2973 2.26834 27.0553 2.27476 26.8247C2.28038 26.6005 2.25147 26.3706 2.26271 26.1465C2.28037 25.6681 2.33903 25.2019 2.38559 24.73C2.43215 24.3483 2.47383 23.9609 2.49711 23.5735C2.55571 22.5444 2.61997 21.521 2.69623 20.4985C2.71951 20.1898 2.75479 19.8504 2.96591 19.6327C3.09516 19.4995 3.25899 19.4329 3.42276 19.3728C3.86829 19.203 4.32507 19.0763 4.79389 18.9975C5.01063 18.9553 5.245 18.9553 5.45613 18.8944C5.70258 18.8156 5.89599 18.7612 6.16492 18.7311C8.73135 18.4225 11.293 18.1139 13.8595 17.8053C14.1645 17.7687 14.4752 17.7329 14.7794 17.6964C10.9117 17.2123 7.04402 16.7153 3.1763 16.2312C3.00612 16.2068 2.83673 16.189 2.66654 16.1646C2.51402 16.1467 2.35025 16.1223 2.24429 16.007C2.23225 16.0013 2.22658 15.9892 2.22096 15.9827C2.1447 15.8795 2.13264 15.7463 2.1214 15.6131C1.9456 13.4519 2.14473 11.224 2.02752 9.04492C2.01548 8.9239 1.98661 8.3123 1.95129 7.62194C1.8983 6.62294 1.8341 5.47287 1.80439 5.47287C1.64063 3.07528 3.42193 1.00497 5.74834 0.92619C40.7232 -0.327026 23.4887 -0.284777 59.9462 0.931891C62.2847 1.01067 64.0836 3.09313 63.9022 5.50292C63.838 6.32648 63.9961 7.11352 63.8026 7.94277C63.7617 8.13607 63.6975 8.33669 63.5562 8.46908C63.4269 8.58441 63.2576 8.62663 63.0874 8.66886C62.6475 8.77769 62.2083 8.893 61.7628 9.00184C61.1768 9.14722 60.5964 9.28046 60.0048 9.34706C56.4887 9.73448 52.9781 10.1219 49.4676 10.5158C49.3737 10.5215 49.2798 10.5336 49.1867 10.5458C49.0751 10.558 48.9579 10.5702 48.8471 10.5824C49.1281 10.5767 49.4034 10.5702 49.6852 10.5702C54.0859 10.4914 58.4988 10.4191 62.9003 10.3403C63.0231 10.3403 63.1581 10.3404 63.2576 10.4192C63.3692 10.5036 63.398 10.6612 63.4157 10.8066C63.4389 10.9999 63.4446 11.1883 63.439 11.3694C63.4334 11.9445 63.3338 12.5016 63.3338 13.0888C63.3338 13.6095 63.4567 14.1179 63.451 14.645C63.439 15.4077 63.4157 16.1768 63.3868 16.9573C63.3161 18.7068 63.199 20.4806 63.0119 22.2301C62.983 22.4843 62.9477 22.7564 62.7831 22.9448C62.6539 23.0902 62.4668 23.169 62.2854 23.2291C62.1738 23.2713 62.0566 23.3079 61.9394 23.3322C59.3553 24.0949 56.5184 23.4898 53.8636 23.9617C53.6878 23.986 53.512 24.0226 53.3418 24.0648C53.2832 24.077 53.2246 24.0949 53.166 24.1071C53.3828 24.1249 53.5995 24.1371 53.8162 24.1615C56.723 24.3792 59.6234 24.6821 62.5126 25.0638C62.8521 25.106 63.2279 25.1726 63.4269 25.4569C63.5795 25.6746 63.5851 25.9654 63.5851 26.2318V27.1154C63.5851 28.0056 63.5851 28.9015 63.6261 29.7916C63.679 30.9717 63.7488 32.1461 63.8251 33.3271C63.8604 33.9021 63.8958 34.4837 63.9367 35.0587C64.1069 37.4441 62.3368 39.5079 60.0217 39.611L60.0224 39.6102Z"
          fill="url(#paint1_linear_920_39266)"/>
    <path d="M60.0226 39.6101C23.6999 41.1898 40.9288 41.2142 5.7493 39.6158C4.18472 39.6158 2.7253 38.4592 2.1449 37.0005C1.88721 36.3589 1.8286 35.6506 1.86954 34.9603C1.87516 34.8393 1.88723 34.7183 1.92255 34.5973C1.97554 34.4096 2.05744 34.2464 2.08072 34.0523C2.16902 33.4041 2.1858 32.7389 2.23878 32.0851C2.29738 31.4256 2.39133 30.6808 2.9067 30.2812C4.0667 29.3854 6.32886 29.3976 8.01707 29.361C9.39462 29.3789 10.7658 29.3911 12.1666 29.4699C11.758 29.4699 11.3959 29.6656 11.0026 29.7054C10.4615 29.7598 9.91323 29.7712 9.37056 29.8036C8.29968 29.8686 7.22884 29.9328 6.15715 29.9978C5.41379 30.0424 4.66153 30.0896 3.95269 30.3251C3.68457 30.4144 3.41646 30.5363 3.2246 30.7483C3.01507 30.9797 2.91713 31.2949 2.84007 31.6019C2.69156 32.1964 2.50694 32.9119 2.59685 33.5292C2.62334 33.7136 2.68912 33.8882 2.7116 34.0742C2.73648 34.2765 2.71726 34.4779 2.71003 34.6801C2.68595 35.364 2.73094 36.0649 3.00548 36.6976C3.66214 38.2107 5.37919 38.871 6.95502 39.174C8.88326 39.537 10.5065 39.8822 12.4524 39.6101C15.295 39.6418 18.1376 39.6718 20.9802 39.7011C22.6427 39.7181 24.3052 39.7433 25.967 39.7506C26.2447 39.7514 26.4984 39.6605 26.7705 39.6588C27.1711 39.6572 27.5829 39.7311 27.9827 39.762C28.7999 39.8245 29.6179 39.87 30.4368 39.8984C32.4437 39.9683 34.4546 39.9358 36.4583 39.801C36.9359 39.7685 37.3991 39.6792 37.8623 39.8213C38.531 40.0268 39.235 40.0194 39.9286 40.0511C41.5775 40.1275 43.2287 40.1364 44.8776 40.0796C45.2734 40.0658 45.6691 40.0487 46.0649 40.0268C46.6975 39.9927 26.7014 39.9456 27.2907 39.7051C27.5949 39.5809 27.8808 39.4063 28.1954 39.3177C29.0921 39.0643 30.0089 39.5321 30.8807 39.866C32.0102 40.298 33.252 40.0925 34.4353 40.1754C36.0488 40.2883 37.5998 40.4052 39.2126 40.19C39.227 40.1884 39.2414 40.1859 39.2559 40.1843C40.0153 40.0812 40.7707 39.9017 41.4643 39.559C41.8263 39.3803 42.1899 39.1537 42.5905 39.1618C43.0738 39.1715 43.4784 39.5175 43.8934 39.7734C45.1963 40.5782 46.8171 40.5596 48.3255 40.3866C49.6139 40.2388 39.2053 39.9927 40.505 40.1283C41.0429 40.1843 41.559 40.1056 42.1025 40.1088C42.7752 40.1121 43.4471 40.1153 44.1198 40.1185C49.6637 40.1486 34.5734 40.1673 40.1117 39.9732C42.4501 39.8944 44.7942 39.7734 47.1326 39.6101C48.3689 39.5256 49.6059 39.4282 50.8422 39.3258C51.4571 39.2714 52.0728 39.2105 52.6942 39.1561C54.5574 38.9742 56.4391 38.9863 58.3087 38.8474C59.4278 38.763 60.5998 38.6355 61.5439 37.9995C62.0833 37.6365 62.5112 37.0671 62.6982 36.4255C62.7922 36.1169 62.8275 35.7839 62.7745 35.463C62.7456 35.3055 62.6869 35.1601 62.6805 35.0091C62.6685 34.4584 62.6685 33.9012 62.6629 33.3505C62.6572 32.4912 62.7448 31.601 62.6276 30.7531C62.6155 30.6565 62.5978 30.5533 62.5336 30.4867C62.4806 30.4323 62.4044 30.408 62.3281 30.3836C62.0118 30.2926 61.7012 30.2016 61.3905 30.1115C61.8063 29.8995 62.2695 29.6453 62.4164 29.1913C62.487 28.9858 62.4806 28.7673 62.475 28.5553C62.463 28.0404 62.4453 27.5084 62.2527 27.0357C62.0536 26.5638 62.0183 26.1756 61.5374 26.0367C59.0761 25.3341 56.4038 24.6747 53.8132 24.1597C56.7201 24.3774 59.6204 24.6804 62.5096 25.0621C62.8492 25.1043 63.2248 25.1709 63.4239 25.4552C63.5764 25.6729 63.582 25.9636 63.582 26.23C63.582 27.4166 63.57 28.6033 63.623 29.7899C63.7049 31.5458 63.8108 33.301 63.9336 35.0569C64.1038 37.4424 62.3338 39.5062 60.0186 39.6093L60.0226 39.6101Z"
          fill="#F98C3A"/>
    <path d="M63.9375 35.0579C63.8733 34.149 63.8147 33.2402 63.7617 32.3305C63.7055 31.3729 63.6486 30.4146 63.5964 29.457C63.5603 28.8024 63.5089 28.1079 63.4928 27.4362C63.4792 26.8725 63.6999 25.9475 63.4076 25.4431C63.2326 25.141 62.8554 25.0516 62.519 24.9907C62.0775 24.9111 61.6367 24.8307 61.196 24.7511C61.7877 24.6106 62.3697 24.4295 62.9381 24.2086C63.0649 24.159 63.1973 24.103 63.2816 23.9925C63.3563 23.8934 63.3812 23.7651 63.4013 23.6416C63.598 22.3949 63.4735 21.071 63.4679 19.8113C63.4623 18.5256 63.4575 17.24 63.4518 15.9542C63.4438 14.7311 63.4406 13.5071 63.4318 12.2839C63.4285 11.8786 63.5924 10.999 63.4005 10.6408C63.2423 10.346 62.8778 10.3647 62.5872 10.333C62.2958 10.3005 62.0012 10.3005 61.7082 10.3192C61.2707 10.3468 60.8364 10.4151 60.4037 10.4849C60.9705 10.3217 61.5573 10.2437 62.1297 10.1015C62.5006 10.0089 62.8674 9.8871 63.2046 9.70192C63.4077 9.59065 63.6365 9.48348 63.7537 9.26663C63.8026 9.17566 63.8251 9.05949 63.846 8.95878C63.8933 8.73299 63.9094 8.50232 63.9231 8.27166C63.9608 7.63815 63.9849 7.00302 63.9937 6.36788C63.9986 6.04706 64.0033 5.72625 63.9969 5.40543C63.9929 5.1967 63.9167 5.00013 63.8982 4.79058C63.8227 3.92641 63.4864 3.09638 62.9453 2.43282C62.4067 1.77332 61.6753 1.29084 60.8677 1.06992C60.5683 0.987893 60.2592 0.941612 59.9501 0.931866C23.4926 -0.287239 40.7272 -0.330305 5.74758 0.9221C5.61192 0.926973 5.45853 0.913182 5.32768 0.948918C5.18479 0.987904 5.04432 1.04559 4.90464 1.09595C4.61725 1.19991 4.33225 1.31441 4.0569 1.45005C3.52226 1.71401 3.0181 2.06977 2.67372 2.57658C2.47624 2.86735 2.33818 3.19546 2.15435 3.49516C2.06203 3.64541 1.93761 3.76236 1.86135 3.92074C1.49127 4.68664 1.1172 5.4615 0.606638 6.14049C0.107319 6.80405 -0.0451608 7.85175 0.0110327 8.66313C0.0880981 9.76691 0.113764 10.8845 0.20849 11.9842C0.360212 13.741 0.22133 15.5002 0.405163 17.2675C0.431654 17.5209 0.471764 17.7979 0.657203 17.966C0.78404 18.0814 0.9575 18.1228 1.12287 18.1593C1.66072 18.2803 2.19935 18.4022 2.738 18.5232C2.07171 18.9691 1.07868 19.0032 0.727072 19.7383C0.613883 19.9746 0.594607 20.2458 0.576946 20.5098C0.513528 21.4503 0.428465 22.3893 0.366652 23.3298C0.339358 23.7521 0.316015 24.1752 0.302368 24.5984C0.289524 25.0029 0.256686 25.3887 0.219759 25.7915C0.133863 26.7248 -0.0965879 27.9439 0.180366 28.8568C0.447686 29.7396 1.5138 29.7762 2.25234 29.9906C1.86381 30.0361 1.56672 30.3625 1.33953 30.6915C1.22554 30.8572 1.14452 31.0342 1.03614 31.2032C0.940616 31.3518 0.853093 31.5053 0.773619 31.6637C0.614672 31.9805 0.488643 32.3143 0.397128 32.6578C0.335315 32.8885 0.300751 33.0688 0.290315 33.3084C0.280682 33.522 0.272668 33.7356 0.26464 33.9492C0.249388 34.3764 0.236527 34.8036 0.227697 35.2308C0.209233 36.0853 0.203636 36.9405 0.210058 37.795C0.21648 38.6218 0.0270637 39.425 0.367436 40.2413C0.703794 41.0486 1.28417 41.7471 2.01148 42.2043C2.5999 42.5747 3.26539 42.7729 3.95175 42.8119C39.1329 44.4095 21.9072 44.3859 58.2283 42.8021C59.1876 42.7607 60.1123 42.3644 60.8188 41.6919C61.1591 41.3686 61.4529 41.0835 61.705 40.6799C62.0125 40.1877 62.2999 39.6817 62.568 39.1659C63.2215 37.9054 64.0403 36.5141 63.9375 35.057V35.0579Z"
          fill="url(#paint2_linear_920_39266)"/>
    <path d="M60.0224 39.6102C23.6998 41.19 40.9287 41.2143 5.74913 39.6159C4.18454 39.6159 2.72512 38.4593 2.14473 37.0006C1.88704 36.359 1.82842 35.6508 1.86936 34.9604C1.87498 34.8394 1.88706 34.7184 1.92238 34.5974C1.97536 34.4098 2.05726 34.2465 2.08054 34.0524C2.09258 33.9492 2.10378 33.8526 2.11582 33.7494C2.17442 33.1988 2.19204 32.6359 2.2386 32.0844C2.26831 31.7758 2.30291 31.4485 2.38559 31.152C2.47952 30.8069 2.63196 30.4925 2.90731 30.2806C4.06731 29.3847 6.32957 29.3969 8.01778 29.3603C8.34611 29.3482 8.65032 29.3425 8.92648 29.3238C9.6594 29.2751 10.3915 29.2572 11.1301 29.2637C9.38967 29.258 7.64926 29.1004 5.93777 28.7918C5.12296 28.6529 4.31457 28.471 3.51742 28.259C3.32395 28.2103 3.11923 28.1437 2.937 28.0535C2.68494 27.9382 2.46827 27.7692 2.35669 27.515C2.26276 27.2973 2.26834 27.0553 2.27476 26.8247C2.28038 26.6005 2.25147 26.3706 2.26271 26.1465C2.28037 25.6681 2.33903 25.2019 2.38559 24.73C2.43215 24.3483 2.47383 23.9609 2.49711 23.5735C2.55571 22.5444 2.61997 21.521 2.69623 20.4985C2.71951 20.1898 2.75479 19.8504 2.96591 19.6327C3.09516 19.4995 3.25899 19.4329 3.42276 19.3728C3.86829 19.203 4.32507 19.0763 4.79389 18.9975C5.01063 18.9553 5.245 18.9553 5.45613 18.8944C5.70258 18.8156 5.89599 18.7612 6.16492 18.7311C8.73135 18.4225 11.293 18.1139 13.8595 17.8053C14.1645 17.7687 14.4752 17.7329 14.7794 17.6964C10.9117 17.2123 7.04402 16.7153 3.1763 16.2312C3.00612 16.2068 2.83673 16.189 2.66654 16.1646C2.51402 16.1467 2.35025 16.1223 2.24429 16.007C2.23225 16.0013 2.22658 15.9892 2.22096 15.9827C2.1447 15.8795 2.13264 15.7463 2.1214 15.6131C1.9456 13.4519 2.14473 11.224 2.02752 9.04492C2.01548 8.9239 1.98661 8.3123 1.95129 7.62194C1.8983 6.62294 1.8341 5.47287 1.80439 5.47287C1.64063 3.07528 3.42193 1.00497 5.74834 0.92619C40.7232 -0.327026 23.4887 -0.284777 59.9462 0.931891C62.2847 1.01067 64.0836 3.09313 63.9022 5.50292C63.838 6.32648 63.9961 7.11352 63.8026 7.94277C63.7617 8.13607 63.6975 8.33669 63.5562 8.46908C63.4269 8.58441 63.2576 8.62663 63.0874 8.66886C62.6475 8.77769 62.2083 8.893 61.7628 9.00184C61.1768 9.14722 60.5964 9.28046 60.0048 9.34706C56.4887 9.73448 52.9781 10.1219 49.4676 10.5158C49.3737 10.5215 49.2798 10.5336 49.1867 10.5458C49.0751 10.558 48.9579 10.5702 48.8471 10.5824C49.1281 10.5767 49.4034 10.5702 49.6852 10.5702C54.0859 10.4914 58.4988 10.4191 62.9003 10.3403C63.0231 10.3403 63.1581 10.3404 63.2576 10.4192C63.3692 10.5036 63.398 10.6612 63.4157 10.8066C63.4389 10.9999 63.4446 11.1883 63.439 11.3694C63.4334 11.9445 63.3338 12.5016 63.3338 13.0888C63.3338 13.6095 63.4567 14.1179 63.451 14.645C63.439 15.4077 63.4157 16.1768 63.3868 16.9573C63.3161 18.7068 63.199 20.4806 63.0119 22.2301C62.983 22.4843 62.9477 22.7564 62.7831 22.9448C62.6539 23.0902 62.4668 23.169 62.2854 23.2291C62.1738 23.2713 62.0566 23.3079 61.9394 23.3322C59.3553 24.0949 56.5184 23.4898 53.8636 23.9617C53.6878 23.986 53.512 24.0226 53.3418 24.0648C53.2832 24.077 53.2246 24.0949 53.166 24.1071C53.3828 24.1249 53.5995 24.1371 53.8162 24.1615C56.723 24.3792 59.6234 24.6821 62.5126 25.0638C62.8521 25.106 63.2279 25.1726 63.4269 25.4569C63.5795 25.6746 63.5851 25.9654 63.5851 26.2318V27.1154C63.5851 28.0056 63.5851 28.9015 63.6261 29.7916C63.679 30.9717 63.7488 32.1461 63.8251 33.3271C63.8604 33.9021 63.8958 34.4837 63.9367 35.0587C64.1069 37.4441 62.3368 39.5079 60.0217 39.611L60.0224 39.6102Z"
          fill="url(#paint3_linear_920_39266)"/>
    <path d="M2.80694 26.7337C2.7949 27.1755 2.7949 27.636 2.93619 28.0535C2.68412 27.9382 2.46736 27.7692 2.35577 27.515C2.26185 27.2973 2.26753 27.0553 2.27395 26.8246C2.27957 26.6005 2.25066 26.3706 2.2619 26.1464C2.29722 25.2806 2.44974 24.4335 2.4963 23.5734C2.5549 22.5444 2.61916 21.521 2.69542 20.4985C2.7187 20.1898 2.75397 19.8503 2.9651 19.6327C3.09434 19.4995 3.25808 19.4329 3.42185 19.3728C3.86738 19.203 4.32416 19.0763 4.79298 18.9975C5.00972 18.9553 5.24419 18.9553 5.45531 18.8944C5.70176 18.8156 5.89518 18.7612 6.1641 18.7311C8.73054 18.4225 11.2922 18.1139 13.8587 17.8052C11.1044 18.3803 8.35002 18.9496 5.59574 19.5247C5.05869 19.6351 4.34261 19.6302 3.89467 19.9949C3.72528 20.133 3.572 20.3376 3.43713 20.5098C3.39379 20.5659 3.01003 21.3578 3.15854 21.3627C5.18231 21.4325 7.20615 21.5015 9.23072 21.5714C7.73115 21.8231 6.23636 22.1034 4.74643 22.412C3.99504 22.5679 3.14408 22.8084 2.81174 23.5223C2.60222 23.9714 2.61674 24.5781 2.68739 25.0622C2.71147 25.2263 2.76603 25.3806 2.79733 25.5422C2.87279 25.9321 2.81665 26.3422 2.80782 26.7345L2.80694 26.7337Z"
          fill="#F98C3A"/>
    <path d="M62.2669 22.6711C62.3784 22.2114 62.3487 21.7265 62.3134 21.2547C62.2492 20.3767 62.1841 19.4987 62.1199 18.6216C62.1078 18.4518 62.0846 18.2642 61.9561 18.161C61.851 18.0766 61.7041 18.0766 61.5748 18.0823C60.508 18.1188 59.4475 18.1545 58.3871 18.1911C59.5358 18.0879 60.6725 17.7736 61.7097 17.2587C62.0083 17.1076 62.319 16.92 62.4306 16.6049C62.4892 16.4416 62.4892 16.2662 62.4892 16.09C62.4715 14.71 62.2371 13.166 62.079 11.7975C61.5749 11.3069 60.8251 11.2403 60.1395 11.1981C57.3619 11.0227 54.5779 10.8472 51.8003 10.6718C51.1381 10.6231 50.3939 10.5995 49.6851 10.5686C54.0858 10.4898 58.4986 10.4176 62.9002 10.3388C63.023 10.3388 63.1579 10.3388 63.2575 10.4176C63.3691 10.502 63.3979 10.6596 63.4155 10.805C63.5095 11.5855 63.3337 12.3124 63.3337 13.0873C63.3337 13.6079 63.4565 14.1163 63.4509 14.6434C63.41 17.1198 63.2808 19.7042 63.011 22.2285C62.9821 22.4827 62.9468 22.7548 62.7822 22.9432C62.653 23.0886 62.4659 23.1674 62.2845 23.2275C62.1729 23.2697 62.0557 23.3063 61.9385 23.3307C62.0966 23.143 62.2083 22.9067 62.2669 22.6711Z"
          fill="#F98C3A"/>
    <path d="M2.02747 9.04401C2.00981 8.74756 1.85169 5.47202 1.80513 5.47202C1.64136 3.07442 3.42267 1.00412 5.74908 0.925336C40.7239 -0.327881 23.4894 -0.285631 59.9469 0.931036C62.2854 1.00982 64.0844 3.09228 63.9029 5.50206C63.8387 6.32563 63.9968 7.11262 63.8034 7.94187C63.7624 8.13517 63.6982 8.33579 63.5569 8.46818C63.4277 8.58351 63.2583 8.62577 63.0881 8.668C62.6498 8.77684 62.2139 8.89946 61.774 8.99692C62.1561 8.6428 62.5912 8.21886 62.7687 7.70556C62.8891 7.35712 62.7911 7.05658 62.6779 6.72358C62.5037 6.20946 62.4724 5.7189 62.4515 5.17716C62.4259 4.51116 62.5414 3.55277 62.0276 3.01997C61.6423 2.62037 61.1326 2.27034 60.6453 2.02262C59.4436 1.41185 58.058 1.28675 56.7399 1.23234C56.6733 1.2299 56.6074 1.22749 56.5408 1.22505C54.1052 1.14221 51.6624 1.13649 49.2356 1.39151C48.941 1.42238 48.6826 1.50767 48.3984 1.56452C48.0411 1.63518 47.6212 1.54667 47.26 1.52799C46.4347 1.48332 45.6087 1.44514 44.7827 1.41184C43.1306 1.34605 41.4785 1.30301 39.8256 1.2827C38.5869 1.26727 37.3483 1.26482 36.1088 1.26238C35.7178 1.26238 35.327 1.26076 34.936 1.25995C34.183 1.25833 33.4308 1.2567 32.6778 1.25588C31.6342 1.25345 30.5906 1.25183 29.547 1.24939C29.4973 1.24939 29.4474 1.24939 29.3985 1.24939C27.7448 1.24614 46.7318 1.24292 45.0789 1.23967C44.2521 1.23805 43.4253 1.23639 42.5992 1.23477C42.2227 1.23477 41.8004 1.28921 41.4303 1.21692C41.0546 1.14382 40.7464 0.90909 40.3482 0.872541C39.9894 0.839241 39.6169 0.902571 39.2612 0.932623C38.3597 1.00734 49.1666 1.0959 48.2667 1.19823C47.8597 1.24453 47.4142 1.31274 47.1412 1.62788C47.0473 1.73671 46.9782 1.87072 46.8634 1.956C46.6097 2.14361 46.2614 2.01938 45.9675 1.91217C45.3823 1.69775 44.765 1.57835 44.1453 1.55317C43.5865 1.53043 43.0319 1.63034 42.474 1.59704C42.1216 1.57592 41.7828 1.48739 41.4376 1.41754C40.0777 1.14058 38.6535 1.12351 37.276 1.02037C36.2541 0.94402 35.2298 0.888784 34.2055 0.851423C30.8997 0.730406 48.2313 0.794596 44.9271 0.939166C43.2734 1.01145 41.6206 1.10403 39.9677 1.20393C39.2123 1.24942 38.371 1.41428 37.6188 1.31438C37.4012 1.28514 37.199 1.1958 36.9847 1.15357C36.7591 1.10971 36.5319 1.11699 36.3039 1.11862C35.3863 1.12512 34.4679 1.13489 33.5504 1.14058C32.4779 1.14626 31.3998 1.14058 30.3217 1.14058C29.9596 1.14139 29.6081 1.21608 29.2533 1.21608C28.9297 1.21608 28.607 1.14219 28.2803 1.14544C27.6003 1.15193 26.9219 1.28922 26.2926 1.55481C26.0485 1.65714 25.7997 1.78139 25.5372 1.76514C25.0564 1.73672 24.7224 1.26726 24.2873 1.05284C23.251 0.541965 22.1801 1.51582 21.1212 1.1211C20.5946 0.924546 20.056 0.954587 19.5029 0.948089C18.7956 0.939967 18.0891 0.936692 17.3819 0.940753C14.9849 0.952935 12.5878 1.03739 10.2028 1.28593C9.01309 1.41263 7.82906 1.57672 6.6514 1.79439C6.08305 1.89754 5.50265 2.07296 4.92867 2.13956C4.74725 2.16393 4.61802 2.15743 4.45987 2.27276C3.75826 2.78282 1.81794 5.62713 3.20271 6.62775C3.65226 6.95263 4.24065 6.95669 4.78893 6.94938C8.31869 6.89983 11.8477 6.84946 15.3774 6.79992C11.5667 7.11261 7.75681 7.42533 3.94609 7.73803C3.69964 7.75833 3.44515 7.78109 3.2276 7.90211C2.49388 8.31227 2.74676 9.2674 2.6416 9.95857C2.50433 10.8642 2.67608 11.8437 2.76037 12.7525C2.87195 13.9148 3.00687 15.077 3.17625 16.2336C3.00607 16.2092 2.83668 16.1913 2.66649 16.167C2.50273 16.1491 2.32688 16.1182 2.22091 15.985C2.14465 15.8819 2.13259 15.7487 2.12135 15.6155C1.94555 13.4542 2.14468 11.2264 2.02747 9.04728V9.04401Z"
          fill="#F98C3A"/>
    <path d="M60.0226 39.6101C23.6999 41.1898 40.9288 41.2142 5.7493 39.6158C4.18472 39.6158 2.7253 38.4592 2.1449 37.0005C1.88721 36.3589 1.8286 35.6506 1.86954 34.9603C1.87516 34.8393 1.88723 34.7183 1.92255 34.5973C1.97554 34.4096 2.05744 34.2464 2.08072 34.0523C2.16902 33.4041 2.1858 32.7389 2.23878 32.0851C2.29738 31.4256 2.39133 30.6808 2.9067 30.2812C4.0667 29.3854 6.32886 29.3976 8.01707 29.361C9.39462 29.3789 10.7658 29.3911 12.1666 29.4699C11.758 29.4699 11.3959 29.6656 11.0026 29.7054C10.4615 29.7598 9.91323 29.7712 9.37056 29.8036C8.29968 29.8686 7.22884 29.9328 6.15715 29.9978C5.41379 30.0424 4.66153 30.0896 3.95269 30.3251C3.68457 30.4144 3.41646 30.5363 3.2246 30.7483C3.01507 30.9797 2.91713 31.2949 2.84007 31.6019C2.69156 32.1964 2.50694 32.9119 2.59685 33.5292C2.62334 33.7136 2.68912 33.8882 2.7116 34.0742C2.73648 34.2765 2.71726 34.4779 2.71003 34.6801C2.68595 35.364 2.73094 36.0649 3.00548 36.6976C3.66214 38.2107 5.37919 38.871 6.95502 39.174C8.88326 39.537 10.5065 39.8822 12.4524 39.6101C15.295 39.6418 18.1376 39.6718 20.9802 39.7011C22.6427 39.7181 24.3052 39.7433 25.967 39.7506C26.2447 39.7514 26.4984 39.6605 26.7705 39.6588C27.1711 39.6572 27.5829 39.7311 27.9827 39.762C28.7999 39.8245 29.6179 39.87 30.4368 39.8984C32.4437 39.9683 34.4546 39.9358 36.4583 39.801C36.9359 39.7685 37.3991 39.6792 37.8623 39.8213C38.531 40.0268 39.235 40.0194 39.9286 40.0511C41.5775 40.1275 43.2287 40.1364 44.8776 40.0796C45.2734 40.0658 45.6691 40.0487 46.0649 40.0268C46.6975 39.9927 26.7014 39.9456 27.2907 39.7051C27.5949 39.5809 27.8808 39.4063 28.1954 39.3177C29.0921 39.0643 30.0089 39.5321 30.8807 39.866C32.0102 40.298 33.252 40.0925 34.4353 40.1754C36.0488 40.2883 37.5998 40.4052 39.2126 40.19C39.227 40.1884 39.2414 40.1859 39.2559 40.1843C40.0153 40.0812 40.7707 39.9017 41.4643 39.559C41.8263 39.3803 42.1899 39.1537 42.5905 39.1618C43.0738 39.1715 43.4784 39.5175 43.8934 39.7734C45.1963 40.5782 46.8171 40.5596 48.3255 40.3866C49.6139 40.2388 39.2053 39.9927 40.505 40.1283C41.0429 40.1843 41.559 40.1056 42.1025 40.1088C42.7752 40.1121 43.4471 40.1153 44.1198 40.1185C49.6637 40.1486 34.5734 40.1673 40.1117 39.9732C42.4501 39.8944 44.7942 39.7734 47.1326 39.6101C48.3689 39.5256 49.6059 39.4282 50.8422 39.3258C51.4571 39.2714 52.0728 39.2105 52.6942 39.1561C54.5574 38.9742 56.4391 38.9863 58.3087 38.8474C59.4278 38.763 60.5998 38.6355 61.5439 37.9995C62.0833 37.6365 62.5112 37.0671 62.6982 36.4255C62.7922 36.1169 62.8275 35.7839 62.7745 35.463C62.7456 35.3055 62.6869 35.1601 62.6805 35.0091C62.6685 34.4584 62.6685 33.9012 62.6629 33.3505C62.6572 32.4912 62.7448 31.601 62.6276 30.7531C62.6155 30.6565 62.5978 30.5533 62.5336 30.4867C62.4806 30.4323 62.4044 30.408 62.3281 30.3836C62.0118 30.2926 61.7012 30.2016 61.3905 30.1115C61.8063 29.8995 62.2695 29.6453 62.4164 29.1913C62.487 28.9858 62.4806 28.7673 62.475 28.5553C62.463 28.0404 62.4453 27.5084 62.2527 27.0357C62.0536 26.5638 62.0183 26.1756 61.5374 26.0367C59.0761 25.3341 56.4038 24.6747 53.8132 24.1597C56.7201 24.3774 59.6204 24.6804 62.5096 25.0621C62.8492 25.1043 63.2248 25.1709 63.4239 25.4552C63.5764 25.6729 63.582 25.9636 63.582 26.23C63.582 27.4166 63.57 28.6033 63.623 29.7899C63.7049 31.5458 63.8108 33.301 63.9336 35.0569C64.1038 37.4424 62.3338 39.5062 60.0186 39.6093L60.0226 39.6101Z"
          fill="#F98C3A"/>
    <defs>
        <linearGradient id="paint0_linear_920_39266" x1="55.9901" y1="-43.6049" x2="40.0244" y2="-1.13757"
                        gradientUnits="userSpaceOnUse">
            <stop stop-color="#DF5212"/>
            <stop offset="1" stop-color="#610F3F"/>
        </linearGradient>
        <linearGradient id="paint1_linear_920_39266" x1="38.994" y1="-12.4019" x2="23.0547" y2="70.6882"
                        gradientUnits="userSpaceOnUse">
            <stop stop-color="#DF5212"/>
            <stop offset="1" stop-color="#610F3F"/>
        </linearGradient>
        <linearGradient id="paint2_linear_920_39266" x1="55.9901" y1="-43.6049" x2="40.0244" y2="-1.13757"
                        gradientUnits="userSpaceOnUse">
            <stop stop-color="#DF5212"/>
            <stop offset="1" stop-color="#610F3F"/>
        </linearGradient>
        <linearGradient id="paint3_linear_920_39266" x1="38.994" y1="-12.4019" x2="23.0547" y2="70.6882"
                        gradientUnits="userSpaceOnUse">
            <stop stop-color="#DF5212"/>
            <stop offset="1" stop-color="#610F3F"/>
        </linearGradient>
    </defs>
</svg>
