<svg width="62" height="62" viewBox="0 0 62 62" fill="none" xmlns="http://www.w3.org/2000/svg">
    <path d="M61.9226 49.3975C61.8436 48.1176 61.7714 46.8357 61.7051 45.5548C61.6364 44.2048 61.5659 42.8548 61.5005 41.5048C61.4564 40.5824 61.3927 39.603 61.3732 38.6576C61.357 37.8634 61.6288 36.5605 61.268 35.8494C61.0523 35.4228 60.5862 35.2976 60.1718 35.2125C59.6276 35.1003 59.0834 34.9872 58.5392 34.875C59.2693 34.6767 59.9875 34.4213 60.688 34.1109C60.8451 34.0418 61.0081 33.9626 61.1117 33.8064C61.2042 33.6672 61.2348 33.4859 61.2585 33.3117C61.5014 31.5551 61.3477 29.6893 61.3409 27.9147C61.3341 26.103 61.3282 24.2913 61.3215 22.4797C61.3113 20.7561 61.3078 19.0315 61.2968 17.307C61.2925 16.7362 61.4954 15.4963 61.2585 14.9926C61.0633 14.577 60.6142 14.604 60.2551 14.5589C59.8951 14.5139 59.5316 14.5139 59.1708 14.5399C58.6308 14.579 58.095 14.6751 57.561 14.7733C58.2606 14.5429 58.9849 14.4338 59.6904 14.2325C60.1481 14.1023 60.6006 13.93 61.0175 13.6696C61.2688 13.5124 61.5506 13.3622 61.695 13.0557C61.7553 12.9275 61.7824 12.7643 61.8096 12.6221C61.8682 12.3046 61.8878 11.9781 61.9048 11.6546C61.9515 10.7613 61.9802 9.867 61.9921 8.97268C61.9981 8.52101 62.004 8.06834 61.9964 7.61667C61.9913 7.32223 61.8971 7.04582 61.875 6.75038C61.7825 5.53258 61.3664 4.36287 60.6982 3.42848C60.0334 2.49911 59.1317 1.8191 58.1341 1.50864C57.7648 1.39347 57.3836 1.32838 57.0015 1.31336C12.0106 -0.404185 50.2601 -0.464281 7.093 1.29933C6.92489 1.30634 6.73641 1.2873 6.5751 1.33738C6.39934 1.39246 6.22519 1.47358 6.05284 1.54469C5.69794 1.6919 5.34649 1.85214 5.00687 2.04342C4.34716 2.41598 3.72483 2.91672 3.29946 3.63078C3.05493 4.04038 2.88597 4.50307 2.65842 4.92569C2.5438 5.13801 2.39095 5.30224 2.29671 5.52457C1.83992 6.60417 1.37889 7.69579 0.748902 8.65321C0.133345 9.58759 -0.0559638 11.0638 0.0136578 12.2075C0.108751 13.7638 0.140155 15.3371 0.257323 16.8864C0.444113 19.362 0.272615 21.8407 0.500159 24.3314C0.532422 24.6879 0.582488 25.0785 0.810881 25.3159C0.967954 25.4781 1.18107 25.5362 1.38569 25.5893C2.04964 25.7605 2.71448 25.9308 3.37843 26.102C2.55656 26.7299 1.33054 26.778 0.897526 27.8136C0.758283 28.147 0.733666 28.5286 0.71159 28.9002C0.633478 30.2251 0.528151 31.5481 0.452586 32.874C0.418625 33.4699 0.390591 34.0658 0.37361 34.6617C0.357478 35.2325 0.316729 35.7753 0.271729 36.3422C0.166448 37.6571 -0.117988 39.3746 0.223328 40.6615C0.553606 41.9054 1.86876 41.9575 2.77979 42.2589C2.30093 42.323 1.93335 42.7827 1.65402 43.2464C1.51308 43.4797 1.41372 43.7291 1.27873 43.9674C1.16071 44.1767 1.0529 44.3931 0.955255 44.6164C0.759126 45.0621 0.603754 45.5328 0.490831 46.0175C0.415266 46.343 0.37194 46.5963 0.359204 46.9338C0.348166 47.2343 0.33714 47.5357 0.3278 47.8362C0.309121 48.4381 0.293773 49.0399 0.281886 49.6428C0.258962 50.8466 0.252253 52.0514 0.260743 53.2562C0.268384 54.4219 0.0349005 55.5526 0.455177 56.7033C0.87036 57.841 1.58603 58.8254 2.48347 59.4694C3.21025 59.9911 4.03049 60.2705 4.87784 60.3256C48.2937 62.577 10.0552 62.5439 54.8771 60.3116C56.0607 60.2525 57.2027 59.6947 58.0738 58.7473C58.4932 58.2916 58.8567 57.891 59.1674 57.3212C59.547 56.6272 59.9018 55.9151 60.2321 55.187C61.0387 53.4114 62.0491 51.4505 61.9226 49.3975Z"
          fill="url(#paint0_linear_919_10704)"/>
    <path d="M56.4838 55.8119C11.6593 58.0382 49.9011 58.0723 6.48777 55.8209C4.55704 55.8209 2.75618 54.1915 2.04044 52.1355C1.72205 51.2311 1.64986 50.2337 1.7008 49.2612C1.70844 49.091 1.7229 48.9197 1.7662 48.7495C1.83158 48.4851 1.9326 48.2547 1.96146 47.9813C1.9759 47.8361 1.99035 47.6999 2.00479 47.5547C2.07696 46.7786 2.09899 45.9854 2.15673 45.2092C2.19324 44.7746 2.23655 44.3139 2.33758 43.8953C2.45305 43.4096 2.64159 42.9659 2.98121 42.6665C4.41355 41.4036 7.20434 41.4206 9.28789 41.3696C9.69289 41.3525 10.069 41.3435 10.4086 41.3185C11.3128 41.2504 12.2162 41.2243 13.1281 41.2334C10.98 41.2243 8.83191 41.003 6.72034 40.5684C5.71507 40.3721 4.71749 40.1167 3.73345 39.8173C3.49487 39.7492 3.24184 39.655 3.01769 39.5268C2.70694 39.3646 2.43948 39.1262 2.30193 38.7677C2.18646 38.4603 2.19324 38.1198 2.20088 37.7953C2.20852 37.4798 2.17204 37.1553 2.18647 36.8399C2.20855 36.1659 2.28068 35.5089 2.33841 34.8439C2.39615 34.3061 2.44718 33.7603 2.47605 33.2145C2.54822 31.7643 2.62796 30.3222 2.7222 28.8811C2.75107 28.4464 2.79435 27.9687 3.055 27.6613C3.21377 27.474 3.41675 27.3799 3.61882 27.2947C4.16815 27.0564 4.7328 26.8771 5.311 26.766C5.57845 26.7059 5.86799 26.7059 6.12864 26.6207C6.4326 26.5096 6.67108 26.4335 7.00391 26.3904C10.1717 25.9558 13.3319 25.5201 16.4997 25.0855C16.8758 25.0344 17.2588 24.9833 17.6349 24.9323C12.8616 24.2502 8.08814 23.5502 3.31566 22.8682C3.10595 22.8341 2.89626 22.8081 2.68655 22.774C2.49891 22.748 2.29596 22.714 2.16605 22.5527C2.15162 22.5437 2.14403 22.5267 2.13724 22.5187C2.043 22.3735 2.02855 22.1862 2.01411 21.9979C1.79761 18.9524 2.04299 15.8138 1.89866 12.7422C1.88422 12.572 1.84775 11.7097 1.80444 10.7372C1.73907 9.33017 1.6601 7.70877 1.62359 7.70877C1.42067 4.33077 3.61963 1.41347 6.49025 1.3023C49.6514 -0.46331 11.402 -0.404227 56.3929 1.31031C59.2788 1.42147 61.499 4.35581 61.2749 7.75084C61.1951 8.91055 61.3903 10.0202 61.1517 11.1889C61.1008 11.4623 61.0219 11.7437 60.8479 11.931C60.6891 12.0933 60.4793 12.1523 60.2696 12.2124C59.7271 12.3657 59.1845 12.5279 58.6352 12.6821C57.9118 12.8864 57.1961 13.0747 56.4659 13.1678C52.1265 13.7137 47.7946 14.2595 43.4628 14.8143C43.3473 14.8233 43.231 14.8403 43.1156 14.8573C42.978 14.8744 42.8337 14.8914 42.6961 14.9084C43.0434 14.9004 43.383 14.8914 43.7303 14.8914C49.1616 14.7802 54.6074 14.6781 60.0387 14.5669C60.1907 14.5669 60.357 14.5669 60.4801 14.6781C60.6177 14.7973 60.6534 15.0196 60.6755 15.2239C60.7044 15.4973 60.712 15.7617 60.7043 16.0171C60.6967 16.8273 60.5744 17.6124 60.5744 18.4396C60.5744 19.1737 60.7264 19.8898 60.7187 20.6319C60.7043 21.7065 60.6754 22.7901 60.6389 23.8907C60.5523 26.3564 60.4072 28.8551 60.1762 31.3207C60.1397 31.6792 60.0964 32.0628 59.8943 32.3272C59.7356 32.5315 59.5038 32.6427 59.2796 32.7278C59.1421 32.7879 58.9977 32.839 58.8525 32.873C55.6635 33.9476 52.163 33.0943 48.8865 33.7603C48.6691 33.7943 48.4526 33.8454 48.2429 33.9055C48.1707 33.9225 48.0985 33.9486 48.0264 33.9656C48.2938 33.9916 48.5613 34.0087 48.8288 34.0427C52.416 34.3502 55.9955 34.7768 59.5606 35.3136C59.98 35.3737 60.4429 35.4668 60.6891 35.8684C60.8767 36.1759 60.8843 36.5855 60.8843 36.96V38.2059C60.8843 39.4597 60.8843 40.7226 60.9352 41.9765C61.0006 43.6399 61.0872 45.2944 61.1815 46.9578C61.2248 47.768 61.2681 48.5872 61.319 49.3974C61.5287 52.7584 59.345 55.6677 56.488 55.8119H56.4838Z"
          fill="url(#paint1_linear_919_10704)"/>
    <path d="M60.3306 22.2894C60.3646 21.1877 60.3985 20.1061 60.407 19.0346C60.4155 18.2935 60.2626 17.5724 60.2626 16.8413C60.2626 16.0802 60.3645 15.3691 60.39 14.6281C60.424 14.6381 60.4494 14.6581 60.4749 14.6781C60.6107 14.7983 60.6447 15.0186 60.6702 15.2189C60.6956 15.4993 60.7041 15.7597 60.6957 16.0201C60.6872 16.8313 60.5683 17.6125 60.5683 18.4437C60.5683 19.1748 60.7211 19.8858 60.7127 20.6369C60.6957 21.7085 60.6702 22.7901 60.6363 23.8918C60.5429 26.3554 60.3985 28.8591 60.1693 31.3227C60.1353 31.6833 60.0929 32.0638 59.8891 32.3242C59.7278 32.5345 59.4986 32.6447 59.2693 32.7248C59.1335 32.7849 58.9891 32.835 58.8448 32.875C57.3335 33.7113 48.2937 33.9957 48.022 33.9656C48.0984 33.9556 55.3551 32.3543 58.5476 31.2727C58.6919 31.2426 58.8362 31.1925 58.9721 31.1325C59.1928 31.0423 59.4221 30.9322 59.5835 30.7319C59.7872 30.4615 59.8296 30.0809 59.8636 29.7204C60.1013 27.2567 60.2457 24.753 60.3306 22.2894Z"
          fill="#F98C3A"/>
    <path d="M42.6926 14.9085C42.8285 14.8985 54.7915 11.7869 56.1534 11.5736C56.8903 11.4584 57.6053 11.2831 58.327 11.0828C58.8789 10.9326 59.4222 10.7724 59.9656 10.6121C60.1693 10.552 60.3817 10.4919 60.543 10.3317C60.7128 10.1414 60.7892 9.86102 60.8401 9.59062C61.0863 8.41889 60.8911 7.31725 60.9675 6.15554C60.9845 5.83506 60.9845 5.51459 60.9675 5.20413C61.2222 5.98529 61.3326 6.84655 61.2731 7.74789C61.1882 8.90961 61.3835 10.0213 61.1458 11.193C61.0948 11.4634 61.0184 11.7438 60.8401 11.9341C60.6873 12.0943 60.475 12.1544 60.2627 12.2145C59.7193 12.3647 59.176 12.525 58.6326 12.6852C58.1911 12.8054 57.7581 12.9256 57.3166 13.0157C52.5772 13.6576 43.0407 14.8985 42.6926 14.9085Z"
          fill="#F98C3A"/>
    <path d="M56.4844 55.8089C11.6549 58.0423 49.8958 58.0723 6.48418 55.819C4.55685 55.819 2.75688 54.1866 2.0352 52.1335C1.83991 51.5827 1.73801 51.0018 1.69556 50.401C1.70405 50.451 1.72107 50.4911 1.73805 50.5412C2.45125 52.5942 4.2512 54.2266 6.17854 54.2266C49.5987 56.4699 11.3577 56.4399 56.1788 54.2166C59.0316 54.0664 61.222 51.1621 61.0098 47.7971C60.9588 46.9859 60.9165 46.1647 60.874 45.3635C60.7806 43.691 60.6957 42.0386 60.6278 40.3761C60.5768 39.1243 60.5768 37.8624 60.5768 36.6106V35.7192C60.6192 35.7693 60.6532 35.8194 60.6871 35.8695C60.8739 36.1699 60.8824 36.5805 60.8824 36.9611V38.2029C60.8824 39.4548 60.8825 40.7166 60.9334 41.9785C60.9928 43.641 61.0778 45.2934 61.1712 46.9559C61.2221 47.7671 61.2645 48.5883 61.3154 49.3995C61.5192 52.7544 59.3372 55.6687 56.4844 55.8089Z"
          fill="#F98C3A"/>
    <path d="M17.6323 24.9313C17.2502 24.9814 10.7058 27.2667 7.5304 27.6974C7.19927 27.7374 6.96151 27.8176 6.65586 27.9277C6.40115 28.0078 6.1124 28.0078 5.84071 28.0679C5.26336 28.1881 4.70299 28.3584 4.15112 28.5987C3.94735 28.6888 3.74364 28.779 3.58232 28.9693C3.32761 29.2797 3.28514 29.7504 3.25118 30.1911C3.15779 31.6332 3.08134 33.0753 3.00493 34.5175C2.97946 35.0683 2.92848 35.6091 2.86905 36.1499C2.80962 36.8209 2.74175 37.4718 2.71628 38.1428C2.6993 38.4633 2.74177 38.7838 2.73328 39.1043C2.73328 39.2244 2.72479 39.3446 2.73328 39.4648C2.46158 39.3146 2.22386 39.0942 2.10499 38.7637C1.98613 38.4633 1.99462 38.1228 2.00311 37.7923C2.0116 37.4818 1.97762 37.1514 1.98612 36.8409C2.01159 36.1699 2.08794 35.5089 2.13889 34.848C2.19832 34.3072 2.2493 33.7563 2.28326 33.2155C2.35118 31.7634 2.42763 30.3213 2.52952 28.8791C2.55499 28.4485 2.59745 27.9678 2.86066 27.6573C3.01348 27.4771 3.21718 27.3769 3.42095 27.2968C3.97283 27.0564 4.53319 26.8762 5.11054 26.766C5.38223 26.7059 5.67099 26.7059 5.93419 26.6158C6.23136 26.5056 6.4775 26.4355 6.80863 26.3854C8.93124 26.095 15.9597 24.6909 17.6323 24.9313Z"
          fill="#F98C3A"/>
    <path d="M60.5872 4.69336C59.7041 3.47155 58.3966 2.67036 56.9192 2.62028C11.9284 0.90775 50.1778 0.847667 7.02087 2.61027C4.1511 2.72044 1.95209 5.63474 2.15586 9.01975C2.18982 9.01975 2.2662 10.6321 2.33413 12.0442C2.37658 13.0157 2.41063 13.8769 2.42761 14.0472C2.56346 16.9415 2.35118 19.8958 2.5125 22.7701H2.487C2.30021 22.7501 2.09645 22.71 1.96909 22.5498C1.95211 22.5397 1.9436 22.5297 1.9436 22.5197C1.84171 22.3695 1.8332 22.1892 1.81622 21.999C1.60396 18.9544 1.84168 15.8098 1.69734 12.7453C1.68885 12.575 1.64641 11.7137 1.60396 10.7323C1.54453 9.33021 1.45966 7.70781 1.42569 7.70781C1.22192 4.33282 3.42093 1.4085 6.2907 1.29834C49.4561 -0.464271 11.2067 -0.404188 56.1976 1.30835C58.1504 1.37845 59.806 2.7605 60.5872 4.69336Z"
          fill="#F98C3A"/>
    <defs>
        <linearGradient id="paint0_linear_919_10704" x1="57.7834" y1="-54.4301" x2="34.5823" y2="-1.49518"
                        gradientUnits="userSpaceOnUse">
            <stop stop-color="#DF5212"/>
            <stop offset="1" stop-color="#610F3F"/>
        </linearGradient>
        <linearGradient id="paint1_linear_919_10704" x1="38.4959" y1="-15.1651" x2="13.9396" y2="94.6355"
                        gradientUnits="userSpaceOnUse">
            <stop stop-color="#DF5212"/>
            <stop offset="1" stop-color="#610F3F"/>
        </linearGradient>
    </defs>
</svg>
